<svg width="565" height="367" viewBox="0 0 565 367" fill="none" xmlns="http://www.w3.org/2000/svg">
<path d="M497.913 361.496C501.544 348.21 513.37 303.622 521.391 258.438C530.978 204.52 539.36 130.224 501.034 99.0602C462.708 67.9088 412.395 105.057 386.044 93.0638C359.693 81.0834 358.5 21.1691 287.829 3.19233C217.159 -14.7845 177.627 47.5309 146.489 81.0834C115.35 114.636 80.6059 91.8695 35.0923 127.823C-9.92378 163.379 7.12447 324.361 40.414 361.496H497.913Z" fill="#92C3FF"/>
<path opacity="0.7" d="M497.913 361.497C501.544 348.21 513.37 303.623 521.391 258.438C530.979 204.52 539.36 130.224 501.034 99.0605C462.709 67.909 412.395 105.057 386.044 93.064C359.694 81.0837 358.5 21.1694 287.83 3.19257C217.159 -14.7842 177.627 47.5312 146.489 81.0837C115.351 114.636 80.6063 91.8697 35.0928 127.823C-9.92331 163.379 7.12501 324.361 40.4146 361.497H497.913Z" fill="white"/>
<path opacity="0.7" d="M402.267 240.258L402.267 95.8828" stroke="#8B8D8E" stroke-width="0.5" stroke-miterlimit="10"/>
<path opacity="0.7" d="M193.97 240.258L193.97 30.8589" stroke="#8B8D8E" stroke-width="0.5" stroke-miterlimit="10"/>
<path opacity="0.7" d="M60.6156 125.64H520.192" stroke="#8B8D8E" stroke-width="0.5" stroke-miterlimit="10"/>
<g opacity="0.7">
<path d="M210.57 105.082L205.161 108.416" stroke="#8B8D8E" stroke-width="0.5" stroke-miterlimit="10"/>
<path d="M301.672 48.9119L217.833 100.603" stroke="#8B8D8E" stroke-width="0.5" stroke-miterlimit="10"/>
<path d="M312.728 52.4077L245.564 93.8227" stroke="#8B8D8E" stroke-width="0.5" stroke-miterlimit="10"/>
<path d="M341.1 34.7163L321.78 46.8342" stroke="#8B8D8E" stroke-width="0.5" stroke-miterlimit="10"/>
</g>
<path d="M447.166 276.539L441.508 361.982C441.446 362.877 440.699 363.587 439.804 363.587C438.834 363.587 438.063 362.79 438.088 361.82L440.438 276.539H447.166Z" fill="#181818" stroke="#181818" stroke-linecap="round" stroke-linejoin="round"/>
<path d="M461.628 276.539L467.286 361.982C467.348 362.877 468.095 363.587 468.99 363.587C469.96 363.587 470.731 362.79 470.706 361.82L468.356 276.539H461.628Z" fill="#181818" stroke="#181818" stroke-linecap="round" stroke-linejoin="round"/>
<path d="M404.911 276.539L410.569 361.982C410.631 362.877 411.377 363.587 412.273 363.587C413.243 363.587 414.014 362.79 413.989 361.82L411.638 276.539H404.911Z" fill="#181818" stroke="#181818" stroke-linecap="round" stroke-linejoin="round"/>
<path d="M381.793 276.539L376.135 361.982C376.073 362.877 375.327 363.587 374.431 363.587C373.461 363.587 372.69 362.79 372.715 361.82L375.065 276.539H381.793Z" fill="#181818" stroke="#181818" stroke-linecap="round" stroke-linejoin="round"/>
<path d="M480.368 190.313C480.368 190.313 423.911 188.21 419.136 188.21C414.361 188.21 413.254 190.313 413.254 190.313L405.196 247.167C405.196 247.167 380.139 240.001 375.214 240.896C370.29 241.792 377.639 277.509 377.639 277.509H406.005C406.005 277.509 406.191 276.738 406.514 275.37H470.519L487.519 194.356C486.499 190.723 480.356 190.325 480.356 190.325L480.368 190.313Z" fill="white" stroke="#181818" stroke-linecap="round" stroke-linejoin="round"/>
<path d="M458.868 225.906C458.868 225.906 464.613 263.178 458.035 267.582C457.015 268.266 451.481 271.438 446.296 270.916C442.155 270.505 412.807 270.916 412.807 270.916C412.807 270.916 408.728 263.153 407.907 257.43C407.087 251.707 413.503 227.15 413.503 227.15L458.88 225.906H458.868Z" fill="white" stroke="#181818" stroke-linecap="round" stroke-linejoin="round"/>
<path d="M410.817 245.897C410.817 245.897 368.35 250.301 366.336 251.508C364.334 252.715 355.119 260.727 356.723 265.939C358.327 271.152 354.323 271.55 357.929 272.359C361.536 273.155 413.217 273.155 413.217 273.155" fill="#151515"/>
<path d="M410.817 245.897C410.817 245.897 368.35 250.301 366.336 251.508C364.334 252.715 355.119 260.727 356.723 265.939C358.327 271.152 354.323 271.55 357.929 272.359C361.536 273.155 413.217 273.155 413.217 273.155" stroke="#181818" stroke-linecap="round" stroke-linejoin="round"/>
<path d="M372.181 277.509H473.119V269.97H372.181V277.509Z" fill="white" stroke="#181818" stroke-linecap="round" stroke-linejoin="round"/>
<path d="M449.28 247.502H388.471C388.471 247.502 385.263 251.11 384.865 258.724C384.467 266.338 385.263 267.942 390.871 269.945C396.48 271.948 446.296 270.903 446.296 270.903" fill="#151515"/>
<path d="M449.28 247.502H388.471C388.471 247.502 385.263 251.11 384.865 258.724C384.467 266.338 385.263 267.942 390.871 269.945C396.48 271.948 446.296 270.903 446.296 270.903" stroke="#181818" stroke-linecap="round" stroke-linejoin="round"/>
<path d="M401.353 344.042L394.987 328.964L384.553 330.979L392.537 344.44L387.936 353.659L378 360.165C378 360.165 376.856 361.31 381.818 360.924C386.792 360.539 397.113 360.924 397.113 360.924L403.617 353.273C403.617 353.273 405.967 349.329 401.353 344.03V344.042Z" fill="white" stroke="#222222" stroke-linecap="round" stroke-linejoin="round"/>
<path d="M404.152 350.636L404.413 360.514H402.847L400.77 355.575L404.152 350.636Z" fill="#222222" stroke="#222222" stroke-linecap="round" stroke-linejoin="round"/>
<path d="M397.125 360.924L403.629 353.273C403.629 353.273 405.32 350.424 402.995 346.319C398.369 354.231 392.213 356.607 392.213 356.607L385.809 355.065L378.012 360.165C378.012 360.165 376.868 361.31 381.83 360.924C386.804 360.539 397.125 360.924 397.125 360.924Z" fill="#222222" stroke="#222222" stroke-linecap="round" stroke-linejoin="round"/>
<path d="M376.359 267.146L397.686 331.651L382.54 334.339L352.707 267.146C352.707 267.146 350.307 257.119 356.711 253.922C363.128 250.712 381.955 249.107 381.955 249.107" fill="#151515"/>
<path d="M376.359 267.146L397.686 331.651L382.54 334.339L352.707 267.146C352.707 267.146 350.307 257.119 356.711 253.922C363.128 250.712 381.955 249.107 381.955 249.107" stroke="#222222" stroke-linecap="round" stroke-linejoin="round"/>
<path d="M444.754 277.497C444.754 277.497 437.405 241.78 442.329 240.884C447.254 239.988 472.311 247.154 472.311 247.154L480.369 190.3C480.369 190.3 488.875 188.957 489.77 196.57C490.666 204.184 473.132 277.497 473.132 277.497H444.766H444.754Z" fill="#181818" stroke="#181818" stroke-linecap="round" stroke-linejoin="round"/>
<path d="M358.228 172.336L354.436 166.078C353.702 164.859 352.371 164.125 350.954 164.15L347.385 164.212L341.279 162.396C340.483 162.159 339.637 162.433 339.115 163.08L338.891 163.366L344.512 165.867L338.904 168.019L332.947 164.996C332.462 164.747 331.865 164.884 331.542 165.319C331.169 165.804 331.268 166.514 331.753 166.887L340.073 173.331C340.607 173.742 341.291 173.903 341.95 173.766L351.153 171.913L353.727 174.724L358.241 172.348L358.228 172.336Z" fill="white" stroke="#181818" stroke-linecap="round" stroke-linejoin="round"/>
<path d="M422.47 159.572L388.297 195.314L355.691 168.952L351.202 172.224L387.078 212.893L418.167 196.123L422.47 159.572Z" fill="#5683FA" stroke="#181818" stroke-linecap="round" stroke-linejoin="round"/>
<path d="M473.578 168.703L491.485 223.753L476.04 224.201L460.683 198.374C460.683 198.374 469.313 172.311 473.578 168.703Z" fill="#5683FA" stroke="#181818" stroke-linecap="round" stroke-linejoin="round"/>
<path d="M454.092 159.186L473.578 168.703L457.263 214.348L459.19 227.075L413.49 227.15L418.937 206.647L415.206 193.51C414.721 191.806 414.696 190.002 415.132 188.285L422.444 159.572L441.656 156.536L454.054 159.186H454.092Z" fill="#5683FA" stroke="#181818" stroke-linecap="round" stroke-linejoin="round"/>
<path d="M453.16 156.573C453.16 156.573 456.99 159.161 457.115 161.463C457.177 162.819 457.09 165.232 457.003 167.011C456.928 168.429 456.605 169.823 456.045 171.141L449.144 179.477L441.16 173.169L434.532 176.553C434.532 176.553 433.313 166.377 436.186 159.286C439.071 152.194 451.693 154.794 453.173 156.573H453.16Z" fill="white" stroke="#181818" stroke-linecap="round" stroke-linejoin="round"/>
<path d="M458.644 136.855C458.644 136.855 457.077 142.491 456.344 146.235C455.61 149.98 454.13 157.457 454.279 160.231C454.429 163.005 442.627 174.949 441.148 173.17C439.668 171.39 438.113 161.052 438.113 161.052L439.581 144.307C439.581 144.307 454.914 127.326 458.644 136.855Z" fill="white" stroke="#181818" stroke-linecap="round" stroke-linejoin="round"/>
<path d="M434.022 128.134C434.022 128.134 431.92 131.593 431.92 133.073C431.92 134.554 432.666 137.527 432.542 138.385C432.418 139.256 430.316 142.093 430.067 143.088C429.819 144.083 430.192 144.817 430.938 145.19C431.684 145.564 432.418 146.061 432.418 146.061C432.418 146.061 433.04 153.725 434.022 155.703C435.004 157.681 435.875 158.552 438.847 158.788C441.806 159.037 448.857 155.939 449.84 153.476C450.822 151 450.946 148.039 451.071 144.456C451.195 140.874 448.721 135.798 446.868 130.859C445.015 125.92 437.23 123.32 434.022 128.134Z" fill="white" stroke="#181818" stroke-linecap="round" stroke-linejoin="round"/>
<path d="M465.932 153.451C471.172 153.451 475.42 149.201 475.42 143.959C475.42 138.716 471.172 134.467 465.932 134.467C460.692 134.467 456.444 138.716 456.444 143.959C456.444 149.201 460.692 153.451 465.932 153.451Z" fill="#181818" stroke="#181818" stroke-linecap="round" stroke-linejoin="round"/>
<path d="M433.972 127.612C433.972 127.612 437.79 124.327 444.667 130.871C451.544 137.415 448.92 146.907 453.496 148.873C458.072 150.838 466.578 141.023 467.56 136.109C468.543 131.195 465.596 121.056 456.431 119.09C447.266 117.124 436.037 118.468 433.96 127.612H433.972Z" fill="#181818" stroke="#181818" stroke-linecap="round" stroke-linejoin="round"/>
<path d="M433.973 127.612C433.973 127.612 433.537 121.702 439.755 122.026C445.973 122.349 446.632 132.177 449.902 136.096C453.173 140.027 454.814 139.368 454.814 139.368C454.814 139.368 449.256 141.01 445.65 139.045C442.056 137.079 440.302 125.982 433.973 127.599V127.612Z" fill="#181818" stroke="#181818" stroke-linecap="round" stroke-linejoin="round"/>
<path d="M444.182 120.881C444.182 120.881 448.759 123.344 451.581 129.341C454.404 135.337 454.404 140.276 461.094 139.915C461.094 139.915 457.923 140.624 452.987 138.149C448.05 135.686 446.993 128.632 443.822 125.808C440.651 122.984 437.48 122.984 437.48 122.984" stroke="white" stroke-width="0.25" stroke-linecap="round" stroke-linejoin="round"/>
<path d="M467.573 136.109C467.573 136.109 467.287 145.091 460.398 146.982" stroke="white" stroke-width="0.25" stroke-linecap="round" stroke-linejoin="round"/>
<path d="M448.348 145.277C448.348 145.277 454.901 136.693 456.455 143.113C458.01 149.532 452.775 151.1 450.288 150.353C447.8 149.607 448.136 148.301 448.136 148.301" fill="white"/>
<path d="M448.348 145.277C448.348 145.277 454.901 136.693 456.455 143.113C458.01 149.532 452.775 151.1 450.288 150.353C447.8 149.607 448.136 148.301 448.136 148.301" stroke="#181818" stroke-linecap="round" stroke-linejoin="round"/>
<path d="M433.735 218.839C433.735 218.839 421.2 220.581 419.111 220.581C417.022 220.581 411.799 227.199 411.799 227.199H434.78L433.735 218.839Z" fill="white" stroke="#181818" stroke-linecap="round" stroke-linejoin="round"/>
<path d="M486.984 210.404L491.485 220.543C492.368 223.131 490.453 225.806 487.73 225.831L433.387 226.142L433.735 218.827L475.867 212.158" fill="#5683FA"/>
<path d="M486.984 210.404L491.485 220.543C492.368 223.131 490.453 225.806 487.73 225.831L433.387 226.142L433.735 218.827L475.866 212.158" stroke="#181818" stroke-linecap="round" stroke-linejoin="round"/>
<path d="M414.25 350.636L414.499 360.514H412.944L410.868 355.575L414.25 350.636Z" fill="#222222" stroke="#222222" stroke-linecap="round" stroke-linejoin="round"/>
<path d="M411.451 344.042L409.462 329.636L399.029 330.308L402.635 344.44L398.034 353.659L388.098 360.165C388.098 360.165 386.954 361.31 391.916 360.924C396.89 360.539 407.211 360.924 407.211 360.924L413.715 353.273C413.715 353.273 416.065 349.33 411.451 344.03V344.042Z" fill="white" stroke="#222222" stroke-linecap="round" stroke-linejoin="round"/>
<path d="M407.224 360.924L413.727 353.273C413.727 353.273 415.418 350.424 413.093 346.319C408.467 354.231 402.312 356.607 402.312 356.607L395.907 355.065L388.11 360.165C388.11 360.165 386.966 361.31 391.928 360.924C396.902 360.539 407.224 360.924 407.224 360.924Z" fill="#222222" stroke="#222222" stroke-linecap="round" stroke-linejoin="round"/>
<path d="M406.689 256.037L411.141 332.323L397.014 332.659L383.236 263.352C383.236 263.352 383.497 250.165 387.712 248.647C391.928 247.129 403.12 248.759 403.12 248.759" fill="#151515"/>
<path d="M406.689 256.037L411.141 332.323L397.014 332.659L383.236 263.352C383.236 263.352 383.497 250.165 387.712 248.647C391.928 247.129 403.12 248.759 403.12 248.759" stroke="#222222" stroke-linecap="round" stroke-linejoin="round"/>
<path d="M344.872 91.832L362.431 141.035C362.431 141.035 360.106 152.169 353.154 151.709C346.19 151.249 344.338 141.495 342.485 140.102C340.632 138.709 337.846 128.034 337.846 128.034L344.885 91.832H344.872Z" fill="#5683FA" stroke="#181818" stroke-linecap="round" stroke-linejoin="round"/>
<path d="M299.496 81.9666L270.969 92.2674L281.913 171.403H333.383L344.873 91.832L314.095 82.1905L299.496 81.9666Z" fill="#5683FA" stroke="#181818" stroke-linecap="round" stroke-linejoin="round"/>
<path d="M302.231 95.5271L306.36 101.735L302.791 154.384L308.039 168.094L313.423 154.757L308.81 102.519L312.515 93.549L307.38 86.7937L302.231 95.5271Z" fill="#EFEFEF" stroke="#181818" stroke-linecap="round" stroke-linejoin="round"/>
<path d="M307.938 92.9641L300.589 98.4753L295.739 84.1064L299.109 76.8286L314.156 76.4678L317.825 79.7646L317.091 98.1021L307.938 92.9641Z" fill="white" stroke="#181818" stroke-linecap="round" stroke-linejoin="round"/>
<path d="M315.711 73.0963L314.555 82.3398L306.335 92.9765L300.179 82.2029V64.873C300.179 64.873 310.949 67.5727 315.711 73.0963Z" fill="white" stroke="#181818" stroke-linecap="round" stroke-linejoin="round"/>
<path d="M295.939 53.8878C295.939 45.4904 302.057 38.6853 309.605 38.6853C317.154 38.6853 321.357 45.8636 321.357 54.261C321.357 56.9731 320.797 61.6259 320.573 64.0892C320.188 68.319 318.907 70.1105 316.408 73.9049C308.213 86.3953 301.498 68.0951 298.041 61.9618C296.722 59.623 295.951 56.8487 295.951 53.8754L295.939 53.8878Z" fill="white" stroke="#181818" stroke-linecap="round" stroke-linejoin="round"/>
<path d="M315.563 56.5254L316.732 65.1965L312.666 65.0846" fill="white"/>
<path d="M315.563 56.5254L316.732 65.1965L312.666 65.0846" stroke="#181818" stroke-linecap="round" stroke-linejoin="round"/>
<path d="M324.64 55.02L305.092 55.1071C305.092 55.1071 304.209 57.6948 306.062 59.5484C307.28 60.7676 312.366 60.3571 313.162 60.0336C313.971 59.7102 314.455 56.1521 314.455 56.1521H315.91C315.91 56.1521 316.072 59.8719 318.174 60.1953C320.275 60.5188 322.974 60.4068 323.508 60.0336C325.772 58.4163 324.64 55.02 324.64 55.02Z" fill="white" stroke="#181818" stroke-linecap="round" stroke-linejoin="round"/>
<path d="M298.364 63.3802C298.364 63.3802 302.766 72.3997 303.798 75.5223C304.843 78.6449 310.053 81.0833 315.251 79.3416C320.462 77.5999 319.069 69.8494 319.069 69.8494C319.069 69.8494 313.523 65.097 312.478 66.1421C311.434 67.1871 305.875 71.703 305.539 70.658C305.191 69.613 302.766 63.3678 302.766 63.3678L301.635 58.9513L303.96 57.446C304.656 56.8613 304.793 55.8536 304.271 55.1072L303.177 53.5396C302.903 53.1415 302.803 52.6688 302.891 52.1961C303.177 50.8276 303.96 48.0284 305.776 47.2447C308.2 46.1996 311.284 47.7174 314.058 48.4141C316.831 49.1108 319.877 46.5978 319.877 46.5978L321.071 50.7405C321.071 50.7405 325.336 47.0581 326.729 41.1487C328.122 35.2394 313.883 32.8135 309.369 32.8135C304.855 32.8135 297.568 35.2394 295.479 41.8454C293.39 48.4514 297.133 62.2357 298.376 63.3927L298.364 63.3802Z" fill="#181818" stroke="#181818" stroke-linecap="round" stroke-linejoin="round"/>
<path d="M309.631 41.1238C309.631 41.1238 312.217 45.0053 308.822 45.8139C305.427 46.6226 298.812 43.7114 295.902 44.8435" stroke="white" stroke-width="0.25" stroke-miterlimit="10"/>
<path d="M303.811 49.683C303.811 49.683 298.476 49.036 296.387 51.3002" stroke="white" stroke-width="0.25" stroke-miterlimit="10"/>
<path d="M316.619 69.3022C316.619 69.3022 312.702 71.33 310.762 68.9041" stroke="white" stroke-width="0.5" stroke-linecap="round" stroke-linejoin="round"/>
<path d="M299.023 60.6308C299.023 60.6308 295.18 56.4009 295.18 61.0164C295.18 65.6319 296.337 65.6319 298.637 67.1746C300.95 68.7172 301.721 66.7889 301.721 66.7889" fill="white"/>
<path d="M299.023 60.6308C299.023 60.6308 295.18 56.4009 295.18 61.0164C295.18 65.6319 296.337 65.6319 298.637 67.1746C300.95 68.7172 301.721 66.7889 301.721 66.7889" stroke="#181818" stroke-linecap="round" stroke-linejoin="round"/>
<path d="M350.331 347.401H350.505L350.169 345.709L333.382 171.415H281.912L264.987 347.401H265.174L276.092 348.346C276.092 348.346 288.204 307.653 288.204 304.63C288.204 301.607 291.661 273.466 291.661 273.466L308.834 213.066L324.018 273.466C324.018 273.466 327.475 301.607 327.475 304.63C327.475 307.653 339.587 348.346 339.587 348.346L349.871 347.463H350.331V347.426V347.401Z" fill="#181818" stroke="#181818" stroke-linecap="round" stroke-linejoin="round"/>
<path d="M329.528 181.666L318.087 198.026" stroke="white" stroke-width="0.5" stroke-linecap="round" stroke-linejoin="round"/>
<path d="M323.396 185.348L316.445 196.806" stroke="white" stroke-width="0.5" stroke-linecap="round" stroke-linejoin="round"/>
<path d="M290.69 184.54L300.912 195.575" stroke="white" stroke-width="0.5" stroke-linecap="round" stroke-linejoin="round"/>
<path d="M289.87 188.621L304.594 203.35" stroke="white" stroke-width="0.5" stroke-linecap="round" stroke-linejoin="round"/>
<path d="M284.971 173.082H330.348" stroke="white" stroke-width="0.5" stroke-linecap="round" stroke-linejoin="round"/>
<path d="M265.174 347.388C265.174 347.388 258.62 352.551 254.84 353.97C251.059 355.388 243.984 359.157 243.984 359.157C243.984 359.157 243.984 361.521 250.114 361.521H274.177L273.742 347.388H265.174Z" fill="#181818" stroke="#181818" stroke-linecap="round" stroke-linejoin="round"/>
<path d="M274.102 358.946C262.5 359.593 250.748 358.896 245.277 358.486C244.493 358.896 243.996 359.157 243.996 359.157C243.996 359.157 243.996 361.521 250.127 361.521H274.189L274.114 358.958L274.102 358.946Z" fill="white" stroke="#181818" stroke-linecap="round" stroke-linejoin="round"/>
<path d="M349.337 347.388C349.337 347.388 355.89 352.551 359.671 353.97C363.439 355.388 370.527 359.157 370.527 359.157C370.527 359.157 370.527 361.521 364.396 361.521H340.334L340.769 347.388H349.337Z" fill="#181818" stroke="#181818" stroke-linecap="round" stroke-linejoin="round"/>
<path d="M340.408 358.946C352.011 359.593 363.762 358.896 369.234 358.486C370.017 358.896 370.514 359.157 370.514 359.157C370.514 359.157 370.514 361.521 364.384 361.521H340.321L340.396 358.958L340.408 358.946Z" fill="white" stroke="#181818" stroke-linecap="round" stroke-linejoin="round"/>
<path d="M270.969 92.2673L252.017 142.888H270.198L276.988 129.079L270.969 92.2673Z" fill="#5683FA" stroke="#181818" stroke-linecap="round" stroke-linejoin="round"/>
<path d="M353.863 135.051C346.29 131.928 321.954 130.361 320.673 130.361C319.28 130.361 279.848 127.114 276.602 126.653C273.356 126.193 269.638 133.62 269.638 133.62L286.799 133.16L307.678 137.34C307.678 137.34 349.896 152.654 353.142 151.721C353.527 151.609 353.913 151.361 354.286 151" fill="#5683FA"/>
<path d="M353.863 135.051C346.29 131.928 321.954 130.361 320.673 130.361C319.28 130.361 279.848 127.114 276.602 126.653C273.356 126.193 269.638 133.62 269.638 133.62L286.799 133.16L307.678 137.34C307.678 137.34 349.896 152.654 353.142 151.721C353.527 151.609 353.913 151.361 354.286 151" stroke="#181818" stroke-linecap="round" stroke-linejoin="round"/>
<path d="M265.472 132.675L330.882 126.181L331.343 131.754L274.749 148.922C274.749 148.922 264.54 151.249 256.656 149.855C248.772 148.462 252.477 140.575 254.33 135.934" fill="#5683FA"/>
<path d="M265.472 132.675L330.882 126.181L331.343 131.754L274.749 148.922C274.749 148.922 264.54 151.249 256.656 149.855C248.772 148.462 252.477 140.575 254.33 135.934" stroke="#181818" stroke-linecap="round" stroke-linejoin="round"/>
<path d="M330.882 126.181L343.404 125.72L347.122 133.135L331.342 131.742L330.882 126.181Z" fill="white" stroke="#181818" stroke-linecap="round" stroke-linejoin="round"/>
<path d="M414.3 235.335L424.994 362.566C425.106 363.375 425.889 363.91 426.66 363.723C427.319 363.574 427.767 362.94 427.693 362.255L420.418 235.323H414.3V235.335Z" fill="#181818" stroke="#181818" stroke-linecap="round" stroke-linejoin="round"/>
<path d="M486.089 235.335L496.808 363.002C496.92 363.81 497.703 364.345 498.474 364.159C499.133 364.009 499.581 363.375 499.506 362.691L492.207 235.335H486.076H486.089Z" fill="#181818" stroke="#181818" stroke-linecap="round" stroke-linejoin="round"/>
<path d="M189.829 235.335L184.183 361.459C184.121 362.143 184.568 362.778 185.24 362.94C186.023 363.126 186.794 362.604 186.894 361.795L195.934 235.335H189.829Z" fill="#181818" stroke="#181818" stroke-linecap="round" stroke-linejoin="round"/>
<path d="M123.66 235.336L118.039 361.036C117.977 361.721 118.424 362.355 119.096 362.517C119.879 362.703 120.65 362.181 120.75 361.372L129.753 235.336H123.66Z" fill="#181818" stroke="#181818" stroke-linecap="round" stroke-linejoin="round"/>
<path d="M500.054 228.282H119.668V239.205H500.054V228.282Z" fill="#001F44" stroke="#181818" stroke-linecap="round" stroke-linejoin="round"/>
<path d="M500.054 228.282H119.668V232.026H500.054V228.282Z" fill="#181818" stroke="#373737" stroke-linecap="round" stroke-linejoin="round"/>
<path d="M500.055 228.282H404.874V239.205H500.055V228.282Z" fill="#181818" stroke="#181818" stroke-linecap="round" stroke-linejoin="round"/>
<path d="M503.449 224.649H116.285V228.817H503.449V224.649Z" fill="#001F44" stroke="#181818" stroke-linecap="round" stroke-linejoin="round"/>
<path d="M503.438 224.649H408.842V228.817H503.438V224.649Z" fill="#181818" stroke="#181818" stroke-linecap="round" stroke-linejoin="round"/>
<path d="M202.526 224.276H254.481C254.879 224.276 255.24 224.039 255.401 223.666L269.789 190.848C270.087 190.176 269.59 189.429 268.869 189.429H216.914C216.516 189.429 216.155 189.666 215.993 190.039L201.606 222.858C201.307 223.529 201.805 224.276 202.526 224.276Z" fill="white" stroke="#181818" stroke-linecap="round" stroke-linejoin="round"/>
<path d="M207.388 221.713H251.72C252.056 221.713 252.367 221.514 252.504 221.203L264.777 193.199C265.026 192.627 264.616 191.992 263.994 191.992H219.662C219.326 191.992 219.015 192.191 218.878 192.502L206.605 220.506C206.356 221.078 206.766 221.713 207.388 221.713Z" fill="#535353" stroke="#181818" stroke-linecap="round" stroke-linejoin="round"/>
<path d="M255.202 222.099H177.145V224.649H255.202V222.099Z" fill="white" stroke="#181818" stroke-linecap="round" stroke-linejoin="round"/>
<path d="M255.202 222.099H217.361V224.649H255.202V222.099Z" fill="white" stroke="#181818" stroke-linecap="round" stroke-linejoin="round"/>
<path d="M280.283 204.346H266.517V224.699H280.283V204.346Z" fill="white" stroke="#181818" stroke-linecap="round" stroke-linejoin="round"/>
<path d="M279.662 221.924H278.219C277.598 221.924 277.088 221.414 277.088 220.792C277.088 220.17 277.598 219.66 278.219 219.66H279.662C280.843 219.66 281.813 218.69 281.813 217.508V212.569C281.813 211.387 280.843 210.417 279.662 210.417H277.809C277.187 210.417 276.677 209.907 276.677 209.285C276.677 208.663 277.187 208.153 277.809 208.153H279.662C282.099 208.153 284.089 210.143 284.089 212.581V217.52C284.089 219.959 282.099 221.949 279.662 221.949V221.924Z" fill="white" stroke="#181818" stroke-linecap="round" stroke-linejoin="round"/>
<path d="M387.837 224.276H335.882C335.484 224.276 335.124 224.039 334.962 223.666L320.574 190.848C320.276 190.176 320.773 189.429 321.495 189.429H373.45C373.848 189.429 374.208 189.666 374.37 190.039L388.758 222.858C389.056 223.529 388.559 224.276 387.837 224.276Z" fill="white" stroke="#181818" stroke-linecap="round" stroke-linejoin="round"/>
<path d="M335.161 224.649H413.218V222.099H335.161V224.649Z" fill="white" stroke="#181818" stroke-linecap="round" stroke-linejoin="round"/>
<path d="M335.161 224.649H388.981V222.099H335.161V224.649Z" fill="white" stroke="#181818" stroke-linecap="round" stroke-linejoin="round"/>
<path d="M355.53 203.064C356.363 204.582 355.854 206.473 354.374 207.294C352.894 208.103 351.016 207.531 350.183 206.013C349.35 204.495 349.86 202.604 351.339 201.783C352.819 200.974 354.697 201.547 355.53 203.064Z" fill="white" stroke="#181818" stroke-linecap="round" stroke-linejoin="round"/>
<path d="M270.533 179.75C270.533 179.75 268.954 181.33 266.578 184.104L270.533 179.75Z" fill="white"/>
<path d="M270.533 179.75C270.533 179.75 268.954 181.33 266.578 184.104" stroke="#181818" stroke-linecap="round" stroke-linejoin="round"/>
<path d="M270.285 182.96C270.285 182.96 268.357 186.866 267.163 188.658L270.285 182.96Z" fill="white"/>
<path d="M270.285 182.96C270.285 182.96 268.357 186.866 267.163 188.658" stroke="#181818" stroke-linecap="round" stroke-linejoin="round"/>
<path d="M4.36656 229.587C6.43084 230.483 11.4796 230.371 11.4796 230.371C11.5294 230.371 10.3977 227.062 10.2982 226.863C9.1915 224.549 5.68472 220.717 2.83701 221.103C0.785171 221.377 -0.358885 223.429 0.101225 225.37C0.57377 227.348 2.60074 228.816 4.35413 229.575L4.36656 229.587Z" fill="#181818"/>
<path d="M70.4735 212.407C67.6134 212.096 64.2185 216.015 63.1739 218.366C63.0869 218.565 62.0423 221.899 62.0921 221.899C62.0921 221.899 62.1418 221.899 62.1542 221.899C61.6071 222.509 61.035 223.181 60.4257 223.915C59.3065 225.283 58.063 226.851 56.807 228.642C55.551 230.434 54.2453 232.412 53.064 234.614C51.8702 236.828 50.7261 239.217 49.8556 241.829C49.8556 241.854 49.8432 241.891 49.8308 241.916C49.8432 241.07 49.8059 238.719 49.781 238.532C49.4453 235.982 47.3188 231.255 44.496 230.732C42.4566 230.359 40.7405 231.951 40.5664 233.929C40.4047 235.957 41.8721 237.973 43.3022 239.254C44.9188 240.697 49.3955 242.09 49.7437 242.202C48.9478 244.703 48.3261 247.328 47.8535 250.015C47.58 251.558 47.3561 253.113 47.1447 254.68C47.1447 253.946 47.1198 253.299 47.1074 253.212C46.7717 250.662 44.6452 245.935 41.8224 245.412C39.783 245.039 38.0669 246.631 37.8928 248.609C37.7311 250.637 39.1985 252.653 40.6286 253.934C42.0835 255.228 45.8763 256.497 46.8836 256.82C46.809 257.417 46.7343 258.027 46.6597 258.624C46.3115 261.51 45.9882 264.397 45.5654 267.208C45.4162 268.203 45.2421 269.174 45.068 270.144C45.068 269.497 45.0431 268.95 45.0307 268.875C44.6949 266.325 42.5685 261.597 39.7457 261.075C37.7063 260.702 35.9902 262.294 35.8161 264.272C35.6544 266.3 37.1218 268.315 38.5519 269.597C39.9322 270.828 43.4265 272.035 44.6203 272.421C44.4089 273.416 44.1975 274.411 43.9488 275.357C43.7623 276.004 43.6379 276.638 43.4141 277.273C43.2027 277.907 43.0037 278.542 42.8048 279.164C42.3695 280.346 41.9343 281.577 41.4866 282.722C41.1757 283.518 40.8773 284.277 40.5664 285.048C40.7281 284.065 40.9892 282.125 40.9892 281.963C41.0265 280.258 40.4172 277.484 39.2234 275.531C39.2234 275.282 39.2234 275.033 39.1736 274.772C38.8627 272.806 37.0099 271.351 35.0078 271.886C32.2347 272.62 30.4689 277.509 30.3321 280.072C30.3321 280.221 30.4191 281.876 30.5062 282.921C30.3694 282.311 30.2326 281.726 30.0834 281.104C29.7973 279.873 29.4616 278.654 29.1134 277.347C28.9269 276.725 28.7279 276.091 28.5414 275.444C28.3673 274.809 28.0937 274.15 27.8699 273.503C27.3227 271.998 26.6885 270.505 26.017 269.012C27.0864 268.751 30.8917 267.78 32.4212 266.611C33.9383 265.442 35.5549 263.538 35.5425 261.498C35.5301 259.507 33.9259 257.791 31.8741 258.015C29.0139 258.326 26.5393 262.879 26.017 265.392C25.9797 265.554 25.818 267.395 25.7434 268.415C25.333 267.519 24.9351 266.623 24.4874 265.74C23.2066 263.165 21.8387 260.602 20.4832 258.039C20.0604 257.256 19.6625 256.472 19.2521 255.676C19.6376 255.589 24.189 254.531 25.8926 253.225C27.4097 252.055 29.0264 250.152 29.0139 248.112C29.0015 246.121 27.3973 244.404 25.3455 244.628C22.4853 244.939 20.0107 249.493 19.4884 252.006C19.4511 252.192 19.2148 254.855 19.1775 255.526C18.2822 253.797 17.3993 252.055 16.6034 250.314C15.4966 247.9 14.5516 245.487 13.793 243.061C13.9671 243.023 18.7174 241.941 20.4708 240.598C21.9879 239.428 23.6045 237.525 23.5921 235.484C23.5796 233.494 21.9755 231.777 19.9236 232.001C17.0635 232.312 14.5889 236.865 14.0666 239.378C14.0293 239.577 13.7681 242.439 13.7557 242.961C13.7059 242.812 13.6438 242.675 13.6065 242.526C12.8355 239.938 12.4251 237.326 12.1515 234.875C11.9899 233.444 11.9153 232.076 11.8779 230.732C12.7857 230.62 16.9143 230.073 18.6304 229.04C20.2718 228.045 22.0874 226.328 22.2864 224.3C22.4853 222.322 21.0926 220.431 19.0159 220.431C16.1433 220.431 13.1712 224.686 12.3878 227.124C12.3505 227.261 12.052 228.655 11.8655 229.675C11.8655 229.065 11.8406 228.443 11.8406 227.871C11.8406 225.694 11.9774 223.703 12.1142 221.937C12.2013 220.929 12.3007 220.033 12.4002 219.187C13.2334 218.615 16.5537 216.264 17.5858 214.584C18.5806 212.942 19.4014 210.578 18.6552 208.7C17.9215 206.846 15.8075 205.826 13.9671 206.771C11.4178 208.09 10.7463 213.24 11.1691 215.766C11.2064 215.99 12.1764 219.349 12.2137 219.312C12.2137 219.312 12.251 219.287 12.2634 219.274C12.1515 220.083 12.0396 220.954 11.9401 221.912C11.766 223.678 11.5795 225.669 11.5298 227.846C11.4676 230.023 11.4676 232.399 11.7038 234.9C11.9277 237.4 12.2883 240.025 13.0096 242.688C13.0096 242.712 13.0344 242.75 13.0344 242.775C12.5868 242.066 11.2562 240.125 11.1318 239.976C9.45304 238.035 5.06335 235.273 2.41461 236.393C0.511997 237.201 -0.0475951 239.49 0.90993 241.232C1.89233 243.011 4.23018 243.894 6.12036 244.168C8.25925 244.479 12.7609 243.173 13.1215 243.073C13.8303 245.599 14.763 248.124 15.8573 250.637C16.479 252.068 17.1506 253.499 17.8345 254.917C17.4241 254.32 17.0511 253.785 16.9889 253.71C15.3101 251.769 10.9204 249.007 8.27168 250.127C6.36907 250.936 5.80947 253.225 6.767 254.967C7.7494 256.746 10.0872 257.629 11.9774 257.903C13.9049 258.189 17.7599 257.144 18.7796 256.858C19.0532 257.405 19.3143 257.94 19.5879 258.487C20.8936 261.087 22.1993 263.675 23.418 266.25C23.8408 267.158 24.2263 268.067 24.6242 268.975C24.2636 268.44 23.9403 267.992 23.8905 267.93C22.2118 265.989 17.8221 263.227 15.1733 264.347C13.2707 265.155 12.7111 267.445 13.6686 269.186C14.651 270.965 16.9889 271.849 18.8791 272.122C20.7195 272.396 24.2885 271.463 25.4947 271.127C25.8678 272.072 26.2408 273.018 26.5641 273.939C26.7631 274.573 27.0118 275.183 27.1735 275.83C27.3476 276.477 27.5341 277.111 27.7082 277.745C28.0066 278.977 28.3175 280.246 28.5662 281.44C28.7528 282.274 28.9144 283.082 29.0761 283.891C28.6657 282.983 27.8077 281.216 27.7206 281.08C26.3527 278.902 22.4356 275.506 19.6501 276.215C17.648 276.725 16.7402 278.902 17.4241 280.769C18.1205 282.672 20.2967 283.904 22.1371 284.463C24.1517 285.085 28.6284 284.513 29.188 284.439C29.4616 285.77 29.6979 287.076 29.9217 288.308C30.6803 292.575 31.1404 296.158 31.4264 298.671C31.4761 299.119 31.5259 299.517 31.5632 299.89H22.9081L26.0667 361.558H40.8027L43.9613 299.89H35.9031C35.9653 299.765 36.015 299.653 36.0772 299.517C37.184 297.215 38.7135 293.893 40.3674 289.85C40.8897 288.569 41.4369 287.188 41.9716 285.77C42.5063 285.882 46.9333 286.777 48.9976 286.317C50.8629 285.894 53.1386 284.837 53.9717 282.983C54.7925 281.167 54.0588 278.94 52.094 278.28C49.3707 277.36 45.2048 280.458 43.6877 282.523C43.6006 282.647 42.7675 284.078 42.2576 284.986C42.469 284.401 42.6928 283.841 42.9043 283.244C43.3395 282.062 43.7374 280.868 44.1727 279.574C44.3592 278.952 44.5457 278.318 44.7447 277.671C44.9437 277.036 45.0804 276.352 45.2545 275.68C45.6276 274.125 45.926 272.533 46.1872 270.915C47.2318 271.289 50.9375 272.583 52.8526 272.446C54.7676 272.309 57.1676 271.612 58.2744 269.908C59.3563 268.241 58.9708 265.927 57.1303 264.969C54.5811 263.65 49.9924 266.076 48.1769 267.892C48.0649 268.004 46.9084 269.447 46.2867 270.256C46.4359 269.286 46.5976 268.315 46.7219 267.333C47.0701 264.484 47.3437 261.585 47.6297 258.699C47.7167 257.815 47.8162 256.932 47.9033 256.049C48.2763 256.186 52.6412 257.815 54.8049 257.666C56.72 257.529 59.12 256.833 60.2267 255.128C61.3086 253.461 60.9231 251.147 59.0827 250.189C56.5334 248.871 51.9448 251.297 50.1292 253.113C49.9924 253.25 48.3261 255.327 47.9281 255.887C48.1395 253.946 48.3509 252.006 48.6494 250.115C49.0598 247.49 49.5945 244.952 50.3033 242.513C50.4774 242.576 55.0288 244.305 57.2423 244.143C59.1573 244.006 61.5573 243.31 62.6641 241.605C63.746 239.938 63.3605 237.624 61.52 236.666C58.9708 235.348 54.3821 237.774 52.5665 239.59C52.4298 239.727 50.6391 241.978 50.3406 242.401C50.3779 242.252 50.4152 242.103 50.4525 241.954C51.236 239.366 52.3303 236.965 53.4619 234.763C54.121 233.481 54.8174 232.3 55.5137 231.155C56.3345 231.566 60.0775 233.382 62.0796 233.469C63.9947 233.544 66.4569 233.108 67.7502 231.541C69.0061 229.998 68.8818 227.659 67.1533 226.515C64.7532 224.922 59.9407 226.838 57.9262 228.431C57.8143 228.518 56.807 229.525 56.0733 230.272C56.3966 229.762 56.72 229.227 57.0433 228.754C58.2495 226.938 59.4558 225.358 60.5376 223.964C61.1594 223.181 61.7439 222.471 62.291 221.825C63.2983 221.812 67.3647 221.688 69.1429 220.854C70.8839 220.033 72.8611 218.515 73.2839 216.537C73.6943 214.597 72.5005 212.569 70.4362 212.345L70.4735 212.407ZM38.8254 289.228C37.0969 293.209 35.5052 296.456 34.3611 298.708C34.1249 299.168 33.9259 299.566 33.7269 299.94H33.5404C33.4782 299.504 33.416 299.019 33.3414 298.484C32.9932 295.946 32.4461 292.338 31.588 288.046C31.3269 286.69 31.0036 285.247 30.6803 283.767C31.016 283.63 32.9186 282.859 34.6098 281.913C36.0772 283.505 39.8576 285.372 40.3426 285.608C39.8327 286.864 39.3229 288.096 38.813 289.241L38.8254 289.228Z" fill="#181818"/>
<path d="M55.4141 230.695C55.4141 230.695 56.3343 227.336 56.3592 227.124C56.7074 224.586 55.8991 219.461 53.3125 218.204C51.4472 217.309 49.3581 218.391 48.6866 220.257C47.9902 222.16 48.8731 224.512 49.9177 226.117C51.1363 228.008 55.4141 230.695 55.4141 230.695Z" fill="#181818"/>
<path d="M93.9758 344.627C93.9758 344.627 108.102 348.434 111.46 351.357C114.818 354.268 104.732 355.164 98.4526 354.94C92.1727 354.716 91.5012 352.925 87.0245 352.925C82.5477 352.925 78.5062 354.94 77.8347 350.909C77.1632 346.879 82.7715 345.299 86.5768 344.403C90.382 343.507 93.9758 344.627 93.9758 344.627Z" fill="white" stroke="#181818" stroke-linecap="round" stroke-linejoin="round"/>
<path d="M89.8962 351.108C89.8962 351.108 96.8103 355.624 109.022 352.975" stroke="#181818" stroke-width="0.75" stroke-linecap="round" stroke-linejoin="round"/>
<path d="M79.8487 346.866C79.8487 346.866 85.6809 350.673 90.6053 352.701C95.5422 354.716 99.1236 355.388 96.8852 357.192C94.6468 358.984 93.9753 359.208 88.367 360.327C82.7586 361.447 71.5543 358.536 70.4351 358.536C69.316 358.536 68.1968 359.879 65.0506 358.76C61.9045 357.64 61.4692 356.072 62.5884 352.477C63.7076 348.894 78.058 345.747 79.8487 346.866Z" fill="white" stroke="#181818" stroke-linecap="round" stroke-linejoin="round"/>
<path d="M68.3837 356.159C68.3837 356.159 80.8688 361.21 94.6845 356.956" stroke="#181818" stroke-width="0.75" stroke-linecap="round" stroke-linejoin="round"/>
<path d="M111.012 191.445L113.698 219.698C113.698 219.698 109.892 260.292 105.179 273.528C100.466 286.765 96.2135 301.333 94.6466 306.72C93.0798 312.107 91.5129 333.181 92.8559 337.449C94.1989 341.716 93.9751 343.731 93.9751 343.731V344.627C93.9751 344.627 94.8705 345.299 91.7367 347.09C88.603 348.882 84.5615 349.553 84.5615 349.553L79.8485 346.866C79.8485 346.866 73.121 351.805 70.6587 353.149C68.1965 354.492 62.5882 355.388 62.5882 355.388C62.5882 355.388 60.7975 352.701 60.7975 350.001V341.255C60.7975 338.12 58.5591 322.644 58.7829 313.227C59.0068 303.809 60.7975 293.496 62.5882 288.781C64.3789 284.066 70.4349 269.722 70.4349 269.722C70.4349 269.722 70.4349 263.215 67.525 251.782C64.6151 240.349 63.9436 234.514 60.126 222.173C56.3207 209.832 63.9312 191.669 63.9312 191.669C63.9312 191.669 81.6392 194.804 91.2766 194.356C100.914 193.908 110.999 191.445 110.999 191.445H111.012Z" fill="#181818" stroke="#181818" stroke-linecap="round" stroke-linejoin="round"/>
<path d="M77.3868 215.667C77.3868 215.667 78.7298 218.13 80.7443 220.606" stroke="white" stroke-width="0.25" stroke-linecap="round" stroke-linejoin="round"/>
<path d="M89.4862 198.399L96.8853 198.623L96.6615 196.819" stroke="white" stroke-width="0.25" stroke-linecap="round" stroke-linejoin="round"/>
<path d="M99.5838 197.267V199.059C99.5838 199.059 105.864 200.626 110.788 197.939" stroke="white" stroke-width="0.25" stroke-linecap="round" stroke-linejoin="round"/>
<path d="M106.746 201.31L104.955 208.264L106 209.708C107.132 211.275 107.256 213.365 106.311 215.057C105.092 217.234 103.612 219.984 103.612 220.382" stroke="white" stroke-width="0.25" stroke-linecap="round" stroke-linejoin="round"/>
<path d="M108.101 221.713L103.152 225.769C101.585 227.05 100.578 228.879 100.329 230.894C99.1977 240.2 95.7904 267.619 93.751 275.768C91.2888 285.633 82.099 317.705 80.9674 324.883C79.8358 332.062 79.6244 334.749 79.6244 335.421C79.6244 336.092 80.9674 338.556 80.9674 339.912V345.075" stroke="white" stroke-width="0.25" stroke-linecap="round" stroke-linejoin="round"/>
<path d="M86.128 195.476C86.128 195.476 99.583 197.267 105.627 196.819C111.683 196.371 112.578 193.908 113.25 191.656C113.921 189.417 105.179 136.034 104.731 132.899C104.284 129.764 104.955 124.601 100.702 122.81C96.4369 121.018 87.471 124.153 85.9041 130.212C84.3373 136.271 89.2617 171.478 87.9187 179.104C86.5756 186.73 86.128 195.476 86.128 195.476Z" fill="white" stroke="#181818" stroke-linecap="round" stroke-linejoin="round"/>
<path d="M97.7809 133.359L101.151 139.405L102.27 189.653L106.299 199.295L109.669 187.402L103.165 138.958L104.061 131.779L101.375 125.957L97.7809 133.359Z" fill="#181818" stroke="#181818" stroke-linecap="round" stroke-linejoin="round"/>
<path d="M102.27 130.884L106.299 137.838L104.285 125.061L100.256 127.525L102.27 130.884Z" fill="white" stroke="#181818" stroke-linecap="round" stroke-linejoin="round"/>
<path d="M92.4086 111.153L91.2894 116.316L100.479 132.688C100.479 132.688 103.227 126.579 104.284 125.061C105.491 123.345 109.52 116.888 109.52 116.888C109.52 116.888 102.705 117.435 101.586 113.392C100.467 109.361 101.586 103.751 97.3206 103.303C93.0553 102.855 92.3837 111.153 92.3837 111.153H92.4086Z" fill="white" stroke="#181818" stroke-linecap="round" stroke-linejoin="round"/>
<path d="M96.8604 107.98L97.2957 109.486C97.2957 109.486 96.4127 112.073 97.905 113.977C99.3972 115.88 107.729 120.446 111.397 119.388C115.066 118.331 116.16 107.719 116.16 107.719C116.16 107.719 119.642 107.632 119.294 105.641C118.946 103.638 116.894 101.436 116.695 99.1598C116.496 96.8832 117.727 96.286 117.192 93.6486C116.658 90.9987 115.812 88.9087 113.399 87.0426C110.987 85.1765 97.7806 91.1356 93.8635 95.3156C89.9463 99.4957 89.138 103.937 90.108 106.462C91.078 108.988 96.8604 107.993 96.8604 107.993V107.98Z" fill="white" stroke="#181818" stroke-linecap="round" stroke-linejoin="round"/>
<path d="M113.748 100.155C113.699 100.964 113.388 101.61 113.064 101.586C112.741 101.561 112.517 100.889 112.567 100.068C112.616 99.2592 112.927 98.6123 113.251 98.6372C113.574 98.6621 113.798 99.3338 113.748 100.155Z" fill="#181818"/>
<path d="M114.668 96.4103C114.668 96.4103 113.002 94.8677 111.298 97.3931" stroke="#181818" stroke-linecap="round" stroke-linejoin="round"/>
<path d="M111.61 110.979C111.61 110.979 110.142 110.593 109.569 109.548" stroke="#181818" stroke-linecap="round" stroke-linejoin="round"/>
<path d="M98.5021 98.3885L98.0669 102.494L100.653 101.735C100.653 101.735 99.2607 104.945 101.151 103.452C103.041 101.959 105.578 97.02 106.374 96.5473C107.17 96.0746 111.733 91.7079 114.83 88.7097C117.926 85.699 119.282 81.5687 118.225 79.5409C117.168 77.5131 104.309 68.6553 92.5829 74.8881C80.8563 81.1209 77.6728 90.2274 78.9039 95.241C80.1351 100.255 89.5735 113.392 91.2647 113.591C92.9559 113.803 96.8731 107.98 96.8731 107.98C96.8731 107.98 91.8119 106.649 92.8191 104.497C93.8264 102.332 98.5146 98.401 98.5146 98.401L98.5021 98.3885Z" fill="#181818" stroke="#181818" stroke-linecap="round" stroke-linejoin="round"/>
<path d="M90.8417 99.5081C89.25 100.628 87.6334 101.611 86.0043 102.419" stroke="white" stroke-width="0.25" stroke-linecap="round" stroke-linejoin="round"/>
<path d="M111.771 77.8489C111.771 77.8489 104.658 87.8761 95.7042 95.6639" stroke="white" stroke-width="0.25" stroke-linecap="round" stroke-linejoin="round"/>
<path d="M87.2985 96.1492C86.7884 96.6219 86.2659 97.0947 85.731 97.5674" stroke="white" stroke-width="0.25" stroke-linecap="round" stroke-linejoin="round"/>
<path d="M102.096 78.4087C102.096 78.4087 97.9674 85.5496 89.8719 93.6734" stroke="white" stroke-width="0.25" stroke-linecap="round" stroke-linejoin="round"/>
<path d="M90.842 114.512L102.27 130.884L93.9757 139.182L88.1435 116.763L90.842 114.512Z" fill="white" stroke="#181818" stroke-linecap="round" stroke-linejoin="round"/>
<path d="M85.0099 118.107L69.3164 123.27C69.3164 123.27 56.9805 182.027 56.0851 183.595C55.1898 185.162 39.0486 214.099 41.0632 217.234C43.0777 220.369 62.365 230.695 63.9319 230.023C65.4987 229.352 76.9393 207.593 83.8782 201.31C90.8296 195.028 97.781 187.178 98.6763 178.432L92.6203 152.642L91.9488 136.494L84.9974 118.107H85.0099Z" fill="#5683FA" stroke="#181818" stroke-linecap="round" stroke-linejoin="round"/>
<path d="M89.4866 116.763L85.0099 118.107L83.8907 140.077L91.5136 144.344L87.0244 151.075L98.6764 178.432L93.9758 136.046L89.4866 116.763Z" fill="#5683FA" stroke="#181818" stroke-linecap="round" stroke-linejoin="round"/>
<path d="M74.9867 211.599L57.0797 227.187C57.0797 227.187 58.8455 229.314 63.9316 230.023C63.9316 230.023 71.8903 219.125 74.9867 211.599Z" fill="#5683FA" stroke="#181818" stroke-linecap="round" stroke-linejoin="round"/>
<path d="M77.8343 198.623C77.8343 198.623 85.2333 198.847 86.8002 199.295C88.367 199.743 94.4231 206.025 94.4231 206.025C94.4231 206.025 94.4231 206.697 92.1847 207.369C89.9463 208.041 85.9048 205.13 85.9048 205.13L77.1628 213.427L71.7782 206.697L77.8343 198.623Z" fill="white" stroke="#181818" stroke-linecap="round" stroke-linejoin="round"/>
<path d="M77.1621 196.147L79.1767 198.847L71.7776 206.697L70.8823 203.774L77.1621 196.147Z" fill="white" stroke="#181818" stroke-linecap="round" stroke-linejoin="round"/>
<path d="M82.7709 119.898C82.7709 119.898 61.6929 119.898 60.126 121.69C58.5592 123.481 41.9704 173.717 41.9704 176.64C41.9704 179.564 70.435 206.249 70.435 206.249L78.5055 196.384L62.3644 171.042L75.148 143.461" fill="#5683FA"/>
<path d="M82.7709 119.898C82.7709 119.898 61.6929 119.898 60.126 121.69C58.5592 123.481 41.9704 173.717 41.9704 176.64C41.9704 179.564 70.435 206.249 70.435 206.249L78.5055 196.384L62.3644 171.042L75.148 143.461" stroke="#181818" stroke-linecap="round" stroke-linejoin="round"/>
<path d="M543.426 360.78H17.4092V367H543.426V360.78Z" fill="#181818"/>
<path d="M203.768 118.206C203.768 118.206 206.889 127.885 206.889 129.751C206.889 131.617 206.578 133.807 206.578 133.807L209.339 138.074C209.7 138.646 209.526 139.393 208.941 139.741L204.701 142.229C204.701 142.229 204.079 152.219 203.457 153.463C202.835 154.707 192.228 154.396 192.228 154.396L188.796 160.953L171.013 154.085L175.689 141.284L174.756 121.939C174.756 121.939 185.675 112.26 203.768 118.194V118.206Z" fill="white" stroke="#181818" stroke-linecap="round" stroke-linejoin="round"/>
<path d="M191.606 141.707C191.606 141.707 188.51 144.618 186.184 144.805C183.859 145.004 176.298 143.25 175.726 142.478C175.142 141.707 169.919 130.846 170.106 125.609C170.304 120.371 170.491 112.621 176.112 110.095C181.733 107.57 190.649 108.353 195.3 105.442C199.95 102.531 207.312 100.205 211.192 105.243C215.072 110.282 212.162 117.261 209.066 120.172C205.969 123.083 202.089 123.855 202.475 125.211C202.86 126.567 205.186 127.923 203.83 129.863C202.475 131.804 197.625 133.546 197.625 134.317C197.625 135.088 198.782 137.801 197.426 138.199C196.071 138.584 194.715 135.487 193.36 135.487C192.004 135.487 189.094 139.169 191.619 141.694L191.606 141.707Z" fill="#181818" stroke="#181818" stroke-linecap="round" stroke-linejoin="round"/>
<path d="M183.511 132.812C182.939 133.459 182.466 134.143 182.093 134.889" stroke="white" stroke-width="0.25" stroke-linecap="round" stroke-linejoin="round"/>
<path d="M208.966 112.72C208.966 112.72 208.667 119.226 201.878 122.772C196.941 125.347 190.288 127.462 185.886 130.684" stroke="white" stroke-width="0.25" stroke-linecap="round" stroke-linejoin="round"/>
<path d="M202.45 125.235C202.45 125.235 198.035 128.968 193.31 132.812C188.584 136.656 182.677 138.721 182.677 138.721" stroke="white" stroke-width="0.25" stroke-linecap="round" stroke-linejoin="round"/>
<path d="M191.296 142.229L193.795 142.851C193.795 142.851 193.173 146.596 195.673 149.408" fill="white"/>
<path d="M191.296 142.229L193.795 142.851C193.795 142.851 193.173 146.596 195.673 149.408" stroke="#181818" stroke-linecap="round" stroke-linejoin="round"/>
<path d="M194.168 135.549L211.739 131.195" stroke="#181818" stroke-linecap="round" stroke-linejoin="round"/>
<path d="M207.213 130.846L211.217 131.02C211.217 131.02 212.609 135.549 208.431 136.071" stroke="#181818" stroke-linecap="round" stroke-linejoin="round"/>
<path d="M189.517 345.933C189.517 345.933 205.696 356.159 208.531 356.159C211.366 356.159 212.784 358.71 211.366 358.996C209.949 359.282 201.144 359.568 195.188 359.842C189.231 360.128 185.252 359.556 181.845 359.556C178.437 359.556 174.471 359.842 172.767 358.983C171.063 358.137 173.899 348.471 173.899 346.767C173.899 345.062 187.528 344.776 189.505 345.921L189.517 345.933Z" fill="#181818" stroke="#181818" stroke-linecap="round" stroke-linejoin="round"/>
<path d="M210.396 356.57C204.116 358.648 193.931 357.279 187.813 356.719C182.976 356.284 175.44 356.184 172.281 356.159C172.157 357.615 172.244 358.722 172.779 358.996C174.482 359.842 178.462 359.568 181.856 359.568C185.251 359.568 189.231 360.14 195.2 359.854C201.156 359.568 209.96 359.282 211.378 359.008C212.435 358.797 211.913 357.316 210.396 356.582V356.57Z" fill="white" stroke="#181818" stroke-linecap="round" stroke-linejoin="round"/>
<path d="M202.288 275.768L189.53 339.775L192.191 346.431C192.191 346.431 189.517 350.748 184.12 351.88C178.723 353.012 173.053 353.012 173.053 353.012C173.053 353.012 171.635 345.908 172.481 345.062C173.326 344.216 173.612 340.807 173.612 340.807L180.987 276.34L202.276 275.768H202.288Z" fill="#181818" stroke="#181818" stroke-linecap="round" stroke-linejoin="round"/>
<path d="M241.174 343.769C241.174 343.769 251.11 352.004 255.649 353.422C260.188 354.841 265.013 356.259 265.013 357.677C265.013 359.095 254.231 360.514 245.999 359.668C237.767 358.822 225.282 355.127 222.434 355.127C219.586 355.127 220.158 347.75 220.158 346.605C220.158 345.46 234.061 336.379 241.162 343.769H241.174Z" fill="#181818" stroke="#181818" stroke-linecap="round" stroke-linejoin="round"/>
<path d="M265.026 357.677C265.026 357.167 264.391 356.657 263.384 356.147C257.253 357.055 248.549 357.354 238.911 355.973C230.741 354.804 223.902 353.236 220.407 352.365C220.706 353.895 221.29 355.115 222.447 355.115C225.282 355.115 237.78 358.809 246.012 359.655C254.244 360.501 265.026 359.083 265.026 357.665V357.677Z" fill="white" stroke="#181818" stroke-linecap="round" stroke-linejoin="round"/>
<path d="M191.781 247.079C191.781 247.079 202.848 245.947 217.323 247.652C231.798 249.356 264.13 251.347 264.702 255.029C265.274 258.724 239.607 335.558 239.607 337.548C239.607 339.539 241.883 341.529 242.442 342.661C243.014 343.793 243.014 345.212 243.014 345.212C243.014 345.212 236.063 352.713 230.666 354.704C225.269 356.694 220.743 354.841 219.611 354.841C218.479 354.841 218.479 347.177 219.325 343.482C220.171 339.787 221.601 330.42 221.874 329.574C222.16 328.728 237.742 274.063 237.742 274.063C237.742 274.063 195.474 280.881 170.205 278.044C144.936 275.208 142.387 271.227 140.97 265.268C139.552 259.309 142.387 247.378 142.387 247.378L191.781 247.092V247.079Z" fill="#151515" stroke="#181818" stroke-linecap="round" stroke-linejoin="round"/>
<path d="M188.586 265.479C187.951 266.387 187.304 267.184 186.67 267.818" stroke="#181818" stroke-linecap="round" stroke-linejoin="round"/>
<path d="M196.332 250.202C196.332 250.202 193.782 256.709 190.698 262.133" stroke="#181818" stroke-linecap="round" stroke-linejoin="round"/>
<path d="M192.925 253.051C192.925 253.051 188.386 261.573 178.164 265.541" stroke="#181818" stroke-linecap="round" stroke-linejoin="round"/>
<path d="M257.39 268.689C258.36 268.316 259.292 267.93 260.175 267.532L257.39 268.689Z" fill="white"/>
<path d="M257.39 268.689C258.36 268.316 259.292 267.93 260.175 267.532" stroke="#181818" stroke-linecap="round" stroke-linejoin="round"/>
<path d="M237.742 274.063C237.742 274.063 246.011 272.508 253.833 269.946L237.742 274.063Z" fill="white"/>
<path d="M237.742 274.063C237.742 274.063 246.011 272.508 253.833 269.946" stroke="#181818" stroke-linecap="round" stroke-linejoin="round"/>
<path d="M270.534 179.751C271.131 177.374 272.113 177.573 271.329 176.777C270.235 175.682 269.352 176.976 266.181 178.755C263.01 180.534 259.852 182.711 259.852 182.711C259.852 182.711 259.852 181.915 260.648 180.932C261.443 179.937 261.841 177.76 261.841 176.578C261.841 175.396 260.846 175.583 260.461 176.777C260.075 177.972 256.507 180.149 256.308 181.131C256.109 182.127 255.4 186.033 255.4 186.033C254.268 187.737 254.268 195.687 254.268 195.687L231.275 213.004L219.636 226.639C219.636 226.639 224.747 234.875 227.582 233.743C230.417 232.611 231.835 231.466 238.649 225.793C244.419 220.979 258.882 198.76 258.882 198.76C258.882 198.76 264.428 195.189 266.007 193.41C268.37 190.748 270.322 186.506 270.31 182.96C270.31 181.94 270.272 180.87 270.559 179.738L270.534 179.751Z" fill="white" stroke="#181818" stroke-linecap="round" stroke-linejoin="round"/>
<path d="M163.901 153.476C163.901 153.476 166.089 145.265 175.391 146.907C184.693 148.549 191.806 156.213 193.447 158.95C195.089 161.687 163.354 157.855 163.354 157.855L163.901 153.476Z" fill="white" stroke="#181818" stroke-linecap="round" stroke-linejoin="round"/>
<path d="M217.522 225.184C217.522 225.184 215.37 227.51 217.522 231.205C219.014 233.756 221.613 235.709 226.612 234.838C231.3 234.029 238.314 222.447 238.314 214.236C238.314 206.025 232.295 205.478 230.106 207.12C227.918 208.762 217.522 225.184 217.522 225.184Z" fill="white" stroke="#181818" stroke-linecap="round" stroke-linejoin="round"/>
<path d="M167.942 152.518C167.942 152.518 145.807 163.03 142.673 165.008C139.552 166.999 137.562 191.706 137.562 195.961C137.562 200.215 140.684 241.966 141.542 249.07C142.387 256.174 169.646 261.001 178.724 258.438C187.801 255.887 196.606 249.356 196.606 247.079C196.606 244.803 195.76 225.495 196.32 221.8C196.892 218.105 202.003 202.492 202.003 202.492L217.497 227.224C217.497 227.224 219.126 230.26 224.884 227.871C233.116 224.462 233.8 211.288 233.8 211.288C233.8 211.288 224.722 195.388 222.16 187.439C219.611 179.489 218.467 173.53 217.335 172.099C216.204 170.681 190.649 158.751 186.11 155.628C181.571 152.505 175.888 150.229 167.942 152.505V152.518Z" fill="white" stroke="#181818" stroke-linecap="round" stroke-linejoin="round"/>
<path d="M202.002 202.505L194.628 191.706" stroke="#181818" stroke-linecap="round" stroke-linejoin="round"/>
<path d="M200.797 200.962L187.814 194.555" stroke="#181818" stroke-linecap="round" stroke-linejoin="round"/>
<path d="M162.284 282.386L173.625 363.027C173.737 363.823 174.508 364.345 175.279 364.159C175.938 363.997 176.386 363.387 176.324 362.703L168.328 281.055L162.284 282.386Z" fill="#181818" stroke="#181818" stroke-linecap="round" stroke-linejoin="round"/>
<path d="M129.715 283.045L110.763 362.243C110.577 363.027 111.099 363.798 111.895 363.91C112.567 364.009 113.201 363.586 113.4 362.939L135.398 286.081L129.715 283.058V283.045Z" fill="#181818" stroke="#181818" stroke-linecap="round" stroke-linejoin="round"/>
<path d="M164.137 282.063L152.075 362.604C151.95 363.4 152.547 364.121 153.343 364.159C154.014 364.196 154.624 363.723 154.748 363.064L170.056 284.601L164.137 282.075V282.063Z" fill="#181818" stroke="#181818" stroke-linecap="round" stroke-linejoin="round"/>
<path d="M206.839 282.386L218.18 363.027C218.292 363.823 219.063 364.345 219.834 364.159C220.493 363.997 220.941 363.387 220.879 362.703L212.883 281.055L206.839 282.386Z" fill="#181818" stroke="#181818" stroke-linecap="round" stroke-linejoin="round"/>
<path d="M111.758 198.722L125.561 288.507H223.726C223.726 288.507 225.181 262.643 220.854 253.486C216.526 244.342 163.091 263.949 161.164 263.464C159.721 263.103 161.835 216.749 164.459 198.635C165.242 193.211 161.039 188.372 155.568 188.372H120.624C115.115 188.372 110.912 193.286 111.745 198.722H111.758Z" fill="#1D1E20" stroke="#181818" stroke-linecap="round" stroke-linejoin="round"/>
<path d="M220.867 253.486C216.54 244.342 163.105 263.949 161.177 263.464C159.735 263.103 161.849 216.749 164.473 198.635C165.244 193.323 161.227 188.583 155.917 188.384C150.582 188.583 146.553 193.385 147.374 198.722L161.177 288.507H223.74C223.74 288.507 225.195 262.643 220.867 253.486Z" fill="#181818" stroke="#181818" stroke-linecap="round" stroke-linejoin="round"/>
<path d="M523.89 292.125C523.592 290.487 523.641 288.825 524.039 287.225C525.407 281.849 526.974 271.724 523.492 260.798C517.685 242.559 494.145 226.42 494.145 226.42C494.145 226.42 500.536 253.322 505.784 264.786C509.627 273.174 516.354 282.724 520.097 287.75C521.129 289.15 521.838 290.75 522.149 292.462C525.954 313.639 525.407 330.028 525.395 330.278L527.161 330.353C527.185 330.078 527.745 313.526 523.89 292.125Z" fill="#DEE3FC"/>
<path d="M542.667 274.986C547.343 260.123 549.519 242.609 549.519 242.609C549.519 242.609 528.416 260.123 526.675 273.661C525.618 281.962 526.937 288.612 528.118 292.537C528.615 294.2 528.802 295.938 528.615 297.663C526.476 317.602 528.155 332.878 528.18 333.115L529.772 332.928C529.747 332.703 528.193 318.489 530.021 299.65C530.269 297.075 531.301 294.638 532.93 292.612C535.952 288.875 540.267 282.612 542.667 274.986Z" fill="#B4C1EF"/>
<path d="M564.118 241.922C564.118 241.922 541.374 250.41 535.429 269.074C531.811 280.437 533.514 290.938 534.932 296.375C535.33 297.901 535.305 299.501 534.932 301.026C529.61 322.515 529.523 344.754 529.523 345.041H531.338C531.338 344.754 531.425 323.04 536.561 301.976C537.071 299.888 537.979 297.913 539.26 296.188C543.139 290.938 549.743 281.487 553.56 273.149C558.945 261.423 564.118 241.922 564.118 241.922Z" fill="#DEE3FC"/>
<path d="M523.99 320.689C523.418 312.876 521.304 305.838 518.742 299.938C518.232 298.75 518.046 297.463 518.208 296.188C518.531 293.725 518.655 289.887 517.673 285.025C515.832 275.861 503.733 256.072 486.224 254.91C486.224 254.91 492.267 264.673 495.376 272.849C499.306 283.187 504.927 294 514.241 298.15C515.882 298.875 517.163 300.251 517.847 301.913C520.085 307.389 521.888 313.777 522.398 320.815L523.99 320.689Z" fill="#B4C1EF"/>
<path d="M512.151 360.78H541.051L548.549 314.714C548.885 312.677 547.318 310.826 545.266 310.826H507.935C505.884 310.826 504.317 312.677 504.652 314.714L512.151 360.78Z" fill="#006EF2"/>
</svg>
