<svg width="566" height="382" viewBox="0 0 566 382" fill="none" xmlns="http://www.w3.org/2000/svg">
<path opacity="0.7" d="M1.50018 378.72C2.00018 357.72 0.500183 321.72 1.50018 270.22C1.50018 203.72 -4.49982 129.22 27.2982 88.3844C65.5002 50.7197 117.736 88.398 146.36 75.3315C174.984 62.2786 154.9 13.5528 240.806 1.99873C366.901 -2.01992 371.422 38.2322 412.617 67.3691C446.442 103.925 486.758 87.0832 536.199 126.255C585.099 164.994 566.579 340.388 530.418 380.848L1.50018 378.72Z" fill="#E8F2FF"/>
<path d="M106.528 1H292.908V209.998H106.528V1Z" stroke="#263238" stroke-linecap="round" stroke-linejoin="round"/>
<path d="M199.718 1.12183V210.73" stroke="#263238" stroke-linecap="round" stroke-linejoin="round"/>
<path d="M106.378 105.93H293.069" stroke="#263238" stroke-linecap="round" stroke-linejoin="round"/>
<path d="M106.378 53.4443H293.069" stroke="#263238" stroke-linecap="round" stroke-linejoin="round"/>
<path d="M106.378 158.415H293.069" stroke="#263238" stroke-linecap="round" stroke-linejoin="round"/>
<path d="M140.348 77.6694L158.514 91.812" stroke="#263238" stroke-linecap="round" stroke-linejoin="round"/>
<path d="M113.33 56.6262L135.033 73.5273" stroke="#263238" stroke-linecap="round" stroke-linejoin="round"/>
<path d="M159.83 85.0742L165.597 89.566" stroke="#263238" stroke-linecap="round" stroke-linejoin="round"/>
<path d="M135.053 65.7727L155.851 81.974" stroke="#263238" stroke-linecap="round" stroke-linejoin="round"/>
<path d="M241.144 29.8142L259.31 43.9568" stroke="#263238" stroke-linecap="round" stroke-linejoin="round"/>
<path d="M214.127 8.771L235.829 25.6802" stroke="#263238" stroke-linecap="round" stroke-linejoin="round"/>
<path d="M260.626 37.219L266.393 41.7108" stroke="#263238" stroke-linecap="round" stroke-linejoin="round"/>
<path d="M235.849 17.9255L256.647 34.1187" stroke="#263238" stroke-linecap="round" stroke-linejoin="round"/>
<path d="M144.689 133.263L162.855 147.406" stroke="#263238" stroke-linecap="round" stroke-linejoin="round"/>
<path d="M117.671 112.22L139.374 129.129" stroke="#263238" stroke-linecap="round" stroke-linejoin="round"/>
<path d="M164.171 140.668L169.938 145.16" stroke="#263238" stroke-linecap="round" stroke-linejoin="round"/>
<path d="M139.394 121.375L160.202 137.568" stroke="#263238" stroke-linecap="round" stroke-linejoin="round"/>
<path d="M136.499 185.511L137.283 178.799C137.283 178.799 140.85 179.01 142.226 175.905C143.06 174.027 143.904 170.219 142.678 168.34C141.011 165.788 137.323 166.129 136.258 169.194C135.304 171.927 134.841 173.092 134.841 173.092C135.073 169.144 138.047 153.238 129.094 155.66C125.457 156.645 124.462 160.161 124.302 162.934C124.141 165.707 124.523 172.891 124.523 172.891C124.523 172.891 122.121 173.152 121.951 169.164C121.78 165.175 117.912 163.366 116.214 165.255C114.516 167.144 113.722 173.856 115.591 175.956C117.459 178.056 123.377 178.789 123.377 178.789L122.985 185.531H136.509L136.499 185.511Z" fill="#57A0FF" stroke="#225EFD" stroke-width="0.5" stroke-linecap="round" stroke-linejoin="round"/>
<path d="M131.355 156.755C131.355 156.755 132.832 158.101 132.43 162.673C132.029 167.245 132.029 175.453 132.029 175.453" stroke="#225EFD" stroke-width="0.2" stroke-linecap="round" stroke-linejoin="round"/>
<path d="M127.447 159.85C127.447 159.85 125.698 159.579 126.231 163.748C126.773 167.918 126.231 174.248 126.231 174.248" stroke="#225EFD" stroke-width="0.2" stroke-linecap="round" stroke-linejoin="round"/>
<path d="M140.096 168.731C140.096 168.731 141.844 169.133 141.041 171.957C140.237 174.78 139.966 176.94 138.077 177.342C136.188 177.744 135.525 177.744 135.525 177.744L135.253 180.708" stroke="#225EFD" stroke-width="0.2" stroke-linecap="round" stroke-linejoin="round"/>
<path d="M123.136 177.211C123.136 177.211 117.62 177.342 116.545 175.061C115.47 172.77 116.143 168.872 116.143 168.872" stroke="#225EFD" stroke-width="0.2" stroke-linecap="round" stroke-linejoin="round"/>
<path d="M137.806 169.475C137.806 169.736 138.017 169.947 138.278 169.947C138.539 169.947 138.75 169.736 138.75 169.475C138.75 169.214 138.539 169.003 138.278 169.003C138.017 169.003 137.806 169.214 137.806 169.475Z" stroke="#225EFD" stroke-width="0.2" stroke-linecap="round" stroke-linejoin="round"/>
<path d="M136.671 175.393C136.41 175.393 136.198 175.182 136.198 174.921C136.198 174.66 136.41 174.448 136.671 174.448C136.931 174.448 137.143 174.66 137.143 174.921C137.143 175.182 136.931 175.393 136.671 175.393Z" stroke="#225EFD" stroke-width="0.2" stroke-linecap="round" stroke-linejoin="round"/>
<path d="M139.021 173.172C138.761 173.172 138.549 172.961 138.549 172.7C138.549 172.439 138.761 172.228 139.021 172.228C139.282 172.228 139.494 172.439 139.494 172.7C139.494 172.961 139.282 173.172 139.021 173.172Z" stroke="#225EFD" stroke-width="0.2" stroke-linecap="round" stroke-linejoin="round"/>
<path d="M129.466 167.596C129.205 167.596 128.994 167.385 128.994 167.124C128.994 166.863 129.205 166.652 129.466 166.652C129.727 166.652 129.938 166.863 129.938 167.124C129.938 167.385 129.727 167.596 129.466 167.596Z" stroke="#225EFD" stroke-width="0.2" stroke-linecap="round" stroke-linejoin="round"/>
<path d="M133.908 163.015C133.647 163.015 133.435 162.803 133.435 162.543C133.435 162.282 133.647 162.07 133.908 162.07C134.168 162.07 134.38 162.282 134.38 162.543C134.38 162.803 134.168 163.015 133.908 163.015Z" stroke="#225EFD" stroke-width="0.2" stroke-linecap="round" stroke-linejoin="round"/>
<path d="M127.447 178.96C127.447 179.221 127.658 179.432 127.919 179.432C128.18 179.432 128.391 179.221 128.391 178.96C128.391 178.699 128.18 178.488 127.919 178.488C127.658 178.488 127.447 178.699 127.447 178.96Z" stroke="#225EFD" stroke-width="0.2" stroke-linecap="round" stroke-linejoin="round"/>
<path d="M132.561 178.287C132.561 178.548 132.772 178.759 133.033 178.759C133.294 178.759 133.505 178.548 133.505 178.287C133.505 178.025 133.294 177.814 133.033 177.814C132.772 177.814 132.561 178.025 132.561 178.287Z" stroke="#225EFD" stroke-width="0.2" stroke-linecap="round" stroke-linejoin="round"/>
<path d="M128.663 158.714C128.402 158.714 128.19 158.503 128.19 158.242C128.19 157.981 128.402 157.77 128.663 157.77C128.923 157.77 129.135 157.981 129.135 158.242C129.135 158.503 128.923 158.714 128.663 158.714Z" stroke="#225EFD" stroke-width="0.2" stroke-linecap="round" stroke-linejoin="round"/>
<path d="M118.635 167.184C118.635 167.445 118.846 167.656 119.107 167.656C119.368 167.656 119.579 167.445 119.579 167.184C119.579 166.923 119.368 166.712 119.107 166.712C118.846 166.712 118.635 166.923 118.635 167.184Z" stroke="#225EFD" stroke-width="0.2" stroke-linecap="round" stroke-linejoin="round"/>
<path d="M120.313 174.057C120.052 174.057 119.841 173.845 119.841 173.585C119.841 173.324 120.052 173.112 120.313 173.112C120.574 173.112 120.785 173.324 120.785 173.585C120.785 173.845 120.574 174.057 120.313 174.057Z" stroke="#225EFD" stroke-width="0.2" stroke-linecap="round" stroke-linejoin="round"/>
<path d="M128.663 173.916C128.402 173.916 128.19 173.704 128.19 173.444C128.19 173.183 128.402 172.971 128.663 172.971C128.923 172.971 129.135 173.183 129.135 173.444C129.135 173.704 128.923 173.916 128.663 173.916Z" stroke="#225EFD" stroke-width="0.2" stroke-linecap="round" stroke-linejoin="round"/>
<path d="M117.932 181.16H142.156L139.735 201.014H120.353L117.932 181.16Z" fill="#006EF2" stroke="#005DCC" stroke-linecap="round" stroke-linejoin="round"/>
<path d="M478.393 144.558L459.856 322.126" stroke="#263238" stroke-width="2" stroke-miterlimit="10"/>
<path d="M462.84 288.146L471.239 279.274" stroke="#263238" stroke-width="2" stroke-miterlimit="10"/>
<path d="M468.687 281.926C468.687 281.926 468.446 277.998 472.033 274.803C474.193 272.874 485.537 268.101 486.612 272.1C487.787 276.451 476.163 284.981 468.687 281.926Z" fill="#B4C1EF" stroke="#263238" stroke-miterlimit="10"/>
<path d="M468.687 281.927L479.498 275.195" stroke="#263238" stroke-width="0.5" stroke-miterlimit="10"/>
<path d="M460.74 308.341L469.139 299.469" stroke="#263238" stroke-width="2" stroke-miterlimit="10"/>
<path d="M466.587 302.122C466.587 302.122 466.346 298.193 469.933 294.998C472.093 293.069 483.437 288.297 484.512 292.295C485.688 296.646 474.063 305.176 466.587 302.122Z" fill="#B4C1EF" stroke="#263238" stroke-miterlimit="10"/>
<path d="M466.587 302.122L477.388 295.39" stroke="#263238" stroke-width="0.5" stroke-miterlimit="10"/>
<path d="M467.984 238.863L476.383 229.991" stroke="#263238" stroke-width="2" stroke-miterlimit="10"/>
<path d="M473.832 232.654C473.832 232.654 473.59 228.725 477.177 225.53C479.338 223.601 490.681 218.828 491.756 222.827C492.932 227.178 481.307 235.708 473.832 232.654Z" fill="#B4C1EF" stroke="#263238" stroke-miterlimit="10"/>
<path d="M473.832 232.654L484.643 225.922" stroke="#263238" stroke-width="0.5" stroke-miterlimit="10"/>
<path d="M465.874 259.058L474.284 250.187" stroke="#263238" stroke-width="2" stroke-miterlimit="10"/>
<path d="M471.732 252.849C471.732 252.849 471.491 248.921 475.078 245.726C477.238 243.797 488.581 239.024 489.656 243.023C490.832 247.373 479.207 255.904 471.732 252.849Z" fill="#B4C1EF" stroke="#263238" stroke-miterlimit="10"/>
<path d="M471.732 252.849L482.533 246.117" stroke="#263238" stroke-width="0.5" stroke-miterlimit="10"/>
<path d="M471.41 206.058L479.81 197.186" stroke="#263238" stroke-width="2" stroke-miterlimit="10"/>
<path d="M477.258 199.849C477.258 199.849 477.017 195.921 480.604 192.725C482.764 190.796 494.107 186.024 495.183 190.023C496.358 194.373 484.733 202.903 477.258 199.849Z" fill="#B4C1EF" stroke="#263238" stroke-miterlimit="10"/>
<path d="M477.258 199.849L488.059 193.117" stroke="#263238" stroke-width="0.5" stroke-miterlimit="10"/>
<path d="M474.846 173.113L483.246 164.241" stroke="#263238" stroke-width="2" stroke-miterlimit="10"/>
<path d="M480.694 166.893C480.694 166.893 480.453 162.965 484.04 159.77C486.2 157.841 497.544 153.068 498.619 157.067C499.794 161.418 488.169 169.948 480.694 166.893Z" fill="#B4C1EF" stroke="#263238" stroke-miterlimit="10"/>
<path d="M480.694 166.894L491.505 160.162" stroke="#263238" stroke-width="0.5" stroke-miterlimit="10"/>
<path d="M464.257 276.199L457.866 265.78" stroke="#263238" stroke-width="2" stroke-miterlimit="10"/>
<path d="M459.816 268.905C459.816 268.905 460.86 265.117 458.017 261.239C456.309 258.908 446.181 251.895 444.302 255.582C442.263 259.591 451.858 270.342 459.816 268.905Z" fill="#B4C1EF" stroke="#263238" stroke-miterlimit="10"/>
<path d="M459.816 268.905L450.09 259.611" stroke="#263238" stroke-width="0.5" stroke-miterlimit="10"/>
<path d="M469.803 223.049L463.412 212.639" stroke="#263238" stroke-width="2" stroke-miterlimit="10"/>
<path d="M465.362 215.764C465.362 215.764 466.406 211.976 463.563 208.098C461.855 205.767 451.727 198.754 449.848 202.441C447.809 206.45 457.404 217.201 465.362 215.764Z" fill="#B4C1EF" stroke="#263238" stroke-miterlimit="10"/>
<path d="M465.362 215.764L455.636 206.47" stroke="#263238" stroke-width="0.5" stroke-miterlimit="10"/>
<path d="M472.234 199.698L465.854 189.279" stroke="#263238" stroke-width="2" stroke-miterlimit="10"/>
<path d="M467.804 192.414C467.804 192.414 468.848 188.626 466.005 184.748C464.297 182.417 454.169 175.404 452.29 179.091C450.251 183.1 459.846 193.851 467.804 192.414Z" fill="#B4C1EF" stroke="#263238" stroke-miterlimit="10"/>
<path d="M467.803 192.414L458.067 183.11" stroke="#263238" stroke-width="0.5" stroke-miterlimit="10"/>
<path d="M475.811 165.457L469.421 155.048" stroke="#263238" stroke-width="2" stroke-miterlimit="10"/>
<path d="M471.37 158.172C471.37 158.172 472.415 154.384 469.572 150.506C467.864 148.175 457.736 141.162 455.857 144.849C453.817 148.858 463.413 159.609 471.37 158.172Z" fill="#B4C1EF" stroke="#263238" stroke-miterlimit="10"/>
<path d="M471.37 158.172L461.644 148.868" stroke="#263238" stroke-width="0.5" stroke-miterlimit="10"/>
<path d="M478.544 143.573C478.544 143.573 479.589 139.785 476.745 135.907C475.037 133.576 464.91 126.563 463.031 130.25C460.991 134.259 470.586 145.01 478.544 143.573Z" fill="#B4C1EF" stroke="#263238" stroke-miterlimit="10"/>
<path d="M478.544 143.573L468.818 134.27" stroke="#263238" stroke-width="0.5" stroke-miterlimit="10"/>
<path d="M477.981 143.975C477.981 143.975 481.859 144.618 485.416 141.383C487.556 139.434 493.464 128.633 489.606 127.156C485.406 125.548 475.72 136.219 477.991 143.975H477.981Z" fill="#B4C1EF" stroke="#263238" stroke-miterlimit="10"/>
<path d="M477.981 143.975L486.21 133.325" stroke="#263238" stroke-width="0.5" stroke-miterlimit="10"/>
<path d="M429.513 169.014L447.94 346.592" stroke="#263238" stroke-width="2" stroke-miterlimit="10"/>
<path d="M443.86 312.722L450.26 302.313" stroke="#263238" stroke-width="2" stroke-miterlimit="10"/>
<path d="M448.311 305.438C448.311 305.438 447.266 301.65 450.12 297.771C451.838 295.44 461.956 288.437 463.835 292.125C465.874 296.134 456.269 306.884 448.321 305.438H448.311Z" fill="#B4C1EF" stroke="#263238" stroke-miterlimit="10"/>
<path d="M448.311 305.438L457.494 296.626" stroke="#263238" stroke-width="0.5" stroke-miterlimit="10"/>
<path d="M438.747 263.439L445.147 253.03" stroke="#263238" stroke-width="2" stroke-miterlimit="10"/>
<path d="M443.197 256.155C443.197 256.155 442.152 252.367 445.006 248.489C446.724 246.158 456.842 239.155 458.721 242.842C460.76 246.851 451.155 257.602 443.207 256.155H443.197Z" fill="#B4C1EF" stroke="#263238" stroke-miterlimit="10"/>
<path d="M443.197 256.155L452.381 247.343" stroke="#263238" stroke-width="0.5" stroke-miterlimit="10"/>
<path d="M440.847 283.634L447.237 273.225" stroke="#263238" stroke-width="2" stroke-miterlimit="10"/>
<path d="M445.287 276.35C445.287 276.35 444.242 272.562 447.096 268.684C448.814 266.353 458.932 259.35 460.81 263.037C462.85 267.046 453.245 277.797 445.297 276.35H445.287Z" fill="#B4C1EF" stroke="#263238" stroke-miterlimit="10"/>
<path d="M445.287 276.35L454.471 267.539" stroke="#263238" stroke-width="0.5" stroke-miterlimit="10"/>
<path d="M435.34 230.634L441.741 220.225" stroke="#263238" stroke-width="2" stroke-miterlimit="10"/>
<path d="M439.791 223.35C439.791 223.35 438.746 219.562 441.6 215.684C443.318 213.353 453.435 206.35 455.314 210.037C457.354 214.046 447.749 224.797 439.801 223.35H439.791Z" fill="#B4C1EF" stroke="#263238" stroke-miterlimit="10"/>
<path d="M439.791 223.35L448.974 214.539" stroke="#263238" stroke-width="0.5" stroke-miterlimit="10"/>
<path d="M431.924 197.679L438.324 187.27" stroke="#263238" stroke-width="2" stroke-miterlimit="10"/>
<path d="M436.365 190.394C436.365 190.394 435.32 186.607 438.173 182.728C439.891 180.397 450.009 173.394 451.888 177.082C453.928 181.091 444.322 191.841 436.375 190.394H436.365Z" fill="#B4C1EF" stroke="#263238" stroke-miterlimit="10"/>
<path d="M436.365 190.395L445.558 181.583" stroke="#263238" stroke-width="0.5" stroke-miterlimit="10"/>
<path d="M442.788 300.735L434.388 291.863" stroke="#263238" stroke-width="2" stroke-miterlimit="10"/>
<path d="M436.938 294.526C436.938 294.526 437.179 290.597 433.602 287.402C431.442 285.473 420.099 280.691 419.023 284.689C417.848 289.04 429.463 297.58 436.948 294.526H436.938Z" fill="#B4C1EF" stroke="#263238" stroke-miterlimit="10"/>
<path d="M436.938 294.526L425.504 287.422" stroke="#263238" stroke-width="0.5" stroke-miterlimit="10"/>
<path d="M437.269 247.594L428.87 238.712" stroke="#263238" stroke-width="2" stroke-miterlimit="10"/>
<path d="M431.422 241.375C431.422 241.375 431.663 237.447 428.086 234.252C425.926 232.323 414.582 227.54 413.507 231.539C412.331 235.889 423.946 244.43 431.432 241.375H431.422Z" fill="#B4C1EF" stroke="#263238" stroke-miterlimit="10"/>
<path d="M431.422 241.375L419.988 234.282" stroke="#263238" stroke-width="0.5" stroke-miterlimit="10"/>
<path d="M434.847 224.234L426.448 215.363" stroke="#263238" stroke-width="2" stroke-miterlimit="10"/>
<path d="M429 218.015C429 218.015 429.241 214.086 425.664 210.891C423.504 208.962 412.16 204.18 411.085 208.178C409.91 212.529 421.524 221.069 429.01 218.015H429Z" fill="#B4C1EF" stroke="#263238" stroke-miterlimit="10"/>
<path d="M429 218.015L417.566 210.921" stroke="#263238" stroke-width="0.5" stroke-miterlimit="10"/>
<path d="M431.291 189.993L422.901 181.121" stroke="#263238" stroke-width="2" stroke-miterlimit="10"/>
<path d="M425.443 183.783C425.443 183.783 425.684 179.855 422.107 176.66C419.947 174.73 408.604 169.948 407.528 173.947C406.353 178.297 417.968 186.838 425.453 183.783H425.443Z" fill="#B4C1EF" stroke="#263238" stroke-miterlimit="10"/>
<path d="M425.443 183.783L414.009 176.68" stroke="#263238" stroke-width="0.5" stroke-miterlimit="10"/>
<path d="M429.462 168.009C429.462 168.009 429.703 164.08 426.126 160.885C423.966 158.956 412.622 154.173 411.547 158.172C410.372 162.523 421.987 171.063 429.472 168.009H429.462Z" fill="#B4C1EF" stroke="#263238" stroke-miterlimit="10"/>
<path d="M429.462 168.009L418.028 160.915" stroke="#263238" stroke-width="0.5" stroke-miterlimit="10"/>
<path d="M428.99 168.521C428.99 168.521 432.919 168.35 435.732 164.452C437.42 162.111 440.987 150.325 436.897 149.662C432.456 148.949 425.172 161.398 428.99 168.511V168.521Z" fill="#B4C1EF" stroke="#263238" stroke-miterlimit="10"/>
<path d="M428.99 168.521L434.847 156.404" stroke="#263238" stroke-width="0.5" stroke-miterlimit="10"/>
<path d="M450.622 96.7024V321.262" stroke="#263238" stroke-width="2" stroke-miterlimit="10"/>
<path d="M450.451 287.503L457.886 277.797" stroke="#263238" stroke-width="2" stroke-miterlimit="10"/>
<path d="M455.615 280.711C455.615 280.711 454.972 276.832 458.198 273.276C460.147 271.136 470.938 265.208 472.425 269.076C474.042 273.276 463.372 282.971 455.615 280.711Z" fill="#B4C1EF" stroke="#263238" stroke-miterlimit="10"/>
<path d="M455.615 280.711L465.663 272.894" stroke="#263238" stroke-width="0.5" stroke-miterlimit="10"/>
<path d="M450.451 245.293L457.886 235.598" stroke="#263238" stroke-width="2" stroke-miterlimit="10"/>
<path d="M455.615 238.512C455.615 238.512 454.972 234.633 458.198 231.076C460.147 228.936 470.938 223.008 472.425 226.877C474.042 231.076 463.372 240.772 455.615 238.512Z" fill="#B4C1EF" stroke="#263238" stroke-miterlimit="10"/>
<path d="M455.615 238.511L465.663 230.695" stroke="#263238" stroke-width="0.5" stroke-miterlimit="10"/>
<path d="M450.451 195.75L457.886 186.054" stroke="#263238" stroke-width="2" stroke-miterlimit="10"/>
<path d="M455.615 188.958C455.615 188.958 454.972 185.08 458.198 181.523C460.147 179.383 470.938 173.455 472.425 177.323C474.042 181.523 463.372 191.219 455.615 188.958Z" fill="#B4C1EF" stroke="#263238" stroke-miterlimit="10"/>
<path d="M455.615 188.958L465.663 181.141" stroke="#263238" stroke-width="0.5" stroke-miterlimit="10"/>
<path d="M450.451 162.764L457.886 153.068" stroke="#263238" stroke-width="2" stroke-miterlimit="10"/>
<path d="M455.615 155.972C455.615 155.972 454.972 152.094 458.198 148.537C460.147 146.397 470.938 140.469 472.425 144.337C474.042 148.537 463.372 158.233 455.615 155.972Z" fill="#B4C1EF" stroke="#263238" stroke-miterlimit="10"/>
<path d="M455.615 155.972L465.663 148.155" stroke="#263238" stroke-width="0.5" stroke-miterlimit="10"/>
<path d="M450.451 129.638L457.886 119.942" stroke="#263238" stroke-width="2" stroke-miterlimit="10"/>
<path d="M455.615 122.846C455.615 122.846 454.972 118.967 458.198 115.411C460.147 113.271 470.938 107.343 472.425 111.211C474.042 115.411 463.372 125.106 455.615 122.846Z" fill="#B4C1EF" stroke="#263238" stroke-miterlimit="10"/>
<path d="M455.615 122.846L465.663 115.029" stroke="#263238" stroke-width="0.5" stroke-miterlimit="10"/>
<path d="M450.612 300.384L443.177 290.688" stroke="#263238" stroke-width="2" stroke-miterlimit="10"/>
<path d="M445.437 293.602C445.437 293.602 446.08 289.723 442.855 286.167C440.906 284.026 430.115 278.098 428.628 281.967C427.01 286.167 437.681 295.862 445.437 293.602Z" fill="#B4C1EF" stroke="#263238" stroke-miterlimit="10"/>
<path d="M445.438 293.602L434.797 285.363" stroke="#263238" stroke-width="0.5" stroke-miterlimit="10"/>
<path d="M450.612 233.267L443.177 223.571" stroke="#263238" stroke-width="2" stroke-miterlimit="10"/>
<path d="M445.437 226.475C445.437 226.475 446.08 222.596 442.855 219.04C440.906 216.899 430.115 210.972 428.628 214.84C427.01 219.04 437.681 228.735 445.437 226.475Z" fill="#B4C1EF" stroke="#263238" stroke-miterlimit="10"/>
<path d="M445.438 226.475L434.797 218.236" stroke="#263238" stroke-width="0.5" stroke-miterlimit="10"/>
<path d="M450.612 200.14L443.177 190.445" stroke="#263238" stroke-width="2" stroke-miterlimit="10"/>
<path d="M445.437 193.348C445.437 193.348 446.08 189.47 442.855 185.913C440.906 183.773 430.115 177.845 428.628 181.714C427.01 185.913 437.681 195.609 445.437 193.348Z" fill="#B4C1EF" stroke="#263238" stroke-miterlimit="10"/>
<path d="M445.438 193.348L434.797 185.109" stroke="#263238" stroke-width="0.5" stroke-miterlimit="10"/>
<path d="M450.612 156.354L443.177 146.658" stroke="#263238" stroke-width="2" stroke-miterlimit="10"/>
<path d="M445.437 149.562C445.437 149.562 446.08 145.683 442.855 142.127C440.906 139.986 430.115 134.058 428.628 137.927C427.01 142.127 437.681 151.822 445.437 149.562Z" fill="#B4C1EF" stroke="#263238" stroke-miterlimit="10"/>
<path d="M445.438 149.561L434.797 141.323" stroke="#263238" stroke-width="0.5" stroke-miterlimit="10"/>
<path d="M450.612 121.931L443.177 112.226" stroke="#263238" stroke-width="2" stroke-miterlimit="10"/>
<path d="M445.437 115.139C445.437 115.139 446.08 111.261 442.855 107.704C440.906 105.564 430.115 99.6363 428.628 103.505C427.01 107.704 437.681 117.4 445.437 115.139Z" fill="#B4C1EF" stroke="#263238" stroke-miterlimit="10"/>
<path d="M445.438 115.139L434.797 106.9" stroke="#263238" stroke-width="0.5" stroke-miterlimit="10"/>
<path d="M451.054 99.867C451.054 99.867 451.697 95.9887 448.472 92.4319C446.523 90.2918 435.732 84.3638 434.245 88.2321C432.627 92.4319 443.298 102.128 451.054 99.867Z" fill="#B4C1EF" stroke="#263238" stroke-miterlimit="10"/>
<path d="M451.054 99.8673L440.414 91.6284" stroke="#263238" stroke-width="0.5" stroke-miterlimit="10"/>
<path d="M450.542 100.329C450.542 100.329 454.47 100.57 457.665 96.9734C459.584 94.8132 464.347 83.4596 460.348 82.3846C455.997 81.2191 447.477 92.8439 450.542 100.319V100.329Z" fill="#B4C1EF" stroke="#263238" stroke-miterlimit="10"/>
<path d="M450.542 100.33L457.615 88.8855" stroke="#263238" stroke-width="0.5" stroke-miterlimit="10"/>
<path d="M441.389 379.507H465.171L468.145 319.444H438.415L441.389 379.507Z" fill="#001F2E" stroke="#0E1619" stroke-miterlimit="10"/>
<path d="M226.504 135.425H153.168L170.249 198.342H243.585L226.504 135.425Z" fill="#B9B9B9" stroke="#111111" stroke-linecap="round" stroke-linejoin="round"/>
<path d="M224.414 137.766H156.544L172.349 196.001H240.219L224.414 137.766Z" fill="#FAFCFF" stroke="#111111" stroke-linecap="round" stroke-linejoin="round"/>
<path d="M170.249 195.006H273.054V198.352H170.249V195.006Z" fill="#B9B9B9" stroke="#111111" stroke-linecap="round" stroke-linejoin="round"/>
<path d="M170.249 195.006H217.492V198.352H170.249V195.006Z" fill="#B9B9B9" stroke="#111111" stroke-linecap="round" stroke-linejoin="round"/>
<path d="M300.414 203.677H305.94V379.115H300.414V203.677Z" fill="#111111" stroke="#111111" stroke-linecap="round" stroke-linejoin="round"/>
<path d="M310.662 379.115H305.94V203.677H310.662V379.115Z" fill="#003574" stroke="#111111" stroke-linecap="round" stroke-linejoin="round"/>
<path d="M158.855 295.47H164.381V379.115H158.855V295.47Z" fill="#111111" stroke="#111111" stroke-linecap="round" stroke-linejoin="round"/>
<path d="M169.103 379.125H164.381V295.48H169.103V379.125Z" fill="#003574" stroke="#111111" stroke-linecap="round" stroke-linejoin="round"/>
<path d="M99.6759 295.47H105.202V379.115H99.6759V295.47Z" fill="#111111" stroke="#111111" stroke-linecap="round" stroke-linejoin="round"/>
<path d="M109.924 379.125H105.202L105.202 295.48H109.924L109.924 379.125Z" fill="#003574" stroke="#111111" stroke-linecap="round" stroke-linejoin="round"/>
<path d="M219.15 300.243H165.235V205.375H219.15V300.243Z" fill="#003574" stroke="#111111" stroke-linecap="round" stroke-linejoin="round"/>
<path d="M94.1899 205.385H165.235V300.253H94.1899V205.385Z" fill="#111111" stroke="#111111" stroke-linecap="round" stroke-linejoin="round"/>
<path d="M165.235 205.385H219.15V210.007H165.235H94.1901V205.385H165.235Z" fill="#111111" stroke="#111111" stroke-linecap="round" stroke-linejoin="round"/>
<path d="M168.581 210.821H214.548V232.965H168.581V210.821Z" fill="#111111" stroke="#111111" stroke-linecap="round" stroke-linejoin="round"/>
<path d="M185.511 219.803H197.628V223.983H185.511V219.803Z" fill="#111111"/>
<path d="M168.581 241.325H214.548V263.469H168.581V241.325Z" fill="#111111" stroke="#111111" stroke-linecap="round" stroke-linejoin="round"/>
<path d="M185.511 249.895H197.628V254.075H185.511V249.895Z" fill="#111111"/>
<path d="M168.581 271.829H214.548V293.973H168.581V271.829Z" fill="#111111" stroke="#111111" stroke-linecap="round" stroke-linejoin="round"/>
<path d="M185.511 279.977H197.628V284.157H185.511V279.977Z" fill="#111111"/>
<path d="M86.8655 201.215H318.288V206.731H86.8655V201.215Z" fill="#003574" stroke="#111111" stroke-linecap="round" stroke-linejoin="round"/>
<path d="M86.8658 201.215H156.746V206.731H86.8658V201.215Z" fill="#111111" stroke="#111111" stroke-linecap="round" stroke-linejoin="round"/>
<path d="M298.654 257.36C298.654 257.36 291.762 262.132 281.533 291.621C278.127 301.438 259.037 354.307 258.032 357.995C257.028 361.682 255.018 366.033 252.004 366.033C248.99 366.033 237.938 351.966 239.274 350.288C240.61 348.61 246.98 341.919 246.98 341.919C246.98 341.919 250.778 299.117 251.451 287.06C252.125 275.003 249.382 260.474 255.742 250.769C262.102 241.053 290.234 251.1 290.234 251.1L298.644 257.36H298.654Z" fill="#FFCEB3" stroke="#0E1619" stroke-linecap="round" stroke-linejoin="round"/>
<path d="M243.976 341.919C243.976 341.919 246.659 343.255 246.317 346.269C245.986 349.283 242.972 353.302 242.972 353.302C242.972 353.302 249.332 358.326 252.687 358.658C256.033 358.989 259.721 359.662 259.721 360.667C259.721 361.672 257.038 363.35 255.37 367.027C253.692 370.714 250.015 376.401 249.01 377.748C248.005 379.084 247.332 380.089 243.655 379.084C239.977 378.079 231.929 370.714 227.579 367.7C223.228 364.686 210.167 362.677 207.816 360.999C205.475 359.321 198.1 348.61 201.456 346.601C204.811 344.591 205.806 346.932 209.825 347.937C213.844 348.942 225.569 347.605 231.929 346.259C238.289 344.923 240.299 344.581 240.299 344.581L243.986 341.898L243.976 341.919Z" fill="#0E1619" stroke="#0E1619" stroke-linecap="round" stroke-linejoin="round"/>
<path d="M249.543 376.994C249.322 377.316 249.141 377.577 249 377.758C247.995 379.094 247.322 380.099 243.645 379.094C239.967 378.089 231.919 370.724 227.569 367.71C223.218 364.696 210.157 362.687 207.806 361.009C205.465 359.331 198.09 348.62 201.446 346.611C202.008 346.269 202.511 346.068 202.963 345.948C202.902 346.169 202.842 346.37 202.782 346.611C201.777 350.63 205.123 354.649 208.137 357.663C211.151 360.677 221.199 360.004 232.251 365.701C239.967 369.68 246.378 374.462 249.543 376.994Z" fill="#3F0000" stroke="#0E1619" stroke-linecap="round" stroke-linejoin="round"/>
<path d="M249.854 308.411C250.578 299.609 251.211 291.37 251.452 287.06C252.125 275.003 249.382 260.474 255.742 250.769C262.102 241.053 290.235 251.1 290.235 251.1L298.644 257.36C298.644 257.36 291.752 262.132 281.524 291.621C280.228 295.379 265.509 338.527 261.5 349.72L247.5 339.72L249.854 308.411Z" fill="#0E1619" stroke="#0E1619" stroke-linecap="round" stroke-linejoin="round"/>
<path d="M266.252 85.5692C266.252 85.5692 264.735 89.5178 265.036 92.8636C265.338 96.2094 268.382 97.7266 268.683 96.8123C268.985 95.8979 268.985 93.4665 268.985 92.2507V91.035C268.985 91.035 269.588 92.2507 271.718 94.3808C273.848 96.5108 275.064 95.8979 275.968 95.8979C276.872 95.8979 277.184 92.8636 275.666 90.7336C274.149 88.6035 269.286 83.7406 266.242 85.5692H266.252Z" fill="#FFCEB3" stroke="#263238" stroke-linecap="round" stroke-linejoin="round"/>
<path d="M259.269 93.4664C262.303 91.6478 266.865 98.0279 273.858 96.5007C274.752 96.3098 275.073 94.9835 273.556 91.9391C272.039 88.9048 267.176 86.4734 264.745 84.6447C262.313 82.8261 260.495 81.2989 260.495 79.1789C260.495 77.0589 265.96 80.3947 267.488 81.6104C268.181 82.163 270.652 83.4189 273.225 84.6749C273.596 84.6849 274.038 84.705 274.531 84.7351C277.244 84.906 281.403 85.3882 282.991 86.7748C285.06 88.5833 286.236 94.7625 286.738 97.1437C288.085 99.0929 289.29 100.881 289.984 101.966C292.114 105.312 334.956 136.61 334.956 136.61L331.922 163.346L283.302 108.045C283.302 108.045 282.086 106.829 278.741 105.614C275.395 104.398 270.843 103.484 266.885 101.364C262.936 99.2336 262.635 98.9322 258.374 96.1993C256.315 94.873 257.641 94.451 259.289 93.4664H259.269Z" fill="#FFCEB3" stroke="#263238" stroke-linecap="round" stroke-linejoin="round"/>
<path d="M310.37 118.384C322.266 127.366 334.936 136.61 334.936 136.61L331.902 163.346L302.041 129.376L310.38 118.374L310.37 118.384Z" fill="#620000" stroke="#263238" stroke-linecap="round" stroke-linejoin="round"/>
<path d="M325.32 219.491C325.32 219.491 303.889 218.486 272.742 223.51C241.595 228.534 229.94 233.879 230.875 239.918C234.672 264.373 291.772 344.883 291.772 344.883L290.767 356.267C290.767 356.267 292.777 358.949 299.81 359.281C306.843 359.613 315.554 349.565 315.554 349.565C315.554 349.565 307.697 341.437 304.683 331.721C301.669 322.005 277.434 259.339 277.434 259.339C277.434 259.339 309.255 266.372 344.42 260.012C379.586 253.652 325.33 219.491 325.33 219.491H325.32Z" fill="#FFCEB3" stroke="#0E161A" stroke-linecap="round" stroke-linejoin="round"/>
<path d="M272.732 223.51C303.879 218.486 325.31 219.491 325.31 219.491C325.31 219.491 379.566 253.652 344.4 260.012C309.234 266.372 277.414 259.339 277.414 259.339C277.414 259.339 299.032 316.1 307 337.22L290.5 343.72C273.63 318.129 230.864 254.72 230.864 239.918C229.93 233.879 241.585 228.534 272.732 223.51Z" fill="#0E161A" stroke="#0E161A" stroke-linecap="round" stroke-linejoin="round"/>
<path d="M291.772 344.883C291.772 344.883 293.782 345.556 294.786 347.897C295.791 350.238 296.464 352.589 296.464 352.589C296.464 352.589 302.824 351.253 307.185 349.244C311.536 347.234 314.55 345.225 314.55 345.225C314.55 345.225 317.564 345.556 317.564 347.566C317.564 349.575 317.896 353.263 319.242 356.608C320.106 358.769 321.935 363.561 323.14 366.696C323.733 368.253 322.809 369.971 321.181 370.333C315.876 371.509 304.703 374.091 295.138 377.035C282.076 381.054 267.678 379.044 266.001 378.713C264.323 378.381 257.631 374.362 260.645 371.68C263.66 368.997 281.413 361.964 285.091 357.282C288.778 352.589 291.792 344.893 291.792 344.893L291.772 344.883Z" fill="#0E1619" stroke="#0E161A" stroke-linecap="round" stroke-linejoin="round"/>
<path d="M261.961 370.735C261.981 374.061 263.669 377.366 268.995 377.366C274.32 377.366 283.734 376.693 297.127 371.338C307.707 367.108 318.076 364.546 321.965 363.662C322.377 364.747 322.778 365.792 323.12 366.696C323.713 368.253 322.788 369.971 321.161 370.333C315.856 371.509 304.683 374.091 295.118 377.035C282.056 381.054 267.658 379.044 265.98 378.713C264.302 378.381 257.611 374.362 260.625 371.679C260.926 371.408 261.389 371.097 261.971 370.735H261.961Z" fill="#3F0000" stroke="#0E161A" stroke-linecap="round" stroke-linejoin="round"/>
<path d="M392.97 141.473C392.97 141.473 396.617 170.339 396.315 175.815C396.014 181.281 392.065 228.383 391.151 238.722C390.237 249.051 385.987 258.174 378.391 259.992C370.795 261.811 351.042 264.554 342.532 262.424C334.021 260.294 324.908 241.153 321.864 233.859C318.83 226.565 316.7 222.003 317.614 220.486C318.528 218.969 322.477 215.623 322.477 215.623C322.477 215.623 330.073 160.322 331.901 146.035C333.72 131.757 332.816 130.541 339.497 125.066C346.179 119.6 380.822 115.038 392.98 141.473H392.97Z" fill="#620000" stroke="#1F2020" stroke-linecap="round" stroke-linejoin="round"/>
<path d="M344.35 242.239C345.445 243.072 346.591 243.866 347.756 244.61" stroke="#1F2020" stroke-linecap="round" stroke-linejoin="round"/>
<path d="M324.316 217.813C324.316 217.813 330.766 230.473 341.447 239.857" stroke="#1F2020" stroke-linecap="round" stroke-linejoin="round"/>
<path d="M328.998 218.486C328.998 218.486 339.377 228.202 349.766 234.231" stroke="#1F2020" stroke-linecap="round" stroke-linejoin="round"/>
<path d="M320.648 50.6143C320.648 50.6143 317.614 56.9944 316.7 61.5559C315.785 66.1174 315.484 70.3675 313.354 71.2818C311.224 72.1961 307.275 72.4975 307.888 74.929C308.491 77.3605 312.45 81.3091 312.45 81.3091C312.45 81.3091 311.535 95.898 311.847 98.6309C312.148 101.364 328.254 101.364 329.168 101.364C330.083 101.364 339.196 122.936 339.196 122.936L364.726 110.175L359.863 94.3708C359.863 94.3708 367.761 79.1791 368.374 72.4875C368.986 65.7959 353.483 53.6486 344.672 50.9157C335.86 48.1828 320.668 50.6143 320.668 50.6143H320.648Z" fill="#FFCEB3" stroke="#1F2020" stroke-linecap="round" stroke-linejoin="round"/>
<path d="M329.159 101.364L337.267 99.0527L334.233 110.919L329.159 101.364Z" fill="#1A1A1A" stroke="#1F2020" stroke-linecap="round" stroke-linejoin="round"/>
<path d="M317.644 67.8051C317.232 69.5232 317.433 71.0303 318.086 71.1911C318.739 71.3519 319.603 70.0859 320.015 68.3678C320.427 66.6496 320.226 65.1425 319.573 64.9818C318.92 64.821 318.056 66.087 317.644 67.8051Z" fill="#1A1A1A"/>
<path d="M322.779 84.042C322.779 84.042 319.131 86.7749 315.786 85.5591" stroke="#1F2020" stroke-linecap="round" stroke-linejoin="round"/>
<path d="M322.165 44.8469C322.165 44.8469 317.915 52.4427 320.95 57.3057C323.984 62.1686 331.278 64.2987 335.227 68.8502C339.176 73.4117 341.306 81.309 342.823 81.9219C344.34 82.5247 348.902 73.4117 351.634 74.0246C354.367 74.6375 358.929 81.0176 354.98 87.6991C351.032 94.3807 344.039 93.4764 344.039 93.4764C344.039 93.4764 354.98 99.2537 357.11 99.2537C359.24 99.2537 365.62 95.6065 368.655 92.2607C371.689 88.9149 382.631 78.8876 383.244 70.6889C383.857 62.4902 372.915 52.1514 372.915 52.1514C372.915 52.1514 380.294 49.7098 376.948 44.8469C373.602 39.9839 367.449 38.4768 367.449 38.4768C367.449 38.4768 366.428 32.446 363.384 30.9288C360.35 29.4116 348.313 30.9288 348.313 30.9288C348.313 30.9288 350.127 27.2438 342.833 26.9323C335.538 26.6309 323.08 35.7439 322.165 44.8569V44.8469Z" fill="#1A1A1A" stroke="#1F2020" stroke-linecap="round" stroke-linejoin="round"/>
<path d="M346.35 77.8424L307.587 62.1685" stroke="#1F2020" stroke-linecap="round" stroke-linejoin="round"/>
<path d="M317.695 59.9681C316.881 59.6264 315.976 59.4355 315.032 59.4355C311.254 59.4355 308.2 62.5 308.2 66.2778C308.2 68.8399 309.606 71.0705 311.696 72.246" stroke="#1F2020" stroke-linecap="round" stroke-linejoin="round"/>
<path d="M331.891 131.446C331.891 131.446 332.193 122.634 334.624 120.203C337.056 117.771 354.98 107.744 363.189 105.614C371.398 103.484 379.898 106.528 385.374 108.347C390.84 110.165 394.487 115.34 396.617 126.583C398.747 137.826 399.048 144.819 394.487 145.422C389.925 146.024 383.545 132.35 369.268 129.617C354.99 126.884 341.919 129.316 338.884 130.833C335.85 132.35 331.891 131.436 331.891 131.436V131.446Z" fill="#620000" stroke="#1F2020" stroke-linecap="round" stroke-linejoin="round"/>
<path d="M378.049 122.122C380.792 123.086 382.641 123.85 382.641 123.85" stroke="#1F2020" stroke-linecap="round" stroke-linejoin="round"/>
<path d="M331.891 131.446C331.891 131.446 351.032 120.805 358.025 118.685C361.672 117.57 368.223 119.037 373.658 120.685" stroke="#1F2020" stroke-linecap="round" stroke-linejoin="round"/>
<path d="M241.656 180.839C241.656 180.839 242.65 187.158 243.826 187.872C245.001 188.585 244.911 182.004 244.911 182.004C244.911 182.004 246.358 185.792 247.252 186.696C248.146 187.601 247.614 182.818 247.614 182.818L246.619 178.307L241.656 180.829V180.839Z" fill="#FFCEB3" stroke="#1F2020" stroke-linecap="round" stroke-linejoin="round"/>
<path d="M254.526 174.589L245.202 174.74C245.202 174.74 242.74 175.092 242.389 176.498C242.037 177.905 240.63 181.07 240.63 181.07L255.049 176.85L254.526 174.589Z" fill="#FFCEB3" stroke="#1F2020" stroke-linecap="round" stroke-linejoin="round"/>
<path d="M251.18 177.553C251.18 177.553 238.169 175.795 237.817 176.85C237.556 177.644 236.541 184.798 236.33 187.108C236.3 187.47 236.762 187.661 236.983 187.37L240.631 181.08L250.477 181.783C250.477 181.783 253.29 179.322 251.18 177.563V177.553Z" fill="#FFCEB3" stroke="#1F2020" stroke-linecap="round" stroke-linejoin="round"/>
<path d="M359.17 138.157C359.17 138.157 367.258 144.135 364.445 158.915C361.632 173.685 341.929 214.136 340.17 217.662C338.412 221.179 330.676 221.531 327.159 220.476C323.642 219.421 261.027 194.443 261.027 194.443C261.027 194.443 254.345 192.685 253.29 191.278C252.235 189.871 245.554 182.486 245.554 182.486C245.554 182.486 235.004 183.893 232.543 183.19C230.081 182.486 235.004 181.783 237.466 181.08C239.365 180.537 249.824 176.448 254.526 174.599C255.913 174.057 257.48 174.388 258.525 175.453C261.821 178.829 268.844 185.993 270.18 187.058C271.938 188.465 321.533 196.904 321.533 196.904C321.533 196.904 333.137 142.387 337.709 137.806C342.28 133.224 350.369 134.289 350.369 134.289" fill="#620000"/>
<path d="M359.17 138.157C359.17 138.157 367.258 144.135 364.445 158.915C361.632 173.685 341.929 214.136 340.17 217.662C338.412 221.179 330.676 221.531 327.159 220.476C323.642 219.421 261.027 194.443 261.027 194.443C261.027 194.443 254.345 192.685 253.29 191.278C252.235 189.871 245.554 182.486 245.554 182.486C245.554 182.486 235.004 183.893 232.543 183.19C230.081 182.486 235.004 181.783 237.466 181.08C239.365 180.537 249.824 176.448 254.526 174.599C255.913 174.057 257.48 174.388 258.525 175.453C261.821 178.829 268.844 185.993 270.18 187.058C271.938 188.465 321.533 196.904 321.533 196.904C321.533 196.904 333.137 142.387 337.709 137.806C342.28 133.224 350.369 134.289 350.369 134.289" stroke="#1F2020" stroke-linecap="round" stroke-linejoin="round"/>
<path d="M293.751 207.444C277.324 200.934 261.037 194.443 261.037 194.443C261.037 194.443 254.356 192.685 253.301 191.278C252.246 189.871 245.564 182.486 245.564 182.486C245.564 182.486 235.014 183.893 232.553 183.19C230.091 182.486 235.014 181.783 237.476 181.08C239.375 180.537 249.834 176.448 254.536 174.599C255.923 174.057 257.49 174.388 258.535 175.453C261.831 178.829 268.854 185.993 270.19 187.058C271.105 187.791 284.96 190.424 298.052 192.785L293.762 207.444H293.751Z" fill="#FFCEB3" stroke="#1F2020" stroke-linecap="round" stroke-linejoin="round"/>
<path d="M403.69 276.671L419.012 378.492C419.213 379.526 417.716 379.898 417.395 378.893L394.316 278.339L403.69 276.661V276.671Z" fill="#001F2E" stroke="#263238" stroke-linecap="round" stroke-linejoin="round"/>
<path d="M380.822 277.344L374.151 378.311C374.07 379.356 372.523 379.326 372.483 378.281L371.327 276.51L380.812 277.344H380.822Z" fill="#001F2E" stroke="#263238" stroke-linecap="round" stroke-linejoin="round"/>
<path d="M358.346 278.871L340.06 378.07C339.839 379.094 338.312 378.853 338.422 377.808L349.072 276.711L358.346 278.871Z" fill="#001F2E" stroke="#263238" stroke-linecap="round" stroke-linejoin="round"/>
<path d="M322.999 278.027L308.038 377.909C307.858 378.944 306.32 378.763 306.391 377.708L313.645 276.249L322.999 278.027Z" fill="#001F2E" stroke="#263238" stroke-linecap="round" stroke-linejoin="round"/>
<path d="M337.297 257.701C337.297 257.701 354.88 251.844 363.089 230.734C371.298 209.634 384.781 173.283 394.155 168.591C403.54 163.899 421.705 172.69 422.881 206.701C424.057 240.701 421.304 266.001 413.728 274.34C407.026 281.705 395.642 291.089 356.126 291.752C320.839 292.355 306.421 278.901 301.538 274.34C296.515 269.648 288.637 260.052 295.088 260.052C301.538 260.052 329.088 260.052 337.297 257.711V257.701Z" fill="#001F2E" stroke="#263238" stroke-linecap="round" stroke-linejoin="round"/>
<path d="M159.489 31.8171C159.489 31.8171 166.351 23.8093 175.886 22.2821C185.421 20.7549 186.064 34.6907 173.856 40.7895C168.652 43.3918 162.915 42.4975 162.915 42.4975C162.915 42.4975 172.641 54.0018 166.351 55.8405C152.234 59.97 155.289 38.2977 155.289 38.2977L159.479 31.8171H159.489Z" fill="white" stroke="#1F1F1F" stroke-linecap="round" stroke-linejoin="round"/>
<path d="M157.188 31.3148C157.188 31.3148 161.197 21.5588 158.213 12.3755C155.229 3.19211 143.252 9.43156 143.373 23.0659C143.423 28.8834 146.116 33.1133 146.116 33.1133C146.116 33.1133 130.783 29.8479 132.672 36.1376C136.962 50.425 153.33 37.9964 153.33 37.9964L157.188 31.3148Z" fill="white" stroke="#1F1F1F" stroke-linecap="round" stroke-linejoin="round"/>
<path d="M151.863 43.5023C152.204 43.5023 152.536 43.3315 152.727 43.01L162.262 26.9944C162.543 26.5222 162.392 25.8992 161.91 25.6179C161.438 25.3366 160.815 25.4873 160.534 25.9695L150.999 41.9851C150.717 42.4574 150.868 43.0803 151.35 43.3616C151.511 43.4621 151.692 43.5023 151.863 43.5023Z" fill="#191919"/>
<path d="M160.634 28.3909C160.634 28.3909 164.07 21.1467 170.169 20.3831" stroke="#1F1F1F" stroke-linecap="round" stroke-linejoin="round"/>
<path d="M161.773 26.5799C161.773 26.5799 163.783 20.6117 162.255 16.7937" stroke="#1F1F1F" stroke-linecap="round" stroke-linejoin="round"/>
<path d="M166.612 32.7414C166.974 34.5097 169.607 35.4743 172.5 34.8915C175.394 34.3088 177.444 32.3897 177.092 30.6214C176.73 28.853 174.098 27.8885 171.204 28.4712C168.31 29.054 166.261 30.973 166.612 32.7414Z" fill="#006EF2" stroke="#1F1F1F" stroke-linecap="round" stroke-linejoin="round"/>
<path d="M159.478 45.2004C158.454 45.8735 158.514 47.7725 159.609 49.4404C160.704 51.1082 162.422 51.9221 163.447 51.2489C164.472 50.5757 164.412 48.6768 163.316 47.0089C162.221 45.341 160.503 44.5272 159.478 45.2004Z" fill="#006EF2" stroke="#1F1F1F" stroke-linecap="round" stroke-linejoin="round"/>
<path d="M138.54 36.7907C138.52 38.0165 140.127 39.0312 142.127 39.0513C144.126 39.0714 145.754 38.1069 145.774 36.8811C145.794 35.6553 144.186 34.6405 142.187 34.6204C140.188 34.6003 138.56 35.5649 138.54 36.7907Z" fill="#006EF2" stroke="#1F1F1F" stroke-linecap="round" stroke-linejoin="round"/>
<path d="M150.918 26.301C152.717 26.502 154.435 24.2815 154.767 21.3476C155.088 18.4138 153.892 15.8718 152.094 15.6708C150.295 15.4699 148.577 17.6904 148.246 20.6242C147.924 23.5581 149.12 26.1001 150.908 26.301H150.918Z" fill="#006EF2" stroke="#1F1F1F" stroke-linecap="round" stroke-linejoin="round"/>
<path d="M347.639 90.2087C348.687 90.194 349.664 89.3279 349.952 88.1535C350.227 87.0452 349.867 85.7828 349.061 85.0048C348.681 84.6378 348.281 84.4616 347.881 84.4616C347.75 84.4616 347.626 84.491 347.508 84.5423C347.534 84.3148 347.56 84.0873 347.612 83.8597C347.73 83.2872 347.934 82.8101 348.209 82.4578C348.484 82.1055 348.825 81.9 349.139 81.9C349.421 81.8927 349.703 82.0541 349.893 82.311C350.076 82.5606 350.181 82.9129 350.168 83.2652C350.168 83.4707 350.306 83.6395 350.483 83.6469C350.66 83.6616 350.817 83.4927 350.824 83.2946C350.843 82.7588 350.686 82.2303 350.398 81.8413C350.083 81.4156 349.611 81.166 349.146 81.166C348.641 81.166 348.124 81.4596 347.724 81.9734C347.377 82.4211 347.128 83.001 346.983 83.6909C346.859 84.3001 346.826 84.9167 346.806 85.4965C346.8 85.6947 346.931 85.8562 347.101 85.8782C347.278 85.8929 347.429 85.7608 347.455 85.5626C347.481 85.3717 347.691 85.2029 347.907 85.1956C348.189 85.1809 348.464 85.3864 348.641 85.5552C349.251 86.1424 349.533 87.126 349.329 87.9554C349.12 88.8068 348.392 89.4527 347.639 89.4674C347.455 89.4674 347.311 89.6362 347.318 89.8417C347.318 90.0399 347.468 90.2014 347.645 90.2014L347.639 90.2087Z" fill="#25292B"/>
<path d="M195.973 164.125C195.864 161.233 195.191 155.887 192.022 151.751C187.44 145.782 179.135 153.895 182.64 164.058C183.128 165.47 183.859 166.681 184.616 167.681" stroke="#111111" stroke-linecap="round" stroke-linejoin="round"/>
<path d="M187.919 170.876C187.919 170.876 175.805 172.717 178.352 177.164C182.774 184.881 190.105 177.795 193.207 174.188" stroke="#111111" stroke-linecap="round" stroke-linejoin="round"/>
<path d="M193.416 160.259C194.778 163.915 194.493 167.404 192.769 168.043C191.046 168.682 188.558 166.236 187.196 162.579C185.834 158.922 186.12 155.433 187.843 154.794C189.558 154.155 192.055 156.602 193.416 160.259Z" fill="#006EF2" stroke="#111111" stroke-linecap="round" stroke-linejoin="round"/>
<path d="M181.211 177.374C181.631 178.492 183.791 178.711 186.027 177.862C188.264 177.013 189.726 175.424 189.306 174.306C188.886 173.188 186.725 172.969 184.489 173.818C182.253 174.667 180.79 176.256 181.211 177.374Z" fill="#006EF2" stroke="#111111" stroke-linecap="round" stroke-linejoin="round"/>
<path d="M199.621 153.819C199.621 153.819 202.059 160.006 197.646 165.479C197.646 165.479 198.394 161.435 196.603 156.198" stroke="#111111" stroke-linecap="round" stroke-linejoin="round"/>
<g clip-path="url(#clip0_1_765)">
<path d="M195.12 166.746H196.438V173.471H195.12V166.746Z" fill="#111111"/>
<path d="M204.177 170.101C204.177 172.141 202.688 173.463 200.582 173.463H197.876V166.746H200.59C202.696 166.746 204.186 168.06 204.186 170.101H204.177ZM202.842 170.117C202.842 168.689 201.9 167.843 200.539 167.843H199.186V172.367H200.539C201.892 172.367 202.842 171.536 202.842 170.125V170.117Z" fill="#111111"/>
<path d="M210.025 172.391V173.463H205.29V166.746H209.965V167.819H206.609V169.496H209.605V170.568H206.609V172.399H210.025V172.391Z" fill="#111111"/>
<path d="M215.11 171.875H212.328L211.754 173.471H210.453L212.91 166.746H214.502L216.977 173.471H215.684L215.11 171.875ZM214.742 170.859L213.715 168.044L212.696 170.859H214.742Z" fill="#111111"/>
</g>
<path d="M530 379.72L2.00034 379.72" stroke="#263238" stroke-width="3" stroke-linecap="round" stroke-linejoin="round"/>
<defs>
<clipPath id="clip0_1_765">
<rect width="21.857" height="6.72522" fill="white" transform="translate(195.12 166.746)"/>
</clipPath>
</defs>
</svg>
