<svg width="11" height="11" viewBox="0 0 11 11" fill="none" xmlns="http://www.w3.org/2000/svg">
<path d="M8.03846 0H2.96154C2.17635 0.000839927 1.42356 0.313128 0.868342 0.868342C0.313128 1.42356 0.000839927 2.17635 0 2.96154V8.03846C0.000839927 8.82365 0.313128 9.57644 0.868342 10.1317C1.42356 10.6869 2.17635 10.9992 2.96154 11H8.03846C8.82365 10.9992 9.57644 10.6869 10.1317 10.1317C10.6869 9.57644 10.9992 8.82365 11 8.03846V2.96154C10.9992 2.17635 10.6869 1.42356 10.1317 0.868342C9.57644 0.313128 8.82365 0.000839927 8.03846 0ZM5.5 8.03846C4.99794 8.03846 4.50715 7.88958 4.08971 7.61065C3.67226 7.33172 3.3469 6.93527 3.15477 6.47143C2.96264 6.00758 2.91237 5.49718 3.01031 5.00477C3.10826 4.51236 3.35003 4.06005 3.70504 3.70504C4.06005 3.35003 4.51236 3.10826 5.00477 3.01031C5.49718 2.91237 6.00758 2.96264 6.47143 3.15477C6.93527 3.3469 7.33172 3.67226 7.61065 4.08971C7.88958 4.50715 8.03846 4.99794 8.03846 5.5C8.03776 6.17303 7.77009 6.81829 7.29419 7.29419C6.81829 7.77009 6.17303 8.03776 5.5 8.03846ZM8.67308 2.96154C8.54756 2.96154 8.42487 2.92432 8.3205 2.85459C8.21614 2.78485 8.1348 2.68574 8.08677 2.56978C8.03874 2.45382 8.02617 2.32622 8.05066 2.20312C8.07514 2.08001 8.13558 1.96693 8.22434 1.87818C8.31309 1.78943 8.42617 1.72899 8.54927 1.7045C8.67237 1.68001 8.79997 1.69258 8.91593 1.74061C9.03189 1.78865 9.13101 1.86999 9.20074 1.97435C9.27047 2.07871 9.30769 2.20141 9.30769 2.32692C9.30769 2.49523 9.24083 2.65665 9.12182 2.77566C9.0028 2.89468 8.84139 2.96154 8.67308 2.96154ZM7.19231 5.5C7.19231 5.83471 7.09306 6.1619 6.9071 6.4402C6.72115 6.71849 6.45685 6.9354 6.14762 7.06349C5.83839 7.19158 5.49812 7.22509 5.16985 7.15979C4.84157 7.09449 4.54003 6.93332 4.30336 6.69664C4.06668 6.45997 3.90551 6.15843 3.84021 5.83015C3.77491 5.50188 3.80842 5.16161 3.93651 4.85238C4.0646 4.54315 4.28151 4.27885 4.5598 4.0929C4.8381 3.90694 5.16529 3.80769 5.5 3.80769C5.94883 3.80769 6.37927 3.98599 6.69664 4.30336C7.01401 4.62073 7.19231 5.05117 7.19231 5.5Z" fill="#F0F3FF"/>
</svg>
