<svg width="55" height="64" viewBox="0 0 55 64" fill="none" xmlns="http://www.w3.org/2000/svg">
<g id="Group 2671">
<path id="Vector 30 (Stroke)" fill-rule="evenodd" clip-rule="evenodd" d="M12.723 9.06683C12.4082 12.1442 12.1809 15.6452 12.0462 18.3836C12.0025 19.2743 11.2515 19.9667 10.3604 19.9307C9.46939 19.8947 8.77574 19.144 8.81941 18.2534C8.95586 15.4701 9.18726 11.8971 9.51046 8.73815C9.70487 6.83794 9.93618 5.05011 10.2075 3.66355C10.3422 2.97522 10.4959 2.33767 10.6763 1.8177C10.7663 1.55845 10.8767 1.28755 11.0165 1.03874C11.3183 0.501508 12.0293 0.621516 12.3769 1.13028L13.3636 2.57435C13.4772 2.74063 13.7203 2.79236 13.8302 2.6236C13.8162 2.64947 13.7793 2.72627 13.7272 2.87629C13.6188 3.18874 13.4993 3.65759 13.3767 4.28376C13.1336 5.52622 12.914 7.19989 12.723 9.06683ZM13.832 2.62033C13.8397 2.60662 13.8395 2.60929 13.8302 2.6236C13.8309 2.6224 13.8315 2.62131 13.832 2.62033Z" fill="#DEEDFF"/>
<path id="Vector 31 (Stroke)" fill-rule="evenodd" clip-rule="evenodd" d="M28.6527 28.7162C26.2073 30.6107 23.5155 32.8608 21.4398 34.652C20.7647 35.2346 19.7454 35.1684 19.1569 34.4984C18.5684 33.8284 18.6335 32.8084 19.3086 32.2257C21.4179 30.4049 24.1647 28.108 26.675 26.1633C28.185 24.9935 29.6391 23.9279 30.8302 23.168C31.4215 22.7908 31.9891 22.4623 32.4901 22.2344C32.7398 22.1207 33.0122 22.0138 33.2887 21.9434C33.8859 21.7914 34.2894 22.389 34.1607 22.9916L33.7957 24.7021C33.7536 24.899 33.8838 25.1107 34.0818 25.0739C34.0534 25.0816 33.9723 25.1078 33.8278 25.1736C33.5268 25.3106 33.1049 25.5474 32.567 25.8906C31.4996 26.5715 30.1363 27.5668 28.6527 28.7162ZM34.0854 25.0729C34.1007 25.0691 34.0986 25.0708 34.0818 25.0739C34.0831 25.0735 34.0843 25.0732 34.0854 25.0729Z" fill="#DEEDFF"/>
<path id="Vector 32 (Stroke)" fill-rule="evenodd" clip-rule="evenodd" d="M32.8117 43.9106C39.1581 43.8787 46.4224 43.5513 51.7142 43.2257C52.6043 43.1709 53.3731 43.844 53.4322 44.7338C53.4914 45.6236 52.8183 46.3932 51.9282 46.448C46.5945 46.7763 39.2588 47.1076 32.8279 47.1399C29.2802 47.1577 25.9701 47.0848 23.4122 46.8639C22.1384 46.7539 21.0019 46.6032 20.0972 46.394C19.6457 46.2896 19.2091 46.1611 18.8242 45.9954C18.0915 45.68 18.148 44.7584 18.7592 44.2459L19.9972 43.2078C20.0689 43.1477 20.0822 43.0348 20.0048 42.9823C20.0152 42.9886 20.0449 43.0051 20.1009 43.0292C20.2449 43.0911 20.4789 43.1678 20.8247 43.2477C21.5146 43.4072 22.4791 43.5419 23.6901 43.6465C26.1018 43.8548 29.2972 43.9282 32.8117 43.9106ZM20.0004 42.9795C20.0004 42.9795 20.002 42.9804 20.0048 42.9823C20.0017 42.9805 20.0003 42.9796 20.0004 42.9795Z" fill="#DEEDFF"/>
</g>
</svg>
