<svg width="170" height="111" viewBox="0 0 170 111" fill="none" xmlns="http://www.w3.org/2000/svg">
<path id="Vector" d="M127.378 46.7447L118.361 65.8798C118.219 66.1814 118.058 66.455 117.877 66.7005L160.36 100.217C160.929 100.665 161.025 101.488 160.577 102.057C160.129 102.625 159.306 102.722 158.737 102.274L115.609 68.2485C115.185 68.3607 114.732 68.4141 114.25 68.4142L114.208 68.4126L93.6917 67.7309L165.364 107.177C165.441 107.22 165.513 107.269 165.578 107.324C165.942 107.619 166.269 107.775 166.549 107.823C166.763 107.86 166.941 107.827 167.069 107.744C167.152 107.691 167.218 107.652 167.218 107.65C167.25 107.578 167.235 107.405 167.142 107.049L155.287 62.2403C155.021 61.2356 154.667 60.5016 154.174 60.1383C153.742 59.8202 153.095 59.7583 152.164 60.0174L132.252 65.554L132.253 65.5587C131.343 65.8179 130.375 65.9846 129.474 65.9331C128.74 65.8914 128.051 65.7026 127.461 65.306C126.826 64.8797 126.345 64.2538 126.095 63.3743C125.946 62.8528 125.884 62.2351 125.924 61.5102C125.925 61.4932 125.927 61.4753 125.928 61.4587L125.927 61.4583L127.377 46.743L127.378 46.7447ZM108.255 27.1933L108.349 27.2472L108.678 27.4379L109.007 27.6313L109.335 27.8273L109.663 28.0259L109.989 28.2286L110.315 28.4338L110.64 28.6418L110.965 28.8527L111.29 29.0663L111.614 29.2826L111.938 29.5015L112.26 29.723L112.582 29.9472L112.903 30.1741L113.225 30.4052L113.546 30.6391L113.866 30.8756L114.185 31.1147L114.504 31.3565L114.821 31.6023L115.138 31.8507L115.454 32.1017L115.77 32.3558L116.086 32.6125L116.401 32.8732L116.715 33.1366L117.029 33.4026L117.341 33.6713L117.653 33.9439L117.964 34.2192L118.275 34.4975L118.586 34.7784L120.356 32.8399L120.033 32.5471L119.709 32.2569L119.384 31.9706L119.058 31.687L118.732 31.4061L118.404 31.1291L118.077 30.8552L117.75 30.5839L117.421 30.3152L117.092 30.0506L116.762 29.7886L116.431 29.5292L116.099 29.2725L115.767 29.0197L115.433 28.7696L115.099 28.5222L114.764 28.2787L114.428 28.0379L114.091 27.7997L113.754 27.5642L113.416 27.3314L113.077 27.1025L112.738 26.8766L112.399 26.6534L112.059 26.4328L111.718 26.2149L111.376 26.0009L111.034 25.7896L110.691 25.581L110.347 25.375L110.002 25.1717L109.656 24.971L109.563 24.9171L108.254 27.1929L108.255 27.1933ZM0.793497 6.03082C2.1186 5.67523 3.44698 5.339 4.78569 5.03834L4.21294 2.47559C2.83778 2.78485 1.4716 3.12927 0.109631 3.4948L0.792574 6.02916L0.793497 6.03082ZM12.3879 3.77785C13.5658 3.66544 14.7406 3.60063 15.9241 3.58796C16.5599 3.58438 17.1891 3.59464 17.8233 3.62334C18.4414 3.65338 19.0535 3.70028 19.6696 3.76392C20.2225 3.8246 20.7687 3.89914 21.318 3.98873C21.6637 4.04715 22.0052 4.11015 22.3477 4.1805C23.1977 4.35756 24.0323 4.57032 24.8609 4.83126L25.6528 2.32789C24.7897 2.05758 23.9226 1.83318 23.0392 1.64276C22.5559 1.54119 22.0749 1.45166 21.5884 1.37202C21.0972 1.29396 20.6097 1.22829 20.1154 1.17215C19.5612 1.11111 19.0091 1.06343 18.452 1.02866C17.8873 0.996064 17.3266 0.974549 16.7597 0.965541C16.0671 0.957975 15.3802 0.966152 14.6886 0.991606C13.8379 1.02643 12.9911 1.08364 12.1434 1.16485L12.3892 3.7782L12.3879 3.77785ZM31.6044 8.07293C32.6422 8.75801 33.6267 9.50828 34.5799 10.3055C35.0778 10.7256 35.5608 11.153 36.0385 11.5947C36.5357 12.0587 37.0182 12.5301 37.4953 13.0157C38.0383 13.5733 38.5661 14.1396 39.086 14.7194C39.3999 15.0724 39.7088 15.4283 40.015 15.7891C40.2908 16.1146 40.5616 16.4431 40.8317 16.7742L42.8712 15.1211C42.5908 14.7758 42.3066 14.4338 42.019 14.0937C41.5187 13.5049 41.0107 12.9284 40.4896 12.3583C40.031 11.862 39.5682 11.376 39.0923 10.8964C38.6773 10.4804 38.2569 10.0742 37.8276 9.67422C37.3168 9.20224 36.8008 8.74447 36.2692 8.29672L35.9849 8.05997C35.0445 7.28893 34.0742 6.55962 33.0594 5.88936L31.605 8.07589L31.6044 8.07293ZM45.3583 23.0385C47.6431 26.5707 49.6597 30.2776 51.3959 34.1106C51.4376 34.2031 51.4794 34.2955 51.5198 34.3877L53.9171 33.3187C53.3162 31.9796 52.6833 30.6587 52.0172 29.3502C51.5386 28.4144 51.0449 27.4873 50.5346 26.5685L50.9381 26.4092L51.3029 26.2665L51.6686 26.1254L52.034 25.9856L52.4004 25.8475L52.7664 25.7108L53.132 25.5754L53.4986 25.4416L53.8648 25.3092L54.2307 25.1781L54.5976 25.0487L54.9641 24.9206L55.3302 24.7939L55.6973 24.6688L56.064 24.5451L56.4304 24.4227L56.7977 24.3019L57.1643 24.1839L57.5319 24.0675L57.8991 23.9524L58.266 23.8386L58.6338 23.7266L59.0013 23.6159L59.3684 23.5064L59.7364 23.3987L60.1041 23.2923L60.4715 23.1873L60.9045 23.0659L60.2112 20.533L59.7568 20.6599L59.3787 20.7678L59.0016 20.8773L58.6241 20.9882L58.2463 21.1003L57.8695 21.2142L57.4923 21.3294L57.1147 21.4459L56.7381 21.5641L56.3611 21.6837L55.9847 21.8062L55.608 21.9301L55.2309 22.0553L54.8548 22.1822L54.4783 22.3104L54.1028 22.4403L53.7269 22.5715L53.3507 22.704L52.9754 22.8382L52.5997 22.9738L52.2251 23.111L51.85 23.2496L51.476 23.3898L51.1016 23.5314L50.7268 23.6743L50.3533 23.8176L49.9795 23.9622L49.6066 24.1085L49.2079 24.2662C48.6751 23.3726 48.1259 22.4873 47.5594 21.613L45.353 23.0371L45.3583 23.0385ZM54.3302 41.5985C55.0128 43.663 55.5925 45.7551 56.0493 47.8806L56.1142 48.1915L56.1768 48.5003L56.2372 48.8071L56.2952 49.1118L56.3509 49.4145L56.4044 49.7152L56.4556 50.0138L56.5045 50.3103L56.5511 50.6048L56.5954 50.8973L56.6374 51.1877L56.6771 51.4761L56.7145 51.7624L56.7497 52.0467L56.7825 52.3289L56.8131 52.6091L56.8413 52.8872L56.8686 53.1636L56.8936 53.4381L56.9164 53.7104L56.9368 53.9807L56.9439 54.0908L59.5636 53.9208L59.5546 53.7916L59.5336 53.5026L59.5099 53.2129L59.4839 52.9212L59.4556 52.6274L59.425 52.3315L59.3922 52.0337L59.357 51.7337L59.3196 51.4317L59.2799 51.1277L59.2375 50.823L59.1928 50.5162L59.1458 50.2073L59.0966 49.8964L59.045 49.5835L58.9912 49.2685L58.9351 48.9515L58.8767 48.6324L58.816 48.3113L58.7517 47.9878L58.6847 47.6635L58.6154 47.3373C58.1372 45.1176 57.5347 42.9366 56.8226 40.7818L54.3287 41.6039L54.3302 41.5985ZM56.5522 61.5768C56.4858 61.9046 56.4129 62.225 56.3332 62.5492C56.2673 62.8074 56.1981 63.0619 56.1246 63.3166C56.0498 63.5653 55.9735 63.8093 55.8911 64.0545C55.8093 64.2927 55.7241 64.5272 55.6343 64.7633C55.5662 64.9355 55.4983 65.1063 55.4265 65.2761C55.3069 65.5539 55.185 65.8239 55.0525 66.0967C54.9739 66.2547 54.8944 66.411 54.8119 66.568C54.6744 66.8224 54.5343 67.0704 54.3856 67.3189C54.2963 67.464 54.2078 67.6064 54.1149 67.7491C53.9605 67.9819 53.8049 68.2086 53.641 68.4344C53.4772 68.6547 53.3112 68.8672 53.1382 69.0792C52.965 69.2869 52.79 69.4855 52.6077 69.685C52.4251 69.8802 52.2407 70.0663 52.0506 70.2523C51.8585 70.435 51.6674 70.6093 51.4666 70.7825C51.2665 70.9529 51.0659 71.1147 50.8587 71.2748C50.6922 71.4003 50.5264 71.5232 50.3556 71.6432L50.359 71.6413L51.8388 73.8102C52.3036 73.4882 52.7455 73.1402 53.1765 72.7748C53.3648 72.6111 53.5495 72.445 53.7322 72.2754C53.8685 72.146 54.0038 72.0148 54.1368 71.8816C54.3594 71.6546 54.5737 71.4268 54.7861 71.1899C54.9554 70.9968 55.1189 70.8036 55.2813 70.6043C55.4431 70.402 55.5995 70.1983 55.7544 69.9899C55.8703 69.8307 55.9832 69.6721 56.0942 69.5101C56.2801 69.2347 56.4573 68.9598 56.6314 68.6755C56.7353 68.503 56.8351 68.3295 56.9357 68.1533C57.0676 67.9144 57.1938 67.6755 57.3184 67.4318C57.4102 67.2461 57.5006 67.06 57.5888 66.8719C57.7053 66.6161 57.8159 66.3615 57.9248 66.1021C58.0326 65.8368 58.1343 65.5726 58.2331 65.3034C58.3308 65.0282 58.4237 64.7546 58.5137 64.4759C58.5801 64.2633 58.6434 64.0514 58.7044 63.8374C58.8056 63.4706 58.8987 63.1074 58.9853 62.7366C59.0322 62.5273 59.0775 62.319 59.1205 62.1086L56.5509 61.5707L56.5522 61.5768ZM43.6295 74.2837C43.2147 74.3488 42.8034 74.4007 42.3851 74.4421C42.0012 74.4772 41.6228 74.5024 41.2387 74.5175C40.9629 74.5265 40.6883 74.5315 40.4117 74.5331C39.9639 74.5309 39.5251 74.5169 39.0781 74.4907C38.6851 74.465 38.2973 74.4307 37.9047 74.388C37.5101 74.3419 37.1221 74.2876 36.7308 74.2239C36.3948 74.1667 36.0616 74.1045 35.7275 74.035C35.2796 73.9388 34.84 73.8335 34.3975 73.7174C34.0105 73.6122 33.6287 73.4984 33.246 73.3772C32.8631 73.2518 32.4886 73.1214 32.1113 72.9804C31.897 72.8994 31.6838 72.8143 31.4707 72.7293L31.472 72.7297L30.4603 75.1519C30.9909 75.373 31.5349 75.5708 32.0782 75.7556C32.4396 75.8766 32.8004 75.989 33.1651 76.0981C33.4701 76.1854 33.7733 76.2692 34.0805 76.3485C34.5108 76.457 34.9386 76.5534 35.3726 76.643C35.7439 76.7169 36.1131 76.7831 36.488 76.8438C36.861 76.9011 37.2315 76.9521 37.6081 76.9961C37.9203 77.0312 38.2299 77.0599 38.5419 77.085C38.9788 77.1169 39.4111 77.1391 39.849 77.1515C40.1604 77.1579 40.4689 77.1592 40.7802 77.1556C41.0905 77.1503 41.398 77.14 41.7085 77.1234C42.0181 77.1051 42.3231 77.0827 42.6312 77.0541C43.1006 77.0081 43.5633 76.9503 44.029 76.8762L43.6288 74.2807L43.6295 74.2837ZM25.1124 68.8764C24.6729 68.5035 24.2523 68.1187 23.8394 67.716C23.5736 67.453 23.3155 67.1878 23.0612 66.9137C22.8096 66.6403 22.5661 66.3634 22.326 66.0789C22.0213 65.7128 21.7314 65.345 21.4497 64.9623C21.264 64.7083 21.0856 64.4534 20.909 64.1918C20.6776 63.8442 20.4592 63.4959 20.2463 63.1377C20.0902 62.8689 19.9408 62.6019 19.7948 62.3274C19.6037 61.9622 19.4266 61.5981 19.255 61.224L19.1319 60.9443C18.8238 60.2242 18.5581 59.5001 18.34 58.7476L15.8146 59.4657C15.9832 60.0496 16.1778 60.6163 16.3934 61.1846C16.52 61.5094 16.6514 61.8269 16.7911 62.1453C16.9335 62.4645 17.0794 62.776 17.2349 63.0888C17.3921 63.4005 17.5537 63.7064 17.7223 64.0127C17.894 64.3185 18.0704 64.617 18.2535 64.9173C18.4706 65.2653 18.6925 65.606 18.9251 65.944C19.0931 66.1847 19.2635 66.4218 19.4382 66.6586C19.7227 67.0363 20.0117 67.4024 20.3141 67.7665C20.5821 68.0842 20.853 68.3913 21.1343 68.697C21.4186 69.002 21.7054 69.2978 22.0016 69.5905C22.13 69.7151 22.2574 69.838 22.3874 69.9616C22.7209 70.2743 23.0585 70.5768 23.408 70.8726L25.115 68.8771L25.1124 68.8764ZM17.8812 51.5427C17.9247 51.2883 17.9725 51.0394 18.027 50.7866C18.0828 50.5342 18.1446 50.2863 18.211 50.0367C18.2812 49.784 18.3542 49.5362 18.4347 49.2876C18.5175 49.0354 18.6045 48.7887 18.6993 48.5397C18.7964 48.2871 18.8974 48.0413 19.0045 47.7943C19.1156 47.5427 19.2306 47.2978 19.352 47.0504C19.4784 46.8001 19.6077 46.5549 19.7441 46.3101C19.8858 46.0611 20.0291 45.8168 20.1807 45.5734C20.3377 45.3257 20.4963 45.0827 20.6619 44.8402C20.8342 44.5939 21.0095 44.3526 21.19 44.1127C21.3789 43.868 21.5691 43.6294 21.7663 43.3912C21.9718 43.1482 22.1786 42.9112 22.3921 42.676C22.6143 42.4347 22.8373 42.2007 23.0674 41.9672C23.3058 41.7289 23.5468 41.4969 23.7945 41.2668L23.9331 41.1393L22.165 39.1981C21.892 39.4484 21.6269 39.7008 21.363 39.9593C21.1542 40.1673 20.951 40.3753 20.748 40.5877C20.5013 40.8509 20.263 41.1149 20.0259 41.3849C19.7968 41.6514 19.5744 41.9197 19.3558 42.1948C19.2275 42.3578 19.1019 42.5215 18.9776 42.6855C18.775 42.9592 18.5798 43.2321 18.3881 43.513C18.2018 43.7898 18.0239 44.0673 17.8488 44.3499C17.6788 44.6297 17.5171 44.9102 17.3583 45.1958C17.2353 45.4229 17.1171 45.6484 17.0017 45.8789C16.8615 46.1639 16.7288 46.448 16.5998 46.739C16.526 46.911 16.4535 47.0835 16.3819 47.2576C16.2677 47.5468 16.1598 47.8335 16.0562 48.1255C15.9573 48.4161 15.8647 48.704 15.7777 48.9978C15.6941 49.2896 15.6168 49.5789 15.5451 49.874L15.4653 50.2252C15.4044 50.5118 15.349 50.7942 15.299 51.0824L17.8842 51.5421L17.8812 51.5427ZM30.1378 36.7532L30.52 36.5255L30.8681 36.3184L31.2176 36.1117L31.5666 35.9063L32.2667 35.4988L32.9688 35.0948L33.6727 34.6941L34.0257 34.4954L34.3782 34.2981L34.7322 34.1011L35.0857 33.9055L35.4389 33.7111L35.7934 33.5172L36.1476 33.3245L36.8578 32.9426L37.2139 32.7534L37.5696 32.5654L37.9266 32.3778L38.2833 32.1916L38.6396 32.0066L38.9973 31.8221L39.3546 31.6388L40.0711 31.2757L40.4303 31.0959L40.7892 30.9173L41.149 30.7404L41.563 30.537L40.4178 28.1744L39.9893 28.3839L39.6227 28.5646L38.8915 28.9294L38.5269 29.1135L38.1619 29.2989L37.4338 29.6731L37.0707 29.8619L36.7073 30.052L36.3452 30.2425L35.9827 30.4343L35.2597 30.8213L34.8979 31.0161L34.1761 31.4091L33.4562 31.8055L33.0972 32.0054L32.7379 32.2066L32.3799 32.4081L32.0216 32.611L31.3068 33.0201L30.5939 33.4327L29.883 33.8485L29.174 34.2678L28.7864 34.4997L30.1352 36.7526L30.1378 36.7532ZM68.4669 21.3306L68.9204 21.2489L69.2866 21.1848L69.6534 21.1237L70.0198 21.0639L70.3859 21.0055L70.7515 20.9484L71.1178 20.8943L71.4838 20.8415L71.8493 20.79L72.2155 20.7416L72.5814 20.6944L72.9468 20.6486L73.3116 20.6055L73.6773 20.564L74.0423 20.5252L74.4069 20.4877L74.7711 20.4516L75.1347 20.4181L75.4992 20.3862L75.8633 20.3557L76.2268 20.3279L76.5912 20.3017L76.9548 20.2782L77.3181 20.256L77.6807 20.2365L78.043 20.2183L78.4058 20.2031L78.7683 20.1892L79.1304 20.1767L79.4918 20.1668L79.8541 20.1586L80.2158 20.153L80.577 20.1488L80.9376 20.1472L81.2818 20.1482L81.2924 17.5235L80.9339 17.5228L80.5577 17.5244L80.1808 17.5287L79.8048 17.5346L79.4281 17.5432L79.0511 17.5531L78.6747 17.566L78.2979 17.5803L77.9204 17.5972L77.5438 17.6158L77.1665 17.637L76.7889 17.6596L76.4105 17.6848L76.0331 17.7117L75.655 17.7412L75.2766 17.7721L74.899 17.8047L74.5208 17.8399L74.1422 17.8764L73.7642 17.9159L73.3859 17.9568L73.0072 17.999L72.6291 18.0442L72.2506 18.0907L71.8714 18.1399L71.4932 18.1908L71.1146 18.243L70.7353 18.2978L70.3569 18.3544L69.9782 18.4122L69.5988 18.4727L69.2204 18.5349L68.8415 18.5984L68.462 18.6646L67.9965 18.7487L68.4638 21.3326L68.4669 21.3306ZM88.9585 20.6704L89.1645 20.698L89.518 20.7485L89.8711 20.8004L90.2248 20.8554L90.5778 20.9129L90.9304 20.9718L91.2824 21.0334L91.6336 21.0976L91.9857 21.1634L92.3372 21.232L92.6879 21.3032L93.0379 21.377L93.3875 21.4521L93.7364 21.53L94.086 21.6108L94.4348 21.6942L94.7832 21.779L95.1309 21.8665L95.4779 21.9566L95.8242 22.0493L96.1714 22.1438L96.5179 22.2409L96.8637 22.3406L97.2088 22.443L97.5532 22.548L97.8985 22.6547L98.2431 22.7641L98.587 22.8761L98.9301 22.9908L99.2725 23.1081L99.6143 23.2281L99.9569 23.3498L100.299 23.4741L100.64 23.601L100.981 23.7306L101.328 23.8664L102.305 21.4291L101.923 21.2797L101.566 21.144L101.208 21.0111L100.849 20.8807L100.489 20.7531L100.13 20.6267L99.7702 20.5034L99.4102 20.3827L99.0494 20.2647L98.688 20.1493L98.3258 20.0365L97.9642 19.9268L97.6019 19.8197L97.2388 19.7153L96.8751 19.6136L96.5106 19.5144L96.1458 19.4166L95.7815 19.3219L95.4166 19.2297L95.0509 19.1402L94.6845 19.0534L94.3187 18.9696L93.9526 18.8871L93.5857 18.8072L93.2181 18.73L92.8498 18.6555L92.4821 18.584L92.1136 18.5151L91.7448 18.4475L91.3753 18.3826L91.0064 18.3207L90.6368 18.2615L90.2668 18.2036L89.8961 18.1483L89.5259 18.096L89.3199 18.0685L88.9586 20.669L88.9585 20.6704ZM129.761 43.0944L142.893 59.8876L151.467 57.5023C153.255 57.005 154.638 57.2316 155.725 58.0327C156.751 58.7885 157.405 60.0067 157.819 61.5713L169.673 106.38C169.935 107.37 169.874 108.09 169.634 108.661C169.362 109.305 168.936 109.655 168.479 109.948C167.819 110.371 167.001 110.558 166.104 110.404C165.429 110.288 164.714 109.976 164.005 109.419L90.8172 69.1373C90.0831 68.7327 89.6389 68.2987 89.4155 67.8693C89.1404 67.3419 89.1382 66.8374 89.3454 66.3685C89.5124 65.9897 89.8047 65.6949 90.1803 65.481C90.6991 65.1851 91.4659 65.0349 92.1842 65.0581L114.28 65.7917C114.709 65.7902 115.062 65.7155 115.333 65.5558C115.589 65.4035 115.809 65.1457 115.988 64.7659L125.507 44.5659C125.985 43.5501 126.756 41.908 128.384 42.16C129.056 42.2645 129.492 42.6136 129.764 43.0917L129.761 43.0944ZM140.156 60.6494L129.929 47.5696L128.537 61.7084C128.517 62.1001 128.547 62.4143 128.617 62.6626C128.685 62.9003 128.788 63.0507 128.913 63.1345C129.084 63.2493 129.334 63.3075 129.632 63.3242C130.191 63.3567 130.867 63.2317 131.536 63.0409L131.538 63.0455L140.156 60.6494ZM134.204 69.2465L132.762 70.5866L131.422 69.1447L132.864 67.8046L134.204 69.2465ZM150.292 86.5519L148.85 87.892L147.51 86.4501L148.952 85.1099L150.292 86.5519ZM144.929 80.7833L143.487 82.1235L142.147 80.6815L143.589 79.3414L144.929 80.7833ZM139.566 75.0148L138.124 76.3549L136.784 74.913L138.226 73.5728L139.566 75.0148Z" fill="#DEEDFF"/>
</svg>
