<svg width="12" height="12" viewBox="0 0 12 12" fill="none" xmlns="http://www.w3.org/2000/svg">
<path d="M10.0514 0.733643C10.3603 0.733643 10.6565 0.856353 10.8749 1.07478C11.0934 1.2932 11.2161 1.58945 11.2161 1.89836V10.0513C11.2161 10.3602 11.0934 10.6565 10.8749 10.8749C10.6565 11.0933 10.3603 11.2161 10.0514 11.2161H1.89839C1.58948 11.2161 1.29324 11.0933 1.07481 10.8749C0.856383 10.6565 0.733673 10.3602 0.733673 10.0513V1.89836C0.733673 1.58945 0.856383 1.2932 1.07481 1.07478C1.29324 0.856353 1.58948 0.733643 1.89839 0.733643H10.0514ZM9.76019 9.76016V6.67368C9.76019 6.17017 9.56018 5.68728 9.20414 5.33125C8.84811 4.97521 8.36522 4.77519 7.86171 4.77519C7.36671 4.77519 6.79018 5.07802 6.51065 5.53226V4.88584H4.88587V9.76016H6.51065V6.88915C6.51065 6.44073 6.87171 6.07385 7.32012 6.07385C7.53635 6.07385 7.74373 6.15975 7.89663 6.31264C8.04952 6.46554 8.13542 6.67292 8.13542 6.88915V9.76016H9.76019ZM2.99322 3.97154C3.25269 3.97154 3.50154 3.86847 3.68502 3.68499C3.8685 3.50151 3.97157 3.25266 3.97157 2.99318C3.97157 2.45159 3.53481 2.009 2.99322 2.009C2.73219 2.009 2.48186 2.11269 2.29729 2.29726C2.11272 2.48183 2.00903 2.73216 2.00903 2.99318C2.00903 3.53478 2.45162 3.97154 2.99322 3.97154ZM3.80269 9.76016V4.88584H2.18956V9.76016H3.80269Z" fill="#F0F3FF"/>
</svg>
