<svg width="43" height="43" viewBox="0 0 43 43" fill="none" xmlns="http://www.w3.org/2000/svg">
<circle cx="21.5" cy="21.5" r="21.5" fill="#006EF2"/>
<g clip-path="url(#clip0_1_22)">
<path d="M28.1918 15.8011C27.3643 15.8011 26.661 15.5115 26.0817 14.9322C25.5025 14.353 25.2129 13.6497 25.2129 12.8222C25.2129 11.9947 25.5025 11.2913 26.0817 10.7121C26.661 10.1329 27.3643 9.84326 28.1918 9.84326C29.0193 9.84326 29.7226 10.1329 30.3019 10.7121C30.8811 11.2913 31.1707 11.9947 31.1707 12.8222C31.1707 13.6497 30.8811 14.353 30.3019 14.9322C29.7226 15.5115 29.0193 15.8011 28.1918 15.8011ZM11.3113 31.6886V11.8292H23.3262C23.26 12.1602 23.2269 12.4912 23.2269 12.8222C23.2269 13.1532 23.26 13.4842 23.3262 13.8151C23.5579 14.9571 24.1289 15.9044 25.0391 16.657C25.9493 17.4104 27.0002 17.787 28.1918 17.787C28.7214 17.787 29.2427 17.7043 29.7557 17.5388C30.2688 17.3733 30.7404 17.1251 31.1707 16.7941V27.7168H15.2832L11.3113 31.6886Z" fill="#F0F3FF"/>
</g>
<defs>
<clipPath id="clip0_1_22">
<rect width="23.8313" height="23.8313" fill="white" transform="translate(9.32532 9.84326)"/>
</clipPath>
</defs>
</svg>
