<svg width="13" height="16" viewBox="0 0 13 16" fill="none" xmlns="http://www.w3.org/2000/svg">
<path d="M6.57692 8.80769C7.80894 8.80769 8.80769 7.80894 8.80769 6.57692C8.80769 5.3449 7.80894 4.34615 6.57692 4.34615C5.3449 4.34615 4.34615 5.3449 4.34615 6.57692C4.34615 7.80894 5.3449 8.80769 6.57692 8.80769Z" stroke="#CED2D4" stroke-linecap="round" stroke-linejoin="round"/>
<path d="M12.1538 6.57692C12.1538 11.5962 6.57692 15.5 6.57692 15.5C6.57692 15.5 1 11.5962 1 6.57692C1 5.09783 1.58757 3.67932 2.63344 2.63344C3.67932 1.58757 5.09783 1 6.57692 1C8.05601 1 9.47453 1.58757 10.5204 2.63344C11.5663 3.67932 12.1538 5.09783 12.1538 6.57692Z" stroke="#CED2D4" stroke-linecap="round" stroke-linejoin="round"/>
</svg>
