<svg width="15" height="15" viewBox="0 0 15 15" fill="none" xmlns="http://www.w3.org/2000/svg">
<path d="M4.77694 7.65705C5.37421 8.87812 6.364 9.86341 7.58778 10.4551C7.67732 10.4975 7.77636 10.5159 7.87516 10.5084C7.97396 10.501 8.06911 10.4679 8.15124 10.4125L9.95317 9.21092C10.0329 9.15778 10.1246 9.12536 10.2199 9.11659C10.3153 9.10783 10.4114 9.123 10.4994 9.16074L13.8705 10.6055C13.985 10.6541 14.0806 10.7387 14.1429 10.8464C14.2052 10.9541 14.2308 11.0791 14.2158 11.2026C14.1093 12.0364 13.7025 12.8027 13.0716 13.3581C12.4407 13.9135 11.629 14.22 10.7885 14.22C8.19243 14.22 5.70269 13.1887 3.86699 11.353C2.03129 9.51731 1 7.02757 1 4.4315C1.00004 3.59097 1.30646 2.77927 1.86188 2.14839C2.4173 1.51751 3.18362 1.11071 4.01738 1.00416C4.1409 0.98921 4.26593 1.01481 4.37363 1.0771C4.48133 1.13939 4.56588 1.23499 4.61452 1.34951L6.06052 4.72351C6.09793 4.81078 6.11317 4.90594 6.10489 5.00053C6.09661 5.09512 6.06507 5.18619 6.01307 5.26564L4.81568 7.0952C4.76118 7.1775 4.72896 7.27254 4.72217 7.37101C4.71538 7.46949 4.73426 7.56804 4.77694 7.65705V7.65705Z" stroke="#CED2D4" stroke-linecap="round" stroke-linejoin="round"/>
</svg>
