<svg width="54" height="63" viewBox="0 0 54 63" fill="none" xmlns="http://www.w3.org/2000/svg">
<g id="Group 2670">
<path id="Vector 30 (Stroke)" fill-rule="evenodd" clip-rule="evenodd" d="M41.7863 8.9002C42.0954 11.9211 42.3185 15.3578 42.4507 18.0459C42.4937 18.9202 43.2309 19.5999 44.1056 19.5646C44.9803 19.5293 45.6612 18.7924 45.6183 17.9181C45.4844 15.186 45.2572 11.6785 44.9399 8.57755C44.7491 6.71223 44.522 4.95722 44.2557 3.59612C44.1234 2.92042 43.9726 2.29458 43.7955 1.78415C43.7072 1.52966 43.5988 1.26373 43.4616 1.01949C43.1653 0.492122 42.4674 0.609925 42.1261 1.10935L41.1575 2.52691C41.046 2.69013 40.8074 2.74092 40.6995 2.57525C40.7133 2.60065 40.7495 2.67604 40.8006 2.82331C40.907 3.13002 41.0243 3.59026 41.1446 4.20494C41.3833 5.42459 41.5988 7.06753 41.7863 8.9002ZM40.6977 2.57205C40.6902 2.55859 40.6904 2.56121 40.6995 2.57525C40.6989 2.57408 40.6983 2.57301 40.6977 2.57205Z" fill="#DEEDFF"/>
<path id="Vector 31 (Stroke)" fill-rule="evenodd" clip-rule="evenodd" d="M26.1491 28.189C28.5496 30.0487 31.192 32.2575 33.2295 34.0158C33.8923 34.5877 34.8929 34.5227 35.4706 33.865C36.0483 33.2073 35.9844 32.206 35.3217 31.634C33.251 29.8467 30.5547 27.592 28.0905 25.683C26.6082 24.5346 25.1808 23.4886 24.0116 22.7427C23.4311 22.3724 22.8739 22.0499 22.3822 21.8261C22.137 21.7146 21.8697 21.6096 21.5982 21.5405C21.012 21.3913 20.6159 21.9779 20.7422 22.5695L21.1005 24.2486C21.1418 24.4419 21.014 24.6497 20.8197 24.6135C20.8476 24.6211 20.9271 24.6468 21.069 24.7114C21.3645 24.8459 21.7786 25.0784 22.3067 25.4152C23.3544 26.0836 24.6927 27.0607 26.1491 28.189ZM20.8161 24.6126C20.8011 24.6088 20.8032 24.6105 20.8197 24.6135C20.8184 24.6132 20.8172 24.6129 20.8161 24.6126Z" fill="#DEEDFF"/>
<path id="Vector 32 (Stroke)" fill-rule="evenodd" clip-rule="evenodd" d="M22.0666 43.1042C15.8367 43.073 8.70578 42.7515 3.51114 42.4319C2.6374 42.3782 1.88268 43.0389 1.82462 43.9124C1.76657 44.7858 2.42729 45.5413 3.30102 45.5951C8.53686 45.9174 15.7379 46.2426 22.0507 46.2743C25.5333 46.2917 28.7826 46.2202 31.2935 46.0033C32.544 45.8953 33.6596 45.7475 34.5477 45.5421C34.9909 45.4396 35.4195 45.3134 35.7973 45.1508C36.5165 44.8412 36.4611 43.9365 35.8611 43.4334L34.6458 42.4144C34.5754 42.3554 34.5624 42.2446 34.6384 42.193C34.6282 42.1992 34.599 42.2154 34.544 42.239C34.4027 42.2998 34.1729 42.3751 33.8335 42.4536C33.1563 42.6101 32.2096 42.7424 31.0208 42.845C28.6533 43.0495 25.5166 43.1215 22.0666 43.1042ZM34.6427 42.1903C34.6427 42.1903 34.6412 42.1912 34.6384 42.193C34.6414 42.1913 34.6428 42.1903 34.6427 42.1903Z" fill="#DEEDFF"/>
</g>
</svg>
