<svg width="197" height="127" viewBox="0 0 197 127" fill="none" xmlns="http://www.w3.org/2000/svg">
<path id="Vector" d="M49.8753 74.1938L60.2677 52.1404C60.4312 51.7928 60.617 51.4775 60.8252 51.1945L11.8631 12.5665C11.2078 12.0504 11.0968 11.1015 11.6129 10.4462C12.129 9.79095 13.0779 9.6799 13.7332 10.196L63.4387 49.4105C63.9283 49.2812 64.4503 49.2197 65.0048 49.2196L65.0535 49.2213L88.699 50.007L6.09583 4.5446C6.00735 4.49593 5.92443 4.43893 5.84969 4.37595C5.43041 4.03554 5.05279 3.85574 4.72981 3.80071C4.48375 3.7584 4.27831 3.79604 4.13078 3.89208C4.03544 3.9531 3.95925 3.998 3.95884 3.99953C3.92294 4.08328 3.93919 4.28291 4.0475 4.69298L17.7096 56.3349C18.0165 57.4929 18.4246 58.3388 18.9931 58.7576C19.4906 59.1242 20.2356 59.1956 21.3093 58.897L44.258 52.5159L44.2562 52.5105C45.3053 52.2118 46.4206 52.0197 47.4593 52.079C48.3059 52.1271 49.0997 52.3447 49.7793 52.8018C50.5119 53.293 51.0654 54.0145 51.3541 55.028C51.5253 55.6291 51.5974 56.341 51.5507 57.1764C51.5503 57.196 51.5479 57.2167 51.546 57.2358L51.5475 57.2363L49.8767 74.1957L49.8753 74.1938ZM71.9144 96.7269L71.8066 96.6648L71.4267 96.445L71.0477 96.2222L70.6694 95.9963L70.292 95.7673L69.9159 95.5338L69.5406 95.2972L69.1661 95.0576L68.7909 94.8144L68.4165 94.5683L68.043 94.319L67.6703 94.0668L67.2985 93.8114L66.9274 93.553L66.5572 93.2916L66.1868 93.0251L65.8171 92.7556L65.4483 92.4831L65.0803 92.2075L64.7132 91.9288L64.3473 91.6456L63.9822 91.3593L63.6179 91.0699L63.253 90.7771L62.8889 90.4812L62.526 90.1808L62.164 89.8772L61.8028 89.5707L61.4424 89.261L61.0833 88.9468L60.725 88.6296L60.366 88.3088L60.0078 87.985L57.9681 90.2191L58.3406 90.5567L58.7139 90.8911L59.0884 91.221L59.4638 91.5479L59.8401 91.8716L60.2175 92.1908L60.5943 92.5066L60.9719 92.8192L61.3503 93.1289L61.73 93.4339L62.1105 93.7359L62.4918 94.0348L62.874 94.3307L63.2574 94.622L63.6417 94.9102L64.0268 95.1954L64.4131 95.476L64.8003 95.7535L65.1882 96.028L65.5771 96.2994L65.9667 96.5678L66.3576 96.8316L66.7478 97.0919L67.1388 97.3492L67.5307 97.6034L67.9234 97.8546L68.3173 98.1011L68.7121 98.3447L69.1077 98.5851L69.5041 98.8225L69.9014 99.0569L70.2995 99.2882L70.4073 99.3503L71.9162 96.7274L71.9144 96.7269ZM195.765 121.117C194.238 121.527 192.707 121.914 191.164 122.261L191.824 125.214C193.409 124.858 194.983 124.461 196.553 124.04L195.766 121.119L195.765 121.117ZM182.402 123.713C181.045 123.843 179.691 123.918 178.327 123.932C177.594 123.936 176.869 123.925 176.138 123.891C175.425 123.857 174.72 123.803 174.01 123.729C173.373 123.66 172.743 123.574 172.11 123.47C171.712 123.403 171.318 123.33 170.923 123.249C169.944 123.045 168.982 122.8 168.027 122.499L167.114 125.384C168.109 125.696 169.108 125.955 170.126 126.174C170.684 126.291 171.238 126.394 171.799 126.486C172.365 126.576 172.926 126.652 173.496 126.716C174.135 126.787 174.771 126.842 175.413 126.882C176.064 126.919 176.71 126.944 177.364 126.955C178.162 126.963 178.954 126.954 179.751 126.925C180.731 126.884 181.707 126.819 182.684 126.725L182.401 123.713L182.402 123.713ZM160.255 118.763C159.059 117.974 157.924 117.109 156.826 116.19C156.252 115.706 155.695 115.213 155.145 114.704C154.572 114.17 154.016 113.626 153.466 113.067C152.84 112.424 152.232 111.771 151.632 111.103C151.271 110.696 150.915 110.286 150.562 109.87C150.244 109.495 149.932 109.117 149.62 108.735L147.27 110.64C147.593 111.038 147.921 111.432 148.252 111.824C148.829 112.503 149.414 113.167 150.015 113.824C150.543 114.396 151.077 114.956 151.625 115.509C152.103 115.989 152.588 116.457 153.083 116.918C153.671 117.462 154.266 117.989 154.879 118.505L155.207 118.778C156.29 119.667 157.409 120.507 158.578 121.28L160.254 118.76L160.255 118.763ZM144.403 101.515C141.77 97.4444 139.446 93.1722 137.445 88.7547C137.397 88.6481 137.349 88.5415 137.302 88.4354L134.539 89.6673C135.232 91.2107 135.961 92.733 136.729 94.2411C137.281 95.3196 137.85 96.3881 138.438 97.447L137.973 97.6306L137.552 97.7951L137.131 97.9577L136.71 98.1188L136.288 98.2779L135.866 98.4355L135.444 98.5916L135.022 98.7457L134.6 98.8984L134.178 99.0494L133.755 99.1986L133.333 99.3462L132.911 99.4923L132.488 99.6364L132.065 99.779L131.643 99.9201L131.22 100.059L130.797 100.195L130.373 100.329L129.95 100.462L129.527 100.593L129.103 100.722L128.68 100.85L128.257 100.976L127.833 101.1L127.409 101.223L126.985 101.344L126.486 101.484L127.285 104.403L127.809 104.257L128.245 104.132L128.68 104.006L129.115 103.878L129.55 103.749L129.984 103.618L130.419 103.485L130.854 103.351L131.288 103.215L131.723 103.077L132.156 102.936L132.591 102.793L133.025 102.649L133.459 102.502L133.893 102.355L134.325 102.205L134.759 102.054L135.192 101.901L135.625 101.746L136.058 101.59L136.49 101.432L136.922 101.272L137.353 101.11L137.784 100.947L138.216 100.783L138.647 100.617L139.078 100.451L139.507 100.282L139.967 100.1C140.581 101.13 141.214 102.151 141.867 103.158L144.41 101.517L144.403 101.515ZM134.063 80.1249C133.277 77.7455 132.609 75.3343 132.082 72.8847L132.007 72.5264L131.935 72.1704L131.866 71.8169L131.799 71.4657L131.734 71.1168L131.673 70.7703L131.614 70.4262L131.558 70.0844L131.504 69.745L131.453 69.4079L131.404 69.0732L131.359 68.7409L131.315 68.4109L131.275 68.0833L131.237 67.758L131.202 67.4351L131.169 67.1145L131.138 66.7959L131.109 66.4797L131.083 66.1658L131.059 65.8542L131.051 65.7273L128.032 65.9233L128.042 66.0722L128.066 66.4052L128.094 66.7391L128.124 67.0753L128.156 67.414L128.192 67.7549L128.229 68.0982L128.27 68.4439L128.313 68.7919L128.359 69.1423L128.408 69.4936L128.459 69.8471L128.513 70.2031L128.57 70.5614L128.629 70.9221L128.692 71.2851L128.756 71.6504L128.824 72.0182L128.893 72.3883L128.968 72.7611L129.045 73.1348L129.125 73.5109C129.676 76.069 130.37 78.5826 131.191 81.0661L134.065 80.1187L134.063 80.1249ZM131.503 57.0997C131.579 56.7219 131.663 56.3526 131.755 55.979C131.831 55.6814 131.911 55.3881 131.995 55.0945C132.082 54.8079 132.169 54.5267 132.264 54.2441C132.359 53.9696 132.457 53.6993 132.56 53.4273C132.639 53.2288 132.717 53.0319 132.8 52.8362C132.938 52.5161 133.078 52.2048 133.231 51.8904C133.321 51.7083 133.413 51.5282 133.508 51.3474C133.667 51.0542 133.828 50.7683 133.999 50.4819C134.102 50.3147 134.204 50.1505 134.312 49.986C134.489 49.7178 134.669 49.4565 134.858 49.1962C135.046 48.9424 135.238 48.6975 135.437 48.4531C135.637 48.2138 135.838 47.9848 136.049 47.7549C136.259 47.53 136.472 47.3155 136.691 47.1011C136.912 46.8906 137.132 46.6896 137.364 46.4901C137.594 46.2936 137.825 46.1072 138.064 45.9227C138.256 45.7781 138.447 45.6364 138.644 45.498L138.64 45.5003L136.935 43.0006C136.399 43.3717 135.89 43.7728 135.393 44.1939C135.176 44.3826 134.963 44.574 134.753 44.7694C134.595 44.9186 134.44 45.0698 134.286 45.2233C134.03 45.485 133.783 45.7475 133.538 46.0205C133.343 46.2431 133.154 46.4658 132.967 46.6954C132.781 46.9285 132.6 47.1633 132.422 47.4035C132.288 47.587 132.158 47.7698 132.03 47.9565C131.816 48.2739 131.612 48.5907 131.411 48.9184C131.292 49.1171 131.176 49.3172 131.06 49.5202C130.909 49.7955 130.763 50.0709 130.619 50.3518C130.514 50.5658 130.409 50.7802 130.308 50.997C130.173 51.2919 130.046 51.5853 129.921 51.8842C129.796 52.19 129.679 52.4945 129.565 52.8047C129.453 53.1219 129.346 53.4372 129.242 53.7585C129.165 54.0035 129.092 54.2477 129.022 54.4943C128.905 54.917 128.798 55.3357 128.698 55.763C128.644 56.0042 128.592 56.2443 128.543 56.4867L131.504 57.1067L131.503 57.0997ZM146.396 42.4549C146.874 42.3798 147.348 42.3201 147.83 42.2724C148.273 42.2319 148.709 42.2029 149.151 42.1855C149.469 42.1751 149.786 42.1693 150.105 42.1674C150.621 42.17 151.126 42.1861 151.642 42.2163C152.094 42.246 152.541 42.2855 152.994 42.3347C153.449 42.3878 153.896 42.4504 154.347 42.5238C154.734 42.5898 155.118 42.6614 155.503 42.7415C156.019 42.8524 156.526 42.9737 157.036 43.1075C157.482 43.2288 157.922 43.36 158.363 43.4996C158.804 43.6442 159.236 43.7944 159.671 43.957C159.918 44.0504 160.163 44.1483 160.409 44.2463L160.408 44.2459L161.574 41.4543C160.962 41.1994 160.335 40.9715 159.709 40.7585C159.292 40.619 158.877 40.4895 158.456 40.3638C158.105 40.2632 157.755 40.1666 157.401 40.0752C156.905 39.9502 156.412 39.839 155.912 39.7358C155.484 39.6506 155.059 39.5743 154.627 39.5043C154.197 39.4383 153.77 39.3796 153.336 39.3288C152.976 39.2884 152.619 39.2553 152.259 39.2264C151.756 39.1896 151.258 39.164 150.753 39.1498C150.394 39.1424 150.039 39.1408 149.68 39.145C149.322 39.1511 148.968 39.163 148.61 39.1821C148.253 39.2032 147.902 39.229 147.547 39.262C147.006 39.315 146.472 39.3816 145.936 39.467L146.397 42.4583L146.396 42.4549ZM167.737 48.6868C168.244 49.1166 168.728 49.5601 169.204 50.0242C169.511 50.3273 169.808 50.633 170.101 50.9489C170.391 51.264 170.672 51.5831 170.948 51.911C171.3 52.3329 171.634 52.7568 171.958 53.1979C172.172 53.4907 172.378 53.7844 172.581 54.0858C172.848 54.4865 173.1 54.8879 173.345 55.3008C173.525 55.6106 173.697 55.9182 173.866 56.2347C174.086 56.6555 174.29 57.0752 174.488 57.5062L174.63 57.8287C174.985 58.6585 175.291 59.4931 175.542 60.3604L178.453 59.5328C178.259 58.8598 178.034 58.2066 177.786 57.5517C177.64 57.1774 177.488 56.8114 177.327 56.4444C177.163 56.0766 176.995 55.7176 176.816 55.3572C176.635 54.9978 176.449 54.6453 176.254 54.2922C176.056 53.9399 175.853 53.5959 175.642 53.2498C175.392 52.8487 175.136 52.456 174.868 52.0664C174.674 51.789 174.478 51.5158 174.277 51.2429C173.949 50.8076 173.616 50.3856 173.267 49.966C172.958 49.5998 172.646 49.2459 172.322 48.8936C171.994 48.542 171.664 48.2011 171.322 47.8639C171.174 47.7203 171.028 47.5786 170.878 47.4362C170.493 47.0757 170.104 46.7271 169.701 46.3863L167.734 48.686L167.737 48.6868ZM176.071 68.6641C176.021 68.9572 175.966 69.2441 175.903 69.5354C175.839 69.8263 175.768 70.1121 175.691 70.3997C175.61 70.691 175.526 70.9766 175.433 71.2631C175.338 71.5537 175.237 71.8381 175.128 72.125C175.016 72.4161 174.9 72.6994 174.777 72.9841C174.648 73.2741 174.516 73.5563 174.376 73.8415C174.23 74.1299 174.081 74.4126 173.924 74.6947C173.761 74.9816 173.596 75.2632 173.421 75.5438C173.24 75.8292 173.057 76.1092 172.866 76.3887C172.668 76.6726 172.466 76.9508 172.258 77.2272C172.04 77.5092 171.821 77.7842 171.594 78.0587C171.357 78.3388 171.118 78.612 170.872 78.883C170.616 79.1611 170.359 79.4308 170.094 79.6999C169.819 79.9746 169.541 80.2419 169.256 80.5071L169.096 80.654L171.134 82.8913C171.449 82.6029 171.754 82.3119 172.058 82.014C172.299 81.7743 172.533 81.5346 172.767 81.2897C173.051 80.9865 173.326 80.6822 173.599 80.371C173.863 80.0638 174.12 79.7546 174.372 79.4376C174.519 79.2498 174.664 79.0611 174.808 78.872C175.041 78.5566 175.266 78.2421 175.487 77.9183C175.702 77.5994 175.907 77.2795 176.108 76.9538C176.304 76.6314 176.491 76.308 176.674 75.9789C176.815 75.7172 176.952 75.4573 177.085 75.1917C177.246 74.8632 177.399 74.5357 177.548 74.2004C177.633 74.0021 177.717 73.8033 177.799 73.6027C177.931 73.2694 178.055 72.939 178.174 72.6024C178.288 72.2675 178.395 71.9356 178.495 71.5971C178.592 71.2607 178.681 70.9273 178.763 70.5873L178.855 70.1825C178.926 69.8522 178.99 69.5267 179.047 69.1945L176.068 68.6648L176.071 68.6641ZM161.945 85.7091L161.505 85.9715L161.104 86.2102L160.701 86.4484L160.299 86.6852L159.492 87.1547L158.683 87.6204L157.871 88.0822L157.464 88.3112L157.058 88.5386L156.65 88.7656L156.243 88.9911L155.836 89.2151L155.427 89.4386L155.019 89.6607L154.2 90.1008L153.79 90.3189L153.38 90.5355L152.969 90.7517L152.557 90.9664L152.147 91.1795L151.735 91.3922L151.323 91.6034L150.497 92.0219L150.083 92.2292L149.669 92.435L149.255 92.6388L148.778 92.8732L150.098 95.5962L150.591 95.3548L151.014 95.1465L151.857 94.726L152.277 94.5139L152.697 94.3002L153.537 93.8689L153.955 93.6513L154.374 93.4322L154.791 93.2127L155.209 92.9916L156.042 92.5456L156.459 92.3211L157.291 91.8682L158.121 91.4113L158.535 91.181L158.949 90.9491L159.361 90.7168L159.774 90.483L160.598 90.0115L161.42 89.536L162.239 89.0567L163.056 88.5735L163.503 88.3062L161.948 85.7098L161.945 85.7091ZM117.771 103.484L117.248 103.578L116.826 103.652L116.403 103.722L115.981 103.791L115.559 103.858L115.138 103.924L114.715 103.987L114.294 104.047L113.872 104.107L113.45 104.163L113.029 104.217L112.608 104.27L112.187 104.319L111.766 104.367L111.345 104.412L110.925 104.455L110.505 104.497L110.086 104.535L109.666 104.572L109.246 104.607L108.827 104.639L108.407 104.67L107.988 104.697L107.57 104.722L107.152 104.745L106.734 104.766L106.316 104.783L105.898 104.799L105.481 104.814L105.064 104.825L104.647 104.835L104.23 104.841L103.814 104.846L103.398 104.848L103.001 104.846L102.989 107.871L103.402 107.872L103.836 107.87L104.27 107.865L104.704 107.859L105.138 107.849L105.572 107.837L106.006 107.822L106.44 107.806L106.876 107.787L107.31 107.765L107.744 107.741L108.18 107.715L108.616 107.686L109.051 107.655L109.486 107.621L109.923 107.585L110.358 107.547L110.794 107.507L111.23 107.465L111.665 107.419L112.102 107.372L112.538 107.323L112.974 107.271L113.41 107.218L113.847 107.161L114.283 107.102L114.719 107.042L115.156 106.979L115.592 106.914L116.029 106.847L116.466 106.777L116.902 106.706L117.339 106.633L117.776 106.556L118.313 106.459L117.774 103.481L117.771 103.484ZM94.154 104.245L93.9166 104.213L93.5092 104.155L93.1022 104.095L92.6946 104.031L92.2877 103.965L91.8813 103.897L91.4757 103.826L91.071 103.752L90.6651 103.676L90.26 103.597L89.8558 103.515L89.4525 103.43L89.0495 103.344L88.6474 103.254L88.2446 103.161L87.8426 103.065L87.441 102.967L87.0402 102.866L86.6403 102.762L86.2412 102.655L85.841 102.547L85.4417 102.435L85.0431 102.32L84.6454 102.202L84.2486 102.081L83.8506 101.958L83.4534 101.832L83.0571 101.703L82.6616 101.57L82.267 101.435L81.8732 101.297L81.4782 101.157L81.0841 101.013L80.6908 100.867L80.2984 100.718L79.898 100.561L78.7715 103.37L79.2119 103.542L79.6238 103.699L80.0365 103.852L80.4501 104.002L80.8645 104.149L81.2793 104.295L81.6934 104.437L82.1083 104.576L82.5241 104.712L82.9407 104.845L83.3581 104.975L83.7749 105.102L84.1924 105.225L84.6108 105.345L85.0301 105.463L85.4501 105.577L85.8706 105.69L86.2904 105.799L86.711 105.905L87.1324 106.008L87.5547 106.108L87.9763 106.205L88.3983 106.3L88.8211 106.392L89.2448 106.481L89.6693 106.567L90.0931 106.649L90.5177 106.729L90.9427 106.806L91.3686 106.881L91.7938 106.953L92.2198 107.021L92.6462 107.088L93.0734 107.151L93.5 107.212L93.7374 107.243L94.1539 104.246L94.154 104.245ZM47.1286 78.4008L31.9943 59.0465L22.1125 61.7956C20.0519 62.3688 18.4579 62.1075 17.2047 61.1843C16.0225 60.3133 15.2692 58.9092 14.7916 57.1061L1.1295 5.46409C0.828099 4.32238 0.897762 3.49316 1.17508 2.83527C1.48873 2.09211 1.97897 1.68901 2.50545 1.35154C3.26621 0.864518 4.20919 0.648508 5.24351 0.826443C6.0211 0.959168 6.84508 1.31941 7.66289 1.96177L92.0119 48.3862C92.8578 48.8525 93.3698 49.3526 93.6273 49.8475C93.9443 50.4554 93.9469 51.0369 93.7081 51.5773C93.5156 52.0138 93.1787 52.3536 92.7459 52.6001C92.1479 52.9411 91.2642 53.1142 90.4364 53.0875L64.9712 52.242C64.4769 52.2437 64.0696 52.3298 63.7571 52.5139C63.4616 52.6894 63.2086 52.9865 63.0026 53.4242L52.032 76.7049C51.4806 77.8756 50.5919 79.7682 48.7154 79.4777C47.941 79.3573 47.4386 78.9549 47.1258 78.4039L47.1286 78.4008ZM35.1481 58.1685L46.935 73.243L48.5399 56.9481C48.5626 56.4966 48.5282 56.1345 48.4469 55.8483C48.3688 55.5744 48.2503 55.4011 48.1059 55.3044C47.9089 55.1721 47.6204 55.1051 47.2779 55.0858C46.6335 55.0483 45.8544 55.1925 45.0827 55.4124L45.0809 55.4069L35.1481 58.1685ZM42.0079 48.2603L43.6698 46.7158L45.2143 48.3777L43.5524 49.9222L42.0079 48.2603ZM23.4661 28.3157L25.128 26.7712L26.6725 28.4331L25.0107 29.9776L23.4661 28.3157ZM29.6471 34.964L31.309 33.4195L32.8535 35.0814L31.1916 36.6259L29.6471 34.964ZM35.8281 41.6123L37.49 40.0678L39.0345 41.7297L37.3726 43.2742L35.8281 41.6123Z" fill="#DEEDFF"/>
</svg>
