<svg width="13" height="13" viewBox="0 0 13 13" fill="none" xmlns="http://www.w3.org/2000/svg">
<g clip-path="url(#clip0_1_110)">
<path d="M12.1961 3.97977C11.8118 4.15448 11.3975 4.26928 10.9682 4.32419C11.4074 4.05964 11.7469 3.64034 11.9066 3.13619C11.4923 3.38577 11.0331 3.56047 10.5489 3.66031C10.1545 3.23103 9.60047 2.98145 8.97152 2.98145C7.79849 2.98145 6.8401 3.93984 6.8401 5.12285C6.8401 5.29257 6.86006 5.45729 6.89501 5.61203C5.11799 5.52218 3.53564 4.66861 2.48241 3.37578C2.29772 3.69026 2.19289 4.05964 2.19289 4.44898C2.19289 5.19273 2.56727 5.85163 3.14629 6.226C2.79189 6.226 2.46244 6.12617 2.17293 5.97642V5.99139C2.17293 7.02965 2.91169 7.8982 3.89005 8.09287C3.57594 8.17883 3.24618 8.19079 2.92666 8.12781C3.06224 8.55334 3.32776 8.92568 3.6859 9.19249C4.04404 9.4593 4.47679 9.60717 4.92331 9.61531C4.1664 10.2145 3.22816 10.5384 2.26278 10.5338C2.09306 10.5338 1.92335 10.5238 1.75363 10.5038C2.70204 11.1128 3.83015 11.4672 5.03812 11.4672C8.97152 11.4672 11.1329 8.20268 11.1329 5.37243C11.1329 5.27759 11.1329 5.18774 11.1279 5.0929C11.5472 4.7934 11.9066 4.41404 12.1961 3.97977Z" fill="#F0F3FF"/>
</g>
<defs>
<clipPath id="clip0_1_110">
<rect width="11.9799" height="11.9799" fill="white" transform="translate(0.984924 0.984863)"/>
</clipPath>
</defs>
</svg>
