<svg width="563" height="386" viewBox="0 0 563 386" fill="none" xmlns="http://www.w3.org/2000/svg">
<path d="M553.78 28.5597V355.111C553.78 370.884 541.362 383.671 526.043 383.671H27.7465C12.4279 383.671 0 370.884 0 355.111V28.5597C0 12.7867 12.4279 0 27.7465 0H526.043C541.362 0 553.78 12.7867 553.78 28.5597Z" fill="#E8F2FF"/>
<path d="M344.657 195.099H78.8607V333.368H344.657V195.099Z" fill="#5683FA"/>
<path d="M500.852 30.463V38.4323H227.114V30.463C227.114 25.0177 231.533 20.6078 236.979 20.6078H490.996C496.442 20.6078 500.852 25.0177 500.852 30.463Z" fill="#25292B"/>
<path d="M484.247 26.7003H465.091C463.815 26.7003 462.78 27.733 462.78 29.007C462.78 30.2809 463.815 31.3136 465.091 31.3136H484.247C485.524 31.3136 486.558 30.2809 486.558 29.007C486.558 27.733 485.524 26.7003 484.247 26.7003Z" fill="#DEE3FC"/>
<path d="M452.712 27.0422H433.557C432.28 27.0422 431.245 28.075 431.245 29.3489C431.245 30.6228 432.28 31.6555 433.557 31.6555H452.712C453.989 31.6555 455.024 30.6228 455.024 29.3489C455.024 28.075 453.989 27.0422 452.712 27.0422Z" fill="#B4C1EF"/>
<path d="M421.14 27.0422H401.984C400.708 27.0422 399.673 28.075 399.673 29.3489C399.673 30.6228 400.708 31.6555 401.984 31.6555H421.14C422.416 31.6555 423.451 30.6228 423.451 29.3489C423.451 28.075 422.416 27.0422 421.14 27.0422Z" fill="#B4C1EF"/>
<path d="M490.47 19.7386H237.524C231.311 19.7386 226.254 24.7957 226.254 31.0084V165.441H226.948V31.0176C226.948 25.184 231.7 20.432 237.533 20.432H490.479C496.303 20.432 501.037 25.184 501.037 31.0176V209.448C501.037 215.281 496.303 220.033 490.479 220.033H490.303V220.727H490.479C496.682 220.727 501.73 215.67 501.73 209.457V31.0176C501.73 24.8049 496.682 19.7479 490.479 19.7479L490.47 19.7386Z" fill="#25292B"/>
<path d="M419.005 83.2061H220.449V163.758H419.005V83.2061Z" fill="#5683FA"/>
<path d="M290.554 91.7762H227.142V155.188H290.554V91.7762Z" fill="#DEE3FC"/>
<path d="M405.101 93.2279H298.967V98.3774H405.101V93.2279Z" fill="#DEE3FC"/>
<path d="M405.101 103.795H298.967V108.944H405.101V103.795Z" fill="#DEE3FC"/>
<path d="M405.101 115.083H298.967V120.233H405.101V115.083Z" fill="#DEE3FC"/>
<path d="M405.101 125.641H298.967V130.79H405.101V125.641Z" fill="#DEE3FC"/>
<path d="M405.101 136.042H298.967V141.191H405.101V136.042Z" fill="#DEE3FC"/>
<path d="M371.837 146.609H298.967V151.759H371.837V146.609Z" fill="#DEE3FC"/>
<path d="M293.689 152.396H288.345C288.086 152.396 287.883 152.193 287.883 151.934C287.883 151.675 288.086 151.472 288.345 151.472H293.689C293.948 151.472 294.151 151.675 294.151 151.934C294.151 152.193 293.948 152.396 293.689 152.396ZM283.002 152.396H277.658C277.399 152.396 277.196 152.193 277.196 151.934C277.196 151.675 277.399 151.472 277.658 151.472H283.002C283.26 151.472 283.464 151.675 283.464 151.934C283.464 152.193 283.26 152.396 283.002 152.396ZM272.314 152.396H266.971C266.712 152.396 266.508 152.193 266.508 151.934C266.508 151.675 266.712 151.472 266.971 151.472H272.314C272.573 151.472 272.776 151.675 272.776 151.934C272.776 152.193 272.573 152.396 272.314 152.396ZM261.627 152.396H256.283C256.024 152.396 255.821 152.193 255.821 151.934C255.821 151.675 256.024 151.472 256.283 151.472H261.627C261.886 151.472 262.089 151.675 262.089 151.934C262.089 152.193 261.886 152.396 261.627 152.396ZM250.94 152.396H245.596C245.337 152.396 245.134 152.193 245.134 151.934C245.134 151.675 245.337 151.472 245.596 151.472H250.94C251.198 151.472 251.402 151.675 251.402 151.934C251.402 152.193 251.198 152.396 250.94 152.396ZM240.252 152.396H234.909C234.65 152.396 234.446 152.193 234.446 151.934C234.446 151.675 234.65 151.472 234.909 151.472H240.252C240.511 151.472 240.715 151.675 240.715 151.934C240.715 152.193 240.511 152.396 240.252 152.396ZM230.305 151.657C230.046 151.657 229.842 151.453 229.842 151.194V145.851C229.842 145.592 230.046 145.389 230.305 145.389C230.563 145.389 230.767 145.592 230.767 145.851V151.194C230.767 151.453 230.563 151.657 230.305 151.657ZM293.717 150.011C293.458 150.011 293.254 149.808 293.254 149.549V144.205C293.254 143.946 293.458 143.743 293.717 143.743C293.975 143.743 294.179 143.946 294.179 144.205V149.549C294.179 149.808 293.975 150.011 293.717 150.011ZM230.305 140.969C230.046 140.969 229.842 140.766 229.842 140.507V135.163C229.842 134.905 230.046 134.701 230.305 134.701C230.563 134.701 230.767 134.905 230.767 135.163V140.507C230.767 140.766 230.563 140.969 230.305 140.969ZM293.717 139.324C293.458 139.324 293.254 139.12 293.254 138.861V133.518C293.254 133.259 293.458 133.056 293.717 133.056C293.975 133.056 294.179 133.259 294.179 133.518V138.861C294.179 139.12 293.975 139.324 293.717 139.324ZM230.305 130.282C230.046 130.282 229.842 130.079 229.842 129.82V124.476C229.842 124.217 230.046 124.014 230.305 124.014C230.563 124.014 230.767 124.217 230.767 124.476V129.82C230.767 130.079 230.563 130.282 230.305 130.282ZM293.717 128.636C293.458 128.636 293.254 128.433 293.254 128.174V122.831C293.254 122.572 293.458 122.368 293.717 122.368C293.975 122.368 294.179 122.572 294.179 122.831V128.174C294.179 128.433 293.975 128.636 293.717 128.636ZM230.305 119.595C230.046 119.595 229.842 119.391 229.842 119.132V113.789C229.842 113.53 230.046 113.327 230.305 113.327C230.563 113.327 230.767 113.53 230.767 113.789V119.132C230.767 119.391 230.563 119.595 230.305 119.595ZM293.717 117.949C293.458 117.949 293.254 117.746 293.254 117.487V112.143C293.254 111.884 293.458 111.681 293.717 111.681C293.975 111.681 294.179 111.884 294.179 112.143V117.487C294.179 117.746 293.975 117.949 293.717 117.949ZM230.305 108.907C230.046 108.907 229.842 108.704 229.842 108.445V103.102C229.842 102.843 230.046 102.639 230.305 102.639C230.563 102.639 230.767 102.843 230.767 103.102V108.445C230.767 108.704 230.563 108.907 230.305 108.907ZM293.717 107.262C293.458 107.262 293.254 107.058 293.254 106.8V101.456C293.254 101.197 293.458 100.994 293.717 100.994C293.975 100.994 294.179 101.197 294.179 101.456V106.8C294.179 107.058 293.975 107.262 293.717 107.262ZM230.305 98.2201C230.046 98.2201 229.842 98.0167 229.842 97.7579V92.4142C229.842 92.1554 230.046 91.952 230.305 91.952C230.563 91.952 230.767 92.1554 230.767 92.4142V97.7579C230.767 98.0167 230.563 98.2201 230.305 98.2201ZM293.717 96.5745C293.458 96.5745 293.254 96.3711 293.254 96.1123V90.7686C293.254 90.5097 293.458 90.3063 293.717 90.3063C293.975 90.3063 294.179 90.5097 294.179 90.7686V96.1123C294.179 96.3711 293.975 96.5745 293.717 96.5745ZM290.592 89.012H285.248C284.989 89.012 284.786 88.8086 284.786 88.5498C284.786 88.2909 284.989 88.0875 285.248 88.0875H290.592C290.851 88.0875 291.054 88.2909 291.054 88.5498C291.054 88.8086 290.851 89.012 290.592 89.012ZM279.904 89.012H274.561C274.302 89.012 274.099 88.8086 274.099 88.5498C274.099 88.2909 274.302 88.0875 274.561 88.0875H279.904C280.163 88.0875 280.367 88.2909 280.367 88.5498C280.367 88.8086 280.163 89.012 279.904 89.012ZM269.217 89.012H263.873C263.615 89.012 263.411 88.8086 263.411 88.5498C263.411 88.2909 263.615 88.0875 263.873 88.0875H269.217C269.476 88.0875 269.679 88.2909 269.679 88.5498C269.679 88.8086 269.476 89.012 269.217 89.012ZM258.53 89.012H253.186C252.927 89.012 252.724 88.8086 252.724 88.5498C252.724 88.2909 252.927 88.0875 253.186 88.0875H258.53C258.789 88.0875 258.992 88.2909 258.992 88.5498C258.992 88.8086 258.789 89.012 258.53 89.012ZM247.842 89.012H242.499C242.24 89.012 242.037 88.8086 242.037 88.5498C242.037 88.2909 242.24 88.0875 242.499 88.0875H247.842C248.101 88.0875 248.305 88.2909 248.305 88.5498C248.305 88.8086 248.101 89.012 247.842 89.012ZM237.155 89.012H231.812C231.553 89.012 231.349 88.8086 231.349 88.5498C231.349 88.2909 231.553 88.0875 231.812 88.0875H237.155C237.414 88.0875 237.617 88.2909 237.617 88.5498C237.617 88.8086 237.414 89.012 237.155 89.012Z" fill="#25292B"/>
<path d="M413.652 48.4355H226.911C223.035 48.4355 219.894 51.5772 219.894 55.4526V59.6961C219.894 63.5714 223.035 66.7131 226.911 66.7131H413.652C417.527 66.7131 420.669 63.5714 420.669 59.6961V55.4526C420.669 51.5772 417.527 48.4355 413.652 48.4355Z" fill="#A6CFFF"/>
<path d="M265.139 62.3681H263.475V57.5792C263.475 56.9782 263.355 56.5252 263.114 56.2294C262.874 55.9335 262.486 55.7856 261.959 55.7856C261.265 55.7856 260.748 55.9982 260.424 56.405C260.1 56.8211 259.934 57.5144 259.934 58.4944V62.3681H258.279V51.4034H259.934V54.1862C259.934 54.63 259.906 55.1107 259.851 55.6192H259.953C260.174 55.2402 260.489 54.9536 260.896 54.7409C261.302 54.5283 261.765 54.4266 262.301 54.4266C264.187 54.4266 265.13 55.3788 265.13 57.2833V62.3681H265.139Z" fill="#25292B"/>
<path d="M270.353 61.166C270.76 61.166 271.158 61.1013 271.564 60.9719V62.22C271.379 62.3032 271.148 62.3679 270.852 62.4234C270.566 62.4788 270.261 62.5066 269.956 62.5066C268.384 62.5066 267.598 61.6838 267.598 60.0289V55.8316H266.535V55.1013L267.681 54.4911L268.245 52.8455H269.272V54.5835H271.49V55.8409H269.272V60.0104C269.272 60.4079 269.373 60.7038 269.567 60.8979C269.762 61.0921 270.03 61.1845 270.353 61.1845V61.166Z" fill="#25292B"/>
<path d="M276.021 61.166C276.428 61.166 276.825 61.1013 277.232 60.9719V62.22C277.047 62.3032 276.816 62.3679 276.52 62.4234C276.234 62.4788 275.928 62.5066 275.623 62.5066C274.052 62.5066 273.266 61.6838 273.266 60.0289V55.8316H272.203V55.1013L273.349 54.4911L273.913 52.8455H274.939V54.5835H277.158V55.8409H274.939V60.0104C274.939 60.4079 275.041 60.7038 275.235 60.8979C275.429 61.0921 275.697 61.1845 276.021 61.1845V61.166Z" fill="#25292B"/>
<path d="M282.751 62.5065C281.762 62.5065 280.994 62.1552 280.449 61.4433H280.347C280.412 62.0997 280.449 62.4973 280.449 62.6452V65.8347H278.794V54.5742H280.135C280.172 54.7221 280.246 55.0642 280.366 55.6189H280.449C280.967 54.8331 281.743 54.4355 282.779 54.4355C283.749 54.4355 284.507 54.7869 285.053 55.4895C285.598 56.1921 285.867 57.1813 285.867 58.4572C285.867 59.733 285.589 60.7222 285.034 61.4433C284.48 62.1552 283.722 62.5157 282.751 62.5157V62.5065ZM282.353 55.7853C281.697 55.7853 281.216 55.9795 280.911 56.3678C280.606 56.7561 280.458 57.3662 280.458 58.2168V58.4664C280.458 59.4186 280.606 60.1028 280.911 60.5281C281.216 60.9533 281.706 61.166 282.381 61.166C282.954 61.166 283.398 60.9348 283.703 60.4633C284.018 59.9918 284.165 59.3262 284.165 58.4572C284.165 57.5881 284.008 56.9225 283.703 56.4695C283.398 56.0165 282.945 55.7946 282.344 55.7946L282.353 55.7853Z" fill="#25292B"/>
<path d="M293.031 60.1396C293.031 60.8977 292.754 61.4894 292.199 61.8869C291.644 62.2937 290.849 62.4971 289.814 62.4971C288.778 62.4971 287.937 62.3399 287.308 62.0256V60.5926C288.223 61.0179 289.074 61.2305 289.869 61.2305C290.886 61.2305 291.395 60.9254 291.395 60.306C291.395 60.1119 291.339 59.9455 291.228 59.816C291.117 59.6866 290.932 59.5479 290.673 59.4092C290.415 59.2706 290.054 59.1042 289.592 58.9285C288.695 58.5772 288.085 58.2351 287.77 57.8838C287.456 57.5325 287.299 57.0887 287.299 56.534C287.299 55.8684 287.567 55.3507 288.103 54.9809C288.64 54.6111 289.37 54.4261 290.294 54.4261C291.219 54.4261 292.079 54.6111 292.892 54.9809L292.356 56.2289C291.515 55.8776 290.812 55.7112 290.239 55.7112C289.361 55.7112 288.926 55.9608 288.926 56.4601C288.926 56.7004 289.037 56.9131 289.268 57.0795C289.499 57.2459 289.989 57.477 290.757 57.7729C291.404 58.0225 291.866 58.2536 292.162 58.457C292.448 58.6604 292.67 58.9008 292.809 59.1689C292.948 59.437 293.022 59.7606 293.022 60.1396H293.031Z" fill="#25292B"/>
<path d="M294.575 55.4616C294.575 54.7498 294.927 54.3984 295.62 54.3984C295.971 54.3984 296.239 54.4909 296.406 54.6758C296.581 54.8607 296.665 55.1288 296.665 55.4616C296.665 55.7944 296.572 56.0625 296.397 56.2567C296.212 56.4508 295.953 56.5525 295.62 56.5525C295.287 56.5525 295.019 56.4601 294.843 56.2659C294.668 56.0718 294.575 55.8037 294.575 55.4709V55.4616ZM294.575 61.4802C294.575 61.1381 294.668 60.87 294.843 60.6943C295.019 60.5094 295.278 60.417 295.62 60.417C295.962 60.417 296.221 60.5094 296.406 60.7036C296.591 60.8977 296.674 61.1566 296.674 61.4802C296.674 61.8037 296.581 62.0811 296.406 62.2752C296.23 62.4694 295.962 62.5711 295.629 62.5711C295.296 62.5711 295.028 62.4786 294.853 62.2845C294.677 62.0903 294.584 61.8222 294.584 61.4894L294.575 61.4802Z" fill="#25292B"/>
<path d="M303.118 52.0594L299.281 62.3677H297.718L301.564 52.0594H303.127H303.118Z" fill="#25292B"/>
<path d="M308.748 52.0594L304.912 62.3677H303.349L307.195 52.0594H308.758H308.748Z" fill="#25292B"/>
<path d="M248.729 50.0996H227.17C224.254 50.0996 221.891 52.4631 221.891 55.3786V59.7607C221.891 62.6762 224.254 65.0397 227.17 65.0397H248.729C251.645 65.0397 254.008 62.6762 254.008 59.7607V55.3786C254.008 52.4631 251.645 50.0996 248.729 50.0996Z" fill="#5683FA"/>
<path d="M370.83 179.013V187.509H97.092V179.013C97.092 173.863 101.262 169.703 106.402 169.703H361.52C366.669 169.703 370.83 173.863 370.83 179.013Z" fill="#25292B"/>
<path d="M354.234 176.526H335.078C333.802 176.526 332.767 177.559 332.767 178.833C332.767 180.106 333.802 181.139 335.078 181.139H354.234C355.511 181.139 356.545 180.106 356.545 178.833C356.545 177.559 355.511 176.526 354.234 176.526Z" fill="#DEE3FC"/>
<path d="M322.699 176.526H303.544C302.267 176.526 301.232 177.559 301.232 178.833C301.232 180.106 302.267 181.139 303.544 181.139H322.699C323.976 181.139 325.011 180.106 325.011 178.833C325.011 177.559 323.976 176.526 322.699 176.526Z" fill="#B4C1EF"/>
<path d="M291.118 176.526H271.962C270.686 176.526 269.651 177.559 269.651 178.833C269.651 180.106 270.686 181.139 271.962 181.139H291.118C292.395 181.139 293.429 180.106 293.429 178.833C293.429 177.559 292.395 176.526 291.118 176.526Z" fill="#5683FA"/>
<path d="M360.447 370.21H107.502C101.289 370.21 96.2319 365.153 96.2319 358.941V180.501C96.2319 174.289 101.289 169.232 107.502 169.232H360.447C366.65 169.232 371.698 174.289 371.698 180.501V358.941C371.698 365.153 366.65 370.21 360.447 370.21ZM107.502 169.925C101.668 169.925 96.9161 174.677 96.9161 180.511V358.95C96.9161 364.783 101.668 369.535 107.502 369.535H360.447C366.271 369.535 371.005 364.783 371.005 358.95V180.501C371.005 174.668 366.271 169.916 360.447 169.916H107.502V169.925Z" fill="#25292B"/>
<path d="M173.725 205.453H110.507V268.671H173.725V205.453Z" fill="#DEE3FC"/>
<path d="M143.797 250.579C135.377 250.579 128.524 243.727 128.524 235.306C128.524 226.885 135.377 220.033 143.797 220.033C152.218 220.033 159.07 226.885 159.07 235.306C159.07 243.727 152.218 250.579 143.797 250.579ZM143.797 223.078C137.054 223.078 131.564 228.568 131.564 235.312C131.564 242.055 137.054 247.545 143.797 247.545C150.541 247.545 156.031 242.055 156.031 235.312C156.031 228.568 150.541 223.078 143.797 223.078Z" fill="#5683FA"/>
<path d="M153.162 236.211L140.231 244.076C139.504 244.517 138.582 243.996 138.582 243.149V227.429C138.582 226.588 139.504 226.067 140.231 226.508L153.162 234.362C153.861 234.785 153.861 235.793 153.162 236.211Z" fill="#5683FA"/>
<path d="M175.406 267.386H169.822C169.563 267.386 169.36 267.183 169.36 266.924C169.36 266.665 169.563 266.462 169.822 266.462H175.406C175.665 266.462 175.869 266.665 175.869 266.924C175.869 267.183 175.665 267.386 175.406 267.386ZM164.247 267.386H158.663C158.405 267.386 158.201 267.183 158.201 266.924C158.201 266.665 158.405 266.462 158.663 266.462H164.247C164.506 266.462 164.71 266.665 164.71 266.924C164.71 267.183 164.506 267.386 164.247 267.386ZM153.089 267.386H147.505C147.246 267.386 147.042 267.183 147.042 266.924C147.042 266.665 147.246 266.462 147.505 266.462H153.089C153.348 266.462 153.551 266.665 153.551 266.924C153.551 267.183 153.348 267.386 153.089 267.386ZM141.93 267.386H136.346C136.087 267.386 135.884 267.183 135.884 266.924C135.884 266.665 136.087 266.462 136.346 266.462H141.93C142.189 266.462 142.392 266.665 142.392 266.924C142.392 267.183 142.189 267.386 141.93 267.386ZM130.771 267.386H125.187C124.928 267.386 124.725 267.183 124.725 266.924C124.725 266.665 124.928 266.462 125.187 266.462H130.771C131.03 266.462 131.233 266.665 131.233 266.924C131.233 267.183 131.03 267.386 130.771 267.386ZM119.612 267.386H114.028C113.769 267.386 113.566 267.183 113.566 266.924C113.566 266.665 113.769 266.462 114.028 266.462H119.612C119.871 266.462 120.075 266.665 120.075 266.924C120.075 267.183 119.871 267.386 119.612 267.386ZM175.416 265.639C175.157 265.639 174.953 265.436 174.953 265.177V259.593C174.953 259.334 175.157 259.13 175.416 259.13C175.674 259.13 175.878 259.334 175.878 259.593V265.177C175.878 265.436 175.674 265.639 175.416 265.639ZM112.198 263.633C111.939 263.633 111.735 263.429 111.735 263.17V257.586C111.735 257.328 111.939 257.124 112.198 257.124C112.457 257.124 112.66 257.328 112.66 257.586V263.17C112.66 263.429 112.457 263.633 112.198 263.633ZM175.416 254.471C175.157 254.471 174.953 254.267 174.953 254.009V248.425C174.953 248.166 175.157 247.962 175.416 247.962C175.674 247.962 175.878 248.166 175.878 248.425V254.009C175.878 254.267 175.674 254.471 175.416 254.471ZM112.198 252.465C111.939 252.465 111.735 252.261 111.735 252.002V246.418C111.735 246.16 111.939 245.956 112.198 245.956C112.457 245.956 112.66 246.16 112.66 246.418V252.002C112.66 252.261 112.457 252.465 112.198 252.465ZM175.416 243.303C175.157 243.303 174.953 243.099 174.953 242.841V237.257C174.953 236.998 175.157 236.794 175.416 236.794C175.674 236.794 175.878 236.998 175.878 237.257V242.841C175.878 243.099 175.674 243.303 175.416 243.303ZM112.198 241.297C111.939 241.297 111.735 241.093 111.735 240.834V235.25C111.735 234.991 111.939 234.788 112.198 234.788C112.457 234.788 112.66 234.991 112.66 235.25V240.834C112.66 241.093 112.457 241.297 112.198 241.297ZM175.416 232.135C175.157 232.135 174.953 231.931 174.953 231.673V226.088C174.953 225.83 175.157 225.626 175.416 225.626C175.674 225.626 175.878 225.83 175.878 226.088V231.673C175.878 231.931 175.674 232.135 175.416 232.135ZM112.198 230.129C111.939 230.129 111.735 229.925 111.735 229.666V224.082C111.735 223.823 111.939 223.62 112.198 223.62C112.457 223.62 112.66 223.823 112.66 224.082V229.666C112.66 229.925 112.457 230.129 112.198 230.129ZM175.416 220.967C175.157 220.967 174.953 220.763 174.953 220.504V214.92C174.953 214.662 175.157 214.458 175.416 214.458C175.674 214.458 175.878 214.662 175.878 214.92V220.504C175.878 220.763 175.674 220.967 175.416 220.967ZM112.198 218.961C111.939 218.961 111.735 218.757 111.735 218.498V212.914C111.735 212.655 111.939 212.452 112.198 212.452C112.457 212.452 112.66 212.655 112.66 212.914V218.498C112.66 218.757 112.457 218.961 112.198 218.961ZM175.416 209.799C175.157 209.799 174.953 209.595 174.953 209.336V203.752C174.953 203.494 175.157 203.29 175.416 203.29C175.674 203.29 175.878 203.494 175.878 203.752V209.336C175.878 209.595 175.674 209.799 175.416 209.799ZM112.198 207.792C111.939 207.792 111.735 207.589 111.735 207.33V203.669C111.735 203.41 111.939 203.207 112.198 203.207H114.111C114.37 203.207 114.574 203.41 114.574 203.669C114.574 203.928 114.37 204.131 114.111 204.131H112.66V207.33C112.66 207.589 112.457 207.792 112.198 207.792ZM169.924 204.131H164.34C164.081 204.131 163.878 203.928 163.878 203.669C163.878 203.41 164.081 203.207 164.34 203.207H169.924C170.183 203.207 170.386 203.41 170.386 203.669C170.386 203.928 170.183 204.131 169.924 204.131ZM158.765 204.131H153.181C152.922 204.131 152.719 203.928 152.719 203.669C152.719 203.41 152.922 203.207 153.181 203.207H158.765C159.024 203.207 159.227 203.41 159.227 203.669C159.227 203.928 159.024 204.131 158.765 204.131ZM147.606 204.131H142.022C141.763 204.131 141.56 203.928 141.56 203.669C141.56 203.41 141.763 203.207 142.022 203.207H147.606C147.865 203.207 148.069 203.41 148.069 203.669C148.069 203.928 147.865 204.131 147.606 204.131ZM136.448 204.131H130.864C130.605 204.131 130.401 203.928 130.401 203.669C130.401 203.41 130.605 203.207 130.864 203.207H136.448C136.706 203.207 136.91 203.41 136.91 203.669C136.91 203.928 136.706 204.131 136.448 204.131ZM125.289 204.131H119.705C119.446 204.131 119.242 203.928 119.242 203.669C119.242 203.41 119.446 203.207 119.705 203.207H125.289C125.548 203.207 125.751 203.41 125.751 203.669C125.751 203.928 125.548 204.131 125.289 204.131Z" fill="#25292B"/>
<path d="M171.913 278.739H112.319C111.318 278.739 110.507 279.55 110.507 280.551V280.579C110.507 281.58 111.318 282.391 112.319 282.391H171.913C172.913 282.391 173.725 281.58 173.725 280.579V280.551C173.725 279.55 172.913 278.739 171.913 278.739Z" fill="#DEE3FC"/>
<path d="M171.913 291.118H112.319C111.318 291.118 110.507 291.93 110.507 292.93V292.958C110.507 293.959 111.318 294.77 112.319 294.77H171.913C172.913 294.77 173.725 293.959 173.725 292.958V292.93C173.725 291.93 172.913 291.118 171.913 291.118Z" fill="#DEE3FC"/>
<path d="M171.913 304.533H112.319C111.318 304.533 110.507 305.344 110.507 306.345V306.373C110.507 307.373 111.318 308.185 112.319 308.185H171.913C172.913 308.185 173.725 307.373 173.725 306.373V306.345C173.725 305.344 172.913 304.533 171.913 304.533Z" fill="#DEE3FC"/>
<path d="M171.913 316.912H112.319C111.318 316.912 110.507 317.723 110.507 318.724V318.752C110.507 319.753 111.318 320.564 112.319 320.564H171.913C172.913 320.564 173.725 319.753 173.725 318.752V318.724C173.725 317.723 172.913 316.912 171.913 316.912Z" fill="#DEE3FC"/>
<path d="M252.28 205.453H189.062V268.671H252.28V205.453Z" fill="#DEE3FC"/>
<path d="M222.345 250.579C213.924 250.579 207.072 243.726 207.072 235.306C207.072 226.885 213.924 220.033 222.345 220.033C230.765 220.033 237.617 226.885 237.617 235.306C237.617 243.726 230.765 250.579 222.345 250.579ZM222.345 223.078C215.601 223.078 210.111 228.568 210.111 235.311C210.111 242.055 215.601 247.545 222.345 247.545C229.088 247.545 234.578 242.055 234.578 235.311C234.578 228.568 229.088 223.078 222.345 223.078Z" fill="#5683FA"/>
<path d="M231.709 236.21L218.778 244.076C218.051 244.517 217.129 243.996 217.129 243.148V227.429C217.129 226.587 218.051 226.067 218.778 226.507L231.709 234.361C232.408 234.785 232.408 235.792 231.709 236.21Z" fill="#5683FA"/>
<path d="M253.953 267.386H248.369C248.111 267.386 247.907 267.183 247.907 266.924C247.907 266.665 248.111 266.461 248.369 266.461H253.953C254.212 266.461 254.416 266.665 254.416 266.924C254.416 267.183 254.212 267.386 253.953 267.386ZM242.795 267.386H237.211C236.952 267.386 236.748 267.183 236.748 266.924C236.748 266.665 236.952 266.461 237.211 266.461H242.795C243.053 266.461 243.257 266.665 243.257 266.924C243.257 267.183 243.053 267.386 242.795 267.386ZM231.636 267.386H226.052C225.793 267.386 225.59 267.183 225.59 266.924C225.59 266.665 225.793 266.461 226.052 266.461H231.636C231.895 266.461 232.098 266.665 232.098 266.924C232.098 267.183 231.895 267.386 231.636 267.386ZM220.477 267.386H214.893C214.634 267.386 214.431 267.183 214.431 266.924C214.431 266.665 214.634 266.461 214.893 266.461H220.477C220.736 266.461 220.939 266.665 220.939 266.924C220.939 267.183 220.736 267.386 220.477 267.386ZM209.318 267.386H203.734C203.475 267.386 203.272 267.183 203.272 266.924C203.272 266.665 203.475 266.461 203.734 266.461H209.318C209.577 266.461 209.78 266.665 209.78 266.924C209.78 267.183 209.577 267.386 209.318 267.386ZM198.159 267.386H192.575C192.316 267.386 192.113 267.183 192.113 266.924C192.113 266.665 192.316 266.461 192.575 266.461H198.159C198.418 266.461 198.622 266.665 198.622 266.924C198.622 267.183 198.418 267.386 198.159 267.386ZM253.963 265.639C253.704 265.639 253.5 265.435 253.5 265.176V259.592C253.5 259.334 253.704 259.13 253.963 259.13C254.222 259.13 254.425 259.334 254.425 259.592V265.176C254.425 265.435 254.222 265.639 253.963 265.639ZM190.745 263.633C190.486 263.633 190.283 263.429 190.283 263.17V257.586C190.283 257.327 190.486 257.124 190.745 257.124C191.004 257.124 191.207 257.327 191.207 257.586V263.17C191.207 263.429 191.004 263.633 190.745 263.633ZM253.963 254.471C253.704 254.471 253.5 254.267 253.5 254.008V248.424C253.5 248.165 253.704 247.962 253.963 247.962C254.222 247.962 254.425 248.165 254.425 248.424V254.008C254.425 254.267 254.222 254.471 253.963 254.471ZM190.745 252.464C190.486 252.464 190.283 252.261 190.283 252.002V246.418C190.283 246.159 190.486 245.956 190.745 245.956C191.004 245.956 191.207 246.159 191.207 246.418V252.002C191.207 252.261 191.004 252.464 190.745 252.464ZM253.963 243.303C253.704 243.303 253.5 243.099 253.5 242.84V237.256C253.5 236.997 253.704 236.794 253.963 236.794C254.222 236.794 254.425 236.997 254.425 237.256V242.84C254.425 243.099 254.222 243.303 253.963 243.303ZM190.745 241.296C190.486 241.296 190.283 241.093 190.283 240.834V235.25C190.283 234.991 190.486 234.788 190.745 234.788C191.004 234.788 191.207 234.991 191.207 235.25V240.834C191.207 241.093 191.004 241.296 190.745 241.296ZM253.963 232.135C253.704 232.135 253.5 231.931 253.5 231.672V226.088C253.5 225.829 253.704 225.626 253.963 225.626C254.222 225.626 254.425 225.829 254.425 226.088V231.672C254.425 231.931 254.222 232.135 253.963 232.135ZM190.745 230.128C190.486 230.128 190.283 229.925 190.283 229.666V224.082C190.283 223.823 190.486 223.62 190.745 223.62C191.004 223.62 191.207 223.823 191.207 224.082V229.666C191.207 229.925 191.004 230.128 190.745 230.128ZM253.963 220.966C253.704 220.966 253.5 220.763 253.5 220.504V214.92C253.5 214.661 253.704 214.458 253.963 214.458C254.222 214.458 254.425 214.661 254.425 214.92V220.504C254.425 220.763 254.222 220.966 253.963 220.966ZM190.745 218.96C190.486 218.96 190.283 218.757 190.283 218.498V212.914C190.283 212.655 190.486 212.452 190.745 212.452C191.004 212.452 191.207 212.655 191.207 212.914V218.498C191.207 218.757 191.004 218.96 190.745 218.96ZM253.963 209.798C253.704 209.798 253.5 209.595 253.5 209.336V203.752C253.5 203.493 253.704 203.29 253.963 203.29C254.222 203.29 254.425 203.493 254.425 203.752V209.336C254.425 209.595 254.222 209.798 253.963 209.798ZM190.745 207.792C190.486 207.792 190.283 207.589 190.283 207.33V203.669C190.283 203.41 190.486 203.207 190.745 203.207H192.659C192.917 203.207 193.121 203.41 193.121 203.669C193.121 203.928 192.917 204.131 192.659 204.131H191.207V207.33C191.207 207.589 191.004 207.792 190.745 207.792ZM248.471 204.131H242.887C242.628 204.131 242.425 203.928 242.425 203.669C242.425 203.41 242.628 203.207 242.887 203.207H248.471C248.73 203.207 248.933 203.41 248.933 203.669C248.933 203.928 248.73 204.131 248.471 204.131ZM237.312 204.131H231.728C231.469 204.131 231.266 203.928 231.266 203.669C231.266 203.41 231.469 203.207 231.728 203.207H237.312C237.571 203.207 237.775 203.41 237.775 203.669C237.775 203.928 237.571 204.131 237.312 204.131ZM226.153 204.131H220.569C220.311 204.131 220.107 203.928 220.107 203.669C220.107 203.41 220.311 203.207 220.569 203.207H226.153C226.412 203.207 226.616 203.41 226.616 203.669C226.616 203.928 226.412 204.131 226.153 204.131ZM214.995 204.131H209.411C209.152 204.131 208.948 203.928 208.948 203.669C208.948 203.41 209.152 203.207 209.411 203.207H214.995C215.254 203.207 215.457 203.41 215.457 203.669C215.457 203.928 215.254 204.131 214.995 204.131ZM203.836 204.131H198.252C197.993 204.131 197.79 203.928 197.79 203.669C197.79 203.41 197.993 203.207 198.252 203.207H203.836C204.095 203.207 204.298 203.41 204.298 203.669C204.298 203.928 204.095 204.131 203.836 204.131Z" fill="#25292B"/>
<path d="M250.468 278.739H190.874C189.873 278.739 189.062 279.55 189.062 280.551V280.579C189.062 281.58 189.873 282.391 190.874 282.391H250.468C251.469 282.391 252.28 281.58 252.28 280.579V280.551C252.28 279.55 251.469 278.739 250.468 278.739Z" fill="#DEE3FC"/>
<path d="M250.468 291.118H190.874C189.873 291.118 189.062 291.929 189.062 292.93V292.958C189.062 293.959 189.873 294.77 190.874 294.77H250.468C251.469 294.77 252.28 293.959 252.28 292.958V292.93C252.28 291.929 251.469 291.118 250.468 291.118Z" fill="#DEE3FC"/>
<path d="M250.468 304.533H190.874C189.873 304.533 189.062 305.344 189.062 306.345V306.373C189.062 307.373 189.873 308.185 190.874 308.185H250.468C251.469 308.185 252.28 307.373 252.28 306.373V306.345C252.28 305.344 251.469 304.533 250.468 304.533Z" fill="#DEE3FC"/>
<path d="M250.468 316.912H190.874C189.873 316.912 189.062 317.723 189.062 318.724V318.752C189.062 319.752 189.873 320.564 190.874 320.564H250.468C251.469 320.564 252.28 319.752 252.28 318.752V318.724C252.28 317.723 251.469 316.912 250.468 316.912Z" fill="#DEE3FC"/>
<path d="M330.151 205.453H266.933V268.671H330.151V205.453Z" fill="#DEE3FC"/>
<path d="M300.215 250.579C291.794 250.579 284.942 243.727 284.942 235.306C284.942 226.885 291.794 220.033 300.215 220.033C308.636 220.033 315.488 226.885 315.488 235.306C315.488 243.727 308.636 250.579 300.215 250.579ZM300.215 223.078C293.472 223.078 287.982 228.568 287.982 235.312C287.982 242.055 293.472 247.545 300.215 247.545C306.959 247.545 312.448 242.055 312.448 235.312C312.448 228.568 306.959 223.078 300.215 223.078Z" fill="#5683FA"/>
<path d="M309.586 236.21L296.655 244.076C295.928 244.517 295.006 243.996 295.006 243.149V227.429C295.006 226.588 295.928 226.067 296.655 226.507L309.586 234.361C310.285 234.785 310.285 235.793 309.586 236.21Z" fill="#5683FA"/>
<path d="M331.825 267.386H326.24C325.982 267.386 325.778 267.183 325.778 266.924C325.778 266.665 325.982 266.462 326.24 266.462H331.825C332.083 266.462 332.287 266.665 332.287 266.924C332.287 267.183 332.083 267.386 331.825 267.386ZM320.666 267.386H315.082C314.823 267.386 314.619 267.183 314.619 266.924C314.619 266.665 314.823 266.462 315.082 266.462H320.666C320.925 266.462 321.128 266.665 321.128 266.924C321.128 267.183 320.925 267.386 320.666 267.386ZM309.507 267.386H303.923C303.664 267.386 303.461 267.183 303.461 266.924C303.461 266.665 303.664 266.462 303.923 266.462H309.507C309.766 266.462 309.969 266.665 309.969 266.924C309.969 267.183 309.766 267.386 309.507 267.386ZM298.348 267.386H292.764C292.505 267.386 292.302 267.183 292.302 266.924C292.302 266.665 292.505 266.462 292.764 266.462H298.348C298.607 266.462 298.81 266.665 298.81 266.924C298.81 267.183 298.607 267.386 298.348 267.386ZM287.189 267.386H281.605C281.346 267.386 281.143 267.183 281.143 266.924C281.143 266.665 281.346 266.462 281.605 266.462H287.189C287.448 266.462 287.652 266.665 287.652 266.924C287.652 267.183 287.448 267.386 287.189 267.386ZM276.03 267.386H270.446C270.188 267.386 269.984 267.183 269.984 266.924C269.984 266.665 270.188 266.462 270.446 266.462H276.03C276.289 266.462 276.493 266.665 276.493 266.924C276.493 267.183 276.289 267.386 276.03 267.386ZM331.834 265.639C331.575 265.639 331.372 265.435 331.372 265.177V259.593C331.372 259.334 331.575 259.13 331.834 259.13C332.093 259.13 332.296 259.334 332.296 259.593V265.177C332.296 265.435 332.093 265.639 331.834 265.639ZM268.616 263.633C268.357 263.633 268.154 263.429 268.154 263.17V257.586C268.154 257.327 268.357 257.124 268.616 257.124C268.875 257.124 269.078 257.327 269.078 257.586V263.17C269.078 263.429 268.875 263.633 268.616 263.633ZM331.834 254.471C331.575 254.471 331.372 254.267 331.372 254.008V248.424C331.372 248.166 331.575 247.962 331.834 247.962C332.093 247.962 332.296 248.166 332.296 248.424V254.008C332.296 254.267 332.093 254.471 331.834 254.471ZM268.616 252.465C268.357 252.465 268.154 252.261 268.154 252.002V246.418C268.154 246.159 268.357 245.956 268.616 245.956C268.875 245.956 269.078 246.159 269.078 246.418V252.002C269.078 252.261 268.875 252.465 268.616 252.465ZM331.834 243.303C331.575 243.303 331.372 243.099 331.372 242.84V237.256C331.372 236.998 331.575 236.794 331.834 236.794C332.093 236.794 332.296 236.998 332.296 237.256V242.84C332.296 243.099 332.093 243.303 331.834 243.303ZM268.616 241.297C268.357 241.297 268.154 241.093 268.154 240.834V235.25C268.154 234.991 268.357 234.788 268.616 234.788C268.875 234.788 269.078 234.991 269.078 235.25V240.834C269.078 241.093 268.875 241.297 268.616 241.297ZM331.834 232.135C331.575 232.135 331.372 231.931 331.372 231.672V226.088C331.372 225.829 331.575 225.626 331.834 225.626C332.093 225.626 332.296 225.829 332.296 226.088V231.672C332.296 231.931 332.093 232.135 331.834 232.135ZM268.616 230.128C268.357 230.128 268.154 229.925 268.154 229.666V224.082C268.154 223.823 268.357 223.62 268.616 223.62C268.875 223.62 269.078 223.823 269.078 224.082V229.666C269.078 229.925 268.875 230.128 268.616 230.128ZM331.834 220.967C331.575 220.967 331.372 220.763 331.372 220.504V214.92C331.372 214.661 331.575 214.458 331.834 214.458C332.093 214.458 332.296 214.661 332.296 214.92V220.504C332.296 220.763 332.093 220.967 331.834 220.967ZM268.616 218.96C268.357 218.96 268.154 218.757 268.154 218.498V212.914C268.154 212.655 268.357 212.452 268.616 212.452C268.875 212.452 269.078 212.655 269.078 212.914V218.498C269.078 218.757 268.875 218.96 268.616 218.96ZM331.834 209.799C331.575 209.799 331.372 209.595 331.372 209.336V203.752C331.372 203.493 331.575 203.29 331.834 203.29C332.093 203.29 332.296 203.493 332.296 203.752V209.336C332.296 209.595 332.093 209.799 331.834 209.799ZM268.616 207.792C268.357 207.792 268.154 207.589 268.154 207.33V203.669C268.154 203.41 268.357 203.207 268.616 203.207H270.53C270.789 203.207 270.992 203.41 270.992 203.669C270.992 203.928 270.789 204.131 270.53 204.131H269.078V207.33C269.078 207.589 268.875 207.792 268.616 207.792ZM326.342 204.131H320.758C320.499 204.131 320.296 203.928 320.296 203.669C320.296 203.41 320.499 203.207 320.758 203.207H326.342C326.601 203.207 326.804 203.41 326.804 203.669C326.804 203.928 326.601 204.131 326.342 204.131ZM315.183 204.131H309.599C309.34 204.131 309.137 203.928 309.137 203.669C309.137 203.41 309.34 203.207 309.599 203.207H315.183C315.442 203.207 315.646 203.41 315.646 203.669C315.646 203.928 315.442 204.131 315.183 204.131ZM304.025 204.131H298.441C298.182 204.131 297.978 203.928 297.978 203.669C297.978 203.41 298.182 203.207 298.441 203.207H304.025C304.283 203.207 304.487 203.41 304.487 203.669C304.487 203.928 304.283 204.131 304.025 204.131ZM292.866 204.131H287.282C287.023 204.131 286.819 203.928 286.819 203.669C286.819 203.41 287.023 203.207 287.282 203.207H292.866C293.125 203.207 293.328 203.41 293.328 203.669C293.328 203.928 293.125 204.131 292.866 204.131ZM281.707 204.131H276.123C275.864 204.131 275.661 203.928 275.661 203.669C275.661 203.41 275.864 203.207 276.123 203.207H281.707C281.966 203.207 282.169 203.41 282.169 203.669C282.169 203.928 281.966 204.131 281.707 204.131Z" fill="#25292B"/>
<path d="M328.339 278.739H268.745C267.744 278.739 266.933 279.55 266.933 280.551V280.579C266.933 281.58 267.744 282.391 268.745 282.391H328.339C329.339 282.391 330.151 281.58 330.151 280.579V280.551C330.151 279.55 329.339 278.739 328.339 278.739Z" fill="#DEE3FC"/>
<path d="M328.338 291.118H268.745C267.744 291.118 266.933 291.929 266.933 292.93V292.958C266.933 293.959 267.744 294.77 268.745 294.77H328.338C329.339 294.77 330.15 293.959 330.15 292.958V292.93C330.15 291.929 329.339 291.118 328.338 291.118Z" fill="#DEE3FC"/>
<path d="M328.338 304.533H268.745C267.744 304.533 266.933 305.344 266.933 306.345V306.373C266.933 307.373 267.744 308.185 268.745 308.185H328.338C329.339 308.185 330.15 307.373 330.15 306.373V306.345C330.15 305.344 329.339 304.533 328.338 304.533Z" fill="#DEE3FC"/>
<path d="M328.338 316.912H268.745C267.744 316.912 266.933 317.723 266.933 318.724V318.752C266.933 319.752 267.744 320.564 268.745 320.564H328.338C329.339 320.564 330.15 319.752 330.15 318.752V318.724C330.15 317.723 329.339 316.912 328.338 316.912Z" fill="#DEE3FC"/>
<path d="M284.481 340.349L269.476 355.353H118.014C116.396 355.353 114.898 354.836 113.669 353.957C112.374 353.033 111.385 351.72 110.877 350.176C110.636 349.455 110.507 348.669 110.507 347.856C110.507 345.794 111.357 343.908 112.707 342.558C114.057 341.208 115.943 340.358 118.005 340.358H284.471L284.481 340.349Z" fill="#B4C1EF"/>
<path d="M341.291 347.855C341.291 349.908 340.44 351.794 339.09 353.144C337.731 354.512 335.855 355.344 333.793 355.344H269.484L284.489 340.339H333.793C337.925 340.339 341.3 343.714 341.3 347.846L341.291 347.855Z" fill="#25292B"/>
<path d="M278.193 340.348L263.188 355.353H256.624L271.62 340.348H278.193Z" fill="white"/>
<path d="M264.474 340.348L249.469 355.353H242.905L257.901 340.348H264.474Z" fill="white"/>
<path d="M250.755 340.348L235.75 355.353H229.186L244.181 340.348H250.755Z" fill="white"/>
<path d="M237.034 340.348L222.029 355.353H215.465L230.461 340.348H237.034Z" fill="white"/>
<path d="M223.314 340.348L208.309 355.353H201.736L216.741 340.348H223.314Z" fill="white"/>
<path d="M209.595 340.348L194.59 355.353H188.017L203.021 340.348H209.595Z" fill="white"/>
<path d="M195.875 340.348L180.871 355.353H174.297L189.302 340.348H195.875Z" fill="white"/>
<path d="M182.155 340.348L167.15 355.353H160.577L175.582 340.348H182.155Z" fill="white"/>
<path d="M168.435 340.348L153.431 355.353H146.857L161.862 340.348H168.435Z" fill="white"/>
<path d="M154.716 340.348L139.711 355.353H133.138L148.143 340.348H154.716Z" fill="white"/>
<path d="M140.996 340.348L125.992 355.353H119.418L134.423 340.348H140.996Z" fill="white"/>
<path d="M127.277 340.348L113.668 353.957C112.374 353.033 111.384 351.72 110.876 350.176L120.694 340.358H127.267L127.277 340.348Z" fill="white"/>
<path d="M440.019 152.322C449.126 291.516 501.37 318.539 501.37 318.539C501.37 318.539 523.521 264.058 440.019 152.322Z" fill="#DEE3FC"/>
<path d="M449.638 177.196L448.892 177.472L499.215 313.804L499.96 313.529L449.638 177.196Z" fill="#25292B"/>
<path d="M465.018 220.051L447.711 202.393L448.284 201.838L464.352 218.23L465.914 195.33L466.709 195.385L465.018 220.051Z" fill="#25292B"/>
<path d="M491.135 290.813L473.828 273.155L474.402 272.6L490.469 288.992L492.032 266.092L492.827 266.147L491.135 290.813Z" fill="#25292B"/>
<path d="M477.24 253.158L459.933 235.5L460.497 234.945L476.565 251.337L478.137 228.437L478.922 228.492L477.24 253.158Z" fill="#25292B"/>
<path d="M562.775 152.322C553.669 291.516 501.425 318.539 501.425 318.539C501.425 318.539 479.274 264.058 562.775 152.322Z" fill="#DEE3FC"/>
<path d="M553.139 177.194L502.864 313.544L503.61 313.819L553.885 177.469L553.139 177.194Z" fill="#25292B"/>
<path d="M537.777 220.051L536.095 195.385L536.89 195.33L538.452 218.239L554.52 201.838L555.084 202.393L537.777 220.051Z" fill="#25292B"/>
<path d="M511.659 290.813L509.977 266.147L510.772 266.092L512.334 288.992L528.402 272.6L528.966 273.155L511.659 290.813Z" fill="#25292B"/>
<path d="M525.564 253.158L523.882 228.492L524.668 228.437L526.23 251.337L542.298 234.945L542.871 235.5L525.564 253.158Z" fill="#25292B"/>
<path d="M501.416 141.357C541.068 275.096 501.416 318.53 501.416 318.53C501.416 318.53 461.764 275.087 501.416 141.357Z" fill="#B4C1EF"/>
<path d="M501.814 168.038H501.019V313.362H501.814V168.038Z" fill="#25292B"/>
<path d="M501.416 213.561L491.293 191.003L492.014 190.679L501.416 211.619L510.809 190.679L511.53 191.003L501.416 213.561Z" fill="#25292B"/>
<path d="M501.416 288.982L491.293 266.424L492.014 266.101L501.416 287.05L510.809 266.101L511.53 266.424L501.416 288.982Z" fill="#25292B"/>
<path d="M501.416 248.84L491.293 226.282L492.014 225.959L501.416 246.908L510.809 225.959L511.53 226.282L501.416 248.84Z" fill="#25292B"/>
<path d="M483.499 374.712L472.802 297.728H530.002L519.647 374.333L483.499 374.712Z" fill="#006EF2"/>
<path d="M483.498 375.174C483.267 375.174 483.073 375.008 483.036 374.777L472.339 297.793C472.321 297.664 472.358 297.525 472.45 297.423C472.534 297.321 472.663 297.266 472.802 297.266H530.001C530.13 297.266 530.26 297.321 530.352 297.423C530.436 297.525 530.482 297.654 530.463 297.793L520.109 374.407C520.081 374.638 519.887 374.804 519.656 374.804L483.508 375.184L483.498 375.174ZM473.329 298.19L483.896 374.25L519.231 373.88L529.465 298.19H473.319H473.329Z" fill="#25292B"/>
<path d="M207.117 154.458H205.943C205.684 154.458 205.481 154.254 205.481 153.995C205.481 153.736 205.684 153.533 205.943 153.533H207.117C208.402 153.533 209.576 152.941 210.344 151.915C210.501 151.712 210.787 151.675 210.991 151.823C211.194 151.98 211.24 152.267 211.083 152.47C210.14 153.727 208.689 154.458 207.117 154.458ZM200.599 154.458H195.256C194.997 154.458 194.793 154.254 194.793 153.995C194.793 153.736 194.997 153.533 195.256 153.533H200.599C200.858 153.533 201.062 153.736 201.062 153.995C201.062 154.254 200.858 154.458 200.599 154.458ZM189.912 154.458H184.568C184.31 154.458 184.106 154.254 184.106 153.995C184.106 153.736 184.31 153.533 184.568 153.533H189.912C190.171 153.533 190.374 153.736 190.374 153.995C190.374 154.254 190.171 154.458 189.912 154.458ZM179.225 154.458H173.881C173.622 154.458 173.419 154.254 173.419 153.995C173.419 153.736 173.622 153.533 173.881 153.533H179.225C179.484 153.533 179.687 153.736 179.687 153.995C179.687 154.254 179.484 154.458 179.225 154.458ZM168.537 154.458H163.194C162.935 154.458 162.732 154.254 162.732 153.995C162.732 153.736 162.935 153.533 163.194 153.533H168.537C168.796 153.533 169 153.736 169 153.995C169 154.254 168.796 154.458 168.537 154.458ZM157.85 154.458H152.506C152.248 154.458 152.044 154.254 152.044 153.995C152.044 153.736 152.248 153.533 152.506 153.533H157.85C158.109 153.533 158.312 153.736 158.312 153.995C158.312 154.254 158.109 154.458 157.85 154.458ZM147.163 154.458H141.819C141.56 154.458 141.357 154.254 141.357 153.995C141.357 153.736 141.56 153.533 141.819 153.533H147.163C147.422 153.533 147.625 153.736 147.625 153.995C147.625 154.254 147.422 154.458 147.163 154.458ZM136.475 154.458H131.132C130.873 154.458 130.67 154.254 130.67 153.995C130.67 153.736 130.873 153.533 131.132 153.533H136.475C136.734 153.533 136.938 153.736 136.938 153.995C136.938 154.254 136.734 154.458 136.475 154.458ZM125.788 154.458H124.503C122.978 154.458 121.563 153.773 120.611 152.572C120.454 152.368 120.491 152.082 120.685 151.924C120.888 151.767 121.175 151.795 121.332 151.998C122.099 152.969 123.255 153.533 124.503 153.533H125.788C126.047 153.533 126.25 153.736 126.25 153.995C126.25 154.254 126.047 154.458 125.788 154.458ZM120.001 147.625C119.742 147.625 119.539 147.422 119.539 147.163V141.82C119.539 141.561 119.742 141.357 120.001 141.357C120.26 141.357 120.463 141.561 120.463 141.82V147.163C120.463 147.422 120.26 147.625 120.001 147.625ZM211.647 147.505C211.388 147.505 211.185 147.302 211.185 147.043V141.699C211.185 141.441 211.388 141.237 211.647 141.237C211.906 141.237 212.109 141.441 212.109 141.699V147.043C212.109 147.302 211.906 147.505 211.647 147.505ZM120.001 136.929C119.742 136.929 119.539 136.726 119.539 136.467V131.123C119.539 130.864 119.742 130.661 120.001 130.661C120.26 130.661 120.463 130.864 120.463 131.123V136.467C120.463 136.726 120.26 136.929 120.001 136.929ZM211.647 136.809C211.388 136.809 211.185 136.605 211.185 136.346V131.003C211.185 130.744 211.388 130.541 211.647 130.541C211.906 130.541 212.109 130.744 212.109 131.003V136.346C212.109 136.605 211.906 136.809 211.647 136.809ZM120.001 126.232C119.742 126.232 119.539 126.029 119.539 125.77V120.426C119.539 120.168 119.742 119.964 120.001 119.964C120.26 119.964 120.463 120.168 120.463 120.426V125.77C120.463 126.029 120.26 126.232 120.001 126.232ZM211.647 126.112C211.388 126.112 211.185 125.909 211.185 125.65V120.306C211.185 120.047 211.388 119.844 211.647 119.844C211.906 119.844 212.109 120.047 212.109 120.306V125.65C212.109 125.909 211.906 126.112 211.647 126.112ZM120.001 115.536C119.742 115.536 119.539 115.332 119.539 115.074V109.73C119.539 109.471 119.742 109.268 120.001 109.268C120.26 109.268 120.463 109.471 120.463 109.73V115.074C120.463 115.332 120.26 115.536 120.001 115.536ZM211.647 115.416C211.388 115.416 211.185 115.212 211.185 114.953V109.61C211.185 109.351 211.388 109.147 211.647 109.147C211.906 109.147 212.109 109.351 212.109 109.61V114.953C212.109 115.212 211.906 115.416 211.647 115.416ZM120.001 104.839C119.742 104.839 119.539 104.636 119.539 104.377V99.0333C119.539 98.7745 119.742 98.5711 120.001 98.5711C120.26 98.5711 120.463 98.7745 120.463 99.0333V104.377C120.463 104.636 120.26 104.839 120.001 104.839ZM211.647 104.719C211.388 104.719 211.185 104.516 211.185 104.257V98.9132C211.185 98.6543 211.388 98.4509 211.647 98.4509C211.906 98.4509 212.109 98.6543 212.109 98.9132V104.257C212.109 104.516 211.906 104.719 211.647 104.719ZM120.001 94.1427C119.742 94.1427 119.539 93.9393 119.539 93.6804V88.3368C119.539 88.0779 119.742 87.8745 120.001 87.8745C120.26 87.8745 120.463 88.0779 120.463 88.3368V93.6804C120.463 93.9393 120.26 94.1427 120.001 94.1427ZM211.647 94.0225C211.388 94.0225 211.185 93.8191 211.185 93.5603V88.2166C211.185 87.9577 211.388 87.7543 211.647 87.7543C211.906 87.7543 212.109 87.9577 212.109 88.2166V93.5603C212.109 93.8191 211.906 94.0225 211.647 94.0225ZM120.001 83.4461C119.742 83.4461 119.539 83.2428 119.539 82.9839V77.6402C119.539 77.3814 119.742 77.178 120.001 77.178C120.26 77.178 120.463 77.3814 120.463 77.6402V82.9839C120.463 83.2428 120.26 83.4461 120.001 83.4461ZM211.647 83.326C211.388 83.326 211.185 83.1226 211.185 82.8637V77.52C211.185 77.2612 211.388 77.0578 211.647 77.0578C211.906 77.0578 212.109 77.2612 212.109 77.52V82.8637C212.109 83.1226 211.906 83.326 211.647 83.326ZM120.001 72.7496C119.742 72.7496 119.539 72.5462 119.539 72.2873V66.9437C119.539 66.6848 119.742 66.4814 120.001 66.4814C120.26 66.4814 120.463 66.6848 120.463 66.9437V72.2873C120.463 72.5462 120.26 72.7496 120.001 72.7496ZM211.647 72.6294C211.388 72.6294 211.185 72.426 211.185 72.1671V66.8235C211.185 66.7033 211.231 66.5924 211.305 66.5092C211.213 66.4352 211.157 66.3335 211.139 66.2133C210.898 64.6047 209.66 63.2641 208.079 62.8943C207.829 62.8389 207.672 62.5892 207.737 62.3396C207.792 62.09 208.042 61.9421 208.291 61.9976C210.242 62.4598 211.758 64.0962 212.054 66.0839C212.072 66.2318 212.026 66.3705 211.934 66.4722C212.045 66.5554 212.109 66.6848 212.109 66.8327V72.1764C212.109 72.4353 211.906 72.6386 211.647 72.6386V72.6294ZM122.71 63.1532C122.534 63.1532 122.358 63.0515 122.284 62.8758C122.183 62.6447 122.284 62.3674 122.525 62.2657C123.153 61.9976 123.819 61.8589 124.503 61.8589H128.007C128.266 61.8589 128.469 62.0623 128.469 62.3211C128.469 62.58 128.266 62.7834 128.007 62.7834H124.503C123.948 62.7834 123.403 62.8943 122.894 63.1162C122.839 63.1439 122.774 63.1532 122.71 63.1532ZM202.846 62.7834H197.502C197.243 62.7834 197.04 62.58 197.04 62.3211C197.04 62.0623 197.243 61.8589 197.502 61.8589H202.846C203.105 61.8589 203.308 62.0623 203.308 62.3211C203.308 62.58 203.105 62.7834 202.846 62.7834ZM192.159 62.7834H186.815C186.556 62.7834 186.353 62.58 186.353 62.3211C186.353 62.0623 186.556 61.8589 186.815 61.8589H192.159C192.417 61.8589 192.621 62.0623 192.621 62.3211C192.621 62.58 192.417 62.7834 192.159 62.7834ZM181.471 62.7834H176.128C175.869 62.7834 175.665 62.58 175.665 62.3211C175.665 62.0623 175.869 61.8589 176.128 61.8589H181.471C181.73 61.8589 181.934 62.0623 181.934 62.3211C181.934 62.58 181.73 62.7834 181.471 62.7834ZM170.784 62.7834H165.44C165.181 62.7834 164.978 62.58 164.978 62.3211C164.978 62.0623 165.181 61.8589 165.44 61.8589H170.784C171.043 61.8589 171.246 62.0623 171.246 62.3211C171.246 62.58 171.043 62.7834 170.784 62.7834ZM160.097 62.7834H154.753C154.494 62.7834 154.291 62.58 154.291 62.3211C154.291 62.0623 154.494 61.8589 154.753 61.8589H160.097C160.356 61.8589 160.559 62.0623 160.559 62.3211C160.559 62.58 160.356 62.7834 160.097 62.7834ZM149.409 62.7834H144.066C143.807 62.7834 143.603 62.58 143.603 62.3211C143.603 62.0623 143.807 61.8589 144.066 61.8589H149.409C149.668 61.8589 149.872 62.0623 149.872 62.3211C149.872 62.58 149.668 62.7834 149.409 62.7834ZM138.722 62.7834H133.378C133.12 62.7834 132.916 62.58 132.916 62.3211C132.916 62.0623 133.12 61.8589 133.378 61.8589H138.722C138.981 61.8589 139.184 62.0623 139.184 62.3211C139.184 62.58 138.981 62.7834 138.722 62.7834Z" fill="#25292B"/>
<path d="M386.944 186.815C386.805 186.815 386.685 186.741 386.611 186.621L383.024 180.408C382.959 180.288 382.959 180.149 383.024 180.029L386.611 173.816C386.676 173.696 386.805 173.622 386.944 173.622C387.083 173.622 387.203 173.696 387.277 173.807L390.873 180.02C390.938 180.14 390.938 180.288 390.873 180.399L387.277 186.612C387.212 186.732 387.083 186.797 386.944 186.797V186.815ZM383.792 180.223L386.944 185.678L390.097 180.223L386.944 174.769L383.792 180.223Z" fill="#25292B"/>
<path d="M376.959 179.372C375.766 179.372 374.796 178.402 374.796 177.209C374.796 176.017 375.766 175.046 376.959 175.046C378.152 175.046 379.122 176.017 379.122 177.209C379.122 178.402 378.152 179.372 376.959 179.372ZM376.959 175.804C376.182 175.804 375.554 176.433 375.554 177.209C375.554 177.986 376.182 178.614 376.959 178.614C377.736 178.614 378.364 177.986 378.364 177.209C378.364 176.433 377.736 175.804 376.959 175.804Z" fill="#25292B"/>
<path d="M383.357 171.394C382.312 171.394 381.461 170.544 381.461 169.499C381.461 168.454 382.312 167.604 383.357 167.604C384.401 167.604 385.252 168.454 385.252 169.499C385.252 170.544 384.401 171.394 383.357 171.394ZM383.357 168.371C382.728 168.371 382.229 168.88 382.229 169.499C382.229 170.119 382.737 170.627 383.357 170.627C383.976 170.627 384.485 170.119 384.485 169.499C384.485 168.88 383.976 168.371 383.357 168.371Z" fill="#25292B"/>
<path d="M375.174 172.273C374.397 172.273 373.769 171.644 373.769 170.867C373.769 170.091 374.397 169.462 375.174 169.462C375.951 169.462 376.579 170.091 376.579 170.867C376.579 171.644 375.951 172.273 375.174 172.273ZM375.174 170.229C374.823 170.229 374.536 170.516 374.536 170.867C374.536 171.219 374.823 171.505 375.174 171.505C375.525 171.505 375.812 171.219 375.812 170.867C375.812 170.516 375.525 170.229 375.174 170.229Z" fill="#25292B"/>
<path d="M216.473 44.7367C216.335 44.7367 216.214 44.6628 216.14 44.5426L213.395 39.7906C213.33 39.6704 213.33 39.5318 213.395 39.4116L216.14 34.6596C216.205 34.5394 216.335 34.4655 216.473 34.4655C216.612 34.4655 216.732 34.5394 216.806 34.6596L219.561 39.4116C219.626 39.5318 219.626 39.6704 219.561 39.7906L216.806 44.5426C216.741 44.6628 216.612 44.7367 216.473 44.7367ZM214.171 39.6057L216.482 43.5996L218.794 39.6057L216.482 35.6118L214.171 39.6057Z" fill="#25292B"/>
<path d="M209.974 37.5996C208.781 37.5996 207.811 36.6289 207.811 35.4363C207.811 34.2437 208.781 33.2729 209.974 33.2729C211.167 33.2729 212.137 34.2437 212.137 35.4363C212.137 36.6289 211.167 37.5996 209.974 37.5996ZM209.974 34.031C209.197 34.031 208.569 34.6597 208.569 35.4363C208.569 36.2129 209.197 36.8415 209.974 36.8415C210.751 36.8415 211.379 36.2129 211.379 35.4363C211.379 34.6597 210.751 34.031 209.974 34.031Z" fill="#25292B"/>
<path d="M216.362 32.2375C215.318 32.2375 214.467 31.387 214.467 30.3423C214.467 29.2976 215.318 28.447 216.362 28.447C217.407 28.447 218.258 29.2976 218.258 30.3423C218.258 31.387 217.407 32.2375 216.362 32.2375ZM216.362 29.2144C215.734 29.2144 215.235 29.7228 215.235 30.3423C215.235 30.9617 215.743 31.4702 216.362 31.4702C216.982 31.4702 217.49 30.9617 217.49 30.3423C217.49 29.7228 216.982 29.2144 216.362 29.2144Z" fill="#25292B"/>
<path d="M209.974 30.2404C209.197 30.2404 208.569 29.6118 208.569 28.8352C208.569 28.0586 209.197 27.4299 209.974 27.4299C210.75 27.4299 211.379 28.0586 211.379 28.8352C211.379 29.6118 210.75 30.2404 209.974 30.2404ZM209.974 28.1973C209.622 28.1973 209.336 28.4839 209.336 28.8352C209.336 29.1865 209.622 29.4731 209.974 29.4731C210.325 29.4731 210.612 29.1865 210.612 28.8352C210.612 28.4839 210.325 28.1973 209.974 28.1973Z" fill="#25292B"/>
<path d="M531.674 172.577C531.536 172.577 531.416 172.503 531.342 172.383L527.754 166.171C527.69 166.05 527.69 165.912 527.754 165.791L531.342 159.579C531.406 159.459 531.536 159.385 531.674 159.385C531.813 159.385 531.933 159.459 532.007 159.57L535.604 165.782C535.668 165.902 535.668 166.05 535.604 166.161L532.007 172.374C531.943 172.494 531.813 172.559 531.674 172.559V172.577ZM528.522 165.986L531.674 171.44L534.827 165.986L531.674 160.531L528.522 165.986Z" fill="#25292B"/>
<path d="M516.836 161.558C515.644 161.558 514.673 160.587 514.673 159.394C514.673 158.202 515.644 157.231 516.836 157.231C518.029 157.231 519 158.202 519 159.394C519 160.587 518.029 161.558 516.836 161.558ZM516.836 157.989C516.06 157.989 515.431 158.618 515.431 159.394C515.431 160.171 516.06 160.799 516.836 160.799C517.613 160.799 518.242 160.171 518.242 159.394C518.242 158.618 517.613 157.989 516.836 157.989Z" fill="#25292B"/>
<path d="M528.282 157.157C527.237 157.157 526.387 156.306 526.387 155.261C526.387 154.217 527.237 153.366 528.282 153.366C529.327 153.366 530.177 154.217 530.177 155.261C530.177 156.306 529.327 157.157 528.282 157.157ZM528.282 154.134C527.653 154.134 527.154 154.642 527.154 155.261C527.154 155.881 527.663 156.389 528.282 156.389C528.901 156.389 529.41 155.881 529.41 155.261C529.41 154.642 528.901 154.134 528.282 154.134Z" fill="#25292B"/>
<path d="M539.08 164.294C538.303 164.294 537.674 163.665 537.674 162.889C537.674 162.112 538.303 161.484 539.08 161.484C539.856 161.484 540.485 162.112 540.485 162.889C540.485 163.665 539.856 164.294 539.08 164.294ZM539.08 162.251C538.728 162.251 538.442 162.537 538.442 162.889C538.442 163.24 538.728 163.527 539.08 163.527C539.431 163.527 539.718 163.24 539.718 162.889C539.718 162.537 539.431 162.251 539.08 162.251Z" fill="#25292B"/>
<path d="M539.505 157.157C539.366 157.157 539.246 157.083 539.172 156.963L536.917 153.061C536.852 152.941 536.852 152.802 536.917 152.682L539.172 148.781C539.237 148.661 539.366 148.587 539.505 148.587C539.644 148.587 539.764 148.661 539.838 148.771L542.094 152.673C542.158 152.793 542.158 152.941 542.094 153.052L539.838 156.953C539.773 157.074 539.644 157.138 539.505 157.138V157.157ZM537.693 152.876L539.505 156.02L541.326 152.876L539.505 149.733L537.693 152.876Z" fill="#25292B"/>
<path d="M522.799 151.138C522.022 151.138 521.394 150.51 521.394 149.733C521.394 148.956 522.022 148.328 522.799 148.328C523.576 148.328 524.204 148.956 524.204 149.733C524.204 150.51 523.576 151.138 522.799 151.138ZM522.799 149.095C522.448 149.095 522.161 149.382 522.161 149.733C522.161 150.084 522.448 150.371 522.799 150.371C523.15 150.371 523.437 150.084 523.437 149.733C523.437 149.382 523.15 149.095 522.799 149.095Z" fill="#25292B"/>
<path d="M471.425 97.5262C471.286 97.5262 471.166 97.4523 471.092 97.3321L467.505 91.1194C467.44 90.9992 467.44 90.8605 467.505 90.7403L471.092 84.5276C471.157 84.4075 471.286 84.3335 471.425 84.3335C471.563 84.3335 471.684 84.4075 471.758 84.5184L475.354 90.7311C475.419 90.8513 475.419 90.9992 475.354 91.1101L471.758 97.3228C471.693 97.443 471.563 97.5077 471.425 97.5077V97.5262ZM468.272 90.9345L471.425 96.3891L474.577 90.9345L471.425 85.4799L468.272 90.9345Z" fill="#25292B"/>
<path d="M456.587 86.5061C455.394 86.5061 454.423 85.5354 454.423 84.3428C454.423 83.1502 455.394 82.1794 456.587 82.1794C457.779 82.1794 458.75 83.1502 458.75 84.3428C458.75 85.5354 457.779 86.5061 456.587 86.5061ZM456.587 82.9375C455.81 82.9375 455.181 83.5662 455.181 84.3428C455.181 85.1194 455.81 85.748 456.587 85.748C457.363 85.748 457.992 85.1194 457.992 84.3428C457.992 83.5662 457.363 82.9375 456.587 82.9375Z" fill="#25292B"/>
<path d="M468.041 82.1146C466.996 82.1146 466.146 81.264 466.146 80.2193C466.146 79.1746 466.996 78.3241 468.041 78.3241C469.086 78.3241 469.936 79.1746 469.936 80.2193C469.936 81.264 469.086 82.1146 468.041 82.1146ZM468.041 79.0914C467.412 79.0914 466.913 79.5999 466.913 80.2193C466.913 80.8388 467.422 81.3472 468.041 81.3472C468.66 81.3472 469.169 80.8388 469.169 80.2193C469.169 79.5999 468.66 79.0914 468.041 79.0914Z" fill="#25292B"/>
<path d="M478.83 89.2517C478.053 89.2517 477.424 88.623 477.424 87.8464C477.424 87.0698 478.053 86.4412 478.83 86.4412C479.606 86.4412 480.235 87.0698 480.235 87.8464C480.235 88.623 479.606 89.2517 478.83 89.2517ZM478.83 87.2085C478.478 87.2085 478.192 87.4951 478.192 87.8464C478.192 88.1977 478.478 88.4843 478.83 88.4843C479.181 88.4843 479.467 88.1977 479.467 87.8464C479.467 87.4951 479.181 87.2085 478.83 87.2085Z" fill="#25292B"/>
<path d="M479.255 82.1145C479.117 82.1145 478.997 82.0405 478.923 81.9203L476.667 78.0189C476.602 77.8987 476.602 77.7601 476.667 77.6399L478.923 73.7385C478.987 73.6183 479.117 73.5443 479.255 73.5443C479.394 73.5443 479.514 73.6183 479.588 73.7292L481.844 77.6306C481.909 77.7508 481.909 77.8987 481.844 78.0097L479.588 81.9111C479.524 82.0313 479.394 82.096 479.255 82.096V82.1145ZM477.443 77.834L479.255 80.9773L481.077 77.834L479.255 74.6907L477.443 77.834Z" fill="#25292B"/>
<path d="M462.559 76.0963C461.782 76.0963 461.153 75.4676 461.153 74.691C461.153 73.9144 461.782 73.2858 462.559 73.2858C463.335 73.2858 463.964 73.9144 463.964 74.691C463.964 75.4676 463.335 76.0963 462.559 76.0963ZM462.559 74.0531C462.207 74.0531 461.921 74.3397 461.921 74.691C461.921 75.0423 462.207 75.3289 462.559 75.3289C462.91 75.3289 463.196 75.0423 463.196 74.691C463.196 74.3397 462.91 74.0531 462.559 74.0531Z" fill="#25292B"/>
<path d="M111.477 84.7772L87.8651 86.1177C87.8651 86.1177 91.6371 95.8528 91.3505 100.318C91.0546 104.774 86.3119 112.457 86.3119 112.457C87.8559 118.281 88.8081 132.833 91.3412 166.994H90.916C64.2717 181.102 22.3452 159.357 22.3452 159.357C25.544 151.517 28.336 148.023 28.336 148.023C25.7567 148.023 23.3529 147.107 21.4854 145.545C19.6179 143.983 18.2774 141.792 17.8151 139.249L9.46683 93.634C7.64555 83.6863 12.869 73.8033 22.1141 69.6892L35.0017 63.948L57.2177 58.7061L111.477 60.2685V84.7864V84.7772Z" fill="#620000"/>
<path d="M28.3355 148.485C28.0858 148.485 27.8825 148.291 27.8732 148.041C27.864 147.782 28.0581 147.569 28.317 147.56L78.3976 145.267V130.586L38.995 124.864C38.7824 124.836 38.616 124.66 38.5975 124.448L35.9534 93.2361C35.9349 92.9865 36.1198 92.7554 36.3787 92.7369C36.6283 92.7092 36.8594 92.9033 36.8779 93.1622L39.485 124.004L78.9153 129.726C79.1464 129.763 79.3128 129.958 79.3128 130.179V145.702C79.3128 145.952 79.1187 146.155 78.8691 146.164L28.3447 148.475H28.3262L28.3355 148.485Z" fill="#25292B"/>
<path d="M87.8653 86.5798C87.7174 86.5798 87.5695 86.5058 87.4863 86.3764L82.8638 79.5905C82.7158 79.3778 82.7713 79.0912 82.9839 78.9526C83.1966 78.8046 83.4832 78.8601 83.6219 79.0727L88.2444 85.8586C88.3923 86.0713 88.3368 86.3579 88.1242 86.4965C88.041 86.552 87.9578 86.5798 87.8653 86.5798Z" fill="#25292B"/>
<path d="M55.8214 116.275C55.6087 116.275 55.4146 116.127 55.3684 115.905C55.3129 115.656 55.4793 115.415 55.7289 115.36C64.5949 113.557 73.6736 112.466 82.7245 112.124C82.9834 112.096 83.196 112.309 83.2053 112.568C83.2145 112.827 83.0204 113.039 82.7615 113.048C73.7661 113.39 64.7336 114.472 55.9138 116.266C55.8861 116.266 55.8491 116.275 55.8214 116.275Z" fill="#25292B"/>
<path d="M27.3928 54.4902C33.2634 55.7845 39.0324 57.8184 45.0324 58.484C50.8568 59.1219 56.7922 58.3269 62.3207 56.4039C65.9355 55.1466 68.82 53.1681 71.4641 50.7829C71.3254 49.8954 71.1405 49.0078 70.9186 48.1388C69.8647 44.1912 68.1081 40.4654 66.8693 36.5732C65.7506 33.0971 65.0295 29.362 65.6305 25.7842C66.9617 24.268 67.9325 22.4652 68.4595 20.5237C68.6074 19.9598 68.7276 19.3589 68.4872 18.8319C68.0527 17.8704 66.7584 17.7502 65.7044 17.6208C59.9817 16.8997 55.9694 11.7871 50.903 9.03212C45.8367 6.28633 39.4854 6.00898 34.2064 8.32949C28.9275 10.6408 24.8134 15.4759 23.3989 21.06C21.7995 27.3189 23.4452 34.188 21.1986 40.2527C20.0707 43.3314 17.9998 45.9754 16.3819 48.8322C15.4389 50.4963 14.6439 52.3268 14.2925 54.1943C18.6655 53.6396 22.9922 53.5194 27.4021 54.4902H27.3928Z" fill="#25292B"/>
<path d="M55.9049 54.2036L59.1499 65.3716L58.8725 79.3317L35.0018 63.9479L33.3007 44.7459C29.8153 45.6704 27.1249 43.5995 25.6642 39.9107C24.0926 35.9445 24.7027 31.6178 28.3638 30.1664C29.2051 29.8335 30.0741 29.6856 30.9432 29.7041C32.6073 29.7411 34.2529 30.3883 35.5565 31.5162C35.5565 31.5162 35.5749 31.5162 35.5842 31.5346V31.4699H35.6212C35.8431 31.4514 36.8693 31.3128 38.3207 30.8875L38.4224 30.8598C41.538 29.9352 46.5304 27.7072 49.7569 22.4652C50.3948 21.4205 50.968 20.2649 51.4395 18.9706C51.4395 18.9706 58.7431 19.5438 62.3487 23.6856C62.8294 24.2218 63.227 24.8135 63.5506 25.4791L64.3087 36.3698C64.7247 42.3144 62.4227 48.1111 58.0405 52.1604L55.9234 54.2313L55.9049 54.2036Z" fill="#FFCEB3"/>
<path d="M60.5305 36.1514C61.6001 36.0768 62.4004 35.0584 62.318 33.8767C62.2356 32.695 61.3016 31.7975 60.232 31.8721C59.1623 31.9467 58.362 32.9652 58.4445 34.1469C58.5269 35.3286 59.4608 36.226 60.5305 36.1514Z" fill="#25292B"/>
<path d="M48.7919 36.9756C49.8615 36.901 50.6618 35.8826 50.5794 34.7009C50.497 33.5192 49.563 32.6217 48.4934 32.6963C47.4238 32.7709 46.6235 33.7894 46.7059 34.9711C46.7883 36.1528 47.7222 37.0503 48.7919 36.9756Z" fill="#25292B"/>
<path d="M58.429 29.1306C59.8619 28.5574 61.5353 28.7053 62.8019 29.6206C63.0515 29.8055 63.1809 30.1661 62.9868 30.4434C62.8111 30.693 62.4321 30.8317 62.164 30.6283C62.0438 30.5359 61.9144 30.4527 61.7757 30.3787C61.711 30.3417 61.6462 30.3047 61.5723 30.277C61.5723 30.277 61.5538 30.277 61.5538 30.2678C61.5168 30.2493 61.4798 30.24 61.4521 30.2215C61.3134 30.1661 61.1655 30.1198 61.0176 30.0736C60.9436 30.0551 60.8697 30.0366 60.7957 30.0181C60.7865 30.0181 60.768 30.0181 60.7587 30.0181C60.7217 30.0181 60.6755 30.0089 60.6385 29.9997C60.4906 29.9812 60.3334 29.9719 60.1763 29.9719C60.1023 29.9719 60.0191 29.9719 59.9452 29.9719C59.9082 29.9719 59.8712 29.9719 59.8342 29.9719C59.8342 29.9719 59.8342 29.9719 59.825 29.9719C59.677 29.9904 59.5199 30.0181 59.372 30.0551C59.298 30.0736 59.224 30.0921 59.1501 30.1198C59.1131 30.1291 59.0761 30.1476 59.0391 30.1568C59.0299 30.1568 59.0206 30.1568 59.0206 30.1568C59.0206 30.1568 59.0114 30.1568 59.0022 30.1568C58.7156 30.2678 58.3458 30.2308 58.1978 29.9164C58.0684 29.6576 58.1331 29.2323 58.4382 29.1121L58.429 29.1306Z" fill="#25292B"/>
<path d="M50.2275 30.49C50.1166 30.8228 49.7653 30.9153 49.4602 30.8413C49.4509 30.8413 49.4417 30.8413 49.4417 30.8413C49.4417 30.8413 49.4417 30.8413 49.4232 30.8413C49.3862 30.8413 49.3492 30.8228 49.3123 30.8228C49.2383 30.8136 49.1643 30.8043 49.0811 30.7951C48.924 30.7766 48.776 30.7766 48.6189 30.7766C48.6189 30.7766 48.6189 30.7766 48.6096 30.7766C48.5727 30.7766 48.5357 30.7766 48.4987 30.7766C48.4247 30.7766 48.3508 30.7951 48.2676 30.8043C48.1196 30.8228 47.9625 30.8598 47.8146 30.8968C47.7776 30.906 47.7314 30.9153 47.6944 30.9337C47.6851 30.9337 47.6759 30.9337 47.6574 30.943C47.5834 30.9707 47.5095 30.9985 47.4448 31.0262C47.3061 31.0817 47.1674 31.1556 47.0287 31.2296C46.9917 31.2481 46.964 31.2666 46.927 31.2851C46.927 31.2851 46.9085 31.2851 46.9085 31.2943C46.8438 31.3405 46.7884 31.3775 46.7236 31.4237C46.6035 31.5162 46.4833 31.6179 46.3723 31.7196C46.132 31.9507 45.7437 31.8675 45.531 31.6456C45.2999 31.396 45.3831 31.0262 45.605 30.8043C46.7329 29.7226 48.3693 29.3436 49.867 29.7041C50.1905 29.7781 50.3015 30.1941 50.2183 30.4715L50.2275 30.49Z" fill="#25292B"/>
<path d="M51.1619 56.7367C51.0232 56.7367 50.8753 56.7367 50.7273 56.7274C47.131 56.5333 44.2096 53.1496 44.0894 53.0016C43.923 52.8075 43.9507 52.5117 44.1448 52.3545C44.339 52.1973 44.6256 52.2158 44.8012 52.41C44.829 52.4377 47.5933 55.6365 50.7921 55.8121C53.9539 55.9786 55.5255 53.9539 55.544 53.9354C55.7012 53.732 55.9878 53.695 56.1912 53.8429C56.3946 54.0001 56.4315 54.2867 56.2836 54.4901C56.2097 54.5826 54.5271 56.7459 51.1803 56.7459L51.1619 56.7367Z" fill="#25292B"/>
<path d="M59.3066 42.8232C59.3066 42.8232 59.2881 42.8232 59.2697 42.8232L54.5917 42.4811C54.3328 42.4626 54.1479 42.2407 54.1664 41.9911C54.1849 41.7415 54.4068 41.5473 54.6564 41.5658L58.6595 41.8524L55.8582 32.8477C55.7843 32.6073 55.9229 32.3485 56.1633 32.2653C56.4037 32.1913 56.6625 32.33 56.7458 32.5704L59.7504 42.2222C59.7966 42.3702 59.7689 42.5273 59.6672 42.6475C59.5747 42.7584 59.4453 42.8232 59.3066 42.8232Z" fill="#25292B"/>
<path d="M53.7227 46.1881C53.7227 46.1881 53.6949 46.1881 53.6764 46.1881C52.5855 46.0771 51.5501 45.6611 50.681 44.9955C49.812 44.3298 49.1556 43.4238 48.7673 42.3976C48.6748 42.1572 48.8043 41.8891 49.0354 41.8059C49.2758 41.7227 49.5439 41.8429 49.6271 42.074C49.9414 42.9246 50.5146 43.7012 51.2357 44.2651C51.9568 44.8198 52.8536 45.1804 53.7596 45.2728C54.0093 45.3006 54.1942 45.5224 54.1757 45.7813C54.1479 46.0217 53.9538 46.1973 53.7134 46.1973L53.7227 46.1881Z" fill="#25292B"/>
<path d="M31.4978 43.0077C30.0185 42.9892 28.641 41.8983 28.2342 40.4191C27.8459 39.0231 28.3544 37.433 29.4916 36.453C30.0278 35.9907 30.5917 35.7688 31.1557 35.7688C31.3406 35.7688 31.5162 35.8058 31.6827 35.8705C31.6457 35.5839 31.6087 35.2973 31.5347 35.0107C31.3683 34.2896 31.0817 33.6887 30.6934 33.2449C30.3051 32.8012 29.8244 32.5423 29.3806 32.5423C28.9831 32.5331 28.5856 32.7365 28.3174 33.06C28.0586 33.3744 27.9107 33.8181 27.9291 34.2619C27.9291 34.5208 27.735 34.7334 27.4854 34.7426C27.2358 34.7611 27.0139 34.5485 27.0046 34.2989C26.9769 33.624 27.1988 32.9583 27.6056 32.4683C28.0493 31.9321 28.715 31.6178 29.3714 31.6178C30.0833 31.6178 30.8136 31.9876 31.3776 32.6348C31.8676 33.1987 32.2189 33.9291 32.4223 34.7981C32.5979 35.5654 32.6441 36.342 32.6719 37.0724C32.6811 37.322 32.4962 37.5254 32.2558 37.5531C32.0062 37.5716 31.7936 37.4052 31.7566 37.1556C31.7196 36.9152 31.4238 36.7026 31.1187 36.6933C30.7212 36.6749 30.3329 36.9337 30.0833 37.1464C29.2235 37.886 28.8259 39.1248 29.1125 40.1695C29.4084 41.2419 30.4346 42.0555 31.4978 42.074C31.7566 42.074 31.96 42.2866 31.9508 42.5455C31.9508 42.7951 31.7381 42.9985 31.4885 42.9985L31.4978 43.0077Z" fill="#25292B"/>
<path d="M56.4687 362.49H83.3904L90.4998 368.767C90.4998 368.767 111.569 368.176 111.569 383.578H56.4779V362.49H56.4687Z" fill="#620000"/>
<path d="M58.327 381.896C58.0681 381.896 57.8647 381.692 57.8647 381.433C57.8647 381.175 58.0681 380.971 58.327 380.971L110.247 380.777C110.506 380.777 110.71 380.98 110.71 381.239C110.71 381.498 110.506 381.701 110.247 381.701L58.327 381.896Z" fill="#110704"/>
<path d="M75.9134 371.429C74.8872 371.429 73.861 371.373 72.8533 371.272C70.9211 371.068 69.747 370.292 69.5343 369.099C69.257 367.555 70.7732 366.446 72.1414 365.974C76.3202 364.532 81.1554 365.401 84.6223 368.11C85.6023 364.994 87.3126 362.128 89.5869 359.789C90.3173 359.04 91.2233 358.245 92.3789 358.014C93.5808 357.783 95.0692 358.403 95.3743 359.688C95.6609 360.908 94.8104 361.971 94.0338 362.766C91.4914 365.364 88.6809 367.731 85.6947 369.82C85.5745 369.903 85.4358 369.922 85.3064 369.885C85.2694 369.913 85.2325 369.931 85.1862 369.95C82.2186 370.93 79.066 371.438 75.9227 371.438L75.9134 371.429ZM76.3294 366.205C75.0166 366.205 73.6946 366.418 72.4465 366.843C71.6145 367.13 70.2647 367.888 70.4403 368.933C70.6252 369.987 72.2524 370.273 72.9458 370.347C76.7917 370.754 80.7578 370.356 84.4466 369.201C84.4281 369.173 84.4189 369.155 84.4097 369.127C82.1723 367.232 79.2509 366.205 76.3294 366.205ZM85.3896 368.757C85.3896 368.757 85.4451 368.812 85.4728 368.84C88.2926 366.843 90.9552 364.588 93.3681 362.119C93.9783 361.5 94.6624 360.677 94.4775 359.9C94.2926 359.142 93.3219 358.772 92.5546 358.92C91.6485 359.096 90.8812 359.78 90.2433 360.427C87.969 362.757 86.2956 365.632 85.3804 368.757H85.3896Z" fill="#110704"/>
<path d="M85.4332 362.444L55.5901 362.518V245.919L33.2263 363.498H2.96713C2.96713 363.498 11.0381 211.472 15.374 185.151C17.2415 173.789 19.9134 165.32 22.3541 159.357C22.3541 159.357 64.2805 181.092 90.9248 167.003H91.3501C92.3393 235.897 85.9232 349.307 85.4425 362.444H85.4332Z" fill="#110704"/>
<path d="M32.0803 363.461L35.7875 383.319H0.443604L3.7441 363.461H32.0803Z" fill="#620000"/>
<path d="M5.65723 383.319H37.8578V381.221C37.8578 371.236 30.6467 365.412 21.7529 365.412C12.8591 365.412 5.64798 371.236 5.64798 381.221V383.319H5.65723Z" fill="#620000"/>
<path d="M10.0767 371.68C9.94726 371.68 9.82708 371.634 9.73463 371.532C9.55897 371.347 9.57746 371.051 9.76236 370.876C13.9319 367.048 18.1754 365.347 23.5005 365.347C29.5561 365.347 33.2079 368.999 33.3558 369.156C33.5315 369.341 33.5315 369.628 33.3558 369.812C33.1709 369.988 32.8843 369.988 32.6994 369.812C32.6624 369.775 29.1493 366.281 23.5005 366.281C18.4158 366.281 14.3757 367.908 10.3818 371.569C10.2893 371.652 10.1784 371.689 10.0675 371.689L10.0767 371.68Z" fill="#110704"/>
<path d="M36.7482 381.951H2.50446C2.2456 381.951 2.04221 381.747 2.04221 381.488C2.04221 381.23 2.2456 381.026 2.50446 381.026H36.7482C37.0071 381.026 37.2105 381.23 37.2105 381.488C37.2105 381.747 37.0071 381.951 36.7482 381.951Z" fill="#110704"/>
<path d="M55.5904 246.381C55.5904 246.381 55.5349 246.381 55.4979 246.381C55.2483 246.335 55.0819 246.085 55.1374 245.835L67.0173 185.419C67.0543 185.243 67.1837 185.105 67.3594 185.058L88.4936 179.77C88.7432 179.705 88.9928 179.863 89.0576 180.103C89.1223 180.353 88.9651 180.602 88.7247 180.667L67.8771 185.881L56.0619 246.011C56.0156 246.233 55.8215 246.381 55.6089 246.381H55.5904Z" fill="#313131"/>
<path d="M9.57745 363.96C9.57745 363.96 9.54971 363.96 9.54047 363.96C9.28161 363.941 9.09671 363.719 9.1152 363.461C9.22614 362.092 20.4682 226.393 23.0845 203.447C25.7101 180.39 36.5361 165.366 36.647 165.218C36.795 165.015 37.0908 164.969 37.2942 165.117C37.4976 165.265 37.5438 165.56 37.3959 165.764C37.2849 165.912 26.5976 180.759 24.009 203.558C21.4019 226.486 10.1599 362.176 10.0489 363.535C10.0305 363.775 9.82707 363.96 9.58669 363.96H9.57745Z" fill="#313131"/>
<path d="M196.35 43.6283H99.1196V128.396H196.35V43.6283Z" fill="#DEE3FC"/>
<path d="M98.9902 99.4224C98.9902 99.4224 119.024 79.2773 132.901 79.2773C152.713 79.2773 196.23 129.164 196.23 129.164H98.9902V99.4224Z" fill="#5683FA"/>
<path d="M164.399 86.4701C154.128 86.4701 145.771 78.1125 145.771 67.8412C145.771 57.57 154.128 49.2124 164.399 49.2124C174.671 49.2124 183.028 57.57 183.028 67.8412C183.028 78.1125 174.671 86.4701 164.399 86.4701ZM164.399 50.1462C154.637 50.1462 146.695 58.0877 146.695 67.8505C146.695 77.6133 154.637 85.5548 164.399 85.5548C174.162 85.5548 182.104 77.6133 182.104 67.8505C182.104 58.0877 174.162 50.1462 164.399 50.1462Z" fill="#25292B"/>
<path d="M164.399 82.3743C172.425 82.3743 178.932 75.8675 178.932 67.841C178.932 59.8145 172.425 53.3077 164.399 53.3077C156.372 53.3077 149.866 59.8145 149.866 67.841C149.866 75.8675 156.372 82.3743 164.399 82.3743Z" fill="#5683FA"/>
<path d="M197.357 99.3577V129.164H112.977C112.977 129.164 156.485 92.5718 176.297 92.5718C182.861 92.5718 190.812 95.8815 197.357 99.3577Z" fill="#25292B"/>
<path d="M93.3132 37.8318V134.193H202.146V37.8318H93.3132ZM196.35 128.397H99.1191V43.6285H196.35V128.387V128.397Z" fill="#25292B"/>
<path d="M198.467 42.2317C198.449 41.5383 198.717 40.9004 199.161 40.4289C199.604 39.9574 200.224 39.6615 200.917 39.6431L207.167 39.6246C208.554 39.5876 209.718 40.6877 209.755 42.0745C209.774 42.7679 209.506 43.4058 209.062 43.8681C208.618 44.3396 207.999 44.6354 207.305 44.6539L201.056 44.6724C199.669 44.7094 198.504 43.6092 198.467 42.2224V42.2317Z" fill="#FFCEB3"/>
<path d="M197.561 47.0764C197.543 46.2628 197.848 45.5139 198.375 44.9592C198.902 44.4045 199.632 44.0532 200.446 44.0347L207.759 43.9885C209.395 43.9423 210.763 45.2458 210.81 46.873C210.828 47.6865 210.523 48.4354 209.996 48.9901C209.469 49.5448 208.739 49.8961 207.925 49.9146L200.612 49.9608C198.976 50.007 197.608 48.7035 197.561 47.0764Z" fill="#FFCEB3"/>
<path d="M197.644 52.6326C197.626 51.8191 197.931 51.0702 198.458 50.5155C198.985 49.9608 199.715 49.6095 200.529 49.591L207.841 49.5448C209.478 49.4985 210.846 50.8021 210.892 52.4385C210.911 53.252 210.606 54.0009 210.079 54.5556C209.552 55.1103 208.821 55.4616 208.008 55.4801L200.695 55.5263C199.059 55.5726 197.69 54.269 197.644 52.6419V52.6326Z" fill="#FFCEB3"/>
<path d="M197.7 57.6991C197.681 56.8855 198.042 56.1274 198.652 55.582C199.262 55.0273 200.113 54.6667 201.056 54.6482L207.37 54.6297C209.256 54.5835 210.837 55.8778 210.883 57.505C210.902 58.3185 210.541 59.0766 209.931 59.6313C209.321 60.186 208.47 60.5466 207.527 60.5651L201.213 60.5836C199.327 60.6298 197.746 59.3355 197.7 57.7083V57.6991Z" fill="#FFCEB3"/>
<path d="M199.715 55.656C199.465 55.656 199.271 55.4434 199.271 55.1938C199.271 54.9349 199.475 54.7315 199.734 54.7315L209.339 54.6483C209.58 54.6483 209.801 54.8517 209.801 55.1106C209.801 55.3694 209.598 55.5728 209.339 55.5728L199.734 55.656C199.734 55.656 199.724 55.656 199.715 55.656Z" fill="#25292B"/>
<path d="M199.733 50.1737C199.483 50.1737 199.289 49.961 199.289 49.7114C199.289 49.4525 199.493 49.2491 199.752 49.2491L209.015 49.2861C209.274 49.2676 209.477 49.4895 209.477 49.7484C209.477 50.0072 209.274 50.2106 209.015 50.2106L199.752 50.1737C199.752 50.1737 199.742 50.1737 199.733 50.1737Z" fill="#25292B"/>
<path d="M199.761 44.5987C199.521 44.5987 199.318 44.3953 199.318 44.1456C199.318 43.8868 199.512 43.6834 199.771 43.6741L209.053 43.4153C209.302 43.4153 209.515 43.6094 209.524 43.8683C209.524 44.1272 209.33 44.3305 209.071 44.3398L199.789 44.5987C199.789 44.5987 199.771 44.5987 199.761 44.5987Z" fill="#25292B"/>
<path d="M104.823 127.897H88.5798C86.7468 127.897 85.2609 129.383 85.2609 131.216C85.2609 133.049 86.7468 134.535 88.5798 134.535H104.823C106.656 134.535 108.142 133.049 108.142 131.216C108.142 129.383 106.656 127.897 104.823 127.897Z" fill="#FFCEB3"/>
<path d="M87.8033 127.897C82.8849 127.897 79.3163 130.726 79.3163 130.726V143.604L91.4458 145.916C93.3041 146.267 95.2086 146.064 96.9744 145.324L121.224 138.991C122.056 138.64 122.62 137.706 122.62 136.661C122.62 135.302 121.677 134.193 120.522 134.193H102.697L87.8033 127.897Z" fill="#FFCEB3"/>
<path d="M106.562 134.655H90.5493C90.2904 134.655 90.087 134.452 90.087 134.193C90.087 133.934 90.2904 133.731 90.5493 133.731H106.562C106.821 133.731 107.024 133.934 107.024 134.193C107.024 134.452 106.821 134.655 106.562 134.655Z" fill="#25292B"/>
<path d="M100.968 141.219C100.728 141.219 100.524 141.034 100.506 140.794C100.487 140.544 100.672 140.313 100.922 140.294L121.178 138.529C121.437 138.51 121.659 138.695 121.677 138.945C121.696 139.194 121.511 139.425 121.261 139.444L101.005 141.21C101.005 141.21 100.977 141.21 100.968 141.21V141.219Z" fill="#25292B"/>
<path d="M546.772 374.694C546.772 379.131 543.185 382.765 538.701 382.765H491.635L489.259 361.483L495.998 352.885L546.763 374.305C546.763 374.426 546.763 374.564 546.763 374.685L546.772 374.694Z" fill="#181818"/>
<path d="M492.263 383.292H427.206C416.444 383.292 407.56 374.879 406.968 364.136L409.927 292.117L379.316 296.573L383.671 362.213H355.935L338.518 288.215C336.058 277.759 342.188 267.201 352.487 264.15L392.712 252.243L465.074 257.281C463.178 283.695 443.653 350.111 443.653 350.111L489.037 354.558L492.254 383.292H492.263Z" fill="#1F0C07"/>
<path d="M409.926 292.579C409.695 292.579 409.492 292.403 409.464 292.163C409.436 291.913 409.621 291.682 409.871 291.654C410.268 291.608 450.151 287.217 457.307 272.351C457.418 272.119 457.695 272.027 457.927 272.138C458.158 272.249 458.25 272.526 458.139 272.757C450.762 288.086 411.636 292.403 409.972 292.579C409.954 292.579 409.935 292.579 409.926 292.579Z" fill="#313131"/>
<path d="M368.277 360.197C368.055 360.197 367.86 360.04 367.823 359.818L355.823 293.956C354.705 287.605 358.061 281.392 363.978 278.841L403.056 261.978C403.288 261.876 403.565 261.978 403.667 262.218C403.768 262.449 403.667 262.727 403.426 262.828L364.347 279.691C358.828 282.076 355.694 287.873 356.729 293.799L368.73 359.661C368.776 359.911 368.609 360.151 368.36 360.197C368.332 360.197 368.304 360.197 368.277 360.197Z" fill="#313131"/>
<path d="M383.31 362.204H356.389L349.279 368.481C349.279 368.481 328.21 367.889 328.21 383.292H383.301V362.204H383.31Z" fill="#181818"/>
<path d="M381.451 381.609H381.257L329.531 381.415C329.272 381.415 329.069 381.202 329.069 380.952C329.069 380.694 329.272 380.49 329.531 380.49L381.451 380.684C381.71 380.684 381.913 380.897 381.913 381.147C381.913 381.405 381.71 381.609 381.451 381.609Z" fill="#25292B"/>
<path d="M363.867 371.144C360.724 371.144 357.572 370.644 354.604 369.655C354.558 369.637 354.521 369.618 354.484 369.59C354.354 369.627 354.216 369.609 354.095 369.526C351.109 367.446 348.299 365.07 345.756 362.472C344.98 361.677 344.12 360.614 344.416 359.393C344.721 358.108 346.219 357.498 347.411 357.72C348.576 357.942 349.473 358.737 350.203 359.495C352.487 361.834 354.188 364.7 355.168 367.815C358.635 365.107 363.47 364.247 367.649 365.68C369.026 366.151 370.533 367.261 370.256 368.805C370.043 369.997 368.869 370.774 366.937 370.977C365.92 371.088 364.894 371.134 363.877 371.134L363.867 371.144ZM355.334 368.925C359.023 370.08 362.989 370.469 366.835 370.071C367.529 369.997 369.156 369.711 369.341 368.657C369.525 367.621 368.166 366.854 367.334 366.567C363.303 365.181 358.607 366.096 355.362 368.851C355.362 368.879 355.343 368.906 355.325 368.925H355.334ZM346.884 358.607C346.2 358.607 345.461 358.968 345.313 359.615C345.128 360.392 345.803 361.205 346.422 361.834C348.835 364.302 351.498 366.558 354.317 368.555C354.345 368.527 354.373 368.5 354.4 368.472C353.485 365.347 351.812 362.472 349.538 360.142C348.909 359.495 348.142 358.811 347.226 358.635C347.115 358.617 347.004 358.607 346.884 358.607Z" fill="#25292B"/>
<path d="M544.636 376.413C544.572 376.413 544.516 376.404 544.452 376.376L496.692 356.009C496.46 355.908 496.349 355.639 496.451 355.399C496.553 355.168 496.821 355.057 497.061 355.159L544.821 375.526C545.053 375.627 545.163 375.895 545.062 376.136C544.988 376.311 544.812 376.413 544.636 376.413Z" fill="#25292B"/>
<path d="M471.129 141.126L464.75 232.181L465.083 257.281C465.083 257.281 450.365 267.534 429.369 267.599C408.373 267.663 392.712 252.243 392.712 252.243L406.21 230.572L404.472 214.227L388.996 222.658C381.174 226.911 371.384 223.62 367.723 215.503L354.447 186.122L369.248 177.949L382.312 195.099C382.312 195.099 418.82 168.371 424.145 167.012C424.95 166.809 425.736 166.642 426.503 166.522C432.799 165.478 437.958 166.716 437.958 166.716L448.774 159.228L444.475 134.322L443.061 126.093L428.334 102.066L439.816 91.9884L466.876 127.037C469.973 131.058 471.49 136.06 471.138 141.126H471.129Z" fill="#2C324B"/>
<path d="M452.343 165.089C452.195 165.089 452.047 165.015 451.955 164.886L448.386 159.487C448.248 159.274 448.303 158.988 448.516 158.849C448.728 158.71 449.015 158.766 449.154 158.978L452.722 164.378C452.861 164.59 452.805 164.877 452.593 165.015C452.519 165.071 452.426 165.089 452.334 165.089H452.343Z" fill="#25292B"/>
<path d="M442.423 169.841C442.349 169.841 442.266 169.823 442.201 169.786L437.976 167.447C437.754 167.327 437.671 167.04 437.791 166.818C437.911 166.596 438.198 166.513 438.42 166.643L442.645 168.982C442.867 169.102 442.95 169.388 442.83 169.61C442.747 169.758 442.589 169.851 442.423 169.851V169.841Z" fill="#25292B"/>
<path d="M404.472 214.689C404.315 214.689 404.158 214.606 404.075 214.458C403.945 214.236 404.019 213.959 404.241 213.829L422.325 203.308C422.546 203.179 422.824 203.253 422.953 203.475C423.083 203.697 423.009 203.974 422.787 204.104L404.703 214.624C404.63 214.671 404.546 214.689 404.472 214.689Z" fill="#25292B"/>
<path d="M376.33 199.453C376.182 199.453 376.034 199.379 375.941 199.241C375.803 199.028 375.868 198.741 376.08 198.603L382.062 194.701C382.274 194.563 382.561 194.618 382.7 194.84C382.838 195.062 382.774 195.339 382.561 195.478L376.579 199.379C376.505 199.426 376.413 199.453 376.33 199.453Z" fill="#25292B"/>
<path d="M443.366 240.945C443.2 240.945 443.033 240.853 442.95 240.686C442.839 240.455 442.932 240.178 443.154 240.067C449.385 236.961 455.403 233.3 461.034 229.195C461.237 229.047 461.533 229.093 461.681 229.297C461.829 229.5 461.783 229.796 461.579 229.944C455.903 234.076 449.847 237.765 443.57 240.899C443.505 240.936 443.431 240.945 443.366 240.945Z" fill="#25292B"/>
<path d="M452.509 138.51C451.271 145.351 449.329 152.044 447.184 158.655C447.267 159.025 446.833 159.441 446.5 159.098C445.141 157.73 443.874 156.26 442.737 154.679C438.882 149.317 436.515 142.91 435.97 136.328C431.135 139.397 425.153 140.433 419.56 139.055C414.808 137.872 409.631 134.932 407.772 130.143C406.959 128.053 406.959 125.659 407.893 123.616C408.873 121.453 410.777 120.158 413.088 119.751C414.447 119.502 415.843 119.53 417.212 119.493C418.719 119.456 420.216 119.335 421.696 119.113C424.793 118.642 427.686 117.653 430.626 116.599C433.335 115.619 436.266 114.759 439.169 115.342C440.861 115.684 442.469 116.553 443.532 117.893C445.936 117.514 448.488 118.457 450.198 120.186C454.95 124.966 453.582 132.584 452.519 138.519L452.509 138.51Z" fill="#25292B"/>
<path d="M448.775 159.228L437.958 166.716C437.958 166.716 432.799 165.477 426.503 166.522L426.938 161.585L424.488 159.921C419.468 156.694 416.186 151.388 415.566 145.462L414.411 134.608C429.526 131.539 436.063 126.102 436.063 126.102C436.1 132.204 442.738 135.671 442.96 135.643H443.006V135.708C443.006 135.708 443.006 135.69 443.024 135.69C443.45 135.172 443.94 134.71 444.476 134.331L448.775 159.237V159.228Z" fill="#FFCEB3"/>
<path d="M454.229 142.236C453.424 146.118 451.15 148.633 447.544 148.328L448.774 159.228L444.475 134.322C445.316 133.712 446.259 133.296 447.258 133.101C448.108 132.935 448.996 132.935 449.874 133.101C453.729 133.887 455.088 138.047 454.229 142.226V142.236Z" fill="#FFCEB3"/>
<path d="M419.237 144.639C420.303 144.526 421.067 143.48 420.942 142.302C420.817 141.124 419.852 140.26 418.786 140.373C417.719 140.486 416.956 141.532 417.081 142.71C417.205 143.888 418.171 144.752 419.237 144.639Z" fill="#25292B"/>
<path d="M430.949 143.395C432.015 143.282 432.779 142.235 432.654 141.057C432.529 139.88 431.564 139.016 430.498 139.129C429.431 139.242 428.668 140.288 428.793 141.466C428.917 142.644 429.883 143.508 430.949 143.395Z" fill="#25292B"/>
<path d="M420.087 137.336C418.571 137.021 416.953 137.456 415.871 138.584C415.659 138.806 415.594 139.185 415.825 139.425C416.038 139.638 416.435 139.712 416.667 139.471C416.777 139.36 416.888 139.259 416.999 139.157C417.055 139.111 417.12 139.065 417.175 139.018C417.175 139.018 417.194 139.009 417.194 139C417.221 138.981 417.258 138.963 417.286 138.935C417.415 138.852 417.554 138.778 417.693 138.713C417.767 138.676 417.831 138.648 417.905 138.621C417.915 138.621 417.933 138.611 417.942 138.611C417.979 138.602 418.026 138.584 418.063 138.575C418.21 138.528 418.358 138.491 418.506 138.464C418.58 138.445 418.654 138.436 418.737 138.427C418.774 138.427 418.811 138.427 418.848 138.417C418.848 138.417 418.848 138.417 418.858 138.417C419.015 138.417 419.163 138.417 419.32 138.417C419.394 138.417 419.477 138.427 419.551 138.436C419.588 138.436 419.625 138.445 419.662 138.454C419.671 138.454 419.68 138.454 419.68 138.454C419.68 138.454 419.69 138.454 419.699 138.454C420.004 138.519 420.355 138.408 420.448 138.075C420.531 137.798 420.392 137.391 420.069 137.326L420.087 137.336Z" fill="#25292B"/>
<path d="M428.399 137.252C428.565 137.558 428.926 137.585 429.212 137.465C429.221 137.465 429.221 137.465 429.231 137.465C429.231 137.465 429.231 137.465 429.249 137.465C429.286 137.456 429.323 137.437 429.36 137.428C429.434 137.4 429.508 137.382 429.582 137.363C429.73 137.326 429.878 137.289 430.035 137.262C430.035 137.262 430.035 137.262 430.044 137.262C430.081 137.262 430.118 137.262 430.155 137.252C430.229 137.252 430.312 137.243 430.386 137.243C430.543 137.243 430.691 137.243 430.849 137.262C430.895 137.262 430.932 137.262 430.978 137.271C430.987 137.271 430.996 137.271 431.015 137.271C431.089 137.28 431.163 137.299 431.237 137.317C431.385 137.354 431.533 137.391 431.681 137.447C431.718 137.456 431.755 137.474 431.792 137.484C431.792 137.484 431.81 137.484 431.819 137.493C431.884 137.521 431.958 137.558 432.023 137.585C432.161 137.659 432.291 137.733 432.42 137.816C432.698 138.001 433.067 137.853 433.234 137.594C433.409 137.308 433.271 136.957 433.012 136.781C431.718 135.912 430.044 135.829 428.63 136.448C428.325 136.578 428.278 137.003 428.417 137.262L428.399 137.252Z" fill="#25292B"/>
<path d="M430.764 163.37C428.222 163.37 426.705 161.992 426.622 161.927C426.437 161.752 426.428 161.465 426.595 161.28C426.77 161.095 427.057 161.077 427.251 161.253C427.325 161.326 429.202 162.991 432.262 162.279C435.387 161.548 437.541 157.924 437.568 157.887C437.698 157.665 437.984 157.591 438.197 157.721C438.419 157.85 438.493 158.137 438.364 158.35C438.271 158.516 435.978 162.353 432.474 163.176C431.864 163.314 431.291 163.379 430.773 163.379L430.764 163.37Z" fill="#25292B"/>
<path d="M421.529 150.981C421.418 150.981 421.307 150.944 421.224 150.861C421.113 150.759 421.048 150.611 421.067 150.454L422.342 140.432C422.37 140.183 422.611 139.998 422.86 140.035C423.11 140.063 423.295 140.303 423.258 140.553L422.065 149.909L425.948 148.929C426.207 148.864 426.447 149.012 426.512 149.261C426.577 149.511 426.429 149.761 426.179 149.825L421.631 150.972C421.631 150.972 421.557 150.99 421.52 150.99L421.529 150.981Z" fill="#25292B"/>
<path d="M427.612 153.32C427.409 153.32 427.224 153.191 427.169 152.987C427.095 152.738 427.243 152.488 427.483 152.414C428.361 152.165 429.175 151.656 429.794 150.981C430.404 150.306 430.839 149.437 430.996 148.55C431.042 148.3 431.283 148.134 431.532 148.18C431.782 148.226 431.948 148.467 431.902 148.716C431.708 149.798 431.209 150.796 430.469 151.61C429.729 152.423 428.787 153.006 427.733 153.311C427.686 153.32 427.649 153.329 427.603 153.329L427.612 153.32Z" fill="#25292B"/>
<path d="M448.941 146.322C448.728 146.322 448.534 146.165 448.488 145.943C448.442 145.693 448.608 145.453 448.858 145.397C449.902 145.194 450.771 144.214 450.873 143.104C450.975 142.032 450.365 140.876 449.394 140.303C449.107 140.137 448.691 139.952 448.294 140.035C447.998 140.1 447.739 140.359 447.748 140.599C447.748 140.849 447.573 141.052 447.323 141.07C447.083 141.089 446.861 140.913 446.824 140.673C446.722 139.952 446.639 139.184 446.676 138.389C446.722 137.493 446.944 136.716 447.332 136.078C447.776 135.348 448.432 134.858 449.135 134.728C449.791 134.608 450.503 134.802 451.03 135.255C451.511 135.662 451.844 136.282 451.945 136.947C451.982 137.197 451.807 137.437 451.557 137.465C451.298 137.502 451.067 137.326 451.03 137.067C450.965 136.624 450.753 136.217 450.439 135.949C450.115 135.681 449.69 135.551 449.301 135.625C448.858 135.708 448.432 136.041 448.127 136.54C447.822 137.049 447.646 137.687 447.6 138.426C447.582 138.713 447.591 139.009 447.6 139.295C447.757 139.203 447.924 139.138 448.099 139.101C448.645 138.99 449.255 139.12 449.865 139.48C451.16 140.248 451.927 141.727 451.798 143.169C451.65 144.695 450.494 146.007 449.033 146.285C449.006 146.285 448.978 146.285 448.941 146.285V146.322Z" fill="#25292B"/>
<path d="M428.732 101.714L439.345 92.3951L422.565 77.8711C421.52 76.9651 420.208 76.4196 418.821 76.3087L408.189 75.4951C407.237 75.4211 406.423 76.1792 406.423 77.1315L405.286 77.076C403.502 76.9928 402.004 78.4165 402.004 80.2101V81.0421C402.004 82.66 403.243 84.0191 404.851 84.167L414.18 85.0175L417.397 90.0099L412.174 96.9807C411.258 97.9514 411.342 99.4953 412.358 100.364C413.255 101.132 414.587 101.122 415.465 100.327L421.067 95.2611C421.067 95.2611 423.129 99.6987 428.722 101.714H428.732Z" fill="#FFCEB3"/>
<path d="M418.08 78.5093C418.08 78.5093 418.052 78.5093 418.043 78.5093L406.385 77.6033C406.126 77.5848 405.941 77.3629 405.96 77.104C405.978 76.8452 406.2 76.6603 406.459 76.6788L418.117 77.5848C418.376 77.6033 418.561 77.8251 418.542 78.084C418.524 78.3244 418.32 78.5093 418.08 78.5093Z" fill="#25292B"/>
<path d="M416.619 82.5491C416.619 82.5491 416.582 82.5491 416.573 82.5491L401.957 81.0237C401.707 80.996 401.522 80.7741 401.541 80.5152C401.568 80.2564 401.79 80.0715 402.049 80.0992L416.666 81.6246C416.915 81.6524 417.1 81.8742 417.082 82.1331C417.054 82.3735 416.86 82.5491 416.619 82.5491Z" fill="#25292B"/>
<path d="M368.277 178.485L356.86 184.791C356.86 184.791 349.686 179.216 348.881 177.755C348.077 176.294 347.763 163.703 347.763 163.703H358.015V156.639C358.015 155.04 359.31 153.746 360.909 153.746C362.508 153.746 363.803 155.04 363.803 156.639V166.06C363.803 166.06 367.741 170.424 368.277 178.485Z" fill="#FFCEB3"/>
<path d="M356.018 168.658C355.953 168.658 355.889 168.649 355.833 168.621C355.602 168.519 355.491 168.242 355.602 168.011L357.599 163.508C357.701 163.277 357.978 163.166 358.209 163.277C358.44 163.379 358.551 163.656 358.44 163.888L356.443 168.39C356.369 168.566 356.194 168.667 356.018 168.667V168.658Z" fill="#25292B"/>
<path d="M553.78 384.133C553.78 384.9 553.474 385.519 553.106 385.519H0.683613C0.305827 385.519 0 384.9 0 384.133C0 383.366 0.305827 382.746 0.683613 382.746H553.106C553.474 382.746 553.78 383.366 553.78 384.133Z" fill="#25292B"/>
</svg>
