<svg width="561" height="395" viewBox="0 0 561 395" fill="none" xmlns="http://www.w3.org/2000/svg">
<path opacity="0.7" d="M13.92 393C10.6245 379.989 9.91998 301 12.92 257C18.42 206.5 65.4466 166.523 100.23 136.006C135.014 105.5 180.678 141.878 204.593 130.134C228.508 118.402 229.592 59.7299 293.731 42.1259C357.87 24.5219 414.66 71.1433 442.92 104C471.18 136.857 487.063 125.747 528.37 160.955C569.226 195.773 559.378 351.981 559.378 393H13.92Z" fill="#DEEDFF"/>
<path d="M218.96 57.3899C218.26 59.8699 217.29 62.2299 216.05 64.4399L223.64 73.4599L212.54 84.5599L203.52 76.9699C201.32 78.2099 198.95 79.1799 196.47 79.8799L195.46 91.6399H179.76L178.75 79.8799C176.27 79.1799 173.91 78.2099 171.7 76.9699L162.68 84.5599L151.58 73.4599L159.17 64.4399C157.94 62.2399 156.96 59.8699 156.26 57.3899L144.5 56.3799V40.6799L156.26 39.6699C156.96 37.1899 157.93 34.8299 159.17 32.6199L151.58 23.5999L162.68 12.4999L171.7 20.0899C173.9 18.8499 176.27 17.8799 178.75 17.1799L179.76 5.41992H195.46L196.47 17.1799C198.95 17.8799 201.31 18.8499 203.52 20.0899L212.54 12.4999L223.64 23.5999L216.05 32.6199C217.28 34.8199 218.26 37.1899 218.96 39.6699L230.72 40.6799V56.3799L218.96 57.3899ZM205.85 48.5299C205.85 38.4599 197.68 30.2899 187.61 30.2899C177.54 30.2899 169.37 38.4599 169.37 48.5299C169.37 58.5999 177.54 66.7699 187.61 66.7699C197.68 66.7699 205.85 58.5999 205.85 48.5299Z" stroke="#E8F2FF" stroke-linecap="round" stroke-linejoin="round"/>
<path d="M1.01009 68.98L260.93 68.98V57.13C260.93 54.79 259.03 52.89 256.69 52.89L5.24009 52.89C2.90009 52.89 1.00009 54.79 1.00009 57.13L1.00009 68.98H1.01009Z" fill="#5683FA" stroke="#000A32" stroke-linecap="round" stroke-linejoin="round"/>
<path d="M275.09 256.83L12.38 256.83L12.38 71.96L275.09 71.96V256.83Z" fill="white" stroke="#000A32" stroke-linecap="round" stroke-linejoin="round"/>
<path d="M279.11 60.9298C279.11 63.1498 277.31 64.9498 275.09 64.9498C272.87 64.9498 271.07 63.1498 271.07 60.9298C271.07 58.7098 272.87 56.9098 275.09 56.9098C277.31 56.9098 279.11 58.7098 279.11 60.9298Z" fill="white" stroke="#000A32" stroke-linecap="round" stroke-linejoin="round"/>
<path d="M264.95 60.9298C264.95 63.1498 263.15 64.9498 260.93 64.9498C258.71 64.9498 256.91 63.1498 256.91 60.9298C256.91 58.7098 258.71 56.9098 260.93 56.9098C263.15 56.9098 264.95 58.7098 264.95 60.9298Z" fill="white" stroke="#000A32" stroke-linecap="round" stroke-linejoin="round"/>
<path d="M250.79 60.9298C250.79 63.1498 248.99 64.9498 246.77 64.9498C244.55 64.9498 242.75 63.1498 242.75 60.9298C242.75 58.7098 244.55 56.9098 246.77 56.9098C248.99 56.9098 250.79 58.7098 250.79 60.9298Z" fill="white" stroke="#000A32" stroke-linecap="round" stroke-linejoin="round"/>
<path d="M267.13 79.88H256.72" stroke="#000A32" stroke-width="2" stroke-linecap="round" stroke-linejoin="round"/>
<path d="M267.13 84.1H256.72" stroke="#000A32" stroke-width="2" stroke-linecap="round" stroke-linejoin="round"/>
<path d="M267.13 88.3199H256.72" stroke="#000A32" stroke-width="2" stroke-linecap="round" stroke-linejoin="round"/>
<path d="M30.5699 188.96H109.3" stroke="#000A32" stroke-width="2" stroke-linecap="round" stroke-linejoin="round"/>
<path d="M30.5699 195.17H109.3" stroke="#000A32" stroke-width="2" stroke-linecap="round" stroke-linejoin="round"/>
<path d="M30.5697 201.5H92.6397" stroke="#000A32" stroke-width="2" stroke-linecap="round" stroke-linejoin="round"/>
<path d="M197.52 74.0402V74.5402" stroke="#000A32" stroke-linecap="round" stroke-linejoin="round"/>
<path d="M197.52 77.5303V251.76" stroke="#000A32" stroke-linecap="round" stroke-linejoin="round"/>
<path d="M197.52 253.26V253.76" stroke="#000A32" stroke-linecap="round" stroke-linejoin="round"/>
<path d="M15.5403 215.36H16.0403" stroke="#000A32" stroke-linecap="round" stroke-linejoin="round"/>
<path d="M19.0297 215.36H269.07" stroke="#000A32" stroke-linecap="round" stroke-linejoin="round"/>
<path d="M270.56 215.36H271.06" stroke="#000A32" stroke-linecap="round" stroke-linejoin="round"/>
<path d="M199.24 217.09H195.79V213.64H199.24V217.09Z" fill="white" stroke="#000A32" stroke-linecap="round" stroke-linejoin="round"/>
<path d="M118.73 1H69.43C68.23 1 67.25 1.97 67.25 3.18V26.12C67.25 27.32 68.22 28.3 69.43 28.3H91.56L94.09 37.34L96.62 28.3H118.75C119.95 28.3 120.93 27.33 120.93 26.12V3.18C120.93 1.98 119.96 1 118.75 1H118.73Z" fill="#5683FA" stroke="#000A32" stroke-linecap="round" stroke-linejoin="round"/>
<path d="M75.45 7.56995H112.7" stroke="white" stroke-width="2" stroke-linecap="round" stroke-linejoin="round"/>
<path d="M75.45 12.2902H112.7" stroke="white" stroke-width="2" stroke-linecap="round" stroke-linejoin="round"/>
<path d="M75.45 17.01H112.7" stroke="white" stroke-width="2" stroke-linecap="round" stroke-linejoin="round"/>
<path d="M75.4501 21.7299H103.53" stroke="white" stroke-width="2" stroke-linecap="round" stroke-linejoin="round"/>
<path d="M98.6205 278.21H44.9605L44.9605 244.58H98.6205V278.21Z" fill="#000A32" stroke="#000A32" stroke-linecap="round" stroke-linejoin="round"/>
<path d="M98.6205 249.69H44.9605V244.58H98.6205V249.69Z" fill="#5683FA" stroke="#000A32" stroke-linecap="round" stroke-linejoin="round"/>
<path d="M50.4304 254H64.1504" stroke="white" stroke-linecap="round" stroke-linejoin="round"/>
<path d="M57.2904 257.83H81.0304" stroke="white" stroke-linecap="round" stroke-linejoin="round"/>
<path d="M54.2606 261.39H61.2506" stroke="white" stroke-linecap="round" stroke-linejoin="round"/>
<path d="M57.2904 265.61H73.2804" stroke="white" stroke-linecap="round" stroke-linejoin="round"/>
<path d="M50.4305 269.43H64.1505" stroke="white" stroke-linecap="round" stroke-linejoin="round"/>
<path d="M183.75 182.22H137.68" stroke="#000A32" stroke-linecap="round" stroke-linejoin="round"/>
<path d="M184.63 203.52C184.63 203.52 184.63 182.12 160.71 182.12C136.79 182.12 136.79 203.52 136.79 203.52" stroke="#000A32" stroke-linecap="round" stroke-linejoin="round"/>
<path d="M184.63 205.54C183.514 205.54 182.61 204.635 182.61 203.52C182.61 202.404 183.514 201.5 184.63 201.5C185.746 201.5 186.65 202.404 186.65 203.52C186.65 204.635 185.746 205.54 184.63 205.54Z" fill="#5683FA" stroke="#000A32" stroke-linecap="round" stroke-linejoin="round"/>
<path d="M134.78 203.52C134.78 202.41 135.68 201.5 136.8 201.5C137.92 201.5 138.82 202.4 138.82 203.52C138.82 204.64 137.92 205.54 136.8 205.54C135.68 205.54 134.78 204.64 134.78 203.52Z" fill="#5683FA" stroke="#000A32" stroke-linecap="round" stroke-linejoin="round"/>
<path d="M182.87 180.35H186.41V183.89H182.87V180.35Z" fill="#5683FA" stroke="#000A32" stroke-linecap="round" stroke-linejoin="round"/>
<path d="M158.95 180.35H162.49V183.89H158.95V180.35Z" fill="#5683FA" stroke="#000A32" stroke-linecap="round" stroke-linejoin="round"/>
<path d="M135.03 180.35H138.57V183.89H135.03V180.35Z" fill="#5683FA" stroke="#000A32" stroke-linecap="round" stroke-linejoin="round"/>
<path d="M53.89 118.31C53.57 119.43 53.14 120.49 52.58 121.48L56 125.54L51 130.54L46.94 127.12C45.95 127.68 44.88 128.11 43.77 128.43L43.31 133.73H36.24L35.78 128.43C34.66 128.11 33.6 127.68 32.61 127.12L28.55 130.54L23.55 125.54L26.97 121.48C26.41 120.49 25.98 119.42 25.66 118.31L20.36 117.85V110.78L25.66 110.32C25.98 109.2 26.41 108.14 26.97 107.15L23.55 103.09L28.55 98.0899L32.61 101.51C33.6 100.95 34.67 100.52 35.78 100.2L36.24 94.8999H43.31L43.77 100.2C44.89 100.52 45.95 100.95 46.94 101.51L51 98.0899L56 103.09L52.58 107.15C53.14 108.14 53.57 109.21 53.89 110.32L59.19 110.78V117.85L53.89 118.31ZM47.99 114.32C47.99 109.78 44.31 106.1 39.77 106.1C35.23 106.1 31.55 109.78 31.55 114.32C31.55 118.86 35.23 122.54 39.77 122.54C44.31 122.54 47.99 118.86 47.99 114.32Z" fill="#5683FA"/>
<path d="M79.6001 134.03C79.3801 134.8 79.0801 135.52 78.7001 136.2L81.0401 138.98L77.6201 142.4L74.8401 140.06C74.1601 140.44 73.4301 140.74 72.6701 140.96L72.3601 144.59H67.5201L67.2101 140.96C66.4401 140.74 65.7201 140.44 65.0401 140.06L62.2601 142.4L58.8401 138.98L61.1801 136.2C60.8001 135.52 60.5001 134.79 60.2801 134.03L56.6501 133.72V128.88L60.2801 128.57C60.5001 127.8 60.8001 127.08 61.1801 126.4L58.8401 123.62L62.2601 120.2L65.0401 122.54C65.7201 122.16 66.4501 121.86 67.2101 121.64L67.5201 118.01H72.3601L72.6701 121.64C73.4401 121.86 74.1601 122.16 74.8401 122.54L77.6201 120.2L81.0401 123.62L78.7001 126.4C79.0801 127.08 79.3801 127.81 79.6001 128.57L83.2301 128.88V133.72L79.6001 134.03ZM75.5601 131.3C75.5601 128.19 73.0401 125.67 69.9301 125.67C66.8201 125.67 64.3001 128.19 64.3001 131.3C64.3001 134.41 66.8201 136.93 69.9301 136.93C73.0401 136.93 75.5601 134.41 75.5601 131.3Z" fill="#5683FA"/>
<path d="M207.4 227.12H246.13" stroke="#000A32" stroke-width="2" stroke-linecap="round" stroke-linejoin="round"/>
<path d="M207.4 233.33H246.13" stroke="#000A32" stroke-width="2" stroke-linecap="round" stroke-linejoin="round"/>
<path d="M207.4 239.66H229.47" stroke="#000A32" stroke-width="2" stroke-linecap="round" stroke-linejoin="round"/>
<path d="M150.131 242H132.709C130.342 242 128.42 239.983 128.42 237.5C128.42 235.017 130.342 233 132.709 233H150.131C152.498 233 154.42 235.017 154.42 237.5C154.42 239.983 152.498 242 150.131 242Z" fill="#5683FA"/>
<path d="M183.966 242H165.874C163.416 242 161.42 239.983 161.42 237.5C161.42 235.017 163.416 233 165.874 233H183.966C186.424 233 188.42 235.017 188.42 237.5C188.42 239.983 186.424 242 183.966 242Z" fill="#5683FA"/>
<path d="M253.47 178.19H210.23V134.95H253.47V178.19Z" fill="white" stroke="#000A32" stroke-linecap="round" stroke-linejoin="round"/>
<path d="M210.23 134.95L253.47 178.19" stroke="#000A32" stroke-linecap="round" stroke-linejoin="round"/>
<path d="M253.47 134.95L210.23 178.19" stroke="#000A32" stroke-linecap="round" stroke-linejoin="round"/>
<path d="M300.42 142.89H246.76V109.26H300.42V142.89Z" fill="#000A32" stroke="#000A32" stroke-linecap="round" stroke-linejoin="round"/>
<path d="M300.42 114.38H246.76V109.27H300.42V114.38Z" fill="#5683FA" stroke="#000A32" stroke-linecap="round" stroke-linejoin="round"/>
<path d="M252.24 118.69H265.95" stroke="white" stroke-linecap="round" stroke-linejoin="round"/>
<path d="M259.1 122.51H282.83" stroke="white" stroke-linecap="round" stroke-linejoin="round"/>
<path d="M256.06 126.08H263.05" stroke="white" stroke-linecap="round" stroke-linejoin="round"/>
<path d="M259.1 130.29H275.08" stroke="white" stroke-linecap="round" stroke-linejoin="round"/>
<path d="M252.24 134.12H265.95" stroke="white" stroke-linecap="round" stroke-linejoin="round"/>
<path d="M227.19 85.8702V95.9602L222.74 100.41H212.65V85.8702H227.19Z" fill="white" stroke="#000A32" stroke-linecap="round" stroke-linejoin="round"/>
<path d="M227.19 95.9604L222.74 100.41V95.9604H227.19Z" fill="white" stroke="#000A32" stroke-linecap="round" stroke-linejoin="round"/>
<path d="M72.5602 163.9V173.99L68.1102 178.44H58.0202V163.9H72.5602Z" fill="white" stroke="#000A32" stroke-linecap="round" stroke-linejoin="round"/>
<path d="M72.5602 173.99L68.1102 178.44V173.99H72.5602Z" fill="white" stroke="#000A32" stroke-linecap="round" stroke-linejoin="round"/>
<path d="M17.61 226.06V236.15L13.1599 240.6H3.06995V226.06H17.61Z" fill="white" stroke="#000A32" stroke-linecap="round" stroke-linejoin="round"/>
<path d="M17.61 236.15L13.1599 240.6V236.15H17.61Z" fill="white" stroke="#000A32" stroke-linecap="round" stroke-linejoin="round"/>
<path d="M92.64 84.8801V84.3801H93.14" stroke="#000A32" stroke-linecap="round" stroke-linejoin="round"/>
<path d="M96.0798 84.3801H180.68" stroke="#000A32" stroke-linecap="round" stroke-linejoin="round"/>
<path d="M182.14 84.3801H182.64V84.8801" stroke="#000A32" stroke-linecap="round" stroke-linejoin="round"/>
<path d="M182.64 87.8799V142.38" stroke="#000A32" stroke-linecap="round" stroke-linejoin="round"/>
<path d="M182.64 143.88V144.38H182.14" stroke="#000A32" stroke-linecap="round" stroke-linejoin="round"/>
<path d="M179.21 144.38H94.6096" stroke="#000A32" stroke-linecap="round" stroke-linejoin="round"/>
<path d="M93.1397 144.38H92.6397V143.88" stroke="#000A32" stroke-linecap="round" stroke-linejoin="round"/>
<path d="M92.6397 140.88V86.3801" stroke="#000A32" stroke-linecap="round" stroke-linejoin="round"/>
<path d="M137.64 85.86C136.822 85.86 136.16 85.1974 136.16 84.38C136.16 83.5626 136.822 82.9 137.64 82.9C138.457 82.9 139.12 83.5626 139.12 84.38C139.12 85.1974 138.457 85.86 137.64 85.86Z" fill="#5683FA" stroke="#000A32" stroke-linecap="round" stroke-linejoin="round"/>
<path d="M92.6402 115.86C91.8228 115.86 91.1602 115.198 91.1602 114.38C91.1602 113.563 91.8228 112.9 92.6402 112.9C93.4576 112.9 94.1202 113.563 94.1202 114.38C94.1202 115.198 93.4576 115.86 92.6402 115.86Z" fill="#5683FA" stroke="#000A32" stroke-linecap="round" stroke-linejoin="round"/>
<path d="M137.64 145.86C136.822 145.86 136.16 145.197 136.16 144.38C136.16 143.563 136.822 142.9 137.64 142.9C138.457 142.9 139.12 143.563 139.12 144.38C139.12 145.197 138.457 145.86 137.64 145.86Z" fill="#5683FA" stroke="#000A32" stroke-linecap="round" stroke-linejoin="round"/>
<path d="M182.64 115.86C181.823 115.86 181.16 115.198 181.16 114.38C181.16 113.563 181.823 112.9 182.64 112.9C183.458 112.9 184.12 113.563 184.12 114.38C184.12 115.198 183.458 115.86 182.64 115.86Z" fill="#5683FA" stroke="#000A32" stroke-linecap="round" stroke-linejoin="round"/>
<path d="M184.36 146.1H180.91V142.65H184.36V146.1Z" fill="#5683FA" stroke="#000A32" stroke-linecap="round" stroke-linejoin="round"/>
<path d="M184.36 86.0999H180.91V82.6499H184.36V86.0999Z" fill="#5683FA" stroke="#000A32" stroke-linecap="round" stroke-linejoin="round"/>
<path d="M94.3602 146.1H90.9102V142.65H94.3602V146.1Z" fill="#5683FA" stroke="#000A32" stroke-linecap="round" stroke-linejoin="round"/>
<path d="M94.3602 86.0999H90.9102V82.6499H94.3602V86.0999Z" fill="#5683FA" stroke="#000A32" stroke-linecap="round" stroke-linejoin="round"/>
<path d="M176.95 139.45H98.6197V89.68H176.95V139.45Z" fill="white" stroke="#000A32" stroke-linecap="round" stroke-linejoin="round"/>
<path d="M176.94 124.75L168.24 133.46L144.68 109.91L134.77 119.82L118.96 104.01L98.61 124.36V139.46H176.94V124.75Z" fill="#5683FA"/>
<path d="M160.72 109.34C157.665 109.34 155.19 106.864 155.19 103.81C155.19 100.756 157.665 98.2799 160.72 98.2799C163.774 98.2799 166.25 100.756 166.25 103.81C166.25 106.864 163.774 109.34 160.72 109.34Z" fill="#5683FA"/>
<path d="M12.3766 252C12.3766 252 13.8119 254.716 12.5387 257.278C11.2578 259.84 9.66052 262.394 10.6173 263.675C11.5741 264.956 14.4523 266.553 14.1359 269.269C13.8196 271.985 9.97689 277.425 12.3766 280.465C14.7764 283.505 18.7734 283.343 18.9354 286.7C19.0975 290.056 15.1005 292.773 16.2193 295.813C17.3382 298.853 23.897 299.493 23.897 301.569C23.897 303.645 21.3352 305.882 23.4186 308.128C25.4942 310.366 35.5562 316.207 36.9914 313.807C38.4266 311.407 41.3279 304.771 39.422 295.35C39.1057 293.768 36.8525 293.413 36.5284 291.175C36.2121 288.938 37.1689 284.941 35.5716 282.703C33.9744 280.465 28.8585 279.663 28.5344 277.903C28.2181 276.144 30.4558 271.831 28.2181 269.107C25.9803 266.391 20.7025 265.11 20.7025 263.351C20.7025 261.591 22.2997 259.354 20.062 256.954C17.8243 254.554 12.3844 252 12.3844 252H12.3766Z" fill="#B4C1EF"/>
<path d="M20.0313 270.843C23.357 280.897 29.1905 294.509 31.5594 301.091C34.4375 309.085 36.9376 314.872 38.2185 322.866C39.4994 330.86 40.1938 384.403 40.1938 384.403" stroke="#263238" stroke-linecap="round" stroke-linejoin="round"/>
<path d="M13.1793 252.965C13.1793 252.965 15.8954 255.202 18.2952 264.956C18.4495 265.581 18.627 266.252 18.8276 266.946" stroke="#263238" stroke-linecap="round" stroke-linejoin="round"/>
<path d="M62.3549 270.218C62.3549 270.218 61.2052 272.394 62.2237 274.439C63.25 276.484 64.5231 278.536 63.7592 279.555C62.9953 280.573 60.6882 281.862 60.9428 284.03C61.1975 286.206 64.2685 290.558 62.3472 292.989C60.4258 295.419 57.2313 295.296 57.1002 297.981C56.969 300.667 60.1712 302.843 59.2761 305.273C58.381 307.704 53.134 308.213 53.134 309.88C53.134 311.546 55.1788 313.337 53.5198 315.127C51.8531 316.917 43.8051 321.593 42.6554 319.672C41.5057 317.75 39.1908 312.441 40.7109 304.903C40.9655 303.637 42.7711 303.352 43.0257 301.562C43.2804 299.771 42.5165 296.569 43.7897 294.779C45.0706 292.989 49.1601 292.348 49.4225 290.936C49.6771 289.532 47.887 286.075 49.6771 283.899C51.4673 281.723 55.6881 280.697 55.6881 279.293C55.6881 277.888 54.4072 276.09 56.1973 274.177C57.9875 272.255 62.3395 270.211 62.3395 270.211L62.3549 270.218Z" fill="#B4C1EF"/>
<path d="M56.228 285.296C53.5659 293.336 48.8976 304.239 46.9994 309.502C44.7 315.898 42.6938 320.528 41.6675 326.933C40.6412 333.329 40.0857 376.178 40.0857 376.178" stroke="#263238" stroke-linecap="round" stroke-linejoin="round"/>
<path d="M61.7148 270.99C61.7148 270.99 59.5389 272.78 57.6175 280.589C57.4941 281.091 57.3552 281.623 57.1931 282.179" stroke="#263238" stroke-linecap="round" stroke-linejoin="round"/>
<path d="M18.3573 306.454C18.3573 306.454 19.3218 308.275 18.4653 309.98C17.6088 311.685 16.544 313.398 17.1844 314.255C17.8249 315.111 19.7539 316.176 19.5379 317.997C19.3218 319.818 16.76 323.453 18.365 325.482C19.97 327.511 22.6398 327.403 22.7478 329.649C22.8559 331.894 20.1783 333.707 20.9268 335.744C21.6753 337.782 26.0581 338.206 26.0581 339.595C26.0581 340.984 24.3451 342.481 25.734 343.978C27.1229 345.475 33.8515 349.379 34.8083 347.774C35.7728 346.169 37.7096 341.732 36.4287 335.436C36.2127 334.379 34.708 334.139 34.4919 332.643C34.2759 331.146 34.9163 328.476 33.8515 326.979C32.7867 325.482 29.3606 324.949 29.1446 323.769C28.9285 322.596 30.4255 319.702 28.9285 317.889C27.4316 316.068 23.9053 315.219 23.9053 314.039C23.9053 312.858 24.9778 311.369 23.4809 309.764C21.9839 308.159 18.3496 306.446 18.3496 306.446L18.3573 306.454Z" fill="#DEE3FC"/>
<path d="M23.4729 319.047C25.6951 325.767 29.5995 334.873 31.1814 339.271C33.1027 344.618 34.7772 348.484 35.6337 353.831C36.4902 359.179 36.9531 379.017 36.9531 379.017" stroke="#263238" stroke-linecap="round" stroke-linejoin="round"/>
<path d="M18.8894 307.094C18.8894 307.094 20.7104 308.591 22.3076 315.111C22.4079 315.528 22.5314 315.976 22.6626 316.438" stroke="#263238" stroke-linecap="round" stroke-linejoin="round"/>
<path d="M73.4199 303.791C73.4199 303.791 72.0696 305.342 72.5094 307.202C72.9492 309.061 73.5974 310.975 72.7795 311.662C71.9615 312.349 69.8396 312.95 69.6313 314.764C69.4229 316.585 71.0896 320.705 69.0603 322.318C67.0309 323.931 64.4537 323.213 63.8364 325.374C63.2191 327.534 65.4027 329.918 64.2144 331.724C63.0184 333.53 58.6588 332.943 58.3347 334.294C58.0183 335.644 59.3378 337.496 57.6402 338.63C55.9427 339.772 48.5042 342.033 47.9332 340.25C47.3622 338.468 46.498 333.707 49.1755 327.866C49.6231 326.886 51.1432 327.002 51.6987 325.59C52.2466 324.185 52.2389 321.431 53.6201 320.219C55.0013 319.008 58.4581 319.27 58.9365 318.174C59.4149 317.079 58.6202 313.923 60.4875 312.503C62.3626 311.075 65.9892 311.052 66.2593 309.903C66.5293 308.761 65.8272 307.055 67.6559 305.836C69.4769 304.617 73.4122 303.784 73.4122 303.784L73.4199 303.791Z" fill="#DEE3FC"/>
<path d="M65.5571 314.879C61.8533 320.913 55.9736 328.884 53.4272 332.804C50.333 337.565 46.6138 340.613 45.7573 345.96C44.9008 351.308 44.4378 371.146 44.4378 371.146" stroke="#263238" stroke-linecap="round" stroke-linejoin="round"/>
<path d="M72.7563 304.293C72.7563 304.293 70.6421 305.334 67.5942 311.314C67.3936 311.7 67.1775 312.109 66.946 312.526" stroke="#263238" stroke-linecap="round" stroke-linejoin="round"/>
<path d="M35.4484 390.429H47.3391C53.597 387.204 58.0415 379.032 58.0415 369.464C58.0415 363.183 56.1279 357.504 53.0414 353.43H29.7461C26.6596 357.504 24.746 363.183 24.746 369.464C24.746 379.032 29.1905 387.204 35.4484 390.429Z" fill="white" stroke="#263238" stroke-linecap="round" stroke-linejoin="round"/>
<path d="M47.555 392.204H35.4482V390.429H47.555V392.204Z" fill="white" stroke="#263238" stroke-linecap="round" stroke-linejoin="round"/>
<path d="M470.36 233.882V222.152H435.09V233.882C435.09 237.712 433.77 241.422 431.34 244.422L429.8 246.332H475.65L474.11 244.422C471.68 241.422 470.36 237.712 470.36 233.882Z" fill="#151515" stroke="#151515" stroke-linecap="round" stroke-linejoin="round"/>
<path d="M468.359 233.882V222.152H433.089V233.882C433.089 237.712 431.769 241.422 429.339 244.422L427.799 246.332H473.649L472.109 244.422C469.679 241.422 468.359 237.712 468.359 233.882Z" fill="white" stroke="#151515" stroke-linecap="round" stroke-linejoin="round"/>
<path d="M468.64 229.062H433.23V225.472H468.64V229.062Z" fill="#151515"/>
<path d="M513.12 225.852L388.32 225.852C383.636 225.852 379.84 222.055 379.84 217.372V130.242C379.84 125.559 383.636 121.762 388.32 121.762L513.12 121.762C517.803 121.762 521.6 125.559 521.6 130.242V217.372C521.6 222.055 517.803 225.852 513.12 225.852Z" fill="#151515" stroke="#151515" stroke-linecap="round" stroke-linejoin="round"/>
<path d="M516.92 225.852L392.12 225.852C387.436 225.852 383.64 222.055 383.64 217.372V130.242C383.64 125.559 387.436 121.762 392.12 121.762L516.92 121.762C521.603 121.762 525.4 125.559 525.4 130.242V217.372C525.4 222.055 521.603 225.852 516.92 225.852Z" fill="#151515" stroke="#151515" stroke-linecap="round" stroke-linejoin="round"/>
<path d="M388.33 225.862L513.13 225.862C517.81 225.862 521.61 222.062 521.61 217.382V209.682L379.84 209.682V217.382C379.84 222.062 383.64 225.862 388.32 225.862H388.33Z" fill="white" stroke="#151515" stroke-linecap="round" stroke-linejoin="round"/>
<path d="M514.47 201.772L386.97 201.772V128.232H514.47V201.772Z" fill="white"/>
<path d="M431.34 193.772H406.26C404.581 193.772 403.22 192.411 403.22 190.732V138.932C403.22 137.253 404.581 135.892 406.26 135.892H431.34C433.019 135.892 434.38 137.253 434.38 138.932V190.732C434.38 192.411 433.019 193.772 431.34 193.772Z" fill="#151515"/>
<path d="M431.77 188.922H405.84V140.762H431.77V188.922Z" fill="#5683FA"/>
<path d="M465.95 144.002H442.48V141.572H465.95V144.002Z" fill="#151515"/>
<path d="M453.82 158.152H442.89V146.822H453.82V158.152Z" fill="#5683FA"/>
<path d="M464.33 187.702H458.48V181.632H464.33V187.702Z" fill="#5683FA"/>
<path d="M465.41 177.592H443.15V166.262H465.41V177.592Z" fill="#5683FA"/>
<path d="M455.84 147.632H464.74" stroke="#151515" stroke-linecap="round" stroke-linejoin="round"/>
<path d="M455.84 150.472H464.74" stroke="#151515" stroke-linecap="round" stroke-linejoin="round"/>
<path d="M455.84 153.302H464.74" stroke="#151515" stroke-linecap="round" stroke-linejoin="round"/>
<path d="M455.84 156.132H464.74" stroke="#151515" stroke-linecap="round" stroke-linejoin="round"/>
<path d="M443.56 162.612H465.01" stroke="#151515" stroke-linecap="round" stroke-linejoin="round"/>
<path d="M443.56 180.422H465.01" stroke="#151515" stroke-linecap="round" stroke-linejoin="round"/>
<path d="M467.98 190.132H440.46V139.132H467.98V190.132Z" stroke="#151515" stroke-linecap="round" stroke-linejoin="round"/>
<path d="M501.57 158.152H475.67V139.132H501.57V158.152Z" fill="#BFBFBF"/>
<path d="M501.57 143.182H475.67V139.132H501.57V143.182Z" fill="#151515"/>
<path d="M484.45 152.692H477.68V146.142H484.45V152.692Z" stroke="#151515" stroke-linecap="round" stroke-linejoin="round"/>
<path d="M497.99 152.692H491.22V146.142H497.99V152.692Z" stroke="#151515" stroke-linecap="round" stroke-linejoin="round"/>
<path d="M499.08 141.442C499.08 141.982 498.64 142.422 498.1 142.422C497.56 142.422 497.12 141.982 497.12 141.442C497.12 140.902 497.56 140.462 498.1 140.462C498.64 140.462 499.08 140.902 499.08 141.442Z" fill="white"/>
<path d="M493.4 142.422C492.859 142.422 492.42 141.983 492.42 141.442C492.42 140.901 492.859 140.462 493.4 140.462C493.942 140.462 494.38 140.901 494.38 141.442C494.38 141.983 493.942 142.422 493.4 142.422Z" fill="white"/>
<path d="M499.5 183.032H479.67V168.462H499.5V183.032Z" fill="#BFBFBF"/>
<path d="M499.5 171.572H479.67V168.472H499.5V171.572Z" fill="#151515"/>
<path d="M497.6 170.232C497.6 170.652 497.26 170.982 496.85 170.982C496.44 170.982 496.1 170.642 496.1 170.232C496.1 169.822 496.44 169.482 496.85 169.482C497.26 169.482 497.6 169.822 497.6 170.232Z" fill="white"/>
<path d="M494 170.232C494 170.652 493.66 170.982 493.25 170.982C492.84 170.982 492.5 170.642 492.5 170.232C492.5 169.822 492.84 169.482 493.25 169.482C493.66 169.482 494 169.822 494 170.232Z" fill="white"/>
<path d="M399.5 197.422H391.17V132.092H399.5V197.422Z" fill="#BFBFBF"/>
<path d="M399.5 135.091H391.17V132.091H399.5V135.091Z" fill="#151515"/>
<path d="M397.17 141.761H393.17V137.091H397.17V141.761Z" stroke="#151515" stroke-linecap="round" stroke-linejoin="round"/>
<path d="M397.17 149.432H393.17V144.762H397.17V149.432Z" stroke="#151515" stroke-linecap="round" stroke-linejoin="round"/>
<path d="M397.17 157.092H393.17V152.422H397.17V157.092Z" stroke="#151515" stroke-linecap="round" stroke-linejoin="round"/>
<path d="M397.17 164.762H393.17V160.092H397.17V164.762Z" stroke="#151515" stroke-linecap="round" stroke-linejoin="round"/>
<path d="M397.17 172.432H393.17V167.762H397.17V172.432Z" stroke="#151515" stroke-linecap="round" stroke-linejoin="round"/>
<path d="M397.17 180.092H393.17V175.422H397.17V180.092Z" stroke="#151515" stroke-linecap="round" stroke-linejoin="round"/>
<path d="M397.17 187.762H393.17V183.092H397.17V187.762Z" stroke="#151515" stroke-linecap="round" stroke-linejoin="round"/>
<path d="M397.17 195.432H393.17V190.762H397.17V195.432Z" stroke="#151515" stroke-linecap="round" stroke-linejoin="round"/>
<path d="M510.83 134.092H404.83V131.422H510.83V134.092Z" fill="#BFBFBF"/>
<path d="M510.83 198.762H404.83V196.092H510.83V198.762Z" fill="#BFBFBF"/>
<path d="M473.66 248.432H427.8V246.342H473.66V248.432Z" fill="#151515" stroke="#151515" stroke-linecap="round" stroke-linejoin="round"/>
<path d="M503.63 248.432H397.16V244.632H503.63V248.432Z" fill="white" stroke="#151515" stroke-linecap="round" stroke-linejoin="round"/>
<path d="M301.76 392.952H297.43L295.26 260.282H303.93L301.76 392.952Z" fill="white" stroke="#151515" stroke-linecap="round" stroke-linejoin="round"/>
<path d="M301.76 392.952H299.85L300.11 260.282H303.93L301.76 392.952Z" fill="#151515" stroke="#151515" stroke-linecap="round" stroke-linejoin="round"/>
<path d="M363.49 392.952H359.16L356.99 260.282H365.66L363.49 392.952Z" fill="white" stroke="#151515" stroke-linecap="round" stroke-linejoin="round"/>
<path d="M363.49 392.952H361.58L361.83 260.282H365.66L363.49 392.952Z" fill="#151515" stroke="#151515" stroke-linecap="round" stroke-linejoin="round"/>
<path d="M341.39 392.952H337.05L334.89 260.282H343.55L341.39 392.952Z" fill="#151515" stroke="#151515" stroke-linecap="round" stroke-linejoin="round"/>
<path d="M341.39 392.952H339.48L339.73 260.282H343.55L341.39 392.952Z" fill="#151515" stroke="#151515" stroke-linecap="round" stroke-linejoin="round"/>
<path d="M383.1 392.952H378.76L376.6 260.282H385.26L383.1 392.952Z" fill="#151515" stroke="#151515" stroke-linecap="round" stroke-linejoin="round"/>
<path d="M383.1 392.952H381.18L381.44 260.282H385.26L383.1 392.952Z" fill="#151515" stroke="#151515" stroke-linecap="round" stroke-linejoin="round"/>
<path d="M386.35 345.312H318.37V262.312H386.35V345.312Z" fill="#151515" stroke="#151515" stroke-linecap="round" stroke-linejoin="round"/>
<path d="M367.58 345.312H299.6V262.312H367.58V345.312Z" fill="white" stroke="#151515" stroke-linecap="round" stroke-linejoin="round"/>
<path d="M504.88 392.952H500.55L498.38 260.282H507.05L504.88 392.952Z" fill="white" stroke="#151515" stroke-linecap="round" stroke-linejoin="round"/>
<path d="M504.88 392.952H502.97L503.23 260.282H507.05L504.88 392.952Z" fill="#151515" stroke="#151515" stroke-linecap="round" stroke-linejoin="round"/>
<path d="M544.51 392.952H540.17L538.01 260.282H546.67L544.51 392.952Z" fill="#151515" stroke="#151515" stroke-linecap="round" stroke-linejoin="round"/>
<path d="M544.51 392.952H542.59L542.85 260.282H546.67L544.51 392.952Z" fill="#151515" stroke="#151515" stroke-linecap="round" stroke-linejoin="round"/>
<path d="M549.41 264.402L289.55 264.402V255.272L549.41 255.272V264.402Z" fill="white" stroke="#151515" stroke-linecap="round" stroke-linejoin="round"/>
<path d="M549.41 259.842L289.55 259.842V255.282L549.41 255.282V259.842Z" fill="#151515" stroke="#151515" stroke-linecap="round" stroke-linejoin="round"/>
<path d="M549.41 264.402H511.05V255.272H549.41V264.402Z" fill="#151515" stroke="#151515" stroke-linecap="round" stroke-linejoin="round"/>
<path d="M557.81 257.082L282.5 257.082V247.952L557.81 247.952V257.082Z" fill="white" stroke="#151515" stroke-linecap="round" stroke-linejoin="round"/>
<path d="M559.42 257H519.42V248H559.42V257Z" fill="#151515" stroke="#151515" stroke-linecap="round" stroke-linejoin="round"/>
<path d="M363.42 299.292H303.92V270.292H363.42V299.292Z" fill="white" stroke="#151515" stroke-linecap="round" stroke-linejoin="round"/>
<path d="M340.17 286.292H327.17V281.792H340.17V286.292Z" fill="#151515" stroke="#151515" stroke-linecap="round" stroke-linejoin="round"/>
<path d="M363.42 335.792H303.92V306.792H363.42V335.792Z" fill="white" stroke="#151515" stroke-linecap="round" stroke-linejoin="round"/>
<path d="M340.17 322.792H327.17V318.292H340.17V322.792Z" fill="#151515" stroke="#151515" stroke-linecap="round" stroke-linejoin="round"/>
<path d="M455.01 279.662H472.79V315.422H455.01V279.662Z" fill="#151515"/>
<path d="M459.46 302.722H468.35V352.242H459.46V302.722Z" fill="#151515"/>
<path d="M467.52 348.432C467.52 348.432 474.99 356.902 494.19 359.862C504.33 361.422 514.89 363.362 524.05 368.212C529.94 371.332 541.67 378.162 541.67 385.962C541.67 389.822 538.54 392.952 534.68 392.952C530.82 392.952 527.69 389.822 527.69 385.962C527.69 384.112 528.42 382.452 529.59 381.202C528.62 379.622 522.26 370.062 508.88 367.152C494.28 363.982 483.62 365.272 463.07 351.612L467.51 348.442L467.52 348.432Z" fill="#151515"/>
<path d="M461.17 348.432C461.17 348.432 453.7 356.902 434.5 359.862C424.36 361.422 413.8 363.362 404.64 368.212C398.75 371.332 387.02 378.162 387.02 385.962C387.02 389.822 390.15 392.952 394.01 392.952C397.87 392.952 401 389.822 401 385.962C401 384.112 400.27 382.452 399.1 381.202C400.07 379.612 406.43 370.062 419.81 367.152C434.41 363.982 445.07 365.272 465.62 351.612L461.18 348.442L461.17 348.432Z" fill="#151515"/>
<path d="M460.87 379.832H467.58C467.944 379.832 468.24 380.127 468.24 380.492V392.292C468.24 392.656 467.944 392.952 467.58 392.952H460.87C460.505 392.952 460.21 392.656 460.21 392.292V380.492C460.21 380.127 460.505 379.832 460.87 379.832Z" fill="#151515"/>
<path d="M462.32 349.622H466.13V392.952H462.32V349.622Z" fill="#151515"/>
<path d="M506.96 176.412C504.91 187.662 503.33 199.962 502.95 212.272C502.67 221.552 502.51 229.502 502.38 236.512C501.95 258.292 501.72 270.382 498.29 273.632C497.85 273.932 495.02 275.682 489.07 276.172C487.41 276.312 482.14 276.382 474.96 276.422C452.19 276.352 428.26 276.162 427.87 276.162H426.48C426.42 276.212 426.37 276.272 426.32 276.322C412.65 276.242 409.12 276.162 408.87 276.162H407.48C404.61 278.652 406.33 281.852 408.82 281.872C410.69 281.892 443.29 282.152 465.57 282.152C469.52 282.152 473.22 282.152 476.52 282.122C481.94 282.142 487.1 282.152 491.57 282.152C503.24 282.152 512.91 282.082 515.54 281.862C523.79 281.172 527.49 278.392 527.88 278.072C533.38 273.192 533.59 262.482 534.09 236.612C534.23 229.612 534.38 221.672 534.66 212.432C535.04 200.042 536.67 187.662 538.76 176.402H506.95L506.96 176.412Z" fill="#151515"/>
<path d="M330.17 363.122L332.42 374.872C332.42 374.872 330.42 379.122 322.67 382.622C314.92 386.122 311.17 387.622 311.17 388.622C311.17 389.622 310.67 391.872 312.67 392.622C314.67 393.372 357.17 392.622 357.17 392.622C357.17 392.622 359.42 391.622 359.42 386.872C359.42 382.122 357.42 373.372 357.42 371.372C357.42 369.372 356.01 364.552 356.01 363.882C356.01 363.202 338.92 364.122 338.92 364.122C338.92 364.122 333.92 359.372 330.17 363.122Z" fill="#520000" stroke="#480101" stroke-linecap="round" stroke-linejoin="round"/>
<path d="M338.92 364.122C338.92 364.122 340.17 375.372 340.92 376.122C341.67 376.872 357.42 376.872 357.42 376.872" fill="#3F0000"/>
<path d="M338.92 364.122C338.92 364.122 340.17 375.372 340.92 376.122C341.67 376.872 357.42 376.872 357.42 376.872" stroke="#480101" stroke-linecap="round" stroke-linejoin="round"/>
<path d="M357.42 371.372L339.92 371.622" stroke="#480101" stroke-linecap="round" stroke-linejoin="round"/>
<path d="M311.17 390.622H358.92" stroke="#480101" stroke-linecap="round" stroke-linejoin="round"/>
<path d="M361.42 222.202C361.42 222.202 347.56 268.862 345.87 275.282C344.18 281.702 353.98 338.172 353.98 339.182C353.98 340.192 355.33 343.242 355.33 346.622C355.33 350.002 353.98 351.022 354.65 352.032C355.33 353.042 357.69 355.412 357.35 357.442C357.01 359.472 356.67 360.142 355.32 361.502C353.97 362.862 352.62 363.192 352.62 363.192H344.51C344.51 363.192 342.48 347.972 337.07 307.742C331.66 267.502 340.45 244.512 342.14 237.072C343.83 229.632 347.21 223.212 347.21 223.212L361.41 222.202H361.42Z" fill="#1F0C07" stroke="#1F0C07" stroke-linecap="round" stroke-linejoin="round"/>
<path d="M318.67 363.122L320.92 374.872C320.92 374.872 318.92 379.122 311.17 382.622C303.42 386.122 299.67 387.622 299.67 388.622C299.67 389.622 299.17 391.872 301.17 392.622C303.17 393.372 345.67 392.622 345.67 392.622C345.67 392.622 347.92 391.622 347.92 386.872C347.92 382.122 345.92 373.372 345.92 371.372C345.92 369.372 344.51 364.552 344.51 363.882C344.51 363.202 327.42 364.122 327.42 364.122C327.42 364.122 322.42 359.372 318.67 363.122Z" fill="#520000" stroke="#480101" stroke-linecap="round" stroke-linejoin="round"/>
<path d="M327.42 364.122C327.42 364.122 328.67 375.372 329.42 376.122C330.17 376.872 345.92 376.872 345.92 376.872" fill="#3F0000"/>
<path d="M327.42 364.122C327.42 364.122 328.67 375.372 329.42 376.122C330.17 376.872 345.92 376.872 345.92 376.872" stroke="#480101" stroke-linecap="round" stroke-linejoin="round"/>
<path d="M345.92 371.372L328.42 371.622" stroke="#480101" stroke-linecap="round" stroke-linejoin="round"/>
<path d="M299.67 390.622H347.42" stroke="#480101" stroke-linecap="round" stroke-linejoin="round"/>
<path d="M305.63 222.202C305.63 222.202 305.29 251.622 306.98 264.132C308.67 276.642 315.09 305.722 316.11 321.612C317.12 337.502 318.81 344.942 318.81 344.942C318.81 344.942 316.44 346.972 316.44 349.002C316.44 351.032 317.79 351.032 317.45 354.072C317.11 357.112 315.76 358.132 316.77 359.482C317.78 360.832 318.46 363.542 321.84 364.212C325.22 364.892 341.11 364.552 344.49 363.872C347.87 363.192 349.56 359.812 349.56 357.112C349.56 354.412 348.55 352.382 348.55 349.332C348.55 346.282 350.24 343.582 350.24 341.552C350.24 339.522 349.56 338.512 349.56 336.482C349.56 334.452 345.16 301.992 345.16 295.232C345.16 288.472 344.82 265.482 345.84 259.732C346.85 253.982 351.93 226.592 351.93 226.592L305.61 222.192L305.63 222.202Z" fill="#1F0C07" stroke="#1C1C1C" stroke-linecap="round" stroke-linejoin="round"/>
<path d="M327.06 232.122C327.06 232.122 332.83 234.242 339.51 234.552C346.19 234.852 349.22 235.462 349.22 235.462L351.04 226.962L327.06 232.122Z" fill="#1C1C1C" stroke="#1C1C1C" stroke-linecap="round" stroke-linejoin="round"/>
<path d="M323.35 233.582C323.35 233.582 325.01 280.042 328.33 295.532C331.65 311.022 336.07 336.462 334.97 339.782C333.86 343.102 332.2 350.842 332.2 350.842C332.2 350.842 338.28 349.732 338.28 353.052C338.28 356.372 329.43 358.582 331.64 360.242C333.85 361.902 336.05 363.732 336.05 363.732" stroke="#1C1C1C" stroke-linecap="round" stroke-linejoin="round"/>
<path d="M343 352.322C343 352.322 324.64 355.302 329.85 356.292C335.06 357.282 344.98 356.042 345.48 354.802C345.98 353.562 344.49 352.072 343 352.322Z" fill="#1C1C1C" stroke="#1F0C07" stroke-linecap="round" stroke-linejoin="round"/>
<path d="M261.96 31.1019L261.45 51.8619L281.03 51.6919L281.2 30.9319L261.96 31.1019Z" fill="#5683FA"/>
<path d="M284.24 69.4121C284.24 69.4121 280.02 65.1921 278.16 61.3121C276.3 57.4321 273.6 55.0721 273.6 52.3721C273.6 49.6721 274.78 43.4321 274.28 40.8921C273.78 38.3521 274.28 33.1321 275.97 33.1321C277.66 33.1321 278.84 34.6521 278.5 36.3421C278.16 38.0321 279.51 43.9321 279.51 43.9321C279.51 43.9321 280.86 32.6221 281.03 31.9521C281.2 31.2721 283.56 31.2721 284.57 31.7821C285.58 32.2921 286.76 32.1221 286.76 34.3121C286.76 36.5021 286.25 39.0421 286.25 39.5421C286.25 40.0521 290.98 42.7521 291.14 44.7721C291.31 46.8021 290.8 51.6921 289.62 53.7121C288.44 55.7421 287.76 57.0921 287.59 57.7621C287.42 58.4421 292.15 65.5221 292.15 65.5221L284.22 69.4021L284.24 69.4121Z" fill="white" stroke="#263238" stroke-linecap="round" stroke-linejoin="round"/>
<path d="M292.11 62.2821L280.61 71.0721C280.61 71.0721 300.22 111.642 300.9 113.002C301.58 114.352 315.78 123.142 315.78 123.142L337.08 96.7721C337.08 96.7721 310.37 88.3221 309.69 87.3021C309.01 86.2921 292.11 62.2821 292.11 62.2821Z" fill="#151515" stroke="#151515" stroke-linecap="round" stroke-linejoin="round"/>
<path d="M305.67 211.372L304.67 227.122C304.67 227.122 317.67 232.622 331.67 232.372C345.67 232.122 364.42 226.622 364.42 226.622L367.17 211.122C367.17 211.122 333.42 213.872 323.17 212.872C312.92 211.872 305.67 211.372 305.67 211.372Z" fill="white" stroke="#263238" stroke-linecap="round" stroke-linejoin="round"/>
<path d="M295.67 206.372L294.92 210.872C294.92 210.872 305.51 216.652 328.92 218.872C352.67 221.122 371.67 214.372 371.67 214.372L371.92 206.622C371.92 206.622 353.42 211.372 333.92 211.122C314.42 210.872 295.67 206.372 295.67 206.372Z" fill="#151515" stroke="#151515" stroke-linecap="round" stroke-linejoin="round"/>
<path d="M314.67 113.372C314.67 113.372 306.42 127.872 303.67 139.122C300.92 150.372 295.42 202.372 294.67 205.372C293.92 208.372 311.42 214.372 322.92 214.622C334.42 214.872 360.17 215.372 364.67 213.622C369.17 211.872 373.42 209.372 373.42 206.622C373.42 203.872 373.67 193.622 373.67 185.372C373.67 177.122 371.17 133.622 368.92 123.622C366.67 113.622 365.17 106.622 364.42 105.372C363.67 104.122 358.17 98.1222 346.92 98.8722C335.67 99.6222 326.17 103.872 321.92 106.372C317.67 108.872 314.67 113.372 314.67 113.372Z" fill="#151515" stroke="#151515" stroke-linecap="round" stroke-linejoin="round"/>
<path d="M239.27 129.532C239.27 129.532 235.21 131.222 234.87 135.282C234.53 139.342 241.97 143.392 246.37 149.482C250.77 155.572 256.51 161.992 256.51 161.992L265.3 174.162L275.78 165.372L248.73 133.932C248.73 133.932 250.08 130.892 248.39 129.872C246.7 128.862 242.3 128.182 239.26 129.532H239.27Z" fill="white" stroke="#151515" stroke-linecap="round" stroke-linejoin="round"/>
<path d="M239.95 139.002L270.38 128.862C270.38 128.862 272.41 137.312 281.54 146.102C290.67 154.892 299.12 160.642 299.12 160.642L271.73 176.192L239.95 139.002Z" fill="white" stroke="#151515" stroke-linecap="round" stroke-linejoin="round"/>
<path d="M239.95 139.002C239.95 139.002 241.98 136.972 242.32 133.592C242.66 130.212 239.28 129.532 239.28 129.532L269.37 120.742C269.37 120.742 275.12 122.772 270.38 128.852L239.95 138.992V139.002Z" fill="white" stroke="#151515" stroke-linecap="round" stroke-linejoin="round"/>
<path d="M280.27 171.152C280.27 171.152 273.51 170.142 273.17 168.112C272.83 166.082 271.48 161.692 270.13 160.002C268.78 158.312 262.35 154.932 260.32 152.562C258.29 150.192 256.94 146.812 255.59 147.152C254.24 147.492 252.21 148.842 252.89 150.192C253.57 151.542 256.61 157.292 256.61 157.292L257.29 159.662C257.29 159.662 251.2 158.652 250.19 158.312C249.18 157.972 247.82 158.652 247.82 160.342C247.82 162.032 246.47 162.032 248.16 163.042C249.85 164.052 251.88 165.412 251.88 165.412C251.88 165.412 254.25 170.822 254.92 171.832C255.6 172.842 261.01 175.212 262.02 175.892C263.03 176.572 268.44 178.262 271.15 178.932C273.85 179.612 279.94 181.972 279.94 181.972L281.63 174.192L280.28 171.152H280.27Z" fill="white" stroke="#151515" stroke-linecap="round" stroke-linejoin="round"/>
<path d="M351.95 124.492C351.95 124.492 351.27 153.232 351.27 154.582C351.27 155.932 352.28 183.662 349.24 186.022C346.2 188.392 331.32 191.432 309.68 190.752C288.04 190.072 278.57 185.342 278.57 185.342L280.26 171.142L321.51 168.102C321.51 168.102 317.11 136.662 317.79 125.842C318.47 115.022 327.26 109.272 327.26 109.272" fill="#151515"/>
<path d="M351.95 124.492C351.95 124.492 351.27 153.232 351.27 154.582C351.27 155.932 352.28 183.662 349.24 186.022C346.2 188.392 331.32 191.432 309.68 190.752C288.04 190.072 278.57 185.342 278.57 185.342L280.26 171.142L321.51 168.102C321.51 168.102 317.11 136.662 317.79 125.842C318.47 115.022 327.26 109.272 327.26 109.272" stroke="#151515" stroke-linecap="round" stroke-linejoin="round"/>
<path d="M306.43 192.022C306.43 192.022 347.38 193.462 349.53 188.432C351.69 183.402 351.69 133.832 351.69 133.832" stroke="#313131" stroke-linecap="round" stroke-linejoin="round"/>
<path d="M324.39 115.152C324.39 115.152 315.77 124.492 317.21 136.702C318.65 148.912 321.53 168.102 321.53 168.102L305.72 169.022" stroke="#313131" stroke-linecap="round" stroke-linejoin="round"/>
<path d="M14.4199 393L558.42 393" stroke="#263238" stroke-width="3" stroke-linecap="round" stroke-linejoin="round"/>
<path d="M346.09 87.7223C346.09 87.7223 347.68 90.7523 343.5 92.2923C332.67 96.2923 320.44 96.0023 321.67 91.7623C322.14 90.1423 325.51 88.5223 325.34 82.4723C325.32 81.6923 325.04 80.7823 324.61 79.8123C323.95 78.3123 322.91 76.6723 321.86 75.2023C320.03 72.6423 318.15 70.5723 318.15 70.5723C318.15 70.5723 335.34 59.6023 348.09 70.5723C348.09 70.5723 343.35 72.9723 346.09 87.7223Z" fill="white" stroke="#1F0C07" stroke-linecap="round" stroke-linejoin="round"/>
<path d="M331.66 72.9121C331.66 72.9121 330.81 79.3621 324.61 79.8121C323.95 78.3121 322.91 76.6721 321.86 75.2021C325.97 73.8821 331.66 72.9121 331.66 72.9121Z" fill="#151515"/>
<path d="M344.869 73.3621C344.869 73.3621 355.239 74.6321 359.579 60.7121C363.919 46.7921 360.509 36.3021 343.339 31.2521C333.819 28.4521 324.309 30.7021 320.879 37.9021C317.939 44.0721 319.329 49.2121 318.649 51.2821C317.889 53.6021 310.879 55.5721 310.879 57.1621C310.879 58.4821 314.769 60.7121 314.769 60.7121L313.629 64.1721L314.709 64.7421C314.709 64.7421 312.719 72.5321 313.629 75.2821C314.299 77.2921 331.859 78.1221 333.229 73.1521" fill="white"/>
<path d="M344.869 73.3621C344.869 73.3621 355.239 74.6321 359.579 60.7121C363.919 46.7921 360.509 36.3021 343.339 31.2521C333.819 28.4521 324.309 30.7021 320.879 37.9021C317.939 44.0721 319.329 49.2121 318.649 51.2821C317.889 53.6021 310.879 55.5721 310.879 57.1621C310.879 58.4821 314.769 60.7121 314.769 60.7121L313.629 64.1721L314.709 64.7421C314.709 64.7421 312.719 72.5321 313.629 75.2821C314.299 77.2921 331.859 78.1221 333.229 73.1521" stroke="#1F0C07" stroke-linecap="round" stroke-linejoin="round"/>
<path d="M320.97 42.962C320.97 42.962 324.4 43.822 325.34 45.622" stroke="#1F0C07" stroke-linecap="round" stroke-linejoin="round"/>
<path d="M321.57 50.8624C321.42 51.8724 321.65 52.7424 322.09 52.8024C322.52 52.8624 322.99 52.1024 323.14 51.0924C323.29 50.0824 323.06 49.2124 322.62 49.1524C322.18 49.0924 321.72 49.8524 321.57 50.8624Z" fill="#151515"/>
<path d="M314.7 64.7423C314.7 64.7423 320.28 66.8823 322.36 65.5923" stroke="#1F0C07" stroke-linecap="round" stroke-linejoin="round"/>
<path d="M316.66 50.0722C316.25 52.3022 316.75 54.2722 317.78 54.4622C318.81 54.6522 319.98 53.0022 320.4 50.7622C320.82 48.5222 320.31 46.5622 319.28 46.3722C318.25 46.1822 317.08 47.8322 316.66 50.0722Z" stroke="#1F0C07" stroke-linecap="round" stroke-linejoin="round"/>
<path d="M360.03 38.6721C360.03 38.6721 359.23 32.8421 353.51 28.6121C347.79 24.3821 340.94 23.4721 340.94 23.4721C340.94 23.4721 344.26 24.9221 345.51 26.8221C345.51 26.8221 336.94 20.3821 326.76 24.6121C316.59 28.8421 317.84 39.8321 317.84 39.8321L319.33 36.9521C319.33 36.9521 319.16 40.3821 320.96 41.6421C320.96 41.6421 322.05 38.3221 323.15 36.8421C323.15 36.8421 325.85 44.9621 333.28 47.7021C333.28 47.7021 332.48 46.1021 333.17 43.7021C333.17 43.7021 337.28 52.6221 336.08 56.9621L337.4 59.2521C337.4 59.2521 342.13 54.4621 345.97 58.4521C348.18 60.7421 341.74 69.4221 340.83 69.4221L344.72 75.1421C344.72 75.1421 354.44 76.5221 360.04 66.0021C365.64 55.4821 364.27 50.9821 364.27 50.9821C364.27 50.9821 366.1 53.5421 366.33 55.0221C366.33 55.0221 367.93 43.7021 360.04 38.6721H360.03Z" fill="#151515"/>
<path d="M337.17 60.2822C337.17 60.2822 340.15 50.1922 346.55 53.7522C352.95 57.3122 348.37 62.6822 346.09 64.7422C343.8 66.8022 342.09 70.5722 340.6 70.5722C339.11 70.5722 338.77 68.7422 338.77 68.7422" fill="white"/>
<path d="M337.17 60.2822C337.17 60.2822 340.15 50.1922 346.55 53.7522C352.95 57.3122 348.37 62.6822 346.09 64.7422C343.8 66.8022 342.09 70.5722 340.6 70.5722C339.11 70.5722 338.77 68.7422 338.77 68.7422" stroke="#1F0C07" stroke-linecap="round" stroke-linejoin="round"/>
<path d="M320.4 50.7622L338.2 54.4622" stroke="#1F0C07" stroke-linecap="round" stroke-linejoin="round"/>
<path d="M348.36 74.342C348.36 74.342 337.25 82.402 329.62 90.692C321.99 98.972 312.84 108.122 312.4 110.962C311.96 113.802 312.84 118.152 317.19 113.582C321.55 109.002 329.61 102.902 335.71 102.472C341.81 102.032 351.18 105.092 355.98 105.742C360.78 106.392 363.83 107.702 365.57 105.092C367.31 102.482 362.74 96.592 362.74 93.542C362.74 90.492 363.39 85.262 361.21 81.552C359.03 77.852 352.06 73.272 348.35 74.362L348.36 74.342Z" fill="#444444" stroke="#151515" stroke-linecap="round" stroke-linejoin="round"/>
<path d="M362.6 85.1321C362.6 85.1321 361.34 89.3321 360.08 91.2321C358.82 93.1221 340.95 96.7021 340.95 96.7021C340.95 96.7021 355.67 95.8621 358.4 95.8621C361.13 95.8621 364.29 98.3821 364.29 98.3821L362.82 94.3921C362.82 94.3921 363.45 87.0321 362.61 85.1421L362.6 85.1321Z" fill="#151515" stroke="#151515" stroke-linecap="round" stroke-linejoin="round"/>
<path d="M504.14 48.472C504.39 47.382 504.53 46.252 504.53 45.082C504.53 36.762 497.78 30.012 489.46 30.012C488.1 30.012 486.78 30.192 485.53 30.532C483.05 26.142 478.34 23.172 472.94 23.172C465.26 23.172 458.98 29.162 458.51 36.722C457.8 36.592 457.07 36.512 456.32 36.512C450.24 36.512 445.25 41.102 444.58 46.992C441.01 47.072 438.14 49.982 438.14 53.562C438.14 57.142 441.09 60.142 444.72 60.142H499.98C503.61 60.142 506.56 57.192 506.56 53.562C506.56 51.502 505.62 49.672 504.14 48.462V48.472Z" stroke="#E8F2FF" stroke-width="2" stroke-linecap="round" stroke-linejoin="round"/>
<path d="M473.75 55.1021V70.3321" stroke="#E8F2FF" stroke-width="2" stroke-linecap="round" stroke-linejoin="round"/>
<path d="M473.75 45.9719V52.0619" stroke="#E8F2FF" stroke-width="2" stroke-linecap="round" stroke-linejoin="round"/>
<path d="M473.75 40.2721V43.5321" stroke="#E8F2FF" stroke-width="2" stroke-linecap="round" stroke-linejoin="round"/>
<path d="M470.88 68.5519L473.75 72.1119L476.63 68.5519" stroke="#E8F2FF" stroke-width="2" stroke-linecap="round" stroke-linejoin="round"/>
<path d="M220.795 337.504C221.106 336.146 221.28 334.739 221.28 333.282C221.28 322.922 212.875 314.517 202.515 314.517C200.822 314.517 199.178 314.741 197.622 315.165C194.534 309.698 188.669 306 181.945 306C172.381 306 164.562 313.459 163.976 322.872C163.092 322.711 162.183 322.611 161.249 322.611C153.679 322.611 147.465 328.326 146.631 335.661C142.185 335.76 138.612 339.384 138.612 343.842C138.612 348.299 142.285 352.035 146.805 352.035H215.615C220.135 352.035 223.808 348.362 223.808 343.842C223.808 341.276 222.638 338.998 220.795 337.491V337.504Z" stroke="#DEE3FC" stroke-width="2" stroke-linecap="round" stroke-linejoin="round"/>
<path d="M182.953 345.759V364.724" stroke="#DEE3FC" stroke-width="2" stroke-linecap="round" stroke-linejoin="round"/>
<path d="M182.953 334.391V341.974" stroke="#DEE3FC" stroke-width="2" stroke-linecap="round" stroke-linejoin="round"/>
<path d="M182.953 327.293V331.352" stroke="#DEE3FC" stroke-width="2" stroke-linecap="round" stroke-linejoin="round"/>
<path d="M179.379 362.508L182.953 366.94L186.539 362.508" stroke="#DEE3FC" stroke-width="2" stroke-linecap="round" stroke-linejoin="round"/>
</svg>
