<svg width="560" height="374" viewBox="0 0 560 374" fill="none" xmlns="http://www.w3.org/2000/svg">
<path d="M494.392 209.152C460.835 181.483 415.901 181.21 373.638 153.114C321.314 118.328 266.198 55.4122 191.436 81.9458C150.019 96.6421 138.702 148.497 137.072 156.776C136.748 158.414 136.415 160.036 136.014 161.657C132.711 175.219 127.334 219.99 75.6155 257.422C16.3097 300.342 34.1979 353.495 54.2197 372.151H464.223C548.227 307.579 537.073 244.339 494.392 209.152Z" fill="#DEEDFF"/>
<path d="M131.687 93.5441C129.195 81.485 119.516 72.5409 107.696 70.1598C92.6415 67.13 68.1392 68.982 41.6397 98.5026C-1.72378 146.816 33.6515 179.58 62.3784 174.041C88.1695 169.065 139.589 131.744 131.695 93.5356L131.687 93.5441Z" fill="#DEEDFF"/>
<path d="M512.314 221.842H553.74C556.668 221.842 559.04 224.215 559.04 227.142V265.778C559.04 268.705 556.668 271.078 553.74 271.078H514.004C510.146 271.078 507.014 267.945 507.014 264.088V227.151C507.014 224.224 509.387 221.851 512.314 221.851V221.842Z" fill="#5683FA"/>
<path d="M523.127 236.274C517.691 241.711 517.691 250.638 523.127 256.074C528.564 261.51 537.491 261.51 542.927 256.074C548.363 250.638 548.363 241.711 542.927 236.274C537.491 230.838 528.564 230.838 523.127 236.274ZM542.901 238.288H538.438C537.994 236.889 537.414 235.489 536.705 234.081C539.18 234.832 541.331 236.317 542.901 238.288ZM527.889 245.355C527.889 243.545 528.103 241.736 528.555 239.927H537.516C537.96 241.736 538.173 243.545 538.182 245.355H527.898H527.889ZM538.114 246.993C537.994 248.803 537.661 250.612 537.149 252.421H528.896C528.384 250.612 528.06 248.803 527.932 246.993H538.105H538.114ZM533.027 233.543C533.701 233.543 534.358 233.594 535.007 233.697C535.869 235.224 536.535 236.761 537.038 238.288H529.024C529.528 236.761 530.194 235.224 531.056 233.697C531.704 233.594 532.361 233.543 533.036 233.543H533.027ZM529.357 234.089C528.649 235.489 528.069 236.889 527.625 238.297H523.161C524.732 236.325 526.891 234.84 529.357 234.089ZM522.043 239.935H527.155C526.712 241.745 526.473 243.554 526.439 245.363H520.422C520.55 243.4 521.122 241.557 522.043 239.935ZM522.043 252.43C521.122 250.808 520.541 248.965 520.422 247.002H526.464C526.549 248.811 526.84 250.62 527.318 252.43H522.043ZM523.153 254.068H527.795C528.256 255.485 528.837 256.902 529.519 258.327C526.976 257.593 524.757 256.083 523.153 254.068ZM533.019 258.814C532.455 258.814 531.909 258.779 531.363 258.703C530.595 257.158 529.938 255.613 529.408 254.06H536.637C536.108 255.605 535.451 257.149 534.683 258.703C534.145 258.771 533.59 258.814 533.027 258.814H533.019ZM536.518 258.319C537.2 256.902 537.781 255.485 538.242 254.06H542.884C541.271 256.074 539.061 257.585 536.518 258.319ZM544.002 252.421H538.728C539.206 250.612 539.496 248.803 539.582 246.993H545.624C545.496 248.956 544.924 250.8 544.002 252.421ZM545.624 245.355H539.607C539.573 243.545 539.343 241.736 538.89 239.927H544.002C544.924 241.548 545.504 243.392 545.624 245.355Z" fill="white"/>
<path d="M105.204 41.9108H131.055C135.382 41.9108 138.898 45.427 138.898 49.754V73.676C138.898 78.003 135.382 81.5192 131.055 81.5192H105.204C100.877 81.5192 97.361 78.003 97.361 73.676V49.754C97.361 45.427 100.877 41.9108 105.204 41.9108Z" fill="#5683FA"/>
<path d="M111.75 55.6426L124.501 67.7956" stroke="white" stroke-width="3.06" stroke-linecap="round" stroke-linejoin="round"/>
<path d="M124.501 55.6426L111.75 67.7956" stroke="white" stroke-width="3.06" stroke-linecap="round" stroke-linejoin="round"/>
<path d="M490.68 93.0576C502.949 93.0576 512.895 83.1115 512.895 70.8425C512.895 58.5734 502.949 48.6273 490.68 48.6273C478.41 48.6273 468.464 58.5734 468.464 70.8425C468.464 83.1115 478.41 93.0576 490.68 93.0576Z" fill="#1F0C07"/>
<path d="M484.151 76.8934C484.543 77.1921 484.74 77.5847 484.842 78.0797L484.944 79.4622C485.047 80.3498 485.636 81.0411 486.523 81.2374C489.28 81.9287 492.139 81.9287 494.904 81.2374C495.792 81.0411 496.381 80.2559 496.483 79.4622L496.585 78.0797C496.585 77.5847 496.884 77.1921 497.277 76.8934C499.547 75.1182 501.023 72.3616 501.023 68.615C501.023 61.813 496.491 59.1503 490.773 59.1503C485.055 59.1503 480.524 61.813 480.524 68.615C480.421 72.3616 481.906 75.2206 484.168 76.8934H484.151ZM495.092 68.4187C496.765 68.615 497.456 69.8012 497.26 71.0814C497.063 72.3616 496.372 73.3516 494.503 73.1553C492.634 72.959 492.139 71.7727 492.335 70.4925C492.532 69.11 493.419 68.2224 495.092 68.4187ZM489.084 76.5008L490.167 73.9405C490.364 73.4455 491.055 73.4455 491.251 73.9405L492.335 76.5008C492.532 76.9958 492.139 77.5847 491.644 77.5847H489.869C489.177 77.5847 488.785 76.9958 489.084 76.5008ZM486.225 68.4187C487.897 68.2224 488.785 69.2038 488.981 70.4925C489.177 71.7727 488.682 72.959 486.813 73.1553C484.944 73.3516 484.253 72.3701 484.057 71.0814C483.861 69.8012 484.449 68.615 486.225 68.4187Z" fill="white"/>
<path d="M44.2511 204.791H6.61419C2.96127 204.791 0 207.752 0 211.405V244.467C0 248.12 2.96127 251.081 6.61419 251.081H44.2511C47.904 251.081 50.8653 248.12 50.8653 244.467V211.405C50.8653 207.752 47.904 204.791 44.2511 204.791Z" fill="#1F0C07"/>
<path d="M17.6664 235.515C18.1273 235.864 18.3663 236.325 18.4772 236.906L18.5967 238.527C18.7162 239.568 19.4075 240.379 20.4487 240.61C23.6918 241.42 27.0543 241.42 30.3059 240.61C31.3471 240.379 32.047 239.449 32.1579 238.527L32.2774 236.906C32.2774 236.325 32.6273 235.864 33.0882 235.515C35.7509 233.432 37.4919 230.181 37.4919 225.777C37.4919 217.78 32.1579 214.648 25.4328 214.648C18.7076 214.648 13.3736 217.78 13.3736 225.777C13.2541 230.181 14.9952 233.543 17.6664 235.515ZM30.5364 225.546C32.5078 225.777 33.3186 227.168 33.0882 228.678C32.8577 230.189 32.047 231.341 29.8451 231.111C27.6432 230.88 27.0629 229.489 27.2933 227.979C27.5237 226.357 28.5649 225.316 30.5364 225.546ZM23.4613 235.054L24.733 232.041C24.9634 231.461 25.7742 231.461 26.0046 232.041L27.2762 235.054C27.5066 235.634 27.0458 236.325 26.4654 236.325H24.383C23.5723 236.325 23.1114 235.634 23.4528 235.054H23.4613ZM20.0988 225.546C22.0702 225.316 23.1114 226.477 23.3418 227.979C23.5723 229.489 22.9919 230.88 20.79 231.111C18.5882 231.341 17.7774 230.181 17.547 228.678C17.3165 227.168 18.0078 225.777 20.0988 225.546Z" fill="white"/>
<path d="M359.027 39.7943C358.762 38.0959 357.167 36.9353 355.468 37.2084C353.77 37.4729 352.609 39.0689 352.882 40.7672C353.147 42.4656 354.743 43.6263 356.441 43.3532C358.139 43.0886 359.3 41.4927 359.027 39.7943Z" fill="white"/>
<path d="M17.257 282.83C16.9925 281.131 15.3965 279.971 13.6982 280.244C11.9998 280.508 10.8391 282.104 11.1122 283.803C11.3768 285.501 12.9728 286.662 14.6711 286.388C16.3695 286.124 17.5301 284.528 17.257 282.83Z" fill="white"/>
<path d="M57.6844 45.5294C57.4199 43.831 55.8239 42.6703 54.1256 42.9434C52.4272 43.208 51.2665 44.8039 51.5396 46.5023C51.8042 48.2006 53.4001 49.3613 55.0985 49.0882C56.7969 48.8236 57.9575 47.2277 57.6844 45.5294Z" fill="white"/>
<path d="M242.455 48.6445H182.671C181.673 48.6445 180.854 47.8338 180.854 46.8267C180.854 45.8282 181.664 45.0089 182.671 45.0089H242.455C243.454 45.0089 244.273 45.8196 244.273 46.8267C244.273 47.8252 243.462 48.6445 242.455 48.6445Z" fill="#DEEDFF"/>
<path d="M52.6154 322.933H19.7664C18.7679 322.933 17.9485 322.122 17.9485 321.115C17.9485 320.116 18.7593 319.297 19.7664 319.297H52.6154C53.614 319.297 54.4333 320.108 54.4333 321.115C54.4333 322.114 53.6225 322.933 52.6154 322.933Z" fill="#5683FA"/>
<path d="M550.361 80.1621H545.01C543.605 80.1621 542.466 81.3008 542.466 82.7054V87.7322C542.466 89.1368 543.605 90.2754 545.01 90.2754H550.361C551.765 90.2754 552.904 89.1368 552.904 87.7322V82.7054C552.904 81.3008 551.765 80.1621 550.361 80.1621Z" fill="#DEEDFF"/>
<path d="M12.7594 82.0312H7.40831C6.00371 82.0312 4.86505 83.1698 4.86505 84.5744V89.6012C4.86505 91.0058 6.00371 92.1445 7.40831 92.1445H12.7594C14.164 92.1445 15.3027 91.0058 15.3027 89.6012V84.5744C15.3027 83.1698 14.164 82.0312 12.7594 82.0312Z" fill="#5683FA"/>
<path d="M494.494 118.004C494.494 121.162 491.968 123.722 488.853 123.722C485.738 123.722 483.22 121.162 483.22 118.004C483.22 114.846 485.747 112.286 488.853 112.286C491.96 112.286 494.494 114.846 494.494 118.004Z" stroke="white" stroke-width="0.97" stroke-linecap="round" stroke-linejoin="round"/>
<path d="M19.1857 178.948C19.1857 182.208 16.5827 184.846 13.3652 184.846C10.1477 184.846 7.54474 182.2 7.54474 178.948C7.54474 175.697 10.1477 173.051 13.3652 173.051C16.5827 173.051 19.1857 175.697 19.1857 178.948Z" stroke="white" stroke-width="0.97" stroke-linecap="round" stroke-linejoin="round"/>
<path d="M331.828 68.8199H377.24" stroke="white" stroke-width="0.97" stroke-linecap="round" stroke-linejoin="round"/>
<path d="M4.33575 127.981H34.0612" stroke="white" stroke-width="0.97" stroke-linecap="round" stroke-linejoin="round"/>
<path d="M516.47 296.374H545.138" stroke="white" stroke-width="0.97" stroke-linecap="round" stroke-linejoin="round"/>
<path d="M452.479 104.05H97.5747C92.9933 104.05 89.2793 107.764 89.2793 112.345V321.533C89.2793 326.115 92.9933 329.829 97.5747 329.829H452.479C457.061 329.829 460.775 326.115 460.775 321.533V112.345C460.775 107.764 457.061 104.05 452.479 104.05Z" fill="#5683FA"/>
<path d="M451.771 111.944H98.2916V321.943H451.771V111.944Z" fill="white"/>
<path d="M240.757 322.762L234.168 365.306H319.197L312.95 322.762H240.757Z" fill="#5683FA"/>
<path d="M327.381 365.306H225.975V372.142H327.381V365.306Z" fill="#006EF2"/>
<path d="M239.664 329.829H313.991L314.955 336.426L239.246 332.526L239.664 329.829Z" fill="#006EF2"/>
<path d="M421.781 144.597H306.805C304.292 144.597 302.256 146.634 302.256 149.146V285.56C302.256 288.073 304.292 290.109 306.805 290.109H421.781C424.293 290.109 426.33 288.073 426.33 285.56V149.146C426.33 146.634 424.293 144.597 421.781 144.597Z" fill="#DBE6F1"/>
<path d="M383.274 190.188V179.025C383.274 170.089 376.028 162.844 367.092 162.844C360.803 162.844 355.349 166.437 352.669 171.677" stroke="#FFFFFC" stroke-width="4.19" stroke-miterlimit="10"/>
<path d="M344.049 185.494H389.239C391.305 185.494 392.986 187.176 392.986 189.241V217.191C392.986 228.772 383.581 238.186 371.991 238.186H361.28C349.699 238.186 340.286 228.781 340.286 217.191V189.241C340.286 187.176 341.967 185.494 344.032 185.494H344.049Z" fill="#FFB628"/>
<path d="M372.632 204.56C372.632 207.957 369.875 210.713 366.478 210.713C363.082 210.713 360.325 207.957 360.325 204.56C360.325 201.163 363.082 198.407 366.478 198.407C369.875 198.407 372.632 201.163 372.632 204.56Z" fill="black"/>
<path d="M364.66 208.827L359.693 223.071H373.596L368.279 208.827H364.66Z" fill="black"/>
<path d="M396.971 270.489H333.654C328.9 270.489 325.051 266.64 325.051 261.886C325.051 257.132 328.9 253.283 333.654 253.283H396.971C401.725 253.283 405.574 257.132 405.574 261.886C405.574 266.64 401.725 270.489 396.971 270.489Z" fill="white"/>
<path d="M348.794 258.856L346.755 261.536V261.579L349.998 261.152V262.611L346.755 262.227V262.27L348.82 264.847L347.463 265.624L346.174 262.62H346.132L344.741 265.649L343.52 264.873L345.56 262.253V262.21L342.385 262.62V261.16L345.543 261.57V261.527L343.52 258.907L344.826 258.156L346.157 261.143H346.2L347.506 258.139L348.794 258.873V258.856Z" fill="black"/>
<path d="M362.381 258.856L360.342 261.536V261.578L363.585 261.152V262.611L360.342 262.227V262.27L362.407 264.847L361.05 265.624L359.761 262.62H359.719L358.328 265.649L357.107 264.873L359.147 262.253V262.21L355.972 262.62V261.16L359.13 261.57V261.527L357.107 258.907L358.413 258.156L359.744 261.143H359.787L361.093 258.139L362.381 258.873V258.856Z" fill="black"/>
<path d="M375.968 258.856L373.929 261.536V261.578L377.172 261.152V262.611L373.929 262.227V262.27L375.994 264.847L374.637 265.624L373.348 262.62H373.306L371.915 265.649L370.694 264.873L372.734 262.253V262.21L369.559 262.62V261.16L372.717 261.57V261.527L370.694 258.907L372 258.156L373.331 261.143H373.374L374.68 258.139L375.968 258.873V258.856Z" fill="black"/>
<path d="M389.555 258.856L387.515 261.536V261.578L390.758 261.152V262.611L387.515 262.227V262.27L389.58 264.847L388.223 265.624L386.935 262.62H386.892L385.501 265.649L384.281 264.873L386.32 262.253V262.21L383.145 262.62V261.16L386.303 261.57V261.527L384.281 258.907L385.586 258.156L386.918 261.143H386.96L388.266 258.139L389.555 258.873V258.856Z" fill="black"/>
<path d="M308.483 109.089C312.827 95.0197 304.944 80.0925 290.874 75.7481C276.805 71.4036 261.878 79.2872 257.533 93.3565C253.189 107.426 261.072 122.353 275.142 126.698C289.211 131.042 304.138 123.158 308.483 109.089Z" fill="#1F0C07"/>
<path d="M286.459 111.475C286.459 116.007 279.58 116.007 279.58 111.475C279.58 106.943 286.459 106.901 286.459 111.475ZM286.049 88.3381L285.896 105.279H280.109C280.109 98.8696 279.99 94.7816 279.99 88.3381H286.049Z" fill="white"/>
<path d="M282.849 143.01H123.297C121.685 143.01 120.379 144.316 120.379 145.928V229.165C120.379 230.777 121.685 232.084 123.297 232.084H282.849C284.461 232.084 285.767 230.777 285.767 229.165V145.928C285.767 144.316 284.461 143.01 282.849 143.01Z" fill="#DBE6F1"/>
<path d="M255.095 181.005L224.696 157.143L193.4 181.005H255.095Z" fill="#1F0C07"/>
<path d="M255.095 181.005H194.296V213.325H255.095V181.005Z" fill="#CC8938"/>
<path d="M245.016 156.221H203.59V210.073H245.016V156.221Z" fill="white"/>
<path d="M193.4 181.005V220.34H239.913L202.31 183.284C200.825 181.824 198.836 181.005 196.754 181.005H193.408H193.4Z" fill="#FFB757"/>
<path d="M255.095 181.005V220.34H208.582L246.185 183.284C247.67 181.824 249.659 181.005 251.741 181.005H255.087H255.095Z" fill="#FFB628"/>
<path d="M210.281 163.996H239.11" stroke="#DBE6F1" stroke-width="1.04" stroke-linecap="round" stroke-linejoin="round"/>
<path d="M210.281 170.251H239.11" stroke="#DBE6F1" stroke-width="1.04" stroke-linecap="round" stroke-linejoin="round"/>
<path d="M210.281 176.499H239.11" stroke="#DBE6F1" stroke-width="1.04" stroke-linecap="round" stroke-linejoin="round"/>
<path d="M210.281 182.754H223.595" stroke="#DBE6F1" stroke-width="1.04" stroke-linecap="round" stroke-linejoin="round"/>
<path d="M281.278 245.628H124.91C122.407 245.628 120.379 247.657 120.379 250.16V285.176C120.379 287.679 122.407 289.708 124.91 289.708H281.278C283.781 289.708 285.81 287.679 285.81 285.176V250.16C285.81 247.657 283.781 245.628 281.278 245.628Z" fill="#DBE6F1"/>
<path d="M198.699 277.564C193.485 277.564 189.26 273.339 189.26 268.125C189.26 262.91 193.485 258.686 198.699 258.686C203.914 258.686 208.139 262.91 208.139 268.125C208.139 273.339 203.914 277.564 198.699 277.564Z" fill="#5683FA"/>
<path d="M218.116 268.466H271.26" stroke="white" stroke-width="1.43" stroke-linecap="round" stroke-linejoin="round"/>
<path d="M218.116 261.519H251.562" stroke="white" stroke-width="1.43" stroke-linecap="round" stroke-linejoin="round"/>
<path d="M218.116 275.55H228.22" stroke="white" stroke-width="1.43" stroke-linecap="round" stroke-linejoin="round"/>
<path d="M141.11 352.658L152.273 354.587L169.017 367.644L137.355 361.79L141.11 352.658Z" fill="#101010"/>
<path d="M136.526 365.946L137.354 361.79L169.017 367.644L168.189 371.801L136.526 365.946Z" fill="white"/>
<path d="M156.933 339.191L145.565 337.228L141.11 352.658L152.486 354.621L156.933 339.191Z" fill="#FCC1BD"/>
<path d="M153.714 250.347L172.063 296.263C172.934 298.311 173.147 300.581 172.669 302.749L159.262 347.708L140.034 343.646L151.47 301.733L126.413 250.279L153.714 250.347Z" fill="#1F0C07"/>
<path d="M113.799 357.958L125.124 357.83L143.968 367.644L111.759 367.619L113.799 357.958Z" fill="#101010"/>
<path d="M111.7 371.86L111.759 367.619L143.968 367.644L143.9 371.877L111.7 371.86Z" fill="white"/>
<path d="M126.925 341.845L115.387 341.973L113.799 357.958L125.346 357.83L126.925 341.845Z" fill="#FCC1BD"/>
<path d="M119.022 249.511C119.022 249.511 116.094 257.977 116.974 271.59L111.554 349.552H130.902L137.183 292.311L139.965 249.391L119.03 249.511H119.022Z" fill="#1F0C07"/>
<path d="M133.377 185.298C133.377 185.298 128.35 185.579 127.539 191.229C127.539 191.229 133.189 188.703 133.377 185.298Z" fill="#39405F"/>
<path d="M134.102 185.477C134.102 185.477 130.603 181.858 125.798 184.922C125.798 184.922 131.405 187.551 134.102 185.477Z" fill="#39405F"/>
<path d="M146.511 181.09C146.904 182.823 148.628 183.915 150.369 183.523C152.11 183.13 153.194 181.406 152.801 179.665C152.408 177.933 150.684 176.84 148.943 177.233C147.202 177.625 146.119 179.349 146.511 181.09Z" fill="#D78D67"/>
<path d="M141.561 188.268L141.279 200.523L131.166 200.242L134.093 179.511L141.561 188.268Z" fill="#FCC1BD"/>
<path d="M146.033 166.607C149.294 167.043 150.881 170.49 151.197 173.588C151.572 177.156 151.658 181.969 150.548 184.675C148.833 188.857 144.95 192.023 139.445 190.538C139.445 190.538 133.496 189.753 132.566 180.04C131.465 168.545 139.103 165.686 146.033 166.607Z" fill="#FCC1BD"/>
<path d="M133.949 180.783L131.328 173.077C132.378 170.704 133.966 171.062 133.966 171.062C133.931 170.9 136.116 169.825 136.091 169.663C143.055 162.613 149.652 169.014 149.652 169.014C149.652 169.014 147.066 162.571 136.355 163.416C128.811 164.013 124.885 169.944 125.201 174.869C125.576 180.732 129.408 182.362 133.155 186.177L133.949 180.775V180.783Z" fill="#1F0C07"/>
<path d="M135.126 170.695C135.126 170.695 137.431 167.495 141.519 168.451C144.838 169.227 150.207 169.987 147.356 166.983C147.356 166.983 144.753 164.158 139.155 165.114C133.556 166.07 135.126 170.695 135.126 170.695Z" fill="#1F0C07"/>
<path d="M134.461 181.346C134.461 181.346 138.114 174.28 134.606 168.161L130.458 170.593L131.218 178.684L134.461 181.346Z" fill="#1F0C07"/>
<path d="M128.299 181.474C128.725 183.386 130.629 184.581 132.532 184.146C134.443 183.719 135.638 181.816 135.203 179.913C134.776 178.001 132.873 176.806 130.97 177.241C129.067 177.677 127.863 179.571 128.299 181.474Z" fill="#FCC1BD"/>
<path d="M130.228 179.545C130.228 179.545 132.873 178.991 133.351 181.884" stroke="#1D0006" stroke-width="0.31" stroke-linecap="round" stroke-linejoin="round"/>
<path d="M149.302 178.171C149.379 178.573 149.763 178.837 150.164 178.76C150.565 178.684 150.83 178.299 150.753 177.898C150.676 177.497 150.292 177.233 149.891 177.309C149.49 177.386 149.225 177.77 149.302 178.171Z" fill="#1F0C07"/>
<path d="M143.072 178.171C143.148 178.573 143.533 178.837 143.934 178.76C144.335 178.684 144.599 178.299 144.523 177.898C144.446 177.497 144.062 177.233 143.661 177.309C143.259 177.386 142.995 177.77 143.072 178.171Z" fill="#1F0C07"/>
<path d="M147.57 179.076L148.671 181.44C148.73 181.671 148.577 181.893 148.355 181.935L147.578 182.089" stroke="#1D0006" stroke-width="0.31" stroke-linecap="round" stroke-linejoin="round"/>
<path d="M148.269 174.288C148.269 174.288 148.738 175.312 149.72 174.8C150.471 174.408 150.932 174.143 151.452 174.049C151.743 173.99 151.913 173.708 151.845 173.384C151.794 173.119 151.598 172.872 151.35 172.769C150.846 172.556 149.942 172.317 149.02 172.778C147.842 173.375 148.278 174.297 148.278 174.297L148.269 174.288Z" fill="#1F0C07"/>
<path d="M145.18 174.331C145.18 174.331 144.898 175.441 143.592 174.877C142.602 174.451 141.254 174.22 140.614 174.109C140.255 174.049 139.982 173.742 139.974 173.384C139.974 173.094 140.136 172.829 140.4 172.718C140.947 172.488 142.688 172.18 143.9 172.684C145.453 173.332 145.171 174.331 145.171 174.331H145.18Z" fill="#1F0C07"/>
<path d="M133.531 183.753L148.124 180.578L151.291 181.338C151.291 181.338 151.001 188.421 147.049 194.464C147.049 194.464 138.66 193.09 133.531 183.753Z" fill="#39405F"/>
<path d="M133.531 183.753L130.527 184.308L133.155 186.185L139.155 186.015L133.531 183.753Z" fill="#39405F"/>
<path d="M136.355 199.311L151.461 201.249C154.167 201.607 155.472 205.943 155.31 207.607L153.714 250.339L118.817 250.253L115.548 208.58C115.122 205.2 117.161 201.18 120.251 201.104L136.355 199.311Z" fill="#39405F"/>
<path d="M152.664 201.726C152.664 201.726 164.007 204.679 163.196 232.604L149.276 233.27L150.608 204.312L152.664 201.726Z" fill="#39405F"/>
<path d="M128.205 201.727L129.058 196.555C129.178 195.829 129.903 195.292 130.74 195.317L142.219 195.616C143.098 195.641 143.797 196.264 143.815 197.033L144.813 202.35L128.205 201.727Z" fill="#39405F"/>
<path d="M116.999 229.839L124.399 217.49L123.366 229.839H116.999Z" fill="#1D1F30"/>
<path d="M154.483 229.839V216.995L157.154 229.839H154.483Z" fill="#1D1F30"/>
<path d="M170.92 229.839H75.206C72.081 229.839 69.5476 232.372 69.5476 235.497V289.392C69.5476 292.517 72.081 295.051 75.206 295.051H170.92C174.045 295.051 176.578 292.517 176.578 289.392V235.497C176.578 232.372 174.045 229.839 170.92 229.839Z" fill="#47C48E"/>
<path d="M156.969 249.221C159.962 249.221 162.388 246.794 162.388 243.801C162.388 240.808 159.962 238.382 156.969 238.382C153.976 238.382 151.549 240.808 151.549 243.801C151.549 246.794 153.976 249.221 156.969 249.221Z" fill="#39405F"/>
<path d="M167.816 243.801C167.816 246.797 165.392 249.221 162.397 249.221C159.401 249.221 156.977 246.788 156.977 243.801C156.977 240.814 159.41 238.382 162.397 238.382C165.384 238.382 167.816 240.814 167.816 243.801Z" fill="white"/>
<path d="M138.191 242.239H78.8254V245.022H138.191V242.239Z" fill="white"/>
<path d="M98.6337 273.825H78.8253V276.608H98.6337V273.825Z" fill="#39405F"/>
<path d="M121.677 273.825H101.868V276.608H121.677V273.825Z" fill="#39405F"/>
<path d="M167.814 273.825H125.091V276.608H167.814V273.825Z" fill="#39405F"/>
<path d="M114.039 281.643H78.8254V284.425H114.039V281.643Z" fill="#39405F"/>
<path d="M127.907 281.643H117.068V284.425H127.907V281.643Z" fill="#39405F"/>
<path d="M95.2542 252.959H80.7542C79.689 252.959 78.8254 253.822 78.8254 254.887V262.97C78.8254 264.035 79.689 264.898 80.7542 264.898H95.2542C96.3195 264.898 97.183 264.035 97.183 262.97V254.887C97.183 253.822 96.3195 252.959 95.2542 252.959Z" fill="white"/>
<path d="M88.0425 262.091H76.76V255.766H88.0425C89.7836 255.766 91.2003 257.183 91.2003 258.924C91.2003 260.665 89.7836 262.082 88.0425 262.082V262.091ZM77.5196 261.322H88.0425C89.3654 261.322 90.4407 260.247 90.4407 258.924C90.4407 257.601 89.3654 256.526 88.0425 256.526H77.5196V261.322Z" fill="#47C48E"/>
<path d="M98.6164 258.54H90.8245V259.308H98.6164V258.54Z" fill="#47C48E"/>
<path d="M129.46 209.143C129.46 209.143 121.198 222.661 112.886 236.794C111.819 238.604 106.613 240.166 104.522 240.251C100.298 240.43 98.1298 236.061 99.3929 232.237C99.3929 232.237 107.313 212.437 113.338 204.79C114.567 203.229 119.381 199.764 123.076 201.726L129.46 209.151V209.143Z" fill="#39405F"/>
<path d="M108.79 267.331L108.679 260.529L100.981 260.819L101.117 267.186L108.79 267.331Z" fill="#FCC1BD"/>
<path d="M105.094 265.402C105.094 265.402 108.687 263.678 111 268.133L114.687 274.926C115.003 275.532 114.712 276.283 114.072 276.522C113.637 276.684 113.142 276.565 112.835 276.224L110.087 273.313L111.375 283.324C111.503 284.075 110.932 284.767 110.164 284.775C109.575 284.775 109.063 284.365 108.943 283.794L107.637 277.111L107.296 277.06L107.654 284.161C107.629 284.912 106.92 285.449 106.187 285.279C105.632 285.151 105.248 284.647 105.273 284.075L104.548 277.026L104.138 276.915L103.737 283.23C103.703 284.826 102.901 284.929 102.363 284.809C101.86 284.707 101.74 283.427 101.817 282.923V276.181L101.433 276.061L100.827 282.01C100.648 282.53 100.042 282.752 99.5723 282.471C99.2395 282.266 99.0773 281.865 99.1883 281.489L99.6321 274.576C99.6321 274.576 98.7104 267.595 101.894 266.247L105.094 265.402Z" fill="#FCC1BD"/>
<path d="M113.125 235.711L111.64 262.108L97.6347 262.202L98.565 235.506C98.5906 234.883 98.6588 234.251 98.8637 233.662C99.9817 230.453 103.617 228.712 106.895 230.061C109.455 231.111 113.492 232.98 113.116 235.719L113.125 235.711Z" fill="#39405F"/>
<path d="M457.292 233.441C457.292 233.441 461.551 238.817 464.973 252.105C465.562 254.401 464.154 256.74 461.841 257.277L440.181 262.304C437.33 262.961 434.582 260.614 434.958 257.713C435.35 254.606 434.958 250.475 434.138 245.201L457.301 233.441H457.292Z" fill="#1F0907"/>
<path d="M451.199 249.255C451.199 249.255 456.269 249.204 457.472 254.819C457.472 254.819 451.626 252.66 451.199 249.255Z" fill="#39405F"/>
<path d="M451.157 249.767C451.157 249.767 454.425 245.892 459.461 248.649C459.461 248.649 454.007 251.67 451.157 249.767Z" fill="#39405F"/>
<path d="M444.729 228.619C444.729 228.619 431.484 230.027 433.31 241.019L434.676 248.529L447.921 248.478L444.729 228.619Z" fill="#1F0907"/>
<path d="M459.767 238.834C461.065 245.525 455.193 246.464 448.178 247.821C441.171 249.178 435.683 250.441 434.386 243.75C433.089 237.059 437.723 229.976 444.73 228.619C451.736 227.262 458.47 232.143 459.767 238.826V238.834Z" fill="#1F0907"/>
<path d="M440.394 247.915C440.207 249.75 438.56 251.09 436.725 250.902C434.89 250.714 433.55 249.067 433.738 247.232C433.925 245.397 435.573 244.057 437.407 244.245C439.242 244.433 440.582 246.08 440.394 247.915Z" fill="#B96462"/>
<path d="M445.933 253.804L449.167 268.85L458.547 265.871L450.601 245.756L445.933 253.804Z" fill="#F5ACA7"/>
<path d="M436.69 235.395C436.033 236.257 435.052 238.51 435.035 239.611C435.001 242.871 435.094 247.787 436.733 250.894C438.858 254.93 442.246 257.977 447.41 255.758C447.41 255.758 453.7 253.71 453.503 244.808C453.187 230.624 442.306 227.996 436.69 235.395Z" fill="#F5ACA7"/>
<path d="M439.857 246.925L439.583 249.118L441.111 249.46" stroke="#1D0006" stroke-width="0.31" stroke-linecap="round" stroke-linejoin="round"/>
<path d="M444.559 244.22C444.662 244.655 444.389 245.099 443.945 245.201C443.501 245.303 443.066 245.03 442.963 244.587C442.861 244.143 443.134 243.707 443.578 243.605C444.013 243.503 444.457 243.776 444.559 244.22Z" fill="#210907"/>
<path d="M438.124 245.423C438.218 245.833 437.962 246.234 437.561 246.328C437.151 246.421 436.75 246.165 436.656 245.764C436.562 245.355 436.818 244.953 437.219 244.86C437.629 244.766 438.03 245.022 438.124 245.423Z" fill="#210907"/>
<path d="M438.175 242.897C438.175 242.897 438.363 243.648 437.211 243.596C436.34 243.562 435.786 243.528 435.282 243.614C434.992 243.656 434.693 243.528 434.557 243.315C434.454 243.136 434.48 242.939 434.633 242.811C434.949 242.547 435.598 242.154 436.665 242.188C438.03 242.231 438.175 242.905 438.175 242.905V242.897Z" fill="#210907"/>
<path d="M441.768 241.949C441.768 241.949 441.785 242.743 443.151 242.171C444.183 241.736 445.523 241.412 446.155 241.258C446.513 241.173 446.838 240.908 446.923 240.644C446.991 240.43 446.897 240.251 446.667 240.2C446.197 240.089 444.619 240.063 443.355 240.575C441.734 241.232 441.768 241.949 441.768 241.949Z" fill="#210907"/>
<path d="M450.439 236.257L451.105 245.039L457.728 237.307L450.439 236.257Z" fill="#1F0907"/>
<path d="M438.252 232.8C438.252 232.8 444.61 239.696 454.297 240.524C454.297 240.524 457.95 239.474 452.744 233.842C447.538 228.217 438.252 232.8 438.252 232.8Z" fill="#1F0907"/>
<path d="M458.146 245.329C457.941 247.318 456.166 248.76 454.177 248.555C452.189 248.35 450.746 246.575 450.951 244.587C451.156 242.598 452.931 241.156 454.92 241.361C456.908 241.565 458.351 243.341 458.146 245.329Z" fill="#F5ACA7"/>
<path d="M455.705 243.827C455.705 243.827 452.991 243.469 453.025 246.387" stroke="#1D0006" stroke-width="0.31" stroke-linecap="round" stroke-linejoin="round"/>
<path d="M454.126 248.777L453.204 248.325L439.592 248.197L436.349 250.074C436.349 250.074 436.161 256.33 444.269 260.179C444.269 260.179 453.025 256.987 454.126 248.786V248.777Z" fill="#39405F"/>
<path d="M488.87 346.453L492.002 357.42L506.501 372L497.601 341.708L488.87 346.453Z" fill="#101010"/>
<path d="M501.672 340.419L497.601 341.708L506.886 372.782L510.957 371.493L501.672 340.419Z" fill="white"/>
<path d="M476.828 361.15L473.636 349.978L488.87 346.453L492.062 357.625L476.828 361.15Z" fill="#F5ACA7"/>
<path d="M450.772 310.182C450.413 311.232 443.21 347.58 440.607 361.286C439.447 367.389 444.439 372.91 450.627 372.373L486.719 363.599L481.88 346.735L464.265 349.961L473.508 323.743L450.772 310.182Z" fill="#1F0C07"/>
<path d="M422.907 358.129L411.505 357.932L392.465 367.696L424.904 367.867L422.907 358.129Z" fill="#101010"/>
<path d="M424.939 372.142L424.904 367.867L392.465 367.696L392.508 371.963L424.939 372.142Z" fill="white"/>
<path d="M408.945 341.819L420.569 342.024L422.907 358.129L411.283 357.932L408.945 341.819Z" fill="#F5ACA7"/>
<path d="M479.055 306.273C479.055 306.273 438.602 299.966 413.698 295.725C405.915 294.402 399.155 301.136 400.444 308.919L408.953 351.608H429.785L425.672 318.623L460.945 329.06C475.112 331.672 481.291 320.953 479.942 312.162L479.038 306.256L479.055 306.273Z" fill="#1F0C07"/>
<path d="M411.565 259.505C410.063 257.815 408.347 256.33 406.461 255.075L402.211 252.242C401.281 251.551 400.18 251.107 399.028 250.97L389.563 250.928C388.838 250.842 388.198 251.371 388.146 252.097C388.104 252.703 388.505 253.257 389.094 253.411L397.056 254.179L399.181 255.826C398.55 255.306 397.381 255.425 397.005 256.151C396.741 256.663 396.758 257.422 397.176 257.815L403.09 262.662C404.328 263.849 406.094 264.284 407.741 263.832L410.703 268.56L416.156 264.668L411.556 259.505H411.565Z" fill="#F5ACA7"/>
<path d="M418.81 289.572L406.264 268.56L416.096 260.17L432.457 281.848C434.744 286.021 432.815 291.261 428.369 292.951C424.784 294.308 420.739 292.883 418.81 289.572Z" fill="#39405F"/>
<path d="M422.728 278.895L459.298 263.251L466.014 278.656L428.804 293.352C424.392 295.136 419.416 292.61 418.255 287.993C417.325 284.272 419.211 280.423 422.728 278.895Z" fill="#39405F"/>
<path d="M438.909 289.367L449.62 285.134L445.225 274.696L438.909 289.367Z" fill="#1D1F30"/>
<path d="M482.665 297.611L461.15 274.534C458.043 271.205 458.214 265.991 461.517 262.867C464.922 259.65 470.324 259.897 473.422 263.413L494.195 287.003C497.37 290.553 496.679 296.083 492.727 298.746C489.544 300.888 485.285 300.41 482.648 297.628L482.665 297.611Z" fill="#39405F"/>
<path d="M520.183 324.315H455.739C450.908 324.315 446.991 328.232 446.991 333.063V333.071C446.991 337.903 450.908 341.819 455.739 341.819H520.183C525.014 341.819 528.931 337.903 528.931 333.071V333.063C528.931 328.232 525.014 324.315 520.183 324.315Z" fill="#F4F4F4"/>
<path d="M471.161 329.99L469.087 332.721V332.764L472.39 332.329V333.814L469.087 333.421V333.464L471.187 336.084L469.813 336.869L468.498 333.805H468.456L467.039 336.886L465.793 336.101L467.867 333.43V333.387L464.632 333.805V332.32L467.841 332.739V332.696L465.784 330.025L467.116 329.265L468.473 332.303H468.515L469.847 329.239L471.161 329.982V329.99Z" fill="black"/>
<path d="M484.987 329.99L482.914 332.721V332.764L486.216 332.329V333.814L482.914 333.421V333.464L485.013 336.084L483.639 336.869L482.325 333.805H482.282L480.865 336.886L479.619 336.101L481.693 333.43V333.387L478.459 333.805V332.32L481.668 332.738V332.696L479.611 330.024L480.942 329.265L482.299 332.303H482.342L483.673 329.239L484.987 329.982V329.99Z" fill="black"/>
<path d="M498.813 329.99L496.739 332.721V332.764L500.042 332.329V333.814L496.739 333.421V333.464L498.839 336.084L497.465 336.869L496.15 333.805H496.108L494.691 336.886L493.445 336.101L495.519 333.43V333.387L492.284 333.805V332.32L495.493 332.738V332.696L493.436 330.024L494.768 329.265L496.125 332.303H496.167L497.499 329.239L498.813 329.982V329.99Z" fill="black"/>
<path d="M512.639 329.99L510.565 332.721V332.764L513.868 332.329V333.814L510.565 333.421V333.464L512.664 336.084L511.29 336.869L509.976 333.805H509.933L508.517 336.886L507.271 336.101L509.344 333.43V333.387L506.11 333.805V332.32L509.319 332.738V332.696L507.262 330.024L508.593 329.265L509.95 332.303H509.993L511.324 329.239L512.639 329.982V329.99Z" fill="black"/>
<path d="M483.024 323.615C482.811 324.29 483.041 325.024 483.613 325.433C484.39 325.996 485.482 325.775 485.977 324.947L486.378 324.272C487.257 324.759 488.469 326.116 487.18 330.596C486.967 331.348 487.402 332.133 488.153 332.355C488.742 332.525 489.348 332.295 489.689 331.825C489.707 331.8 489.715 331.783 489.732 331.757C489.869 332.201 490.219 332.568 490.697 332.704C491.285 332.875 491.891 332.645 492.233 332.175C492.275 332.116 492.318 332.047 492.352 331.979C492.514 332.141 492.719 332.269 492.958 332.338C493.547 332.508 494.153 332.278 494.494 331.808C494.588 331.68 494.665 331.527 494.708 331.365C494.725 331.305 494.733 331.254 494.75 331.194C494.776 331.194 494.793 331.211 494.819 331.22C495.407 331.39 496.013 331.16 496.355 330.69C496.449 330.562 496.526 330.409 496.568 330.247C496.927 329.009 497.123 327.865 497.191 326.824C497.191 326.824 497.191 326.807 497.191 326.773C497.217 326.278 497.208 325.817 497.174 325.373C497.097 323.257 496.722 319.237 495.1 316.182L484.637 318.546L482.998 323.607L483.024 323.615Z" fill="#F5ACA7"/>
<path d="M486.378 324.281L481.744 324.315L482.102 326.833H486.378V324.281Z" fill="#F4F4F4"/>
<path d="M496.141 291.312L497.072 317.197L482.042 318.879L480.523 292.678C480.173 287.933 484.099 283.964 488.853 284.28C492.676 284.528 495.766 287.506 496.15 291.321L496.141 291.312Z" fill="#39405F"/>
<path d="M450.883 266.418L444.508 280.337L450.892 301.827L479.056 306.282L472.51 272.46C471.793 265.257 463.412 261.527 463.412 261.527L450.883 266.426V266.418Z" fill="#39405F"/>
<path d="M475.992 290.451L469.019 282.974L478.228 301.981L475.992 290.451Z" fill="#1D1F30"/>
<path d="M446.65 272.016C446.65 272.016 439.054 283.324 447.358 291.167C453.793 297.244 457.728 287.532 457.728 287.532L455.543 280.329L446.65 272.016Z" fill="#39405F"/>
<path d="M447.384 271.786L446.659 266.273C446.556 265.419 447.043 264.591 447.845 264.276L456.738 260.734C457.463 260.444 458.291 260.631 458.82 261.195L462.225 264.796L447.384 271.794V271.786Z" fill="#39405F"/>
<path d="M518.561 129.5L524.8 138.947L543.473 149.061L525.415 122.399L518.561 129.5Z" fill="#101010"/>
<path d="M528.888 119.967L525.414 122.399L543.473 149.061L546.947 146.637L528.888 119.967Z" fill="white"/>
<path d="M512.562 149.394L506.203 139.767L518.561 129.5L524.919 139.135L512.562 149.394Z" fill="#FCC1BD"/>
<path d="M443.441 141.713L446.88 138.529L486.207 152.5L509.37 133.835L520.388 146.927L497.447 166.121C490.124 172.052 488.759 172.129 482.751 171.182C482.708 171.182 473.09 165.848 473.09 165.848L463.13 163.808L443.441 141.721V141.713Z" fill="#1F0C07"/>
<path d="M531.696 165.43L532.592 176.721L544.054 194.592L541.127 162.528L531.696 165.43Z" fill="#101010"/>
<path d="M545.342 162.076L541.126 162.528L544.054 194.592L548.27 194.148L545.342 162.076Z" fill="white"/>
<path d="M516.828 179.947L515.915 168.442L531.695 165.43L532.609 176.934L516.828 179.947Z" fill="#FCC1BD"/>
<path d="M445.975 134.928L438.61 156.4L473.439 184.427C473.439 184.427 473.507 184.47 473.533 184.496C477.988 187.491 483.297 188.934 488.656 188.652L524.919 181.978L523.545 164.619L487.939 169.936L462.063 148.643C462.063 148.643 455.713 134.868 445.975 134.945V134.928Z" fill="#1F0C07"/>
<path d="M380.969 94.3636C380.969 94.3636 371.325 93.2114 370.65 103.581C370.335 108.437 375.873 110.135 381.318 108.454L380.969 94.355V94.3636Z" fill="#1F0C07"/>
<path d="M393.599 117.279L403.38 124.96L409.243 115.717L394.564 107.421L393.599 117.279Z" fill="#FCC1BD"/>
<path d="M377.453 100.525C377.453 100.525 373.74 104.366 377.453 109.862C377.453 109.862 378.827 111.987 382.812 117.646C384.92 120.641 389.563 123.09 393.105 120.129C394.82 118.695 395.998 116.263 396.74 113.634L397.491 109.521C398.473 98.8868 385.654 92.5287 377.999 99.9707C377.82 100.15 377.632 100.329 377.453 100.525Z" fill="#FCC1BD"/>
<path d="M380.738 113.711L381.353 118.2C381.361 118.61 381.754 118.985 382.146 118.755L384.314 117.671L380.738 113.72V113.711Z" fill="#FCC1BD"/>
<path d="M391.415 107.66C391.415 107.66 387.489 107.831 385.842 102.779C385.842 102.779 378.195 107.729 374.44 103.769C374.44 103.769 373.68 96.1473 382.897 93.7406C392.115 91.3339 393.864 99.6037 393.864 99.6037L391.423 107.669L391.415 107.66Z" fill="#1F0C07"/>
<path d="M394.914 107.131C394.914 107.131 393.019 110.681 398.661 109.734C398.661 109.734 398.422 108.514 398.814 106.67C399.198 104.827 400.828 85.9657 380.977 94.355L386.465 96.7618L394.923 107.123L394.914 107.131Z" fill="#1F0C07"/>
<path d="M395.938 103.393C397.15 104.784 397.013 106.892 395.622 108.113C394.231 109.324 392.123 109.188 390.903 107.797C389.691 106.406 389.827 104.298 391.218 103.077C392.609 101.865 394.717 102.002 395.938 103.393Z" fill="#FCC1BD"/>
<path d="M393.139 107.6C393.139 107.6 392.209 106.116 393.515 104.374" stroke="black" stroke-width="0.35" stroke-linecap="round" stroke-linejoin="round"/>
<path d="M383 112.243C383.205 112.576 383.094 113.02 382.761 113.216C382.428 113.412 381.984 113.31 381.788 112.977C381.583 112.644 381.694 112.2 382.027 112.004C382.36 111.799 382.804 111.91 383 112.243Z" fill="#1F0C07"/>
<path d="M378.383 111.851C378.383 111.851 379.296 112.474 379.876 111.236C380.312 110.297 381.14 109.265 381.532 108.778C381.754 108.505 381.754 108.104 381.532 107.848C381.353 107.635 381.063 107.558 380.798 107.643C380.261 107.822 378.801 108.719 378.255 109.854C377.547 111.313 378.391 111.859 378.391 111.859L378.383 111.851Z" fill="#1F0C07"/>
<path d="M398.908 105.979L381.174 116.895C381.174 116.895 378.989 122.314 391.534 125.967L398.669 109.743L398.917 105.988L398.908 105.979Z" fill="#39405F"/>
<path d="M397.167 108.292C397.167 108.292 401.682 106.525 404.66 111.142C404.66 111.142 398.695 111.193 397.167 108.292Z" fill="#39405F"/>
<path d="M398.49 108.283C398.49 108.283 398.575 103.436 403.978 102.437C403.978 102.437 401.75 107.967 398.49 108.283Z" fill="#39405F"/>
<path d="M442 0.999895L442 135" stroke="#1F0C07" stroke-width="0.99" stroke-linecap="round" stroke-linejoin="round"/>
<path d="M400.99 160.864L372.016 166.445L370.668 160.48L401.528 148.224L400.99 160.864Z" fill="#FCC1BD"/>
<path d="M371.248 159.95C371.248 159.95 359.812 158.645 360.939 164.397C362.065 170.149 367.092 176.832 376.395 164.183L371.248 159.95Z" fill="#FCC1BD"/>
<path d="M364.105 161.222C364.105 161.222 362.526 155.589 373.108 160.078L373.697 163.543L370.804 165.6L364.105 161.222Z" fill="#FCC1BD"/>
<path d="M419.152 128.279C419.152 128.279 411.112 147.507 404.523 158.508C403.388 160.403 401.135 161.299 398.993 160.77C396.083 160.044 394.444 156.955 395.477 154.139L407.348 121.358L419.143 128.279H419.152Z" fill="#FCC1BD"/>
<path d="M414.671 114.846C414.671 114.846 428.378 125.804 418.461 143.667L398.337 139.451C398.337 139.451 402.595 108.454 414.663 114.846H414.671Z" fill="#39405F"/>
<path d="M403.875 125.275L408.023 115.136C408.023 115.136 416.813 108.676 432.32 120.393C445.386 130.268 451.975 136.66 451.975 136.66L439.19 156.998C403.977 132.982 403.875 125.284 403.875 125.284V125.275Z" fill="#39405F"/>
<path d="M418.042 141.405L424.605 146.492L420.423 127.05L418.042 141.405Z" fill="#1D1F30"/>
<path d="M442.971 128.424C442.971 128.424 446.829 139.451 436.886 155.41" stroke="#1F0C07" stroke-width="0.99" stroke-linecap="round" stroke-linejoin="round"/>
<path d="M54.0002 372H506" stroke="#39405F" stroke-width="3" stroke-miterlimit="10" stroke-linecap="round"/>
</svg>
