<svg width="12" height="8" viewBox="0 0 12 8" fill="none" xmlns="http://www.w3.org/2000/svg">
<path d="M10.7868 1.35389C10.7283 1.1368 10.6139 0.938862 10.4549 0.779893C10.296 0.620923 10.098 0.506495 9.88095 0.448061C9.08148 0.23169 5.86891 0.231689 5.86891 0.231689C5.86891 0.231689 2.65634 0.23169 1.85686 0.448061C1.63977 0.506495 1.44184 0.620923 1.28287 0.779893C1.1239 0.938862 1.00947 1.1368 0.951038 1.35389C0.801758 2.16923 0.729317 2.99678 0.734666 3.82566C0.729317 4.65454 0.801758 5.48209 0.951038 6.29743C1.00947 6.51452 1.1239 6.71245 1.28287 6.87142C1.44184 7.03039 1.63977 7.14482 1.85686 7.20326C2.65634 7.41963 5.86891 7.41963 5.86891 7.41963C5.86891 7.41963 9.08148 7.41963 9.88095 7.20326C10.098 7.14482 10.296 7.03039 10.4549 6.87142C10.6139 6.71245 10.7283 6.51452 10.7868 6.29743C10.9361 5.48209 11.0085 4.65454 11.0031 3.82566C11.0085 2.99678 10.9361 2.16923 10.7868 1.35389ZM4.84206 5.36593V2.28539L7.5082 3.82566L4.84206 5.36593Z" fill="#F0F3FF"/>
</svg>
